<svg width="28" height="36" viewBox="0 0 28 36" fill="none" xmlns="http://www.w3.org/2000/svg" xmlns:xlink="http://www.w3.org/1999/xlink">
<mask id="mask_0_76_3550" style="mask-type:alpha" maskUnits="userSpaceOnUse" x="0" y="-0.000061" width="13.5" height="18">
<rect  x="0" y="0" width="27" height="36" fill="#000000"/>
</mask>
<g mask="url(#mask_0_76_3550)">
<path d="M22.409,18.893C22.394,16.312 23.562,14.365 25.924,12.93C24.602,11.039 22.605,9.998 19.969,9.794C17.473,9.598 14.745,11.25 13.746,11.25C12.691,11.25 10.273,9.865 8.374,9.865C4.451,9.928 0.281,12.994 0.281,19.23C0.281,21.073 0.619,22.976 1.294,24.94C2.194,27.52 5.442,33.848 8.831,33.743C10.603,33.701 11.855,32.484 14.161,32.484C16.397,32.484 17.557,33.743 19.533,33.743C22.95,33.694 25.889,27.942 26.747,25.355C22.162,23.196 22.409,19.026 22.409,18.893L22.409,18.893ZM18.429,7.348C20.348,5.069 20.173,2.995 20.116,2.25C18.422,2.348 16.46,3.403 15.342,4.704C14.112,6.096 13.387,7.819 13.542,9.759C15.377,9.9 17.051,8.958 18.429,7.348Z" clip-rule="evenodd" fill-rule="evenodd" fill="#000000"/>
</g>
</svg>
