<svg width="28" height="38" viewBox="0 0 28 38" fill="none" xmlns="http://www.w3.org/2000/svg" xmlns:xlink="http://www.w3.org/1999/xlink">
<mask id="mask_0_77_769" style="mask-type:alpha" maskUnits="userSpaceOnUse" x="0" y="0.500854" width="13.5" height="18">
<rect  x="0" y="0.501" width="27" height="36" fill="#000000"/>
</mask>
<g mask="url(#mask_0_77_769)">
<path d="M22.409,19.394C22.394,16.813 23.562,14.866 25.924,13.431C24.602,11.54 22.605,10.499 19.969,10.295C17.473,10.098 14.745,11.751 13.746,11.751C12.691,11.751 10.273,10.366 8.374,10.366C4.451,10.429 0.281,13.495 0.281,19.731C0.281,21.573 0.619,23.477 1.294,25.441C2.194,28.021 5.442,34.349 8.831,34.244C10.603,34.202 11.855,32.985 14.161,32.985C16.397,32.985 17.557,34.244 19.533,34.244C22.95,34.195 25.889,28.443 26.747,25.855C22.162,23.697 22.409,19.527 22.409,19.394L22.409,19.394ZM18.429,7.849C20.348,5.57 20.173,3.496 20.116,2.751C18.422,2.849 16.46,3.904 15.342,5.205C14.112,6.597 13.387,8.32 13.542,10.26C15.377,10.401 17.051,9.459 18.429,7.849L18.429,7.849Z" clip-rule="evenodd" fill-rule="evenodd" fill="#000000"/>
</g>
</svg>
