<svg width="98" height="118" viewBox="0 0 98 118" fill="none" xmlns="http://www.w3.org/2000/svg" xmlns:xlink="http://www.w3.org/1999/xlink">
<path d="M76.822,22.871L15.73,22.871C13.705,22.871 11.763,21.882 10.33,20.123C8.898,18.365 8.094,15.979 8.094,13.492C8.094,11.004 8.898,8.619 10.33,6.86C11.763,5.101 13.705,4.113 15.73,4.113L76.822,4.113L76.822,22.871Z" fill="#FFFFFF"/>
<path d="M80.64,27.56L80.64,107.28C80.64,108.524 80.238,109.717 79.522,110.596C78.806,111.476 77.835,111.97 76.822,111.97L15.73,111.97C13.705,111.97 11.763,110.982 10.33,109.223C8.898,107.464 8.094,105.078 8.094,102.591L8.094,13.492C8.094,15.979 8.898,18.365 10.33,20.124C11.763,21.882 13.705,22.871 15.73,22.871L76.822,22.871C77.835,22.871 78.806,23.365 79.522,24.244C80.238,25.123 80.64,26.316 80.64,27.56Z" fill="#66E1FF"/>
<path d="M21.136,102.591L21.136,22.871L15.711,22.871C13.685,22.871 11.743,21.882 10.311,20.124C8.879,18.365 8.074,15.979 8.074,13.492L8.074,102.591C8.074,105.078 8.879,107.464 10.311,109.223C11.743,110.982 13.685,111.97 15.711,111.97L28.773,111.97C26.748,111.97 24.805,110.982 23.373,109.223C21.941,107.464 21.136,105.078 21.136,102.591Z" fill="#C2F3FF"/>
<path d="M48.506,114.08C49.672,114.08 50.617,113.135 50.617,111.97C50.617,110.804 49.672,109.859 48.506,109.859L48.506,114.08ZM10.216,13.492C10.216,12.326 9.271,11.381 8.105,11.381C6.94,11.381 5.995,12.326 5.995,13.492L10.216,13.492ZM48.506,109.859L15.742,109.859L15.742,114.08L48.506,114.08L48.506,109.859ZM15.742,109.859C14.433,109.859 13.065,109.223 11.979,107.89L8.705,110.555C10.484,112.74 13.001,114.08 15.742,114.08L15.742,109.859ZM11.979,107.89C10.884,106.545 10.216,104.643 10.216,102.591L5.995,102.591C5.995,105.514 6.936,108.383 8.705,110.555L11.979,107.89ZM10.216,102.591L10.216,13.492L5.995,13.492L5.995,102.591L10.216,102.591Z" fill="#191919"/>
<path d="M80.652,6.224C81.817,6.224 82.762,5.279 82.762,4.113C82.762,2.947 81.817,2.002 80.652,2.002L80.652,6.224ZM10.342,6.86L11.979,8.193L11.979,8.193L10.342,6.86ZM10.342,20.123L11.979,18.791L11.979,18.791L10.342,20.123ZM79.534,24.244L81.171,22.912L81.17,22.911L79.534,24.244ZM78.541,58.163C78.541,59.329 79.486,60.274 80.652,60.274C81.817,60.274 82.762,59.329 82.762,58.163L78.541,58.163ZM80.652,2.002L15.742,2.002L15.742,6.224L80.652,6.224L80.652,2.002ZM15.742,2.002C13,2.002 10.484,3.343 8.705,5.527L11.979,8.193C13.065,6.859 14.433,6.224 15.742,6.224L15.742,2.002ZM8.705,5.527C6.936,7.7 5.995,10.569 5.995,13.492L10.216,13.492C10.216,11.44 10.884,9.538 11.979,8.193L8.705,5.527ZM5.995,13.492C5.995,16.415 6.936,19.284 8.705,21.456L11.979,18.791C10.884,17.445 10.216,15.544 10.216,13.492L5.995,13.492ZM8.705,21.456C10.484,23.641 13,24.981 15.742,24.981L15.742,20.76C14.433,20.76 13.065,20.124 11.979,18.791L8.705,21.456ZM15.742,24.981L76.834,24.981L76.834,20.76L15.742,20.76L15.742,24.981ZM76.834,24.981C77.13,24.981 77.527,25.123 77.897,25.577L81.17,22.911C80.108,21.606 78.562,20.76 76.834,20.76L76.834,24.981ZM77.896,25.576C78.276,26.042 78.541,26.752 78.541,27.56L82.762,27.56C82.762,25.881 82.223,24.204 81.171,22.912L77.896,25.576ZM78.541,27.56L78.541,58.163L82.762,58.163L82.762,27.56L78.541,27.56Z" fill="#191919"/>
<line x1="15.742" y1="11.381" x2="76.834" y2="11.381" stroke="#191919" stroke-width="2.111" stroke-miterlimit="3.999327" stroke-linecap="round" stroke-linejoin="round"/>
<path d="M63.585,102.868C67.006,102.868 70.349,101.622 73.193,99.288C76.037,96.955 78.253,93.637 79.562,89.757C80.871,85.876 81.213,81.606 80.546,77.486C79.879,73.366 78.232,69.582 75.814,66.611C73.395,63.641 70.314,61.618 66.959,60.799C63.605,59.98 60.128,60.4 56.968,62.008C53.808,63.615 51.107,66.337 49.207,69.83C47.307,73.322 46.293,77.429 46.293,81.629C46.293,87.262 48.115,92.664 51.358,96.647C54.601,100.63 58.999,102.868 63.585,102.868Z" fill="#FFFFFF" stroke="#191919" stroke-width="2.111" stroke-miterlimit="3.999327" stroke-linecap="round" stroke-linejoin="round"/>
<path d="M86.651,113.303C87.387,114.207 88.717,114.343 89.621,113.607C90.525,112.871 90.661,111.542 89.925,110.638L86.651,113.303ZM77.532,95.411C76.796,94.507 75.466,94.371 74.562,95.107C73.658,95.843 73.522,97.172 74.258,98.076L77.532,95.411ZM89.925,110.638L77.532,95.411L74.258,98.076L86.651,113.303L89.925,110.638Z" fill="#191919"/>
<path d="M63.585,102.868C67.006,102.868 70.349,101.622 73.193,99.288C76.037,96.955 78.253,93.637 79.562,89.757C80.871,85.876 81.213,81.606 80.546,77.486C79.879,73.366 78.232,69.582 75.814,66.611C73.395,63.641 70.314,61.618 66.959,60.799C63.605,59.98 60.128,60.4 56.968,62.008C53.808,63.615 51.107,66.337 49.207,69.83C47.307,73.322 46.293,77.429 46.293,81.629C46.293,87.262 48.115,92.664 51.358,96.647C54.601,100.63 58.999,102.868 63.585,102.868Z" fill="#E3E3E3"/>
<path d="M63.584,60.386C60.158,60.385 56.809,61.636 53.962,63.977C51.115,66.318 48.899,69.646 47.595,73.537C46.29,77.427 45.957,81.707 46.636,85.831C47.316,89.956 48.978,93.739 51.411,96.701L75.848,66.689C74.246,64.693 72.336,63.108 70.231,62.026C68.125,60.944 65.866,60.387 63.584,60.386Z" fill="#FFFFFF"/>
<path d="M73.193,99.288L71.854,97.657L71.854,97.657L73.193,99.288ZM79.562,89.757L81.562,90.431L81.562,90.431L79.562,89.757ZM80.546,77.486L82.63,77.148L82.63,77.148L80.546,77.486ZM75.814,66.611L77.45,65.279L77.45,65.278L75.814,66.611ZM66.959,60.799L67.46,58.748L67.46,58.748L66.959,60.799ZM56.968,62.008L57.925,63.889L57.925,63.889L56.968,62.008ZM49.207,69.83L51.061,70.839L51.062,70.838L49.207,69.83ZM51.358,96.647L49.721,97.98L49.721,97.98L51.358,96.647ZM63.585,104.979C67.533,104.979 71.341,103.538 74.532,100.92L71.854,97.657C69.357,99.706 66.479,100.757 63.585,100.757L63.585,104.979ZM74.532,100.92C77.716,98.308 80.142,94.643 81.562,90.431L77.562,89.082C76.365,92.632 74.358,95.602 71.854,97.657L74.532,100.92ZM81.562,90.431C82.983,86.219 83.351,81.601 82.63,77.148L78.463,77.823C79.076,81.611 78.759,85.533 77.562,89.082L81.562,90.431ZM82.63,77.148C81.909,72.697 80.123,68.561 77.45,65.279L74.177,67.944C76.341,70.602 77.849,74.035 78.463,77.823L82.63,77.148ZM77.45,65.278C74.775,61.993 71.31,59.689 67.46,58.748L66.458,62.849C69.317,63.548 72.015,65.29 74.177,67.944L77.45,65.278ZM67.46,58.748C63.601,57.806 59.608,58.297 56.011,60.126L57.925,63.889C60.648,62.504 63.608,62.153 66.459,62.849L67.46,58.748ZM56.011,60.126C52.426,61.95 49.431,65.001 47.353,68.821L51.062,70.838C52.783,67.673 55.191,65.28 57.925,63.889L56.011,60.126ZM47.353,68.821C45.275,72.641 44.182,77.097 44.182,81.629L48.404,81.629C48.404,77.761 49.339,74.004 51.061,70.839L47.353,68.821ZM44.182,81.629C44.182,87.698 46.141,93.583 49.721,97.98L52.995,95.314C50.088,91.745 48.404,86.827 48.404,81.629L44.182,81.629ZM49.721,97.98C53.311,102.388 58.283,104.979 63.585,104.979L63.585,100.757C59.716,100.757 55.892,98.872 52.994,95.314L49.721,97.98Z" fill="#191919"/>
<path d="M86.651,113.302C87.386,114.206 88.716,114.343 89.62,113.607C90.525,112.872 90.661,111.542 89.926,110.638L86.651,113.302ZM77.532,95.402C76.796,94.498 75.467,94.361 74.563,95.097C73.658,95.832 73.521,97.162 74.257,98.066L77.532,95.402ZM89.926,110.638L77.532,95.402L74.257,98.066L86.651,113.302L89.926,110.638Z" fill="#191919"/>
</svg>
