<svg width="44" height="44" viewBox="0 0 44 44" fill="none" xmlns="http://www.w3.org/2000/svg" xmlns:xlink="http://www.w3.org/1999/xlink">
<path d="M42.451,41.864L38.194,41.864L38.194,18.454C38.194,18.062 37.877,17.745 37.485,17.745L27.553,17.745L27.553,1.429C27.553,1.037 27.236,0.719 26.844,0.719L8.4,0.719C8.008,0.719 7.69,1.037 7.69,1.429L7.69,41.864L1.306,41.864C0.914,41.864 0.596,42.182 0.596,42.574C0.596,42.965 0.914,43.283 1.306,43.283L42.451,43.283C42.842,43.283 43.16,42.965 43.16,42.574C43.16,42.182 42.842,41.864 42.451,41.864ZM15.494,41.864L12.656,41.864L12.656,35.48C12.656,35.088 12.974,34.77 13.365,34.77L14.784,34.77C15.176,34.77 15.494,35.088 15.494,35.48L15.494,41.864ZM18.331,18.454L18.331,41.864L16.912,41.864L16.912,35.48C16.912,34.304 15.96,33.352 14.784,33.352L13.365,33.352C12.19,33.352 11.237,34.304 11.237,35.48L11.237,41.864L9.109,41.864L9.109,2.138L26.135,2.138L26.135,17.745L19.041,17.745C18.649,17.745 18.331,18.062 18.331,18.454ZM36.776,41.864L19.75,41.864L19.75,19.164L36.776,19.164L36.776,41.864Z" transform="rotate(360 21.878 22.001)" fill="#84829A"/>
<path d="M24.716,10.653L20.46,10.653C20.068,10.653 19.751,10.97 19.751,11.362L19.751,15.619C19.751,16.01 20.068,16.328 20.46,16.328L24.716,16.328C25.108,16.328 25.426,16.01 25.426,15.619L25.426,11.362C25.426,10.97 25.108,10.653 24.716,10.653ZM24.007,14.909L21.169,14.909L21.169,12.072L24.007,12.072L24.007,14.909Z" transform="rotate(360 22.588 13.49)" fill="#84829A"/>
<path d="M24.716,3.555L20.46,3.555C20.068,3.555 19.751,3.873 19.751,4.265L19.751,8.521C19.751,8.913 20.068,9.23 20.46,9.23L24.716,9.23C25.108,9.23 25.426,8.913 25.426,8.521L25.426,4.265C25.426,3.873 25.108,3.555 24.716,3.555ZM24.007,7.812L21.169,7.812L21.169,4.974L24.007,4.974L24.007,7.812Z" transform="rotate(360 22.588 6.393)" fill="#84829A"/>
<path d="M31.81,10.653L27.554,10.653C27.162,10.653 26.844,10.97 26.844,11.362L26.844,15.619C26.844,16.01 27.162,16.328 27.554,16.328L31.81,16.328C32.202,16.328 32.52,16.01 32.52,15.619L32.52,11.362C32.52,10.97 32.202,10.653 31.81,10.653ZM31.101,14.909L28.263,14.909L28.263,12.072L31.101,12.072L31.101,14.909Z" transform="rotate(360 29.682 13.49)" fill="#84829A"/>
<path d="M31.81,3.555L27.554,3.555C27.162,3.555 26.844,3.873 26.844,4.265L26.844,8.521C26.844,8.913 27.162,9.23 27.554,9.23L31.81,9.23C32.202,9.23 32.52,8.913 32.52,8.521L32.52,4.265C32.52,3.873 32.202,3.555 31.81,3.555ZM31.101,7.812L28.263,7.812L28.263,4.974L31.101,4.974L31.101,7.812Z" transform="rotate(360 29.682 6.393)" fill="#84829A"/>
<path d="M31.81,17.747L27.554,17.747C27.162,17.747 26.844,18.064 26.844,18.456L26.844,22.712C26.844,23.104 27.162,23.422 27.554,23.422L31.81,23.422C32.202,23.422 32.52,23.104 32.52,22.712L32.52,18.456C32.52,18.064 32.202,17.747 31.81,17.747ZM31.101,22.003L28.263,22.003L28.263,19.165L31.101,19.165L31.101,22.003Z" transform="rotate(360 29.682 20.584)" fill="#84829A"/>
<path d="M31.81,24.84L27.554,24.84C27.162,24.84 26.844,25.158 26.844,25.55L26.844,29.806C26.844,30.198 27.162,30.516 27.554,30.516L31.81,30.516C32.202,30.516 32.52,30.198 32.52,29.806L32.52,25.55C32.52,25.158 32.202,24.84 31.81,24.84ZM31.101,29.097L28.263,29.097L28.263,26.259L31.101,26.259L31.101,29.097Z" transform="rotate(360 29.682 27.678)" fill="#84829A"/>
<path d="M9.819,33.348L14.076,33.348C14.468,33.348 14.785,33.03 14.785,32.638L14.785,28.382C14.785,27.99 14.468,27.672 14.076,27.672L9.819,27.672C9.428,27.672 9.11,27.99 9.11,28.382L9.11,32.638C9.11,33.03 9.428,33.348 9.819,33.348ZM10.529,29.091L13.366,29.091L13.366,31.929L10.529,31.929L10.529,29.091Z" transform="rotate(360 11.948 30.51)" fill="#84829A"/>
<path d="M9.819,26.258L14.076,26.258C14.468,26.258 14.785,25.94 14.785,25.548L14.785,21.292C14.785,20.9 14.468,20.583 14.076,20.583L9.819,20.583C9.428,20.583 9.11,20.9 9.11,21.292L9.11,25.548C9.11,25.94 9.428,26.258 9.819,26.258ZM10.529,22.001L13.366,22.001L13.366,24.839L10.529,24.839L10.529,22.001Z" transform="rotate(360 11.948 23.42)" fill="#84829A"/>
<path d="M9.819,40.445L14.076,40.445C14.468,40.445 14.785,40.128 14.785,39.736L14.785,35.479C14.785,35.088 14.468,34.77 14.076,34.77L9.819,34.77C9.428,34.77 9.11,35.088 9.11,35.479L9.11,39.736C9.11,40.128 9.428,40.445 9.819,40.445ZM10.529,36.189L13.366,36.189L13.366,39.026L10.529,39.026L10.529,36.189Z" transform="rotate(360 11.948 37.608)" fill="#84829A"/>
<path d="M16.913,33.348L21.17,33.348C21.561,33.348 21.879,33.03 21.879,32.638L21.879,28.382C21.879,27.99 21.561,27.672 21.17,27.672L16.913,27.672C16.521,27.672 16.204,27.99 16.204,28.382L16.204,32.638C16.204,33.03 16.521,33.348 16.913,33.348ZM17.623,29.091L20.46,29.091L20.46,31.929L17.623,31.929L17.623,29.091Z" transform="rotate(360 19.041 30.51)" fill="#84829A"/>
<path d="M16.913,26.258L21.17,26.258C21.561,26.258 21.879,25.94 21.879,25.548L21.879,21.292C21.879,20.9 21.561,20.583 21.17,20.583L16.913,20.583C16.521,20.583 16.204,20.9 16.204,21.292L16.204,25.548C16.204,25.94 16.521,26.258 16.913,26.258ZM17.623,22.001L20.46,22.001L20.46,24.839L17.623,24.839L17.623,22.001Z" transform="rotate(360 19.041 23.42)" fill="#84829A"/>
<path d="M16.913,40.445L21.17,40.445C21.561,40.445 21.879,40.128 21.879,39.736L21.879,35.479C21.879,35.088 21.561,34.77 21.17,34.77L16.913,34.77C16.521,34.77 16.204,35.088 16.204,35.479L16.204,39.736C16.204,40.128 16.521,40.445 16.913,40.445ZM17.623,36.189L20.46,36.189L20.46,39.026L17.623,39.026L17.623,36.189Z" transform="rotate(360 19.041 37.608)" fill="#84829A"/>
</svg>
