<svg width="72" height="46" viewBox="0 0 72 46" fill="none" xmlns="http://www.w3.org/2000/svg" xmlns:xlink="http://www.w3.org/1999/xlink">
<path d="M68.906,21.602L68.906,38.469C68.906,41.611 66.346,44.157 63.187,44.157L6.003,44.157C5.339,44.162 4.68,44.047 4.059,43.816C8.862,43.133 13.494,42.28 18.04,41.313C19.241,41.086 20.413,40.801 21.586,40.545C40.485,36.25 56.84,29.936 66.047,23.735C67.076,23.024 68.048,22.313 68.906,21.602Z" fill="#EE7623"/>
<path d="M6.879,14.046L9.445,14.046L9.445,13.989C11.409,13.847 13.24,14.988 13.98,16.813C14.719,18.638 14.197,20.732 12.687,21.996C11.766,22.718 10.613,23.079 9.445,23.011L6.879,23.011L6.879,14.046ZM9.105,21.602C9.987,21.679 10.863,21.394 11.53,20.812C12.165,20.235 12.524,19.415 12.517,18.557C12.529,17.698 12.169,16.875 11.53,16.301C10.852,15.744 9.979,15.48 9.105,15.568L8.654,15.568L8.654,21.602L9.105,21.602Z" clip-rule="evenodd" fill-rule="evenodd" fill="#000000" fill-opacity="0.9"/>
<rect  x="15.125" y="14.031" width="1.762" height="9.05" fill="#000000" fill-opacity="0.9"/>
<path d="M21.214,17.499C20.157,17.119 19.805,16.851 19.805,16.358C19.805,15.864 20.354,15.357 21.116,15.357C21.671,15.38 22.187,15.648 22.525,16.09L23.442,14.891C22.718,14.23 21.771,13.868 20.791,13.876C20.069,13.83 19.36,14.081 18.827,14.571C18.295,15.061 17.986,15.747 17.972,16.47C17.972,17.725 18.536,18.359 20.185,18.951C20.609,19.087 21.02,19.262 21.412,19.473C21.744,19.665 21.948,20.02 21.947,20.403C21.945,20.765 21.791,21.11 21.523,21.354C21.255,21.597 20.898,21.718 20.538,21.686C19.715,21.695 18.965,21.221 18.62,20.474L17.479,21.573C18.145,22.702 19.384,23.365 20.693,23.293C21.506,23.349 22.306,23.06 22.896,22.497C23.486,21.934 23.812,21.148 23.794,20.333C23.794,18.895 23.216,18.232 21.214,17.499Z" fill="#000000" fill-opacity="0.9"/>
<path d="M24.373,18.557C24.361,19.823 24.863,21.039 25.764,21.929C26.664,22.819 27.886,23.306 29.152,23.279C29.921,23.284 30.68,23.105 31.365,22.758L31.365,20.685C30.833,21.308 30.056,21.668 29.237,21.672C28.408,21.693 27.608,21.367 27.03,20.773C26.452,20.179 26.148,19.37 26.192,18.543C26.165,17.737 26.464,16.954 27.021,16.37C27.578,15.787 28.346,15.452 29.152,15.441C30.002,15.445 30.809,15.815 31.365,16.456L31.365,14.384C30.701,14.016 29.954,13.822 29.195,13.82C27.926,13.805 26.704,14.297 25.799,15.186C24.894,16.075 24.381,17.288 24.373,18.557Z" fill="#000000" fill-opacity="0.9"/>
<path d="M45.363,20.107L42.939,14.031L41.021,14.031L44.856,23.307L45.8,23.307L49.719,14.031L47.802,14.031L45.363,20.107Z" fill="#000000" fill-opacity="0.9"/>
<path d="M50.51,23.082L55.528,23.082L55.528,21.545L52.272,21.545L52.272,19.106L55.401,19.106L55.401,17.57L52.272,17.57L52.272,15.568L55.528,15.568L55.528,14.031L50.51,14.031L50.51,23.082Z" fill="#000000" fill-opacity="0.9"/>
<path d="M62.505,16.696C62.601,17.965 61.705,19.095 60.447,19.29L63.267,23.012L61.124,23.012L58.671,19.431L58.474,19.431L58.474,23.012L56.697,23.012L56.697,14.046L59.291,14.046C61.349,14.046 62.505,15.004 62.505,16.696ZM58.474,18.19L59.037,18.19C60.081,18.19 60.701,17.824 60.701,16.865C60.701,15.907 60.109,15.455 59.037,15.455L58.474,15.455L58.474,18.19Z" clip-rule="evenodd" fill-rule="evenodd" fill="#000000" fill-opacity="0.9"/>
<path d="M41.544,18.558C41.544,21.212 39.392,23.365 36.737,23.365C34.082,23.365 31.93,21.212 31.93,18.558C31.93,15.903 34.082,13.75 36.737,13.75C39.389,13.758 41.536,15.906 41.544,18.558Z" fill="#EE7623"/>
<path d="M63.436,14.215C63.431,14.312 63.362,14.393 63.267,14.412L63.52,14.779L63.295,14.779L63.041,14.44L63.041,14.779L62.844,14.779L62.844,13.961L63.126,13.961C63.323,13.961 63.436,14.046 63.436,14.215ZM63.238,14.215C63.238,14.131 63.182,14.131 63.097,14.131L63.097,14.3L63.126,14.3C63.201,14.3 63.228,14.3 63.237,14.287C63.245,14.276 63.238,14.255 63.238,14.215Z" clip-rule="evenodd" fill-rule="evenodd" fill="#000000" fill-opacity="0.9"/>
<path d="M62.506,14.356C62.505,13.978 62.804,13.666 63.183,13.651C63.374,13.644 63.561,13.715 63.699,13.848C63.838,13.981 63.916,14.164 63.916,14.356C63.916,14.745 63.6,15.061 63.211,15.061C62.821,15.061 62.506,14.745 62.506,14.356ZM63.182,14.948C63.324,14.952 63.46,14.89 63.549,14.779C63.654,14.663 63.714,14.513 63.718,14.356C63.718,14.06 63.478,13.82 63.182,13.82C62.886,13.82 62.646,14.06 62.646,14.356C62.635,14.506 62.686,14.655 62.787,14.767C62.888,14.879 63.031,14.944 63.182,14.948Z" clip-rule="evenodd" fill-rule="evenodd" fill="#000000" fill-opacity="0.9"/>
</svg>
