<svg width="64" height="12" viewBox="0 0 64 12" fill="none" xmlns="http://www.w3.org/2000/svg" xmlns:xlink="http://www.w3.org/1999/xlink">
<path d="M4.773,3.905L5.534,5.766L2.982,5.766L3.758,3.905L4.265,2.664L4.773,3.905Z" fill="#296DB6"/>
<path d="M58.399,1.593L58.399,-0.748L63.46,-0.748L63.46,10.756L58.695,10.756L57.286,8.528L57.286,10.756L50.378,10.756L49.687,9.036L48.108,9.036L47.46,10.756L43.414,10.756C42.194,10.786 40.997,10.42 40.002,9.713L40.002,10.756L33.222,10.756L31.586,8.698L31.586,10.756L5.732,10.756L5.083,9.036L3.505,9.036L2.842,10.756L-0.372,10.756L-0.372,9.036L1.77,9.036L2.446,7.372L6.154,7.372L6.831,8.979L9.002,8.979L5.59,1.028L3.081,1.028L-0.372,9.036L-0.372,4.553L1.883,-0.804L6.479,-0.804L7.804,2.156L7.804,-0.804L13.443,-0.804L14.289,1.734L15.135,-0.748L40.002,-0.748L40.002,0.408C41.007,-0.376 42.253,-0.784 43.527,-0.748L51.055,-0.748L52.464,2.213L52.464,-0.748L56.891,-0.748L58.399,1.593ZM17.375,8.979L19.236,8.979L19.236,1.028L16.121,1.028L14.542,5.624L14.288,6.498L14.034,5.624L12.484,1.028L9.368,1.028L9.368,8.979L11.215,8.979L11.215,3.763L11.215,2.551L11.61,3.763L13.414,8.979L15.134,8.979L17.009,3.763L17.375,2.551L17.375,3.763L17.375,8.979ZM27.117,2.72L22.648,2.72L22.648,4.13L27.004,4.13L27.004,5.822L22.648,5.822L22.648,7.231L27.117,7.231L27.117,8.923L20.773,8.923L20.773,1.028L27.117,1.028L27.117,2.72ZM31.219,6.16L33.587,8.98L36.04,8.98L33.39,6.047C34.652,5.895 35.592,4.809 35.561,3.538C35.571,2.814 35.266,2.121 34.725,1.639C34.184,1.157 33.46,0.935 32.741,1.029L28.385,1.029L28.385,8.98L30.345,8.98L30.345,6.16L31.219,6.16ZM38.366,8.979L36.435,8.979L36.435,1.028L38.366,1.028L38.366,8.979ZM43.187,8.98L43.3,8.98L44.075,7.288L43.469,7.288C42.884,7.318 42.316,7.087 41.918,6.657C41.521,6.226 41.335,5.642 41.411,5.061L41.411,4.948C41.344,4.372 41.534,3.795 41.93,3.371C42.327,2.948 42.89,2.72 43.469,2.749L45.57,2.749L45.57,1.029L43.328,1.029C42.275,0.954 41.242,1.346 40.504,2.101C39.765,2.855 39.396,3.897 39.494,4.948L39.494,5.061C39.376,6.092 39.719,7.123 40.43,7.878C41.142,8.633 42.151,9.036 43.187,8.98ZM51.448,8.979L50.771,7.372L47.007,7.372L46.33,9.036L44.272,9.036L47.684,1.028L50.221,1.028L53.619,8.979L51.448,8.979ZM59.329,8.979L61.584,8.979L61.655,0.972L59.681,0.972L59.681,5.201L59.681,6.16L59.145,5.258L56.326,1.029L53.986,1.029L53.986,9.036L55.875,9.036L55.875,4.609L55.875,3.679L56.382,4.553L59.329,8.979ZM50.236,5.766L49.474,3.905L48.967,2.664L48.459,3.905L47.726,5.766L50.236,5.766ZM30.345,2.72L32.572,2.72C32.822,2.692 33.072,2.772 33.26,2.938C33.448,3.105 33.557,3.343 33.559,3.594C33.566,3.849 33.46,4.093 33.27,4.262C33.079,4.43 32.824,4.506 32.572,4.468L30.345,4.468L30.345,2.72Z" clip-rule="evenodd" fill-rule="evenodd" fill="#296DB6"/>
</svg>
