<svg width="32" height="32" viewBox="0 0 32 32" fill="none" xmlns="http://www.w3.org/2000/svg" xmlns:xlink="http://www.w3.org/1999/xlink">
<mask id="mask_0_i_77_733;76_3490" style="mask-type:alpha" maskUnits="userSpaceOnUse" x="0" y="-0.999146" width="16" height="16">
<rect  x="0" y="-0.999" width="32" height="32" fill="#000000"/>
</mask>
<g mask="url(#mask_0_i_77_733;76_3490)">
<path d="M32,15.001C32,15.001 26,4.001 16,4.001C6,4.001 0,15.001 0,15.001C0,15.001 6,26.001 16,26.001C26,26.001 32,15.001 32,15.001L32,15.001ZM2.346,15.001C3.313,16.471 4.425,17.839 5.666,19.087C8.24,21.665 11.76,24.001 16,24.001C20.24,24.001 23.758,21.665 26.336,19.087C27.577,17.839 28.689,16.471 29.656,15.001C28.689,13.531 27.577,12.162 26.336,10.915C23.758,8.337 20.238,6.001 16,6.001C11.76,6.001 8.242,8.337 5.664,10.915C4.423,12.162 3.311,13.531 2.344,15.001L2.346,15.001Z" clip-rule="evenodd" fill-rule="evenodd" fill="#BEBEBE"/>
<path d="M16,10.001C13.239,10.001 11,12.239 11,15.001C11,17.762 13.239,20.001 16,20.001C18.761,20.001 21,17.762 21,15.001C21,12.239 18.761,10.001 16,10.001L16,10.001ZM9,15.001C9,12.5 10.334,10.189 12.5,8.939C14.666,7.688 17.334,7.688 19.5,8.939C21.666,10.189 23,12.5 23,15.001C23,17.502 21.666,19.813 19.5,21.063C17.334,22.313 14.666,22.313 12.5,21.063C10.334,19.813 9,17.502 9,15.001L9,15.001Z" clip-rule="evenodd" fill-rule="evenodd" fill="#BEBEBE"/>
</g>
</svg>
