<svg width="106" height="106" viewBox="0 0 106 106" fill="none" xmlns="http://www.w3.org/2000/svg" xmlns:xlink="http://www.w3.org/1999/xlink">
<g filter="url(#filter313_2997)">
<path d="M52.598,105.477C81.132,105.477 104.263,81.925 104.263,52.871C104.263,23.817 81.132,0.265 52.598,0.265C24.065,0.265 0.934,23.817 0.934,52.871C0.934,81.925 24.065,105.477 52.598,105.477Z" clip-rule="evenodd" fill-rule="evenodd" fill="#FFFFFF"/>
</g>
<path d="M59.173,47.084C58.367,46.824 57.439,46.651 56.592,46.651C55.544,46.651 53.285,47.387 53.285,48.816L53.285,52.237L58.649,52.237L58.649,57.997L53.285,57.997L53.285,73.89L47.881,73.89L47.881,57.997L45.219,57.997L45.219,52.237L47.881,52.237L47.881,49.336C47.881,44.962 49.736,41.324 54.213,41.324C55.745,41.324 58.488,41.411 59.98,41.974L59.173,47.084Z" clip-rule="evenodd" fill-rule="evenodd" fill="#080809"/>
<defs>
<filter id="filter313_2997" x="-12.367621" y="-13.036567" width="78.267157" height="79.208872" filterUnits="userSpaceOnUse" color-interpolation-filters="sRGB">
<feFlood flood-opacity="0" result="BackgroundImageFix"/>
<feColorMatrix in="SourceAlpha" type="matrix" values="0 0 0 0 0 0 0 0 0 0 0 0 0 0 0 0 0 0 127 0" result="hardAlpha"/>
<feMorphology radius="0" operator="dilate" in="SourceAlpha" result="0dropshadow"/>
<feOffset dx="0" dy="2.660243"/>
<feGaussianBlur stdDeviation="6.650608"/>
<feComposite in2="hardAlpha" operator="out"/>
<feColorMatrix type="matrix" values="0 0 0 0 0 0 0 0 0 0 0 0 0 0 0 0 0 0 0.1 0"/>
<feBlend mode="normal" in2="BackgroundImageFix" result="0dropshadow"/>
<feBlend mode="normal" in="SourceGraphic" in2="0dropshadow" result="shape"/>
</filter>
</defs>
</svg>
