<svg width="50" height="52" viewBox="0 0 50 52" fill="none" xmlns="http://www.w3.org/2000/svg" xmlns:xlink="http://www.w3.org/1999/xlink">
<path d="M28.056,25.629L2.744,50.447C1.559,49.622 0.855,48.25 0.867,46.788L0.867,4.469C0.855,3.007 1.559,1.635 2.744,0.811L28.056,25.629Z" fill="#2196F3"/>
<path d="M36.913,16.961L28.056,25.63L2.744,0.812C2.839,0.737 2.938,0.667 3.041,0.602C4.379,-0.223 6.05,-0.25 7.413,0.532L36.913,16.961Z" fill="#4CAF50"/>
<path d="M47.647,25.633C47.663,27.283 46.783,28.807 45.358,29.594L36.913,34.302L28.056,25.633L36.913,16.964L45.358,21.671C46.783,22.458 47.663,23.982 47.647,25.633Z" fill="#F0BB1F"/>
<path d="M36.913,34.3L7.413,50.728C6.047,51.499 4.382,51.472 3.041,50.659C2.938,50.594 2.839,50.524 2.744,50.449L28.056,25.631L36.913,34.3Z" fill="#F15A2B"/>
</svg>
