<svg width="50" height="52" viewBox="0 0 50 52" fill="none" xmlns="http://www.w3.org/2000/svg" xmlns:xlink="http://www.w3.org/1999/xlink">
<path d="M28.056,25.629L2.744,50.447C1.559,49.622 0.855,48.25 0.867,46.788L0.867,4.469C0.855,3.007 1.559,1.635 2.744,0.811L28.056,25.629Z" fill="#2196F3"/>
<path d="M36.911,16.961L28.054,25.63L2.742,0.812C2.838,0.737 2.937,0.667 3.04,0.602C4.377,-0.223 6.048,-0.25 7.411,0.532L36.911,16.961Z" fill="#4CAF50"/>
<path d="M47.645,25.633C47.662,27.283 46.781,28.807 45.357,29.594L36.912,34.302L28.055,25.633L36.912,16.964L45.357,21.671C46.781,22.458 47.662,23.982 47.645,25.633Z" fill="#F0BB1F"/>
<path d="M36.911,34.3L7.411,50.728C6.045,51.499 4.381,51.472 3.04,50.659C2.937,50.594 2.838,50.524 2.742,50.449L28.054,25.631L36.911,34.3Z" fill="#F15A2B"/>
</svg>
