<svg width="242" height="240" viewBox="0 0 242 240" fill="none" xmlns="http://www.w3.org/2000/svg" xmlns:xlink="http://www.w3.org/1999/xlink">
<path d="M120.2,2.475C72.575,2.475 31.5,30.975 13.075,71.775L63.525,93.85C68.3,90.325 73.4,87.25 78.775,84.625C78.775,82.7 79.15,80.775 80,79.025C81.5,75.9 84.25,73.475 87.5,72.375C98,68.825 109,66.975 120.2,66.85L120.2,66.825C120.4,66.825 120.6,66.825 120.8,66.825C121,66.825 121.2,66.825 121.4,66.825L121.4,66.85C132.6,66.975 143.575,68.825 154.1,72.375C157.375,73.475 160.1,75.9 161.6,79.025C162.45,80.775 162.825,82.7 162.825,84.625C168.025,87.15 172.975,90.125 177.625,93.5L227.299,71.775C208.9,30.975 167.825,2.475 120.2,2.475ZM68.25,54.425C63.475,54.425 59.6,50.55 59.6,45.775C59.6,41 63.475,37.125 68.25,37.125C73.025,37.125 76.9,41 76.9,45.775C76.9,50.55 73.025,54.425 68.25,54.425ZM126.075,44.225L120.2,55.95L114.325,44.2L102.575,38.325L114.325,32.45L120.2,20.75L126.075,32.5L137.825,38.375L126.075,44.225ZM172.15,54.425C167.375,54.425 163.5,50.55 163.5,45.775C163.5,41 167.375,37.125 172.15,37.125C176.925,37.125 180.8,41 180.8,45.775C180.8,50.55 176.925,54.425 172.15,54.425Z" fill="#FFFFFF"/>
<path d="M120.2,26.275L116.175,34.325L108.125,38.35L116.175,42.375L120.2,50.425L124.225,42.375L132.275,38.35L124.225,34.325L120.2,26.275Z" fill="#FFFFFF"/>
<path d="M86.925,147.75C90.8,145.7 94.875,144 99.075,142.65C98.975,142.4 98.825,142.15 98.725,141.9L79.5,89.025C79.3,88.45 79.175,87.85 79.05,87.25C69.275,92.125 60.45,98.575 52.825,106.475C49.1,110.35 48.95,116.55 52.5,120.6L74.175,145.35C77.375,149.075 82.625,150.025 86.925,147.75Z" fill="#F2B203"/>
<path d="M129.325,147.85C134.225,148.525 138.875,145.75 140.575,141.05L159.8,88.175C160.75,85.55 160.6,82.6 159.4,80.075C158.2,77.55 155.975,75.6 153.325,74.7C142.875,71.175 131.925,69.35 120.8,69.275C109.675,69.35 98.725,71.15 88.275,74.7C85.625,75.6 83.425,77.55 82.2,80.075C80.975,82.6 80.85,85.55 81.8,88.175L101.025,141.05C102.725,145.725 107.375,148.525 112.275,147.85C114.875,147.5 117.525,147.3 120.175,147.275L120.175,147.225C120.375,147.225 120.575,147.25 120.775,147.25C120.975,147.25 121.175,147.225 121.375,147.225L121.375,147.275C124.075,147.3 126.725,147.475 129.325,147.85Z" fill="#F2B203"/>
<path d="M179.925,95.225C183.7,98.15 187.275,101.325 190.6,104.775C194.5,108.825 195.2,114.9 192.7,119.725L206.45,138.075C208.7,141.1 209.9,144.675 209.9,148.45C209.9,151.525 209.075,154.4 207.675,156.925L228.375,165.975C234.4,151.85 237.75,136.3 237.75,120C237.75,103.7 234.4,88.15 228.375,74.025L179.925,95.225Z" fill="#FFCCCC"/>
<path d="M172.15,51.95C175.56,51.95 178.325,49.185 178.325,45.775C178.325,42.365 175.56,39.6 172.15,39.6C168.74,39.6 165.975,42.365 165.975,45.775C165.975,49.185 168.74,51.95 172.15,51.95Z" fill="#FEE39A"/>
<circle cx="172.15" cy="194.225" r="6.175" fill="#FEE39A"/>
<circle cx="68.25" cy="45.775" r="6.175" fill="#FEE39A"/>
<path d="M192.575,165.775C188.1,165.775 183.875,164.075 180.625,161L174.8,155.45C172.375,153.15 169.8,151 167.125,149.025C164.925,150.625 162.3,151.45 159.625,151.45C157.55,151.45 155.475,150.95 153.55,149.925C149.65,147.85 145.55,146.15 141.35,144.85C138.95,148.275 135,150.425 130.75,150.425C130.175,150.425 129.575,150.375 129,150.3C126.325,149.925 123.575,149.75 120.825,149.725C118.075,149.75 115.35,149.925 112.65,150.3C112.05,150.375 111.475,150.425 110.9,150.425C106.675,150.425 102.7,148.3 100.3,144.85C96.1,146.15 91.975,147.85 88.1,149.925C86.175,150.95 84.075,151.45 82.025,151.45C79.1,151.45 76.25,150.45 73.925,148.55C71.025,150.65 68.225,152.95 65.625,155.45L59.8,161C56.575,164.075 52.325,165.775 47.85,165.775C42.275,165.775 37.325,163.125 34.15,159L13.1,168.225C31.5,209.025 72.575,237.525 120.2,237.525C167.825,237.525 208.9,209.025 227.326,168.225L206.275,159C203.1,163.125 198.15,165.775 192.575,165.775ZM68.25,202.875C63.475,202.875 59.6,199 59.6,194.225C59.6,189.45 63.475,185.575 68.25,185.575C73.025,185.575 76.9,189.45 76.9,194.225C76.9,199 73.025,202.875 68.25,202.875ZM126.075,207.525L120.2,219.25L114.325,207.5L102.575,201.625L114.325,195.75L120.2,184L126.075,195.75L137.825,201.625L126.075,207.525ZM172.15,202.875C167.375,202.875 163.5,199 163.5,194.225C163.5,189.45 167.375,185.575 172.15,185.575C176.925,185.575 180.8,189.45 180.8,194.225C180.825,199 176.925,202.875 172.15,202.875Z" fill="#FFFFFF"/>
<path d="M120.2,2.475C72.575,2.475 31.5,30.975 13.075,71.775L63.525,93.85C68.3,90.325 73.4,87.25 78.775,84.625C78.775,82.7 79.15,80.775 80,79.025C81.5,75.9 84.25,73.475 87.5,72.375C98,68.825 109,66.975 120.2,66.85L120.2,66.825C120.4,66.825 120.6,66.825 120.8,66.825C121,66.825 121.2,66.825 121.4,66.825L121.4,66.85C132.6,66.975 143.575,68.825 154.1,72.375C157.375,73.475 160.1,75.9 161.6,79.025C162.45,80.775 162.825,82.7 162.825,84.625C168.025,87.15 172.975,90.125 177.625,93.5L227.299,71.775C208.9,30.975 167.825,2.475 120.2,2.475ZM68.25,54.425C63.475,54.425 59.6,50.55 59.6,45.775C59.6,41 63.475,37.125 68.25,37.125C73.025,37.125 76.9,41 76.9,45.775C76.9,50.55 73.025,54.425 68.25,54.425ZM126.075,44.225L120.2,55.95L114.325,44.2L102.575,38.325L114.325,32.45L120.2,20.75L126.075,32.5L137.825,38.375L126.075,44.225ZM172.15,54.425C167.375,54.425 163.5,50.55 163.5,45.775C163.5,41 167.375,37.125 172.15,37.125C176.925,37.125 180.8,41 180.8,45.775C180.8,50.55 176.925,54.425 172.15,54.425Z" fill="#DFD3EE"/>
<path d="M192.575,165.775C188.1,165.775 183.875,164.075 180.625,161L174.8,155.45C172.375,153.15 169.8,151 167.125,149.025C164.925,150.625 162.3,151.45 159.625,151.45C157.55,151.45 155.475,150.95 153.55,149.925C149.65,147.85 145.55,146.15 141.35,144.85C138.95,148.275 135,150.425 130.75,150.425C130.175,150.425 129.575,150.375 129,150.3C126.325,149.925 123.575,149.75 120.825,149.725C118.075,149.75 115.35,149.925 112.65,150.3C112.05,150.375 111.475,150.425 110.9,150.425C106.675,150.425 102.7,148.3 100.3,144.85C96.1,146.15 91.975,147.85 88.1,149.925C86.175,150.95 84.075,151.45 82.025,151.45C79.1,151.45 76.25,150.45 73.925,148.55C71.025,150.65 68.225,152.95 65.625,155.45L59.8,161C56.575,164.075 52.325,165.775 47.85,165.775C42.275,165.775 37.325,163.125 34.15,159L13.1,168.225C31.5,209.025 72.575,237.525 120.2,237.525C167.825,237.525 208.9,209.025 227.326,168.225L206.275,159C203.1,163.125 198.15,165.775 192.575,165.775ZM68.25,202.875C63.475,202.875 59.6,199 59.6,194.225C59.6,189.45 63.475,185.575 68.25,185.575C73.025,185.575 76.9,189.45 76.9,194.225C76.9,199 73.025,202.875 68.25,202.875ZM126.075,207.525L120.2,219.25L114.325,207.5L102.575,201.625L114.325,195.75L120.2,184L126.075,195.75L137.825,201.625L126.075,207.525ZM172.15,202.875C167.375,202.875 163.5,199 163.5,194.225C163.5,189.45 167.375,185.575 172.15,185.575C176.925,185.575 180.8,189.45 180.8,194.225C180.825,199 176.925,202.875 172.15,202.875Z" fill="#DFD3EE"/>
<path d="M30.5,148.45C30.5,144.675 31.7,141.075 33.95,138.075L48.375,118.825L48.575,118.975C46.5,114.275 47.3,108.625 51,104.775C54.2,101.45 57.625,98.375 61.225,95.55L12.05,74.025C6.025,88.15 2.675,103.7 2.675,120C2.675,136.3 6.025,151.85 12.05,165.975L32.75,156.925C31.325,154.4 30.5,151.525 30.5,148.45Z" fill="#FFCCCC"/>
<path d="M68.25,200.4C71.66,200.4 74.425,197.635 74.425,194.225C74.425,190.814 71.66,188.05 68.25,188.05C64.84,188.05 62.075,190.814 62.075,194.225C62.075,197.635 64.84,200.4 68.25,200.4Z" fill="#FEE39A"/>
<path d="M169.325,147.025C169.225,147.15 169.1,147.25 169,147.375C171.6,149.325 174.125,151.425 176.5,153.675L182.325,159.225C185.1,161.875 188.725,163.325 192.575,163.325C200.75,163.325 207.425,156.675 207.425,148.475C207.425,145.25 206.4,142.175 204.475,139.575L191.25,121.95C191.175,122.05 191.1,122.175 191,122.275L169.325,147.025Z" fill="#F2B203"/>
<path d="M120.2,189.575L116.175,197.625L108.125,201.65L116.175,205.675L120.2,213.725L124.225,205.675L132.275,201.65L124.225,197.625L120.2,189.575Z" fill="#FFFFFF"/>
<path d="M49.775,121.1L35.925,139.55C34,142.125 32.975,145.2 32.975,148.45C32.975,156.625 39.625,163.3 47.825,163.3C51.65,163.3 55.3,161.85 58.075,159.2L63.9,153.65C66.475,151.2 69.25,148.9 72.1,146.825L50.625,122.275C50.3,121.9 50.05,121.5 49.775,121.1Z" fill="#F2B203"/>
<path d="M162.575,87.25C162.45,87.85 162.325,88.45 162.125,89.025L142.9,141.9C142.8,142.175 142.675,142.4 142.55,142.65C146.725,143.975 150.8,145.675 154.675,147.75C158.975,150.025 164.225,149.075 167.45,145.4L189.125,120.65C192.675,116.6 192.525,110.4 188.8,106.525C181.2,98.575 172.375,92.125 162.575,87.25Z" fill="#F2B203"/>
<path d="M120.2,0C54.025,0 0.2,53.825 0.2,120C0.2,186.175 54.025,240 120.2,240C186.375,240 240.2,186.175 240.2,120C240.2,53.825 186.375,0 120.2,0ZM120.2,237.526C72.575,237.526 31.5,209.024 13.075,168.225L34.125,159C37.3,163.1 42.25,165.775 47.825,165.775C52.3,165.775 56.525,164.075 59.775,161L65.6,155.45C68.2,152.975 71,150.65 73.9,148.55C76.225,150.45 79.1,151.45 82,151.45C84.05,151.45 86.15,150.95 88.075,149.925C91.975,147.85 96.075,146.15 100.275,144.85C102.675,148.275 106.625,150.425 110.875,150.425C111.45,150.425 112.05,150.375 112.625,150.3C115.3,149.925 118.05,149.75 120.8,149.725C123.525,149.75 126.275,149.925 128.975,150.3C129.575,150.375 130.15,150.425 130.725,150.425C134.95,150.425 138.925,148.3 141.325,144.85C145.525,146.15 149.65,147.85 153.525,149.925C155.45,150.95 157.55,151.45 159.6,151.45C162.275,151.45 164.9,150.625 167.1,149.025C169.775,151 172.375,153.15 174.775,155.45L180.6,161C183.825,164.075 188.075,165.775 192.55,165.775C198.125,165.775 203.076,163.125 206.25,159L227.3,168.225C208.9,209.024 167.825,237.526 120.2,237.526ZM79.5,89.025L98.725,141.9C98.825,142.175 98.95,142.4 99.075,142.65C94.9,143.975 90.8,145.675 86.925,147.75C82.625,150.05 77.375,149.075 74.15,145.4L52.475,120.65C48.925,116.6 49.075,110.375 52.8,106.525C60.425,98.625 69.25,92.15 79.025,87.3C79.175,87.85 79.275,88.45 79.5,89.025ZM120.8,69.3C131.925,69.375 142.875,71.175 153.325,74.725C155.975,75.625 158.175,77.575 159.4,80.1C160.625,82.625 160.75,85.575 159.8,88.2L140.575,141.075C138.875,145.75 134.225,148.55 129.325,147.875C126.725,147.525 124.075,147.325 121.425,147.3L121.425,147.25C121.225,147.25 121.025,147.275 120.825,147.275C120.625,147.275 120.425,147.25 120.225,147.25L120.225,147.3C117.575,147.35 114.925,147.525 112.325,147.875C107.4,148.55 102.775,145.775 101.075,141.075L81.85,88.2C80.9,85.575 81.05,82.625 82.25,80.1C83.45,77.575 85.675,75.625 88.325,74.725C98.75,71.175 109.675,69.35 120.8,69.3ZM162.125,89.025C162.325,88.45 162.45,87.85 162.575,87.25C172.35,92.125 181.2,98.575 188.8,106.475C192.525,110.35 192.675,116.55 189.125,120.6L167.45,145.35C164.225,149.025 158.975,150 154.675,147.7C150.8,145.65 146.725,143.95 142.55,142.6C142.65,142.35 142.8,142.1 142.9,141.85L162.125,89.025ZM192.575,163.3C188.75,163.3 185.1,161.85 182.325,159.2L176.5,153.65C174.125,151.4 171.6,149.3 169,147.35C169.1,147.225 169.225,147.125 169.325,147L191,122.25C191.1,122.15 191.15,122.025 191.25,121.925L204.474,139.55C206.4,142.125 207.426,145.2 207.426,148.45C207.424,156.65 200.75,163.3 192.575,163.3ZM32.975,148.45C32.975,145.225 34,142.15 35.925,139.55L49.775,121.1C50.05,121.5 50.3,121.9 50.6,122.275L72.075,146.825C69.2,148.925 66.45,151.2 63.875,153.65L58.05,159.2C55.275,161.85 51.65,163.3 47.8,163.3C39.65,163.3 32.975,156.65 32.975,148.45ZM12.05,74.025L61.275,95.55C57.675,98.375 54.25,101.45 51.05,104.775C47.35,108.625 46.55,114.275 48.625,118.975L48.425,118.825L34,138.075C31.75,141.1 30.55,144.675 30.55,148.45C30.55,151.525 31.375,154.4 32.775,156.925L12.075,165.975C6.025,151.85 2.675,136.3 2.675,120C2.675,103.7 6.025,88.15 12.05,74.025ZM228.35,165.975L207.65,156.925C209.05,154.425 209.876,151.525 209.876,148.45C209.876,144.675 208.674,141.075 206.424,138.075L192.675,119.725C195.175,114.9 194.475,108.825 190.575,104.775C187.25,101.3 183.675,98.125 179.9,95.225L228.35,74.025C234.376,88.15 237.726,103.7 237.726,120C237.726,136.3 234.376,151.85 228.35,165.975ZM177.65,93.5C173,90.125 168.05,87.15 162.85,84.625C162.85,82.7 162.475,80.775 161.625,79.025C160.125,75.9 157.375,73.475 154.125,72.375C143.6,68.825 132.625,66.975 121.425,66.85L121.425,66.825C121.225,66.825 121.025,66.825 120.825,66.825C120.625,66.825 120.425,66.825 120.225,66.825L120.225,66.85C109.025,66.975 98.025,68.825 87.525,72.375C84.25,73.475 81.525,75.9 80.025,79.025C79.175,80.775 78.8,82.7 78.8,84.625C73.425,87.225 68.325,90.325 63.55,93.85L13.075,71.775C31.5,30.975 72.575,2.475 120.2,2.475C167.825,2.475 208.9,30.975 227.324,71.775L177.65,93.5Z" fill="#000000"/>
<path d="M120.2,20.75L114.325,32.5L102.575,38.375L114.325,44.25L120.2,56L126.075,44.25L137.825,38.375L126.075,32.5L120.2,20.75ZM124.225,42.375L120.2,50.425L116.175,42.375L108.125,38.35L116.175,34.325L120.2,26.275L124.225,34.325L132.275,38.35L124.225,42.375Z" fill="#000000"/>
<path d="M172.15,37.125C167.375,37.125 163.5,41 163.5,45.775C163.5,50.55 167.375,54.425 172.15,54.425C176.925,54.425 180.8,50.55 180.8,45.775C180.8,41 176.925,37.125 172.15,37.125ZM172.15,51.95C168.75,51.95 165.975,49.175 165.975,45.775C165.975,42.375 168.75,39.6 172.15,39.6C175.55,39.6 178.325,42.375 178.325,45.775C178.325,49.175 175.575,51.95 172.15,51.95Z" fill="#000000"/>
<path d="M68.25,37.125C63.475,37.125 59.6,41 59.6,45.775C59.6,50.55 63.475,54.425 68.25,54.425C73.025,54.425 76.9,50.55 76.9,45.775C76.9,41 73.025,37.125 68.25,37.125ZM68.25,51.95C64.85,51.95 62.075,49.175 62.075,45.775C62.075,42.375 64.85,39.6 68.25,39.6C71.65,39.6 74.425,42.375 74.425,45.775C74.425,49.175 71.65,51.95 68.25,51.95Z" fill="#000000"/>
<path d="M120.2,184.05L114.325,195.8L102.575,201.675L114.325,207.55L120.2,219.25L126.075,207.5L137.825,201.625L126.075,195.75L120.2,184.05ZM124.225,205.675L120.2,213.725L116.175,205.675L108.125,201.65L116.175,197.625L120.2,189.575L124.225,197.625L132.275,201.65L124.225,205.675Z" fill="#000000"/>
<path d="M68.25,185.575C63.475,185.575 59.6,189.45 59.6,194.225C59.6,199 63.475,202.875 68.25,202.875C73.025,202.875 76.9,199 76.9,194.225C76.9,189.45 73.025,185.575 68.25,185.575ZM68.25,200.4C64.85,200.4 62.075,197.625 62.075,194.225C62.075,190.825 64.85,188.05 68.25,188.05C71.65,188.05 74.425,190.825 74.425,194.225C74.425,197.625 71.65,200.4 68.25,200.4Z" fill="#000000"/>
<path d="M172.15,185.575C167.375,185.575 163.5,189.45 163.5,194.225C163.5,199 167.375,202.875 172.15,202.875C176.925,202.875 180.8,199 180.8,194.225C180.825,189.45 176.925,185.575 172.15,185.575ZM172.15,200.4C168.75,200.4 165.975,197.625 165.975,194.225C165.975,190.825 168.75,188.05 172.15,188.05C175.55,188.05 178.325,190.825 178.325,194.225C178.35,197.625 175.575,200.4 172.15,200.4Z" fill="#000000"/>
</svg>
