<svg width="186" height="184" viewBox="0 0 186 184" fill="none" xmlns="http://www.w3.org/2000/svg" xmlns:xlink="http://www.w3.org/1999/xlink">
<path d="M138.521,69.788L149.906,69.788C153.567,69.788 156.538,66.817 156.538,63.157C156.538,59.496 153.567,56.525 149.906,56.525L138.521,56.525C134.86,56.525 131.889,59.496 131.889,63.157C131.889,66.817 134.86,69.788 138.521,69.788ZM138.521,58.403L149.906,58.403C152.513,58.403 154.64,60.531 154.64,63.137C154.64,65.744 152.513,67.872 149.906,67.872L138.521,67.872C135.914,67.872 133.787,65.744 133.787,63.137C133.787,60.531 135.914,58.403 138.521,58.403Z" fill="#000000"/>
<path d="M93,79.276C73.642,79.276 57.906,95.012 57.906,114.37C57.906,133.728 73.642,149.464 93,149.464C112.358,149.464 128.094,133.728 128.094,114.37C128.094,95.012 112.358,79.276 93,79.276ZM93,81.173C110.461,81.173 124.778,94.724 126.062,111.859C123.264,109.195 119.622,107.738 115.751,107.738C111.745,107.738 107.988,109.291 105.171,112.127L92.482,124.816L61.509,124.816C60.417,121.538 59.803,118.031 59.803,114.389C59.803,96.066 74.696,81.173 93,81.173ZM62.199,126.694L90.585,126.694L75.041,142.238C69.31,138.539 64.787,133.115 62.199,126.694ZM93,147.567C87.077,147.567 81.519,145.995 76.708,143.254L106.512,113.45C108.985,110.977 112.262,109.617 115.751,109.617C119.239,109.617 122.536,110.977 125.008,113.45C125.43,113.872 125.813,114.332 126.177,114.811C125.928,132.904 111.151,147.567 93,147.567Z" fill="#000000"/>
<path d="M87.307,115.31C94.112,115.31 99.632,109.77 99.632,102.985C99.632,96.2 94.092,90.661 87.307,90.661C80.503,90.661 74.983,96.2 74.983,102.985C74.983,109.77 80.503,115.31 87.307,115.31ZM87.307,92.539C93.057,92.539 97.734,97.216 97.734,102.966C97.734,108.716 93.057,113.393 87.307,113.393C81.557,113.393 76.881,108.716 76.881,102.966C76.881,97.216 81.557,92.539 87.307,92.539Z" fill="#000000"/>
<path d="M29.462,63.138C29.462,66.798 32.433,69.769 36.094,69.769C39.755,69.769 42.726,66.798 42.726,63.138C42.726,59.477 39.755,56.506 36.094,56.506C32.433,56.506 29.462,59.477 29.462,63.138ZM40.828,63.138C40.828,65.744 38.701,67.872 36.094,67.872C33.487,67.872 31.36,65.744 31.36,63.138C31.36,60.531 33.487,58.403 36.094,58.403C38.701,58.403 40.828,60.531 40.828,63.138Z" fill="#000000"/>
<path d="M53.172,69.788C56.832,69.788 59.803,66.817 59.803,63.157C59.803,59.496 56.832,56.525 53.172,56.525C49.511,56.525 46.54,59.496 46.54,63.157C46.54,66.817 49.511,69.788 53.172,69.788ZM53.172,58.403C55.778,58.403 57.906,60.531 57.906,63.137C57.906,65.744 55.778,67.872 53.172,67.872C50.565,67.872 48.437,65.744 48.437,63.137C48.437,60.531 50.546,58.403 53.172,58.403Z" fill="#000000"/>
<path d="M111.017,33.736L74.983,33.736L74.983,47.018L111.017,47.018L111.017,33.736ZM76.881,35.633L80.676,35.633L80.676,45.121L76.881,45.121L76.881,35.633ZM82.573,35.633L86.368,35.633L86.368,45.121L82.573,45.121L82.573,35.633ZM88.266,35.633L92.061,35.633L92.061,45.121L88.266,45.121L88.266,35.633ZM93.939,35.633L97.734,35.633L97.734,45.121L93.939,45.121L93.939,35.633ZM99.632,35.633L103.427,35.633L103.427,45.121L99.632,45.121L99.632,35.633ZM109.119,45.121L105.324,45.121L105.324,35.633L109.119,35.633L109.119,45.121Z" fill="#000000"/>
<path d="M185,91.6C185,40.866 143.734,-0.4 93,-0.4C42.266,-0.4 1,40.866 1,91.6C1,114.121 9.146,134.763 22.639,150.787L22.505,150.921L23.847,152.263L23.885,152.224C40.752,171.429 65.477,183.6 93,183.6C120.523,183.6 145.248,171.429 162.115,152.224L162.153,152.263L163.495,150.921L163.361,150.787C176.854,134.763 185,114.121 185,91.6ZM93.939,181.683L93.939,155.099C107.183,154.792 118.875,148.142 126.101,138.079L147.97,138.079L160.773,150.883C144.443,169.532 120.562,181.396 93.939,181.683ZM25.227,150.863L38.03,138.06L59.899,138.06C67.125,148.142 78.817,154.773 92.061,155.08L92.061,181.683C65.438,181.396 41.557,169.532 25.227,150.863ZM22.601,35.461L37.953,50.813L36.094,50.813C29.29,50.813 23.77,56.353 23.77,63.138L23.77,90.642L2.917,90.642C3.147,69.807 10.468,50.641 22.601,35.461ZM92.061,1.517L92.061,28.043L69.655,28.043L58.27,50.813L40.637,50.813L23.789,33.966C40.158,14.378 64.652,1.804 92.061,1.517ZM162.69,34.56L162.153,34.023L145.363,50.813L127.73,50.813L116.345,28.043L93.939,28.043L93.939,1.517C121.616,1.804 146.341,14.627 162.69,34.56ZM127.404,136.182C129.263,133.249 130.797,130.067 131.87,126.694L160.294,126.694C159.815,132.003 155.349,136.182 149.906,136.182L127.404,136.182ZM93,153.24C71.552,153.24 54.111,135.798 54.111,114.351C54.111,111.054 54.533,107.777 55.337,104.595C59.765,87.441 75.252,75.462 92.981,75.462C110.71,75.462 126.197,87.441 130.624,104.595C131.448,107.757 131.851,111.054 131.851,114.351C131.889,135.798 114.447,153.24 93,153.24ZM36.094,136.182C30.67,136.182 26.185,132.003 25.706,126.694L54.13,126.694C55.203,130.067 56.737,133.249 58.596,136.182L36.094,136.182ZM149.906,52.711C155.656,52.711 160.332,57.388 160.332,63.138L160.332,79.257L125.832,79.257C120.772,65.706 107.758,56.506 93,56.506C78.242,56.506 65.228,65.706 60.148,79.276L25.648,79.276L25.648,63.157C25.648,57.407 30.325,52.73 36.075,52.73L149.906,52.73L149.906,52.711ZM115.176,29.96L125.603,50.832L60.397,50.832L70.824,29.96L115.176,29.96ZM160.332,90.661L129.014,90.661L126.983,82.802C126.848,82.247 126.657,81.71 126.484,81.173L160.332,81.173L160.332,90.661ZM25.667,92.539L30.402,92.539L56.507,92.539L54.053,102.027L25.667,102.027L25.667,92.539ZM25.667,115.309L52.271,115.309C52.347,118.587 52.827,121.749 53.632,124.797L25.667,124.797L25.667,115.309ZM52.252,113.412L25.667,113.412L25.667,103.924L53.574,103.924L53.517,104.135C52.731,107.163 52.309,110.268 52.252,113.412ZM60.857,83.282C64.633,68.638 77.858,58.403 93,58.403C108.142,58.403 121.367,68.638 125.142,83.282L127.596,92.807C120.312,81.097 107.375,73.583 93,73.583C78.625,73.583 65.688,81.097 58.404,92.807L60.857,83.282ZM25.667,81.173L59.516,81.173C59.343,81.71 59.171,82.247 59.017,82.802L56.986,90.661L30.402,90.661L25.667,90.661L25.667,81.173ZM160.332,124.797L132.387,124.797C133.193,121.749 133.672,118.587 133.748,115.309L160.352,115.309L160.352,124.797L160.332,124.797ZM160.332,113.412L133.748,113.412C133.672,110.268 133.269,107.144 132.483,104.135L132.426,103.924L160.332,103.924L160.332,113.412ZM160.332,102.027L131.947,102.027L129.493,92.539L160.332,92.539L160.332,102.027ZM149.906,50.813L148.047,50.813L163.399,35.461C175.532,50.641 182.853,69.807 183.083,90.661L162.23,90.661L162.23,63.138C162.23,56.353 156.71,50.813 149.906,50.813ZM23.77,92.539L23.77,125.736C23.77,132.291 28.926,137.657 35.385,138.022L23.981,149.426C11.024,133.997 3.147,114.178 2.917,92.539L23.77,92.539ZM150.634,138.041C157.093,137.658 162.249,132.31 162.249,125.755L162.249,92.539L183.083,92.539C182.853,114.159 174.976,133.997 162.019,149.426L150.634,138.041Z" fill="#000000"/>
</svg>
