<svg width="36" height="24" viewBox="0 0 36 24" fill="none" xmlns="http://www.w3.org/2000/svg" xmlns:xlink="http://www.w3.org/1999/xlink">
<path d="M23.95,15.5C25.43,14.02 27.39,13.21 29.47,13.21C31.49,13.21 33.39,13.98 34.85,15.36C34.18,6.43 26.71,-0.64 17.6,-0.64C8.05,-0.64 0.28,7.13 0.28,16.68C0.28,18.58 0.6,20.41 1.17,22.12L17.33,22.12L23.95,15.5ZM8.2,10.74C8.2,7.19 11.09,4.31 14.63,4.31C18.18,4.31 21.06,7.2 21.06,10.74C21.06,14.28 18.17,17.17 14.63,17.17C11.08,17.17 8.2,14.29 8.2,10.74Z" fill="#C9F2E3"/>
<circle cx="14.63" cy="10.74" r="5.44" fill="#FF5D5D"/>
</svg>
