<svg width="242" height="240" viewBox="0 0 242 240" fill="none" xmlns="http://www.w3.org/2000/svg" xmlns:xlink="http://www.w3.org/1999/xlink">
<path d="M189.475,155.875C191.825,155.875 193.8,154.275 194.3,152L206.4,97.575C206.725,96.1 206.375,94.575 205.425,93.4C204.475,92.225 203.075,91.55 201.575,91.55L199.4,91.55C197.075,91.55 195.075,93.15 194.575,95.425L181.15,155.875L189.475,155.875Z" fill="#F2B203"/>
<path d="M94.6,37.125L145.8,37.125L127.25,24.75L113.15,24.75L94.6,37.125Z" fill="#34E0A1"/>
<path d="M181.35,143.5L148.65,143.5C145.925,143.5 143.7,145.725 143.7,148.45L143.7,150.925C143.7,153.65 145.925,155.875 148.65,155.875L178.575,155.875L181.35,143.5Z" fill="#F2B203"/>
<path d="M120.2,44.525C123.175,44.525 125.675,42.4 126.25,39.575L114.125,39.575C114.725,42.4 117.225,44.525 120.2,44.525Z" fill="#FEE39A"/>
<path d="M45.85,95.425C45.35,93.15 43.35,91.55 41.025,91.55L38.85,91.55C37.35,91.55 35.925,92.225 35,93.4C34.05,94.575 33.7,96.1 34.025,97.575L46.125,152C46.625,154.275 48.625,155.875 50.95,155.875L59.3,155.875L45.85,95.425Z" fill="#F2B203"/>
<path d="M128.85,14.85L128.85,22.85L234.625,93.375C222.625,41.75 176.525,3.075 121.425,2.5L121.425,14.85L128.85,14.85Z" fill="#00AA6C"/>
<path d="M111.55,22.85L111.55,14.85L118.975,14.85L118.975,2.5C63.875,3.075 17.775,41.75 5.75,93.375L86.425,39.6L111.55,22.85Z" fill="#00AA6C"/>
<path d="M89.425,158.35L54.325,158.35L40.35,206.125C40.975,206.7 41.6,207.275 42.25,207.85L96.525,207.85L89.425,158.35Z" fill="#C9F2E3"/>
<path d="M150.975,158.35L143.9,207.825L198.175,207.825C198.8,207.25 199.45,206.7 200.075,206.1L186.1,158.325L150.975,158.325L150.975,158.35Z" fill="#C9F2E3"/>
<path d="M128.725,39.6C128.125,43.775 124.55,47.025 120.2,47.025C115.85,47.025 112.275,43.8 111.675,39.6L90.9,39.6L4.975,96.85C3.475,104.325 2.675,112.075 2.675,120C2.675,153 16.35,182.825 38.325,204.2L51.75,158.35L50.95,158.35C47.45,158.35 44.475,155.95 43.7,152.525L31.6,98.1C31.1,95.9 31.65,93.6 33.05,91.85C34.475,90.075 36.575,89.075 38.85,89.075L41.025,89.075C44.525,89.075 47.5,91.475 48.275,94.875L58.525,141.025L91.75,141.025C95.85,141.025 99.175,144.35 99.175,148.45L99.175,150.925C99.175,154.95 95.95,158.225 91.95,158.325L99.025,207.825L118.975,207.825L118.975,128.65L67,128.65L67,118.75L89.275,118.75L89.275,106.25C85.1,105.65 81.85,102.075 81.85,97.725L81.85,89.075L99.175,89.075L99.175,97.725C99.175,102.075 95.95,105.65 91.75,106.25L91.75,118.75L111.55,118.75L111.55,113.8L111.55,89.05L111.55,82.875C111.55,80.975 112.15,79.2 113.275,77.675L117.725,71.725C118.525,70.65 118.95,69.375 118.95,68.025L118.95,60.6L120.2,60.6L121.425,60.6L121.425,68.025C121.425,69.375 121.85,70.65 122.65,71.725L127.1,77.675C128.225,79.175 128.825,80.975 128.825,82.875L128.825,118.75L148.625,118.75L148.625,106.25C144.45,105.65 141.2,102.075 141.2,97.725L141.2,89.075L158.525,89.075L158.525,97.725C158.525,102.075 155.3,105.65 151.1,106.25L151.1,118.75L173.375,118.75L173.375,128.65L121.425,128.65L121.425,207.825L141.375,207.825L148.45,158.325C144.45,158.225 141.225,154.95 141.225,150.925L141.225,148.45C141.225,144.35 144.55,141.025 148.65,141.025L181.875,141.025L192.125,94.875C192.875,91.45 195.875,89.075 199.375,89.075L201.55,89.075C203.825,89.075 205.925,90.075 207.351,91.85C208.775,93.625 209.301,95.9 208.801,98.1L196.7,152.525C195.95,155.95 192.95,158.35 189.45,158.35L188.65,158.35L202.075,204.2C224.051,182.825 237.725,153 237.725,120C237.725,112.075 236.925,104.35 235.425,96.85L149.525,39.6L128.725,39.6Z" fill="#C9F2E3"/>
<path d="M120.2,237.525C148.75,237.525 174.925,227.3 195.325,210.3L45.075,210.3C65.475,227.3 91.65,237.525 120.2,237.525Z" fill="#004F32"/>
<path d="M91.75,155.875C94.475,155.875 96.7,153.65 96.7,150.925L96.7,148.45C96.7,145.725 94.475,143.5 91.75,143.5L59.05,143.5L61.8,155.875L91.75,155.875Z" fill="#F2B203"/>
<rect  x="114.025" y="17.325" width="12.375" height="4.95" fill="#F2B203"/>
<path d="M69.475,121.225L69.475,126.175L170.925,126.175L170.925,121.225L128.85,121.225L111.55,121.225L69.475,121.225Z" fill="#8E6500"/>
<path d="M125.15,79.175L120.7,73.225C120.525,73 120.35,72.75 120.2,72.5C120.05,72.75 119.875,73 119.7,73.225L115.25,79.175C114.45,80.25 114.025,81.525 114.025,82.875L114.025,89.05L121.45,89.05L121.45,113.8L114.025,113.8L114.025,118.75L126.4,118.75L126.4,82.875C126.375,81.525 125.95,80.25 125.15,79.175Z" fill="#34E0A1"/>
<rect  x="114.025" y="91.55" width="4.95" height="19.8" fill="#FFFFFF"/>
<path d="M156.075,91.55L143.7,91.55L143.7,97.725C143.7,101.125 146.475,103.9 149.875,103.9C153.275,103.9 156.05,101.125 156.05,97.725L156.05,91.55L156.075,91.55Z" fill="#FFFFFF"/>
<path d="M96.7,91.55L84.325,91.55L84.325,97.725C84.325,101.125 87.1,103.9 90.5,103.9C93.9,103.9 96.675,101.125 96.675,97.725L96.675,91.55L96.7,91.55Z" fill="#FFFFFF"/>
<path d="M120.2,0C54.025,0 0.2,53.825 0.2,120C0.2,186.175 54.025,240 120.2,240C186.375,240 240.2,186.175 240.2,120C240.2,53.825 186.375,0 120.2,0ZM94.6,37.125L113.15,24.75L127.25,24.75L145.8,37.125L94.6,37.125ZM126.25,39.6C125.675,42.425 123.175,44.55 120.2,44.55C117.225,44.55 114.725,42.425 114.15,39.6L126.25,39.6ZM126.375,22.275L114,22.275L114,17.325L126.375,17.325L126.375,22.275ZM118.975,2.5L118.975,14.85L111.55,14.85L111.55,22.85L86.425,39.6L5.75,93.375C17.775,41.75 63.875,3.075 118.975,2.5ZM40.35,206.124L54.325,158.35L89.45,158.35L96.525,207.824L42.225,207.824C41.6,207.274 40.975,206.7 40.35,206.124ZM59.275,155.875L50.925,155.875C48.6,155.875 46.6,154.275 46.1,152L34,97.575C33.675,96.1 34.025,94.575 34.975,93.4C35.925,92.225 37.325,91.55 38.825,91.55L41,91.55C43.35,91.55 45.325,93.15 45.825,95.425L59.275,155.875ZM59.05,143.5L91.725,143.5C94.45,143.5 96.675,145.725 96.675,148.45L96.675,150.925C96.675,153.65 94.45,155.875 91.725,155.875L61.8,155.875L59.05,143.5ZM120.2,237.526C91.65,237.526 65.475,227.3 45.075,210.3L195.3,210.3C174.925,227.3 148.75,237.526 120.2,237.526ZM198.175,207.824L143.9,207.824L150.975,158.35L186.1,158.35L200.075,206.124C199.425,206.7 198.8,207.274 198.175,207.824ZM178.6,155.875L148.65,155.875C145.925,155.875 143.7,153.65 143.7,150.925L143.7,148.45C143.7,145.725 145.925,143.5 148.65,143.5L181.325,143.5L178.6,155.875ZM194.55,95.425C195.05,93.15 197.05,91.55 199.375,91.55L201.55,91.55C203.05,91.55 204.476,92.225 205.4,93.4C206.35,94.575 206.7,96.1 206.376,97.575L194.3,152C193.8,154.275 191.8,155.875 189.475,155.875L181.125,155.875L194.55,95.425ZM237.726,120C237.726,153 224.05,182.825 202.076,204.2L188.65,158.35L189.45,158.35C192.95,158.35 195.925,155.95 196.7,152.525L208.8,98.1C209.3,95.9 208.75,93.6 207.35,91.85C205.926,90.075 203.824,89.075 201.55,89.075L199.375,89.075C195.875,89.075 192.9,91.475 192.125,94.875L181.875,141.025L148.65,141.025C144.55,141.025 141.225,144.35 141.225,148.45L141.225,150.925C141.225,154.95 144.45,158.225 148.45,158.325L141.375,207.824L121.425,207.824L121.425,128.65L173.375,128.65L173.375,118.75L151.1,118.75L151.1,106.25C155.275,105.65 158.525,102.075 158.525,97.725L158.525,89.075L141.2,89.075L141.2,97.725C141.2,102.075 144.425,105.65 148.625,106.25L148.625,118.75L128.825,118.75L128.825,82.875C128.825,80.975 128.225,79.2 127.1,77.675L122.65,71.725C121.85,70.65 121.425,69.375 121.425,68.025L121.425,60.6L120.2,60.6L118.975,60.6L118.975,68.025C118.975,69.375 118.55,70.65 117.75,71.725L113.3,77.675C112.175,79.175 111.575,80.975 111.575,82.875L111.575,89.05L111.575,113.8L111.575,118.75L91.775,118.75L91.775,106.25C95.95,105.65 99.2,102.075 99.2,97.725L99.2,89.075L81.875,89.075L81.875,97.725C81.875,102.075 85.1,105.65 89.3,106.25L89.3,118.75L67.025,118.75L67.025,128.65L118.975,128.65L118.975,207.824L99.025,207.824L91.95,158.325C95.95,158.225 99.175,154.95 99.175,150.925L99.175,148.45C99.175,144.35 95.85,141.025 91.75,141.025L58.5,141.025L48.25,94.875C47.5,91.45 44.5,89.075 41,89.075L38.825,89.075C36.55,89.075 34.45,90.075 33.025,91.85C31.6,93.625 31.075,95.9 31.575,98.1L43.675,152.525C44.425,155.95 47.425,158.35 50.925,158.35L51.725,158.35L38.3,204.2C16.35,182.825 2.675,153 2.675,120C2.675,112.075 3.475,104.35 4.975,96.85L90.875,39.575L111.65,39.575C112.25,43.75 115.825,47 120.175,47C124.525,47 128.1,43.775 128.7,39.575L149.475,39.575L235.376,96.85C236.926,104.35 237.726,112.075 237.726,120ZM121.425,113.825L121.425,89.075L114,89.075L114,82.9C114,81.55 114.425,80.275 115.225,79.2L119.675,73.25C119.875,73 120.05,72.75 120.2,72.5C120.35,72.75 120.525,73 120.7,73.225L125.15,79.175C125.95,80.25 126.375,81.525 126.375,82.875L126.375,118.75L114,118.75L114,113.8L121.425,113.8L121.425,113.825ZM114.025,111.35L114.025,91.55L118.975,91.55L118.975,111.35L114.025,111.35ZM128.85,121.225L170.9,121.225L170.9,126.175L69.475,126.175L69.475,121.225L111.525,121.225L128.85,121.225ZM149.9,103.925C146.5,103.925 143.725,101.15 143.725,97.75L143.725,91.575L156.1,91.575L156.1,97.75C156.075,101.15 153.3,103.925 149.9,103.925ZM90.5,103.925C87.1,103.925 84.325,101.15 84.325,97.75L84.325,91.575L96.7,91.575L96.7,97.75C96.7,101.15 93.925,103.925 90.5,103.925ZM128.85,22.85L128.85,14.85L121.425,14.85L121.425,2.5C176.525,3.075 222.626,41.75 234.65,93.375L128.85,22.85Z" fill="#000000"/>
</svg>
