<svg width="242" height="242" viewBox="0 0 242 242" fill="none" xmlns="http://www.w3.org/2000/svg" xmlns:xlink="http://www.w3.org/1999/xlink">
<path d="M86.8,200.55L87.725,201.601C90.325,204.551 94.025,206.226 97.925,206.226C101.825,206.226 105.55,204.526 108.125,201.601L109.05,200.55L109.975,201.601C112.575,204.551 116.275,206.226 120.175,206.226C124.075,206.226 127.8,204.526 130.375,201.601L131.3,200.55L132.225,201.601C134.825,204.551 138.525,206.226 142.425,206.226C146.325,206.226 150.05,204.526 152.625,201.601L153.55,200.55L154.475,201.601C157.525,205.051 162.25,206.726 166.725,206.051L168.425,193.376C167.2,193.676 165.95,193.875 164.675,193.875C160.525,193.875 156.525,192.25 153.55,189.375C150.55,192.25 146.575,193.875 142.425,193.875C138.275,193.875 134.275,192.25 131.3,189.375C128.3,192.25 124.325,193.875 120.175,193.875C116.025,193.875 112.025,192.25 109.05,189.375C106.05,192.25 102.075,193.875 97.925,193.875C93.775,193.875 89.775,192.25 86.8,189.375C82.9,193.125 77.15,194.625 71.925,193.4L73.6,206.051C78.075,206.726 82.8,205.076 85.85,201.601L86.8,200.55Z" fill="#C9F2E3"/>
<path d="M212,193.676C211.25,193.776 210.5,193.851 209.725,193.851C205.575,193.851 201.575,192.226 198.6,189.351C196.45,191.426 193.725,192.826 190.825,193.451L192.4,205.276C194.4,204.501 196.225,203.251 197.675,201.601L198.6,200.551L199.525,201.601C200.4,202.601 201.45,203.426 202.575,204.126C205.925,200.826 209.05,197.351 212,193.676Z" fill="#C9F2E3"/>
<path d="M192.725,207.775L193.325,212.3C195.875,210.275 198.35,208.125 200.725,205.9C199.975,205.4 199.25,204.825 198.6,204.2C196.9,205.825 194.9,207.025 192.725,207.775Z" fill="#C9F2E3"/>
<path d="M120.2,74.626C135.913,74.626 148.65,61.888 148.65,46.176C148.65,30.463 135.913,17.726 120.2,17.726C104.487,17.726 91.75,30.463 91.75,46.176C91.75,61.888 104.487,74.626 120.2,74.626Z" fill="#F2B203"/>
<path d="M31.65,178.625C27.475,178.625 23.5,177 20.525,174.15C19.5,175.15 18.3,175.95 17.05,176.65C19.475,181.05 22.175,185.275 25.1,189.325L25.5,189.525C27.425,190.5 29.475,191 31.65,191C35.55,191 39.275,189.325 41.85,186.4L42.775,185.35L43.7,186.4C45.4,188.325 47.575,189.7 49.975,190.425L51.575,178.45C48.275,177.975 45.2,176.475 42.775,174.15C39.8,177 35.825,178.625 31.65,178.625Z" fill="#C9F2E3"/>
<path d="M120.2,2.875C55.4,2.875 2.675,55.6 2.675,120.4C2.675,139.875 7.475,158.25 15.875,174.425C17.25,173.675 18.525,172.725 19.575,171.525L20.5,170.475L21.425,171.525C24,174.45 27.725,176.125 31.625,176.125C35.525,176.125 39.25,174.45 41.825,171.525L42.75,170.475L43.675,171.525C45.825,173.95 48.725,175.5 51.875,175.975L55.65,147.625C53.525,146.05 52.1,143.525 52.1,140.675C52.1,139.15 52.525,137.725 53.25,136.475C51.75,136.45 50.35,136.025 49.125,135.325L24.275,160.175L23.725,158.1C20.875,147.45 23.95,136 31.725,128.225C34.575,125.375 37.925,123.175 41.55,121.65L7.225,121.65L8.3,119.8C13.825,110.25 24.075,104.325 35.1,104.325C38.125,104.325 41.05,104.8 43.875,105.65L21.025,83.4L23.125,82.85C33.775,80 45.225,83.075 53,90.85C56.75,94.6 59.4,99.125 60.825,104.075C62.25,99.125 64.9,94.6 68.65,90.85C76.425,83.075 87.9,80 98.525,82.85L100.625,83.4L77.775,105.65C80.6,104.8 83.55,104.325 86.55,104.325C97.55,104.325 107.825,110.25 113.35,119.8L114.425,121.65L81.625,121.65C85.025,123.175 88.2,125.25 90.9,127.975C98.675,135.75 101.75,147.2 98.9,157.85L98.35,159.925L73.275,134.825C71.875,135.825 70.175,136.45 68.325,136.475C69.025,137.725 69.475,139.15 69.475,140.675C69.475,143.575 68.025,146.125 65.825,147.7L69.475,175C71.375,175.975 73.5,176.5 75.65,176.5C79.55,176.5 83.275,174.8 85.85,171.875L86.775,170.825L87.7,171.875C90.3,174.825 94,176.5 97.9,176.5C101.8,176.5 105.525,174.8 108.1,171.875L109.025,170.825L109.95,171.875C112.55,174.825 116.25,176.5 120.15,176.5C124.05,176.5 127.775,174.8 130.35,171.875L131.275,170.825L132.2,171.875C134.8,174.825 138.5,176.5 142.4,176.5C146.3,176.5 150.025,174.8 152.6,171.875L153.525,170.825L154.45,171.875C157.05,174.825 160.75,176.5 164.65,176.5C166.8,176.5 168.925,175.975 170.825,175L174.475,147.675C172.275,146.1 170.825,143.55 170.825,140.65C170.825,139.125 171.25,137.7 171.975,136.45C171.925,136.45 171.875,136.425 171.8,136.425C171.7,136.425 171.625,136.45 171.55,136.45C169.8,136.45 168.175,135.925 166.8,135.025L141.95,159.875L141.4,157.8C138.55,147.15 141.625,135.7 149.4,127.925C152.1,125.225 155.275,123.125 158.675,121.6L126,121.6L127.075,119.75C132.6,110.2 142.85,104.275 153.875,104.275C156.9,104.275 159.825,104.75 162.65,105.6L139.8,83.35L141.9,82.8C152.55,79.95 164,83.025 171.775,90.8C175.525,94.55 178.175,99.075 179.6,104.025C181.025,99.075 183.675,94.55 187.425,90.8C195.2,83.025 206.675,79.95 217.299,82.8L219.401,83.35L196.55,105.6C199.375,104.75 202.325,104.275 205.325,104.275C216.325,104.275 226.601,110.2 232.125,119.75L233.199,121.6L198.8,121.6C202.425,123.125 205.775,125.325 208.625,128.175C216.401,135.95 219.475,147.4 216.625,158.05L216.075,160.125L191.225,135.275C190,135.975 188.6,136.4 187.1,136.425C187.8,137.675 188.25,139.1 188.25,140.625C188.25,143.475 186.85,146 184.7,147.575L188.55,176.425C192.05,176.15 195.325,174.525 197.65,171.85L198.575,170.8L199.5,171.85C202.1,174.8 205.801,176.475 209.701,176.475C213.601,176.475 217.325,174.775 219.901,171.85L220.825,170.8L221.751,171.85C222.575,172.775 223.551,173.55 224.575,174.225C232.951,158.075 237.701,139.775 237.701,120.35C237.725,55.6 185,2.875 120.2,2.875ZM120.2,77.1C103.15,77.1 89.275,63.225 89.275,46.175C89.275,29.125 103.15,15.25 120.2,15.25C137.25,15.25 151.125,29.125 151.125,46.175C151.125,63.225 137.25,77.1 120.2,77.1Z" fill="#FEE39A"/>
<path d="M49.675,192.876C47.1,192.176 44.725,190.851 42.8,188.976C39.825,191.826 35.825,193.451 31.675,193.451C30.4,193.451 29.15,193.301 27.925,193.026C31.05,196.976 34.375,200.726 37.975,204.251C39.45,203.476 40.775,202.501 41.875,201.226L42.8,200.176L43.725,201.226C44.975,202.626 46.475,203.726 48.125,204.501L49.675,192.876Z" fill="#C9F2E3"/>
<path d="M39.825,206.025C42.15,208.225 44.575,210.3 47.075,212.3L47.775,207.075C45.925,206.3 44.25,205.225 42.8,203.825C41.9,204.7 40.875,205.4 39.825,206.025Z" fill="#C9F2E3"/>
<path d="M153.6,174.5C150.6,177.375 146.625,179 142.475,179C138.325,179 134.325,177.375 131.35,174.5C128.35,177.375 124.375,179 120.225,179C116.075,179 112.075,177.375 109.1,174.5C106.1,177.375 102.125,179 97.975,179C93.825,179 89.825,177.375 86.85,174.5C83.85,177.375 79.875,179 75.725,179C73.725,179 71.775,178.625 69.925,177.9L71.625,190.7C76.6,192.25 82.4,190.75 85.925,186.725L86.85,185.675L87.775,186.725C90.375,189.675 94.075,191.35 97.975,191.35C101.875,191.35 105.6,189.65 108.175,186.725L109.1,185.675L110.025,186.725C112.625,189.675 116.325,191.35 120.225,191.35C124.125,191.35 127.85,189.65 130.425,186.725L131.35,185.675L132.275,186.725C134.875,189.675 138.575,191.35 142.475,191.35C146.375,191.35 150.1,189.65 152.675,186.725L153.6,185.675L154.525,186.725C158.05,190.725 163.85,192.275 168.825,190.7L170.525,177.9C168.675,178.6 166.725,178.975 164.725,178.975C160.575,179 156.6,177.375 153.6,174.5Z" fill="#C9F2E3"/>
<path d="M191.075,214.075L182.375,148.825C181.5,149.125 180.575,149.325 179.6,149.325C178.65,149.325 177.775,149.125 176.925,148.85L166.3,228.475C175.15,224.7 183.475,219.85 191.075,214.075Z" fill="#8E6500"/>
<path d="M50.525,205.425L50.45,205.75L49.325,214.1C56.925,219.85 65.225,224.725 74.1,228.525L63.475,148.9C62.625,149.175 61.725,149.375 60.8,149.375C59.825,149.375 58.9,149.175 58.025,148.875L50.5,205.4C50.5,205.4 50.525,205.4 50.525,205.425Z" fill="#8E6500"/>
<path d="M142.475,223.55C138.325,223.55 134.325,221.925 131.35,219.05C128.35,221.925 124.375,223.55 120.225,223.55C116.075,223.55 112.075,221.925 109.1,219.05C106.1,221.925 102.125,223.55 97.975,223.55C93.825,223.55 89.825,221.925 86.85,219.05C83.925,221.85 80,223.45 76,223.525L76.8,229.575C90.2,234.95 104.85,237.925 120.2,237.925C135.55,237.925 150.2,234.95 163.65,229.575L164.45,223.525C160.4,223.45 156.525,221.85 153.6,219.05C150.625,221.925 146.625,223.55 142.475,223.55Z" fill="#C9F2E3"/>
<path d="M209.725,179C205.575,179 201.575,177.375 198.6,174.5C195.95,177.05 192.525,178.601 188.9,178.926L190.5,190.975C193.25,190.35 195.775,188.9 197.675,186.75L198.6,185.7L199.525,186.75C203.2,190.925 209.35,192.4 214.5,190.5C217.8,186.075 220.8,181.4 223.475,176.5C222.55,175.925 221.675,175.275 220.875,174.525C217.875,177.375 213.875,179 209.725,179Z" fill="#C9F2E3"/>
<path d="M166.45,208.6C165.875,208.65 165.325,208.7 164.75,208.7C160.6,208.7 156.6,207.075 153.625,204.2C150.625,207.075 146.65,208.7 142.5,208.7C138.35,208.7 134.35,207.075 131.375,204.2C128.375,207.075 124.4,208.7 120.25,208.7C116.1,208.7 112.1,207.075 109.125,204.2C106.125,207.075 102.15,208.7 98,208.7C93.85,208.7 89.85,207.075 86.875,204.2C83.475,207.475 78.675,209.075 74.025,208.6L75.675,221.05C79.525,221.05 83.325,219.4 85.925,216.45L86.85,215.4L87.775,216.45C90.375,219.4 94.075,221.075 97.975,221.075C101.875,221.075 105.6,219.375 108.175,216.45L109.1,215.4L110.025,216.45C112.625,219.4 116.325,221.075 120.225,221.075C124.125,221.075 127.85,219.375 130.425,216.45L131.35,215.4L132.275,216.45C134.875,219.4 138.575,221.075 142.475,221.075C146.375,221.075 150.1,219.375 152.675,216.45L153.6,215.4L154.525,216.45C157.125,219.4 160.925,221.05 164.775,221.05L166.45,208.6Z" fill="#C9F2E3"/>
<path d="M33.525,129.976C26.875,136.626 23.975,146.151 25.675,155.326L47.175,133.826C45.675,132.276 44.725,130.151 44.725,127.826C44.725,125.851 45.425,124.051 46.525,122.601C41.7,123.851 37.175,126.326 33.525,129.976Z" fill="#34E0A1"/>
<path d="M97,155.05C98.7,145.875 95.8,136.35 89.15,129.7C85.125,125.675 80,123.025 74.575,121.95C76,123.5 76.9,125.55 76.9,127.825C76.9,129.825 76.2,131.65 75.05,133.1L97,155.05Z" fill="#34E0A1"/>
<path d="M90.55,84.275C83.075,84.275 75.775,87.2 70.375,92.6C65,97.975 62.05,105.125 62.05,112.725L62.05,116.375C64.65,113.025 67.875,110.3 71.525,108.275L95.7,84.75C94,84.425 92.275,84.275 90.55,84.275Z" fill="#34E0A1"/>
<path d="M59.575,116.351L59.575,112.701C59.575,105.101 56.625,97.951 51.25,92.576C44.625,85.951 35.1,83.026 25.95,84.726L50.125,108.251C53.75,110.276 57,113.001 59.575,116.351Z" fill="#34E0A1"/>
<path d="M63.05,119.175L63.85,119.175L64.975,119.175L68.225,119.175L72.875,119.175L110,119.175C104.725,111.5 95.925,106.8 86.525,106.8C81.75,106.8 77.125,108.025 73.05,110.225C69.1,112.35 65.65,115.4 63.05,119.175Z" fill="#34E0A1"/>
<path d="M57.775,119.175L58.575,119.175C55.975,115.4 52.525,112.35 48.575,110.225C44.5,108.025 39.875,106.8 35.1,106.8C25.7,106.8 16.9,111.5 11.625,119.175L53.4,119.175L57.775,119.175Z" fill="#34E0A1"/>
<path d="M58.375,146.35C59.125,146.675 59.95,146.875 60.825,146.875C61.65,146.875 62.45,146.7 63.175,146.4C64.05,146.025 64.825,145.45 65.45,144.75C66.4,143.65 67,142.25 67,140.675C67,138.525 65.875,136.625 64.2,135.525C63.425,135.025 62.525,134.7 61.575,134.575C61.325,134.55 61.075,134.5 60.8,134.5C60.5,134.5 60.2,134.55 59.925,134.6C58.95,134.75 58.05,135.075 57.3,135.625C55.7,136.75 54.625,138.6 54.625,140.7C54.625,142.2 55.2,143.575 56.1,144.65C56.7,145.375 57.475,145.975 58.375,146.35Z" fill="#F2B203"/>
<path d="M214.725,155.326C216.425,146.151 213.525,136.626 206.875,129.976C203.225,126.351 198.725,123.876 193.875,122.601C194.975,124.051 195.675,125.851 195.675,127.826C195.675,130.151 194.75,132.276 193.225,133.826L214.725,155.326Z" fill="#34E0A1"/>
<path d="M165.2,122.101C160,123.251 155.125,125.851 151.25,129.726C144.6,136.376 141.7,145.901 143.4,155.076L165.075,133.426L165.35,133.151C164.2,131.676 163.5,129.876 163.5,127.876C163.5,125.601 164.4,123.526 165.85,121.976C165.625,121.976 165.425,122.051 165.2,122.101Z" fill="#34E0A1"/>
<path d="M182.65,132.2C183.775,133.325 185.3,134 187,134C187.85,134 188.675,133.825 189.425,133.5C189.825,133.325 190.2,133.125 190.55,132.875C190.9,132.625 191.2,132.375 191.475,132.075C192.525,130.975 193.2,129.475 193.2,127.825C193.2,124.6 190.725,122 187.575,121.7C187.375,121.675 187.2,121.65 187,121.65C186.8,121.65 186.625,121.7 186.425,121.7C185,121.825 183.725,122.425 182.75,123.35C182.45,123.625 182.175,123.95 181.95,124.275C181.85,124.425 181.75,124.6 181.675,124.75C181.55,124.95 181.425,125.15 181.325,125.375C181,126.125 180.825,126.925 180.825,127.8C180.825,129.525 181.525,131.075 182.65,132.2Z" fill="#F2B203"/>
<path d="M167.9,132.3C168.2,132.6 168.525,132.85 168.9,133.05C169.775,133.6 170.8,133.925 171.9,133.975C172,133.975 172.075,134 172.15,134C173.925,134 175.5,133.25 176.65,132.05C177.7,130.95 178.35,129.45 178.35,127.825C178.35,126.775 178.075,125.8 177.6,124.95C177.525,124.825 177.475,124.7 177.4,124.575C177.175,124.225 176.925,123.9 176.65,123.575C176.375,123.275 176.05,123 175.725,122.775C174.725,122.075 173.5,121.65 172.2,121.65C172.1,121.65 172.025,121.675 171.95,121.675C168.65,121.825 166.025,124.525 166.025,127.825C166.025,129.15 166.45,130.35 167.15,131.35C167.325,131.7 167.6,132 167.9,132.3Z" fill="#F2B203"/>
<path d="M178.35,116.351L178.35,112.701C178.35,105.101 175.4,97.951 170.025,92.576C163.4,85.951 153.875,83.026 144.725,84.726L168.9,108.251C172.5,110.276 175.75,113.001 178.35,116.351Z" fill="#34E0A1"/>
<path d="M209.325,84.275C201.85,84.275 194.55,87.2 189.15,92.6C183.775,97.975 180.825,105.125 180.825,112.725L180.825,116.375C183.425,113.025 186.65,110.3 190.3,108.275L214.475,84.75C212.75,84.425 211.025,84.275 209.325,84.275Z" fill="#34E0A1"/>
<path d="M171.625,119.175L172.15,119.175L175.4,119.175L176.525,119.175L177.325,119.175C174.725,115.4 171.275,112.35 167.325,110.225C163.25,108.025 158.625,106.8 153.85,106.8C144.45,106.8 135.65,111.5 130.375,119.175L167.525,119.175L171.625,119.175Z" fill="#34E0A1"/>
<path d="M205.3,106.8C200.525,106.8 195.9,108.025 191.825,110.225C187.875,112.35 184.425,115.4 181.825,119.175L182.625,119.175L187,119.175L228.775,119.175C223.5,111.475 214.7,106.8 205.3,106.8Z" fill="#34E0A1"/>
<path d="M177.225,146.401C177.95,146.701 178.75,146.876 179.575,146.876C180.45,146.876 181.275,146.701 182.025,146.351C182.925,145.976 183.675,145.351 184.3,144.626C185.2,143.551 185.775,142.176 185.775,140.676C185.775,138.576 184.725,136.726 183.1,135.601C182.325,135.076 181.425,134.726 180.475,134.576C180.175,134.526 179.9,134.476 179.6,134.476C179.325,134.476 179.075,134.526 178.825,134.551C177.875,134.676 176.975,135.001 176.2,135.501C174.525,136.601 173.4,138.501 173.4,140.651C173.4,142.226 174,143.626 174.95,144.726C175.575,145.451 176.35,146.026 177.225,146.401Z" fill="#F2B203"/>
<path d="M49.85,132.875C50.2,133.125 50.575,133.325 50.975,133.5C51.725,133.825 52.525,134 53.4,134C55.1,134 56.65,133.3 57.75,132.2C58.875,131.075 59.575,129.525 59.575,127.825C59.575,126.975 59.4,126.15 59.075,125.4C58.975,125.175 58.85,124.975 58.725,124.775C58.625,124.6 58.55,124.45 58.45,124.3C58.2,123.95 57.95,123.65 57.65,123.35C56.575,122.325 55.125,121.675 53.55,121.65C53.5,121.65 53.45,121.625 53.4,121.625C53.25,121.625 53.125,121.65 53,121.675C49.775,121.875 47.225,124.55 47.225,127.825C47.225,129.475 47.875,130.975 48.95,132.075C49.2,132.375 49.525,132.65 49.85,132.875Z" fill="#F2B203"/>
<path d="M63.75,132.05C64.875,133.25 66.475,134 68.25,134C69.45,134 70.575,133.65 71.525,133.05C71.875,132.825 72.2,132.575 72.525,132.3C72.825,132.025 73.1,131.7 73.325,131.375C74.025,130.375 74.45,129.15 74.45,127.85C74.45,124.45 71.675,121.675 68.275,121.675C66.95,121.675 65.75,122.1 64.75,122.8C64.4,123.05 64.1,123.3 63.825,123.6C63.525,123.9 63.275,124.225 63.075,124.6C63,124.725 62.925,124.85 62.875,124.975C62.425,125.85 62.125,126.8 62.125,127.85C62.05,129.45 62.7,130.95 63.75,132.05Z" fill="#F2B203"/>
<path d="M120.2,0.4C54.025,0.4 0.2,54.225 0.2,120.4C0.2,186.575 54.025,240.4 120.2,240.4C186.375,240.4 240.2,186.575 240.2,120.4C240.2,54.225 186.375,0.4 120.2,0.4ZM224.6,174.275C223.576,173.6 222.6,172.85 221.774,171.9L220.85,170.85L219.926,171.9C217.324,174.85 213.624,176.525 209.724,176.525C205.824,176.525 202.1,174.825 199.525,171.9L198.6,170.85L197.675,171.9C195.325,174.575 192.05,176.175 188.575,176.475L184.7,147.625C186.825,146.05 188.25,143.525 188.25,140.675C188.25,139.15 187.825,137.725 187.1,136.475C188.6,136.45 190,136.025 191.225,135.325L216.076,160.175L216.626,158.1C219.474,147.45 216.4,136 208.626,128.225C205.776,125.375 202.426,123.175 198.8,121.65L233.176,121.65L232.1,119.8C226.576,110.25 216.324,104.325 205.3,104.325C202.274,104.325 199.35,104.8 196.525,105.65L219.374,83.4L217.276,82.85C206.65,80 195.175,83.075 187.4,90.85C183.65,94.6 181,99.125 179.575,104.075C178.15,99.125 175.5,94.6 171.75,90.85C163.975,83.075 152.5,80 141.875,82.85L139.775,83.4L162.625,105.65C159.8,104.8 156.85,104.325 153.85,104.325C142.85,104.325 132.575,110.25 127.05,119.8L125.975,121.65L158.75,121.65C155.35,123.175 152.175,125.25 149.475,127.975C141.7,135.75 138.625,147.2 141.475,157.85L142.025,159.925L166.875,135.075C168.25,135.975 169.875,136.5 171.625,136.5C171.725,136.5 171.8,136.475 171.875,136.475C171.925,136.475 171.975,136.5 172.05,136.5C171.35,137.75 170.9,139.175 170.9,140.7C170.9,143.6 172.35,146.15 174.55,147.725L170.9,175.05C169,176.025 166.875,176.55 164.725,176.55C160.825,176.55 157.1,174.85 154.525,171.925L153.6,170.875L152.675,171.925C150.075,174.875 146.375,176.55 142.475,176.55C138.575,176.55 134.85,174.85 132.275,171.925L131.35,170.875L130.425,171.925C127.825,174.875 124.125,176.55 120.225,176.55C116.325,176.55 112.6,174.85 110.025,171.925L109.1,170.875L108.175,171.925C105.575,174.875 101.875,176.55 97.975,176.55C94.075,176.55 90.35,174.85 87.775,171.925L86.85,170.875L85.925,171.925C83.325,174.875 79.625,176.55 75.725,176.55C73.575,176.55 71.45,176.025 69.55,175.05L65.9,147.75C68.1,146.175 69.55,143.625 69.55,140.725C69.55,139.2 69.125,137.775 68.4,136.525C70.25,136.5 71.95,135.9 73.35,134.875L98.35,159.9L98.9,157.825C101.75,147.175 98.675,135.725 90.9,127.95C88.2,125.25 85.025,123.15 81.625,121.625L114.4,121.625L113.325,119.775C107.8,110.225 97.55,104.3 86.525,104.3C83.5,104.3 80.575,104.775 77.75,105.625L100.6,83.375L98.5,82.825C87.875,79.975 76.4,83.05 68.625,90.825C64.875,94.575 62.225,99.1 60.8,104.05C59.375,99.1 56.725,94.575 52.975,90.825C45.2,83.05 33.75,79.975 23.1,82.825L21.025,83.4L43.875,105.65C41.05,104.8 38.1,104.325 35.1,104.325C24.1,104.325 13.825,110.25 8.3,119.8L7.225,121.65L41.6,121.65C37.975,123.175 34.625,125.375 31.775,128.225C24,136 20.925,147.45 23.775,158.1L24.325,160.175L49.175,135.325C50.4,136.025 51.8,136.45 53.3,136.475C52.6,137.725 52.15,139.15 52.15,140.675C52.15,143.525 53.55,146.05 55.7,147.625L51.925,175.975C48.775,175.5 45.85,173.95 43.725,171.525L42.8,170.475L41.875,171.525C39.3,174.45 35.575,176.125 31.675,176.125C27.775,176.125 24.05,174.45 21.475,171.525L20.55,170.475L19.625,171.525C18.575,172.725 17.3,173.65 15.925,174.425C7.475,158.25 2.675,139.875 2.675,120.4C2.675,55.6 55.4,2.875 120.2,2.875C185,2.875 237.726,55.6 237.726,120.4C237.726,139.8 232.976,158.125 224.6,174.275ZM214.474,190.5C209.35,192.425 203.2,190.95 199.5,186.75L198.575,185.7L197.65,186.75C195.75,188.9 193.225,190.35 190.475,190.975L188.875,178.925C192.5,178.6 195.95,177.05 198.575,174.5C201.576,177.375 205.55,179 209.7,179C213.85,179 217.85,177.375 220.824,174.5C221.626,175.25 222.5,175.9 223.426,176.475C220.774,181.375 217.774,186.05 214.474,190.5ZM202.576,204.124C201.45,203.424 200.4,202.6 199.525,201.6L198.6,200.55L197.675,201.6C196.225,203.25 194.4,204.474 192.4,205.276L190.825,193.45C193.725,192.825 196.45,191.45 198.6,189.35C201.6,192.225 205.576,193.85 209.724,193.85C210.5,193.85 211.25,193.775 212,193.675C209.05,197.35 205.924,200.824 202.576,204.124ZM193.325,212.3L192.725,207.776C194.9,207.024 196.9,205.824 198.6,204.2C199.25,204.824 199.975,205.374 200.724,205.9C198.35,208.124 195.875,210.276 193.325,212.3ZM166.275,228.5L176.9,148.875C177.75,149.15 178.65,149.35 179.575,149.35C180.55,149.35 181.475,149.15 182.35,148.85L191.05,214.1C183.475,219.85 175.15,224.7 166.275,228.5ZM120.2,237.926C104.85,237.926 90.2,234.95 76.75,229.574L75.95,223.524C79.95,223.424 83.875,221.85 86.8,219.05C89.8,221.924 93.775,223.55 97.925,223.55C102.075,223.55 106.075,221.924 109.05,219.05C112.05,221.924 116.025,223.55 120.175,223.55C124.325,223.55 128.325,221.924 131.3,219.05C134.3,221.924 138.275,223.55 142.425,223.55C146.575,223.55 150.575,221.924 153.55,219.05C156.475,221.85 160.35,223.45 164.4,223.524L163.6,229.574C150.2,234.95 135.55,237.926 120.2,237.926ZM39.825,206.024C40.875,205.4 41.9,204.7 42.775,203.826C44.225,205.226 45.925,206.3 47.75,207.074L47.05,212.3C44.575,210.3 42.15,208.224 39.825,206.024ZM27.9,193.025C29.125,193.325 30.375,193.45 31.65,193.45C35.825,193.45 39.8,191.825 42.775,188.975C44.725,190.825 47.075,192.15 49.65,192.875L48.1,204.5C46.45,203.724 44.925,202.626 43.7,201.226L42.775,200.175L41.85,201.226C40.75,202.476 39.425,203.474 37.95,204.25C34.375,200.724 31.025,196.975 27.9,193.025ZM50,190.4C47.6,189.675 45.4,188.3 43.725,186.375L42.8,185.325L41.875,186.375C39.3,189.3 35.575,190.975 31.675,190.975C29.5,190.975 27.45,190.475 25.525,189.5L25.125,189.3C22.175,185.25 19.475,181.025 17.075,176.625C18.35,175.95 19.525,175.125 20.55,174.125C23.525,176.975 27.525,178.6 31.675,178.6C35.825,178.6 39.825,176.975 42.8,174.125C45.225,176.45 48.3,177.925 51.6,178.425L50,190.4ZM49.325,214.076L50.45,205.724L50.525,205.4C50.5,205.4 50.5,205.4 50.5,205.374L58.05,148.825C58.925,149.125 59.85,149.325 60.825,149.325C61.775,149.325 62.65,149.125 63.5,148.85L74.125,228.476C65.25,224.7 56.925,219.85 49.325,214.076ZM72.5,132.3C72.2,132.6 71.875,132.85 71.5,133.05C70.55,133.65 69.45,134 68.225,134C66.45,134 64.875,133.25 63.725,132.05C62.675,130.95 62.025,129.45 62.025,127.825C62.025,126.775 62.3,125.8 62.775,124.95C62.85,124.825 62.9,124.7 62.975,124.575C63.2,124.225 63.45,123.9 63.725,123.575C64,123.275 64.325,123 64.65,122.775C65.65,122.075 66.875,121.65 68.175,121.65C71.575,121.65 74.35,124.425 74.35,127.825C74.35,129.15 73.925,130.35 73.225,131.35C73.075,131.7 72.8,132 72.5,132.3ZM76.9,127.825C76.9,125.55 76,123.5 74.575,121.95C80,123.025 85.125,125.675 89.15,129.7C95.8,136.35 98.7,145.875 97,155.05L75.05,133.1C76.2,131.65 76.9,129.825 76.9,127.825ZM68.25,119.175L65,119.175L63.875,119.175L63.075,119.175C65.675,115.4 69.125,112.35 73.075,110.225C77.15,108.025 81.775,106.8 86.55,106.8C95.95,106.8 104.75,111.5 110.025,119.175L72.9,119.175L68.25,119.175ZM62.05,116.35L62.05,112.7C62.05,105.1 65,97.95 70.375,92.575C75.775,87.175 83.075,84.25 90.55,84.25C92.275,84.25 93.975,84.4 95.7,84.725L71.525,108.25C67.9,110.275 64.65,113 62.05,116.35ZM59.575,116.35C56.975,113 53.75,110.275 50.1,108.25L25.925,84.725C35.075,83.05 44.6,85.95 51.225,92.575C56.6,97.95 59.55,105.1 59.55,112.7L59.55,116.35L59.575,116.35ZM58.575,119.175L57.775,119.175L53.4,119.175L11.625,119.175C16.9,111.5 25.7,106.8 35.1,106.8C39.875,106.8 44.5,108.025 48.575,110.225C52.525,112.35 55.975,115.4 58.575,119.175ZM44.725,127.825C44.725,130.15 45.65,132.275 47.175,133.825L25.675,155.325C23.975,146.15 26.875,136.625 33.525,129.975C37.175,126.325 41.7,123.85 46.55,122.6C45.425,124.05 44.725,125.85 44.725,127.825ZM47.2,127.825C47.2,124.55 49.75,121.9 52.975,121.675C53.1,121.675 53.25,121.625 53.375,121.625C53.425,121.625 53.475,121.65 53.525,121.65C55.125,121.675 56.55,122.325 57.625,123.35C57.925,123.625 58.2,123.95 58.425,124.3C58.525,124.45 58.625,124.625 58.7,124.775C58.825,124.975 58.95,125.175 59.05,125.4C59.375,126.15 59.55,126.95 59.55,127.825C59.55,129.525 58.85,131.075 57.725,132.2C56.6,133.325 55.075,134 53.375,134C52.525,134 51.7,133.825 50.95,133.5C50.55,133.325 50.175,133.125 49.825,132.875C49.475,132.625 49.175,132.375 48.875,132.075C47.875,130.975 47.2,129.475 47.2,127.825ZM57.3,135.6C58.075,135.075 58.975,134.725 59.925,134.575C60.225,134.525 60.5,134.475 60.8,134.475C61.075,134.475 61.325,134.525 61.575,134.55C62.525,134.675 63.425,135 64.2,135.5C65.875,136.6 67,138.5 67,140.65C67,142.225 66.4,143.625 65.45,144.725C64.825,145.425 64.05,146 63.175,146.375C62.45,146.675 61.65,146.85 60.825,146.85C59.95,146.85 59.125,146.675 58.375,146.325C57.475,145.95 56.725,145.325 56.1,144.6C55.2,143.525 54.625,142.15 54.625,140.65C54.625,138.575 55.7,136.725 57.3,135.6ZM164.775,221.05C160.925,221.05 157.125,219.4 154.525,216.45L153.6,215.4L152.675,216.45C150.075,219.4 146.375,221.074 142.475,221.074C138.575,221.074 134.85,219.374 132.275,216.45L131.35,215.4L130.425,216.45C127.825,219.4 124.125,221.074 120.225,221.074C116.325,221.074 112.6,219.374 110.025,216.45L109.1,215.4L108.175,216.45C105.575,219.4 101.875,221.074 97.975,221.074C94.075,221.074 90.35,219.374 87.775,216.45L86.85,215.4L85.925,216.45C83.325,219.4 79.5,221.05 75.675,221.05L74.025,208.6C78.675,209.076 83.475,207.474 86.875,204.2C89.875,207.074 93.85,208.7 98,208.7C102.15,208.7 106.15,207.074 109.125,204.2C112.125,207.074 116.1,208.7 120.25,208.7C124.4,208.7 128.4,207.074 131.375,204.2C134.375,207.074 138.35,208.7 142.5,208.7C146.65,208.7 150.65,207.074 153.625,204.2C156.625,207.074 160.6,208.7 164.75,208.7C165.325,208.7 165.9,208.674 166.45,208.6L164.775,221.05ZM166.775,206.05C162.3,206.726 157.575,205.05 154.525,201.6L153.6,200.55L152.675,201.6C150.075,204.55 146.375,206.226 142.475,206.226C138.575,206.226 134.85,204.526 132.275,201.6L131.35,200.55L130.425,201.6C127.825,204.55 124.125,206.226 120.225,206.226C116.325,206.226 112.6,204.526 110.025,201.6L109.1,200.55L108.175,201.6C105.575,204.55 101.875,206.226 97.975,206.226C94.075,206.226 90.35,204.526 87.775,201.6L86.85,200.55L85.925,201.6C82.875,205.05 78.15,206.7 73.675,206.05L72,193.4C77.225,194.6 82.975,193.125 86.875,189.375C89.875,192.25 93.85,193.875 98,193.875C102.15,193.875 106.15,192.25 109.125,189.375C112.125,192.25 116.1,193.875 120.25,193.875C124.4,193.875 128.4,192.25 131.375,189.375C134.375,192.25 138.35,193.875 142.5,193.875C146.65,193.875 150.65,192.25 153.625,189.375C156.625,192.25 160.6,193.875 164.75,193.875C166.025,193.875 167.275,193.675 168.5,193.375L166.775,206.05ZM168.825,190.725C163.85,192.275 158.05,190.75 154.525,186.75L153.6,185.7L152.675,186.75C150.075,189.7 146.375,191.375 142.475,191.375C138.575,191.375 134.85,189.675 132.275,186.75L131.35,185.7L130.425,186.75C127.825,189.7 124.125,191.375 120.225,191.375C116.325,191.375 112.6,189.675 110.025,186.75L109.1,185.7L108.175,186.75C105.575,189.7 101.875,191.375 97.975,191.375C94.075,191.375 90.35,189.675 87.775,186.75L86.85,185.7L85.925,186.75C82.4,190.75 76.625,192.275 71.625,190.725L69.875,177.9C71.725,178.6 73.675,179 75.675,179C79.825,179 83.825,177.375 86.8,174.5C89.8,177.375 93.775,179 97.925,179C102.075,179 106.075,177.375 109.05,174.5C112.05,177.375 116.025,179 120.175,179C124.325,179 128.325,177.375 131.3,174.5C134.3,177.375 138.275,179 142.425,179C146.575,179 150.575,177.375 153.55,174.5C156.55,177.375 160.525,179 164.675,179C166.65,179 168.625,178.625 170.475,177.925L168.825,190.725ZM165.05,133.4L143.375,155.05C141.675,145.875 144.575,136.35 151.225,129.7C155.1,125.825 159.975,123.25 165.175,122.075C165.4,122.025 165.6,121.95 165.825,121.9C164.375,123.45 163.475,125.525 163.475,127.8C163.475,129.8 164.175,131.625 165.325,133.075L165.05,133.4ZM182.65,132.2C181.525,131.075 180.825,129.525 180.825,127.825C180.825,126.975 181,126.15 181.325,125.4C181.425,125.175 181.55,124.975 181.675,124.775C181.775,124.6 181.85,124.45 181.95,124.3C182.2,123.95 182.45,123.65 182.75,123.375C183.725,122.45 185,121.85 186.425,121.725C186.625,121.7 186.8,121.675 187,121.675C187.2,121.675 187.375,121.725 187.575,121.725C190.725,122.025 193.2,124.65 193.2,127.85C193.2,129.5 192.55,131 191.475,132.1C191.2,132.4 190.875,132.675 190.55,132.9C190.2,133.15 189.825,133.35 189.425,133.525C188.675,133.85 187.875,134.025 187,134.025C185.3,134 183.775,133.325 182.65,132.2ZM195.675,127.825C195.675,125.85 195,124.075 193.875,122.6C198.725,123.85 203.224,126.325 206.874,129.975C213.524,136.625 216.424,146.15 214.724,155.325L193.225,133.825C194.725,132.275 195.675,130.15 195.675,127.825ZM187,119.175L182.625,119.175L181.825,119.175C184.425,115.4 187.875,112.35 191.825,110.225C195.9,108.025 200.524,106.8 205.3,106.8C214.7,106.8 223.5,111.5 228.774,119.175L187,119.175ZM180.825,116.35L180.825,112.7C180.825,105.1 183.775,97.95 189.15,92.575C194.55,87.175 201.85,84.25 209.324,84.25C211.05,84.25 212.75,84.4 214.474,84.725L190.3,108.25C186.65,110.275 183.4,113 180.825,116.35ZM178.35,116.35C175.75,113 172.525,110.275 168.875,108.25L144.7,84.725C153.85,83.05 163.375,85.95 170,92.575C175.375,97.95 178.325,105.1 178.325,112.7L178.325,116.35L178.35,116.35ZM177.35,119.175L176.55,119.175L175.425,119.175L172.175,119.175L171.65,119.175L167.55,119.175L130.375,119.175C135.65,111.5 144.45,106.8 153.85,106.8C158.625,106.8 163.25,108.025 167.325,110.225C171.3,112.35 174.75,115.4 177.35,119.175ZM168.9,133.05C168.55,132.825 168.225,132.575 167.9,132.3C167.6,132.025 167.325,131.7 167.1,131.375C166.4,130.375 165.975,129.15 165.975,127.85C165.975,124.525 168.6,121.825 171.9,121.7C172,121.7 172.075,121.675 172.15,121.675C173.475,121.675 174.675,122.1 175.675,122.8C176.025,123.05 176.325,123.3 176.6,123.6C176.9,123.9 177.15,124.225 177.35,124.6C177.425,124.725 177.5,124.85 177.55,124.975C178,125.85 178.3,126.8 178.3,127.85C178.3,129.5 177.65,130.975 176.6,132.075C175.475,133.275 173.875,134.025 172.1,134.025C172,134.025 171.925,134 171.85,134C170.8,133.925 169.775,133.6 168.9,133.05ZM176.175,135.525C176.95,135.025 177.85,134.7 178.8,134.575C179.05,134.55 179.3,134.5 179.575,134.5C179.875,134.5 180.175,134.55 180.45,134.6C181.425,134.75 182.325,135.075 183.075,135.625C184.675,136.75 185.75,138.6 185.75,140.7C185.75,142.2 185.175,143.575 184.275,144.65C183.65,145.375 182.9,145.975 182,146.375C181.25,146.7 180.425,146.9 179.55,146.9C178.725,146.9 177.925,146.725 177.2,146.425C176.325,146.05 175.55,145.475 174.925,144.775C173.975,143.675 173.375,142.275 173.375,140.7C173.4,138.525 174.5,136.625 176.175,135.525Z" fill="#000000"/>
<path d="M120.2,15.25C103.15,15.25 89.275,29.125 89.275,46.175C89.275,63.225 103.15,77.1 120.2,77.1C137.25,77.1 151.125,63.225 151.125,46.175C151.125,29.125 137.25,15.25 120.2,15.25ZM120.2,74.625C104.5,74.625 91.75,61.85 91.75,46.175C91.75,30.5 104.5,17.725 120.2,17.725C135.9,17.725 148.65,30.5 148.65,46.175C148.65,61.85 135.9,74.625 120.2,74.625Z" fill="#000000"/>
</svg>
