<svg width="242" height="240" viewBox="0 0 242 240" fill="none" xmlns="http://www.w3.org/2000/svg" xmlns:xlink="http://www.w3.org/1999/xlink">
<path d="M120.2,113.825C84.45,113.825 55.325,142.575 54.675,178.15L185.75,178.15C185.075,142.55 155.95,113.825 120.2,113.825ZM64.325,163.25L61.95,162.575C68.25,140.7 86.775,123.9 109.15,119.775L109.6,122.2C88.15,126.15 70.375,142.275 64.325,163.25Z" fill="#DFD3EE"/>
<path d="M120.2,111.325C123.61,111.325 126.375,108.56 126.375,105.15C126.375,101.74 123.61,98.975 120.2,98.975C116.79,98.975 114.025,101.74 114.025,105.15C114.025,108.56 116.79,111.325 120.2,111.325Z" fill="#F2B203"/>
<path d="M133.725,105.225C135.075,105.225 136.375,104.8 137.45,103.975L178.35,73.05L178.35,39.6L136.25,39.6L135.025,39.6C132.575,39.6 130.125,39.925 127.775,40.525C124.475,41.4 121.375,42.85 118.575,44.825C112.475,49.15 108.375,55.575 107.05,62.875L100.675,97.75C100.175,100.5 101.6,103.275 104.125,104.45C107.2,105.9 110.9,104.575 112.35,101.475C112.575,101 112.75,100.475 112.825,99.95L119.2,65.125C119.95,61 122.275,57.375 125.725,54.925C128.45,53 131.675,51.975 135.025,51.975C143.9,51.975 151.1,59.2 151.1,68.05C151.1,72.625 149.125,77.025 145.7,80.075L129.575,94.425C128.25,95.6 127.5,97.275 127.5,99.05C127.55,102.45 130.325,105.225 133.725,105.225Z" fill="#FFFFFF"/>
<path d="M121.6,39.6L83.075,39.6C79.675,39.6 76.9,42.375 76.9,45.775C76.9,47.725 77.85,49.525 79.4,50.675L121.6,39.6Z" fill="#FFFFFF"/>
<path d="M69.475,82.875C69.475,86.275 72.25,89.05 75.65,89.05C76.95,89.05 78.175,88.65 79.225,87.9L103.025,71L104.6,62.4C105.3,58.6 106.7,55.025 108.675,51.825L72.075,77.825C70.45,79 69.475,80.875 69.475,82.875Z" fill="#FFFFFF"/>
<path d="M53.4,195.475L30.2,195.475C51.775,221.175 84.1,237.525 120.2,237.525C156.3,237.525 188.625,221.15 210.2,195.475L187,195.475L53.4,195.475Z" fill="#8E6500"/>
<path d="M195.675,84.125L195.675,89.075L233.575,89.075C228.45,70.3 218.775,53.375 205.8,39.6L195.675,39.6L195.675,84.125ZM209.275,66.8C214.05,66.8 217.925,70.675 217.925,75.45C217.925,80.225 214.05,84.1 209.275,84.1C204.5,84.1 200.625,80.225 200.625,75.45C200.625,70.675 204.5,66.8 209.275,66.8Z" fill="#301D49"/>
<path d="M53.4,193L187,193C194.075,193 199.925,187.55 200.55,180.625L39.85,180.625C40.475,187.55 46.3,193 53.4,193Z" fill="#F2B203"/>
<path d="M35.14,130.82L27.115,130.82L27.115,138.845L35.14,138.845L35.14,130.82Z" transform="rotate(-90 31.128 134.832)" fill="#F2B203"/>
<path d="M69.475,60.625C69.475,64.025 72.25,66.8 75.65,66.8C76.075,66.8 76.5,66.75 76.9,66.675L86.2,64.775L116.025,43.6L74.075,54.625C71.375,55.35 69.475,57.8 69.475,60.625Z" fill="#FFFFFF"/>
<path d="M209.275,81.65C212.685,81.65 215.45,78.885 215.45,75.475C215.45,72.064 212.685,69.3 209.275,69.3C205.865,69.3 203.1,72.064 203.1,75.475C203.1,78.885 205.865,81.65 209.275,81.65Z" fill="#F2B203"/>
<rect  x="180.825" y="39.6" width="12.375" height="42.05" fill="#FEE39A"/>
<path d="M191.028,108.567L183.003,108.567L183.003,116.592L191.028,116.592L191.028,108.567Z" transform="rotate(-90 187.015 112.579)" fill="#FFFFFF"/>
<path d="M193.2,91.55L193.2,84.125L178.35,84.125L178.35,76.15L138.95,105.95C137.45,107.1 135.625,107.7 133.725,107.7C131.875,107.7 130.175,107.1 128.775,106.125C128.525,108.3 127.5,110.225 125.95,111.625C160.4,114.5 187.6,143.15 188.225,178.175L203.1,178.175L203.1,179.4C203.1,185.125 200.075,190.15 195.55,193L212.225,193C228.175,172.925 237.75,147.575 237.75,120C237.75,110.2 236.525,100.65 234.25,91.55L193.2,91.55ZM187,121.75L177.825,112.575L187,103.4L196.175,112.575L187,121.75ZM209.275,144.025L200.1,134.85L209.275,125.675L218.45,134.85L209.275,144.025Z" fill="#FEE39A"/>
<path d="M144.1,78.2C147,75.625 148.65,71.925 148.65,68.025C148.65,60.525 142.55,54.425 135.05,54.425C132.2,54.425 129.5,55.3 127.175,56.925C124.25,59 122.3,62.075 121.65,65.55L115.775,97.75C117.075,96.975 118.575,96.5 120.2,96.5C122.05,96.5 123.75,97.1 125.175,98.075C125.4,95.95 126.375,93.975 127.975,92.55L144.1,78.2Z" fill="#FEE39A"/>
<path d="M37.325,179.375L37.325,178.15L52.2,178.15C52.825,143.125 80.05,114.5 114.475,111.6C112.875,110.175 111.85,108.2 111.625,105.975C109.175,107.65 105.95,108.05 103.075,106.7C99.525,105.025 97.525,101.175 98.225,97.3L102.4,74.525L80.65,89.95C79.175,91 77.45,91.55 75.65,91.55C70.875,91.55 67,87.675 67,82.9C67,80.1 68.375,77.45 70.65,75.825L81.2,68.325L77.375,69.1C76.8,69.225 76.225,69.275 75.625,69.275C70.85,69.275 66.975,65.4 66.975,60.625C66.975,56.7 69.625,53.25 73.425,52.25L76.525,51.45C75.175,49.9 74.4,47.9 74.4,45.8C74.4,41.025 78.275,37.15 83.05,37.15L135,37.15L136.225,37.15L178.3,37.15L179.525,37.15L193.125,37.15L195.6,37.15L203.375,37.15C182.15,15.725 152.7,2.475 120.2,2.475C55.4,2.475 2.675,55.2 2.675,120C2.675,147.575 12.25,172.925 28.2,193L44.875,193C40.325,190.15 37.325,185.125 37.325,179.375ZM53.4,103.4L62.575,112.575L53.4,121.75L44.225,112.575L53.4,103.4ZM21.95,134.85L31.125,125.675L40.3,134.85L31.125,144.025L21.95,134.85Z" fill="#FEE39A"/>
<path d="M57.408,108.577L49.383,108.577L49.383,116.602L57.408,116.602L57.408,108.577Z" transform="rotate(-90 53.396 112.59)" fill="#FFFFFF"/>
<path d="M213.27,130.835L205.245,130.835L205.245,138.86L213.27,138.86L213.27,130.835Z" transform="rotate(-90 209.257 134.847)" fill="#F2B203"/>
<path d="M120.2,0C54.025,0 0.2,53.825 0.2,120C0.2,186.175 54.025,240 120.2,240C186.375,240 240.2,186.175 240.2,120C240.2,53.825 186.375,0 120.2,0ZM233.576,89.075L195.675,89.075L195.675,84.125L195.675,39.6L205.8,39.6C218.75,53.375 228.424,70.3 233.576,89.075ZM237.726,120C237.726,147.575 228.15,172.925 212.2,193L195.525,193C200.05,190.15 203.076,185.125 203.076,179.4L203.076,178.175L188.2,178.175C187.575,143.15 160.35,114.525 125.925,111.625C127.475,110.25 128.525,108.3 128.75,106.125C130.15,107.125 131.875,107.7 133.7,107.7C135.6,107.7 137.4,107.1 138.925,105.95L178.325,76.15L178.325,84.125L193.175,84.125L193.175,91.55L234.2,91.55C236.5,100.65 237.726,110.2 237.726,120ZM120.2,237.526C84.1,237.526 51.775,221.15 30.2,195.475L53.4,195.475L187,195.475L210.2,195.475C188.625,221.15 156.3,237.526 120.2,237.526ZM114.025,105.15C114.025,101.75 116.8,98.975 120.2,98.975C123.6,98.975 126.375,101.75 126.375,105.15C126.375,108.55 123.6,111.325 120.2,111.325C116.8,111.325 114.025,108.575 114.025,105.15ZM76.9,45.775C76.9,42.375 79.675,39.6 83.075,39.6L121.6,39.6L79.375,50.7C77.85,49.525 76.9,47.725 76.9,45.775ZM116.025,43.6L86.2,64.775L76.9,66.675C76.5,66.75 76.075,66.8 75.65,66.8C72.25,66.8 69.475,64.025 69.475,60.625C69.475,57.825 71.375,55.35 74.075,54.65L116.025,43.6ZM108.7,51.85C106.725,55.075 105.325,58.625 104.625,62.425L103.05,71.025L79.25,87.925C78.2,88.675 76.975,89.075 75.675,89.075C72.275,89.075 69.5,86.3 69.5,82.9C69.5,80.9 70.475,79 72.1,77.85L108.7,51.85ZM107.05,62.875C108.375,55.55 112.475,49.15 118.575,44.825C121.375,42.85 124.475,41.4 127.775,40.525C130.125,39.9 132.575,39.6 135.025,39.6L136.25,39.6L178.325,39.6L178.325,73.05L137.45,103.975C136.375,104.8 135.075,105.225 133.725,105.225C130.325,105.225 127.55,102.45 127.55,99.05C127.55,97.275 128.3,95.6 129.625,94.425L145.75,80.075C149.175,77.025 151.15,72.65 151.15,68.05C151.15,59.175 143.925,51.975 135.075,51.975C131.725,51.975 128.5,53 125.775,54.925C122.325,57.375 120.025,61 119.25,65.125L112.875,99.95C112.775,100.475 112.625,100.975 112.4,101.475C110.95,104.55 107.25,105.9 104.175,104.45C101.625,103.25 100.2,100.5 100.725,97.75L107.05,62.875ZM120.2,96.5C118.575,96.5 117.075,96.975 115.775,97.75L121.675,65.575C122.325,62.075 124.275,59 127.2,56.95C129.5,55.3 132.225,54.45 135.075,54.45C142.575,54.45 148.675,60.55 148.675,68.05C148.675,71.925 147.025,75.625 144.125,78.225L128,92.575C126.4,94 125.425,95.975 125.2,98.1C123.75,97.1 122.05,96.5 120.2,96.5ZM200.55,180.625C199.925,187.55 194.075,193 187,193L53.4,193C46.325,193 40.475,187.55 39.85,180.625L200.55,180.625ZM54.675,178.15C55.325,142.55 84.45,113.825 120.2,113.825C155.95,113.825 185.075,142.575 185.725,178.15L54.675,178.15ZM193.2,81.65L180.825,81.65L180.825,39.6L193.2,39.6L193.2,81.65ZM195.675,37.125L193.2,37.125L179.6,37.125L178.375,37.125L136.25,37.125L135.025,37.125L83.075,37.125C78.3,37.125 74.425,41 74.425,45.775C74.425,47.9 75.2,49.875 76.55,51.425L73.45,52.25C69.65,53.25 67,56.7 67,60.625C67,65.4 70.875,69.275 75.65,69.275C76.225,69.275 76.825,69.225 77.4,69.1L81.225,68.325L70.675,75.825C68.375,77.45 67.025,80.1 67.025,82.9C67.025,87.675 70.9,91.55 75.675,91.55C77.475,91.55 79.225,91 80.675,89.95L102.425,74.525L98.25,97.3C97.55,101.15 99.525,105.025 103.1,106.7C105.975,108.05 109.2,107.65 111.65,105.975C111.875,108.2 112.9,110.2 114.5,111.6C80.025,114.475 52.825,143.125 52.2,178.15L37.325,178.15L37.325,179.375C37.325,185.1 40.35,190.125 44.875,192.975L28.2,192.975C12.25,172.925 2.675,147.575 2.675,120C2.675,55.2 55.4,2.475 120.2,2.475C152.7,2.475 182.15,15.725 203.426,37.125L195.675,37.125Z" fill="#000000"/>
<path d="M61.95,162.575L64.325,163.25C70.375,142.275 88.15,126.15 109.6,122.2L109.15,119.775C86.775,123.9 68.25,140.7 61.95,162.575Z" fill="#000000"/>
<path d="M21.95,134.85L31.125,144.025L40.3,134.85L31.125,125.675L21.95,134.85ZM31.125,140.525L25.45,134.85L31.125,129.175L36.8,134.85L31.125,140.525Z" fill="#000000"/>
<path d="M218.45,134.85L209.275,125.675L200.1,134.85L209.275,144.025L218.45,134.85ZM209.275,129.175L214.95,134.85L209.275,140.525L203.6,134.85L209.275,129.175Z" fill="#000000"/>
<path d="M177.825,112.575L187,121.75L196.175,112.575L187,103.4L177.825,112.575ZM187,118.25L181.325,112.575L187,106.9L192.675,112.575L187,118.25Z" fill="#000000"/>
<path d="M44.225,112.575L53.4,121.75L62.575,112.575L53.4,103.4L44.225,112.575ZM53.4,118.25L47.725,112.575L53.4,106.9L59.075,112.575L53.4,118.25Z" fill="#000000"/>
<path d="M209.275,84.125C214.05,84.125 217.925,80.25 217.925,75.475C217.925,70.7 214.05,66.825 209.275,66.825C204.5,66.825 200.625,70.7 200.625,75.475C200.625,80.25 204.5,84.125 209.275,84.125ZM209.275,69.275C212.675,69.275 215.45,72.05 215.45,75.45C215.45,78.85 212.675,81.625 209.275,81.625C205.875,81.625 203.1,78.85 203.1,75.45C203.075,72.05 205.85,69.275 209.275,69.275Z" fill="#000000"/>
</svg>
