<svg width="34" height="42" viewBox="0 0 34 42" fill="none" xmlns="http://www.w3.org/2000/svg" xmlns:xlink="http://www.w3.org/1999/xlink">
<path d="M10.427,40.178C4.425,40.142 -0.539,27.668 -0.539,21.315C-0.539,10.938 7.106,8.666 10.053,8.666C11.381,8.666 12.798,9.197 14.049,9.667C14.924,9.995 15.828,10.333 16.331,10.333C16.632,10.333 17.342,10.045 17.968,9.793C19.304,9.251 20.967,8.578 22.902,8.578C22.906,8.578 22.91,8.578 22.914,8.578C24.359,8.578 28.742,8.901 31.377,12.93L31.994,13.875L31.106,14.557C29.837,15.532 27.522,17.311 27.522,20.834C27.522,25.006 30.144,26.611 31.404,27.383C31.96,27.723 32.535,28.075 32.535,28.843C32.535,29.345 28.604,40.115 22.894,40.115C21.497,40.115 20.51,39.688 19.639,39.311C18.757,38.929 17.997,38.6 16.74,38.6C16.104,38.6 15.298,38.907 14.446,39.232C13.281,39.675 11.962,40.178 10.466,40.178L10.427,40.178Z" fill="#FFFFFF"/>
<path d="M23.505,-0.879C23.654,4.58 19.82,8.368 15.99,8.13C15.359,3.773 19.819,-0.879 23.505,-0.879Z" fill="#FFFFFF"/>
</svg>
