<svg width="186" height="184" viewBox="0 0 186 184" fill="none" xmlns="http://www.w3.org/2000/svg" xmlns:xlink="http://www.w3.org/1999/xlink">
<path d="M132.028,92.539C121.065,92.539 111.769,100.723 110.389,111.572C110.274,112.472 110.217,113.411 110.217,114.351C110.217,115.673 110.351,116.977 110.581,118.241L114.951,112.856L121.18,120.522L123.557,117.609C121.103,115.29 119.704,112.089 119.704,108.677C119.704,101.873 125.243,96.353 132.028,96.353C138.832,96.353 144.352,101.892 144.352,108.677C144.352,112.089 142.953,115.29 140.5,117.609L142.877,120.522L149.106,112.856L153.476,118.241C153.706,116.977 153.84,115.692 153.84,114.351C153.84,112.798 153.667,111.246 153.342,109.732C151.214,99.784 142.244,92.539 132.028,92.539Z" fill="#DFD3EE"/>
<path d="M52.372,92.539C41.408,92.539 32.112,100.723 30.732,111.572C30.617,112.472 30.56,113.411 30.56,114.351C30.56,115.673 30.694,116.977 30.924,118.241L35.294,112.856L41.523,120.522L43.9,117.609C41.447,115.29 40.047,112.089 40.047,108.677C40.047,101.873 45.587,96.353 52.372,96.353C59.157,96.353 64.696,101.892 64.696,108.677C64.696,112.089 63.297,115.29 60.843,117.609L63.22,120.522L69.449,112.856L73.819,118.241C74.049,116.977 74.183,115.692 74.183,114.351C74.183,112.798 74.011,111.246 73.685,109.732C71.538,99.784 62.568,92.539 52.372,92.539Z" fill="#DFD3EE"/>
<path d="M62.798,108.678C62.798,102.928 58.122,98.251 52.372,98.251C46.622,98.251 41.945,102.928 41.945,108.678C41.945,111.514 43.095,114.178 45.107,116.133L52.391,107.163L59.674,116.133C61.648,114.178 62.798,111.514 62.798,108.678Z" fill="#F2B203"/>
<path d="M142.474,108.678C142.474,102.928 137.797,98.251 132.047,98.251C126.297,98.251 121.621,102.928 121.621,108.678C121.621,111.514 122.771,114.178 124.783,116.133L132.067,107.163L139.35,116.133C141.324,114.178 142.474,111.514 142.474,108.678Z" fill="#F2B203"/>
<path d="M92.2,-0.4C41.466,-0.4 0.2,40.866 0.2,91.6C0.2,142.334 41.466,183.6 92.2,183.6C142.934,183.6 184.2,142.334 184.2,91.6C184.2,40.866 142.934,-0.4 92.2,-0.4ZM156.542,154.601L143.413,141.472C153.993,137.006 161.43,126.541 161.43,114.37C161.43,113.431 161.373,112.511 161.296,111.61C161.277,111.322 161.219,111.035 161.2,110.767C161.123,110.134 161.027,109.502 160.912,108.869C160.855,108.562 160.798,108.275 160.721,107.968C160.587,107.355 160.433,106.742 160.242,106.128C160.165,105.86 160.088,105.611 160.012,105.342C159.954,105.17 159.916,104.997 159.858,104.825L155.642,92.558L182.283,92.558C182.034,116.67 172.259,138.539 156.542,154.601ZM93.139,181.683L93.139,126.637C97.528,126.292 101.266,123.666 103.163,119.928C103.987,124.26 105.77,128.362 108.472,131.965C114.088,139.459 122.675,143.752 132.009,143.752C135.306,143.752 138.468,143.177 141.42,142.181L155.162,155.923C139.139,171.659 117.27,181.434 93.139,181.683ZM29.199,155.942L42.942,142.2C45.893,143.197 49.056,143.772 52.352,143.772C61.706,143.772 70.292,139.478 75.889,131.984C78.592,128.381 80.374,124.298 81.198,119.947C83.096,123.685 86.853,126.311 91.222,126.656L91.222,181.683C67.13,181.434 45.261,171.659 29.199,155.942ZM2.117,92.539L28.758,92.539L24.542,104.806C24.484,104.978 24.446,105.151 24.388,105.323C24.312,105.592 24.235,105.841 24.158,106.109C23.986,106.722 23.832,107.317 23.679,107.949C23.622,108.256 23.545,108.543 23.487,108.85C23.372,109.482 23.277,110.115 23.2,110.767C23.162,111.054 23.123,111.322 23.104,111.61C23.027,112.53 22.97,113.45 22.97,114.37C22.97,126.56 30.426,137.025 40.987,141.472L27.857,154.601C12.141,138.539 2.366,116.67 2.117,92.539ZM27.857,28.599L49.248,49.989L45.913,59.841C41.082,62.716 37.441,67.201 35.62,72.51L29.41,90.642L2.117,90.642C2.366,66.53 12.141,44.661 27.857,28.599ZM91.261,1.517L91.261,45.178C87.255,45.485 83.805,47.708 81.773,50.928L81.773,50.43L81.773,46.079C81.773,37.703 74.969,30.899 66.593,30.899C60.077,30.899 54.307,35.039 52.218,41.211L49.937,47.977L29.199,27.257C45.261,11.541 67.13,1.766 91.261,1.517ZM155.201,27.257L134.482,47.977L132.201,41.211C130.112,35.039 124.342,30.899 117.826,30.899C109.45,30.899 102.646,37.703 102.646,46.079L102.646,50.43L102.646,50.928C100.614,47.708 97.164,45.485 93.158,45.178L93.158,1.517C117.27,1.766 139.139,11.541 155.201,27.257ZM154.703,95.663C149.298,89.127 141.152,84.949 132.028,84.949C119.436,84.949 108.702,92.922 104.524,104.058L104.524,85.907L104.524,80.215C104.524,68.178 114.318,58.403 126.336,58.403C130.169,58.403 133.945,59.419 137.242,61.317C141.822,63.962 145.272,68.159 146.978,73.142L154.703,95.663ZM132.028,141.874C123.288,141.874 115.258,137.849 110.006,130.853C106.422,126.062 104.524,120.369 104.524,114.37C104.524,99.209 116.867,86.866 132.028,86.866C144.257,86.866 154.645,94.897 158.21,105.956C158.287,106.186 158.344,106.397 158.402,106.627C158.574,107.221 158.727,107.796 158.862,108.409C158.919,108.677 158.977,108.946 159.034,109.214C159.149,109.808 159.245,110.422 159.302,111.016C159.341,111.265 159.379,111.533 159.398,111.782C159.475,112.645 159.532,113.488 159.532,114.37C159.532,129.531 147.208,141.874 132.028,141.874ZM92.2,124.797C86.45,124.797 81.773,120.12 81.773,114.37C81.773,108.62 86.45,103.924 92.2,103.924C97.95,103.924 102.627,108.601 102.627,114.351C102.627,120.101 97.95,124.797 92.2,124.797ZM24.867,114.37C24.867,113.488 24.925,112.626 25.002,111.782C25.021,111.533 25.059,111.265 25.097,111.016C25.174,110.402 25.27,109.808 25.366,109.214C25.423,108.946 25.481,108.677 25.538,108.409C25.672,107.815 25.826,107.221 25.998,106.627C26.056,106.397 26.133,106.186 26.19,105.956C29.755,94.897 40.143,86.866 52.372,86.866C67.532,86.866 79.876,99.209 79.876,114.37C79.876,120.369 77.978,126.062 74.394,130.853C69.142,137.868 61.112,141.874 52.372,141.874C37.192,141.874 24.867,129.531 24.867,114.37ZM37.422,73.142C39.127,68.159 42.597,63.962 47.158,61.317C50.455,59.419 54.231,58.403 58.064,58.403C70.101,58.403 79.876,68.198 79.876,80.215L79.876,85.907L79.876,104.058C75.697,92.922 64.964,84.949 52.372,84.949C43.248,84.949 35.103,89.127 29.697,95.644L37.422,73.142ZM54.001,41.824C55.822,36.419 60.882,32.797 66.574,32.797C73.896,32.797 79.857,38.758 79.857,46.079L79.857,50.43L79.857,57.464L79.857,70.938C76.234,62.467 67.82,56.506 58.045,56.506C54.672,56.506 51.356,57.253 48.308,58.633L54.001,41.824ZM92.2,47.018C97.95,47.018 102.627,51.695 102.627,57.445L102.627,67.967C100.442,64.498 96.589,62.179 92.2,62.179C87.811,62.179 83.958,64.498 81.773,67.967L81.773,57.445C81.773,51.695 86.45,47.018 92.2,47.018ZM102.627,107.336L102.627,107.834C100.442,104.365 96.589,102.046 92.2,102.046C87.811,102.046 83.958,104.365 81.773,107.834L81.773,107.336L81.773,85.907C81.773,80.157 86.45,75.481 92.2,75.481C97.95,75.481 102.627,80.157 102.627,85.907L102.627,107.336ZM102.627,79.372C100.442,75.902 96.589,73.583 92.2,73.583C87.811,73.583 83.958,75.902 81.773,79.372L81.773,74.523C81.773,68.773 86.45,64.096 92.2,64.096C97.95,64.096 102.627,68.773 102.627,74.523L102.627,79.372ZM126.336,56.506C116.561,56.506 108.147,62.467 104.524,70.938L104.524,57.464L104.524,50.43L104.524,46.079C104.524,38.758 110.485,32.797 117.807,32.797C123.499,32.797 128.559,36.419 130.38,41.824L136.072,58.633C133.025,57.253 129.709,56.506 126.336,56.506ZM154.99,90.661L148.78,72.529C146.959,67.22 143.317,62.735 138.488,59.86L135.152,50.008L156.542,28.618C172.259,44.661 182.034,66.549 182.283,90.661L154.99,90.661Z" fill="#000000"/>
<path d="M92.2,107.719C88.539,107.719 85.568,110.69 85.568,114.351C85.568,118.012 88.539,120.983 92.2,120.983C95.861,120.983 98.832,118.012 98.832,114.351C98.832,110.69 95.861,107.719 92.2,107.719ZM92.2,119.104C89.593,119.104 87.466,116.977 87.466,114.37C87.466,111.763 89.593,109.617 92.2,109.617C94.807,109.617 96.934,111.744 96.934,114.351C96.934,116.958 94.807,119.104 92.2,119.104Z" fill="#000000"/>
<path d="M155.22,109.349C152.882,98.519 143.145,90.661 132.047,90.661C120.145,90.661 110.025,99.554 108.53,111.361C108.396,112.358 108.338,113.355 108.338,114.37C108.338,127.442 118.976,138.08 132.047,138.08C145.119,138.08 155.757,127.442 155.757,114.37C155.737,112.684 155.565,110.997 155.22,109.349ZM110.389,111.591C111.769,100.743 121.065,92.559 132.028,92.559C142.244,92.559 151.214,99.784 153.361,109.751C153.687,111.265 153.859,112.818 153.859,114.37C153.859,115.693 153.725,116.996 153.495,118.261L149.125,112.875L142.896,120.542L140.519,117.629C142.972,115.31 144.372,112.109 144.372,108.697C144.372,101.893 138.832,96.373 132.047,96.373C125.243,96.373 119.723,101.912 119.723,108.697C119.723,112.109 121.122,115.31 123.576,117.629L121.199,120.542L114.97,112.875L110.6,118.261C110.37,116.996 110.236,115.712 110.236,114.37C110.217,113.431 110.274,112.492 110.389,111.591ZM124.764,116.134C122.752,114.179 121.602,111.515 121.602,108.678C121.602,102.928 126.278,98.251 132.028,98.251C137.778,98.251 142.455,102.928 142.455,108.678C142.455,111.515 141.305,114.179 139.292,116.134L132.009,107.164L124.764,116.134ZM114.97,115.865L119.934,121.96L120.222,121.73L115.085,128.055C113.322,125.87 111.961,123.34 111.137,120.58L114.97,115.865ZM132.028,136.182C125.876,136.182 120.317,133.614 116.35,129.493L132.028,110.173L147.707,129.493C143.739,133.614 138.181,136.182 132.028,136.182ZM148.991,128.055L144.103,122.037L149.106,115.865L152.939,120.58C152.115,123.34 150.754,125.87 148.991,128.055Z" fill="#000000"/>
<path d="M76.081,114.37C76.081,112.684 75.908,110.997 75.544,109.349C73.206,98.519 63.469,90.661 52.372,90.661C40.469,90.661 30.349,99.554 28.854,111.361C28.72,112.358 28.662,113.355 28.662,114.37C28.662,127.442 39.3,138.08 52.372,138.08C65.443,138.08 76.081,127.442 76.081,114.37ZM69.315,128.055L64.427,122.037L69.43,115.865L73.263,120.58C72.439,123.34 71.097,125.87 69.315,128.055ZM30.732,111.591C32.112,100.743 41.408,92.559 52.372,92.559C62.587,92.559 71.557,99.784 73.704,109.751C74.03,111.265 74.202,112.818 74.202,114.37C74.202,115.693 74.068,116.996 73.838,118.261L69.468,112.875L63.239,120.542L60.862,117.629C63.316,115.31 64.715,112.109 64.715,108.697C64.715,101.893 59.176,96.373 52.391,96.373C45.606,96.373 40.067,101.912 40.067,108.697C40.067,112.109 41.466,115.31 43.919,117.629L41.542,120.542L35.313,112.875L30.943,118.261C30.713,116.996 30.579,115.712 30.579,114.37C30.56,113.431 30.617,112.492 30.732,111.591ZM45.088,116.134C43.076,114.179 41.926,111.515 41.926,108.678C41.926,102.928 46.602,98.251 52.352,98.251C58.102,98.251 62.779,102.928 62.779,108.678C62.779,111.515 61.629,114.179 59.617,116.134L52.333,107.164L45.088,116.134ZM35.294,115.865L40.258,121.96L40.546,121.73L35.409,128.055C33.646,125.87 32.285,123.34 31.461,120.58L35.294,115.865ZM52.372,110.173L68.05,129.493C64.082,133.614 58.524,136.182 52.372,136.182C46.219,136.182 40.661,133.614 36.693,129.493L52.372,110.173Z" fill="#000000"/>
</svg>
