<svg width="38" height="38" viewBox="0 0 38 38" fill="none" xmlns="http://www.w3.org/2000/svg" xmlns:xlink="http://www.w3.org/1999/xlink">
<path d="M36.174,0.127C35.193,-0.16 11.189,-2.55 2.759,8.839C-0.974,13.885 -1.03,20.801 2.572,29.394C1.658,31.291 0.858,33.289 0.206,35.397C0.008,36.038 0.367,36.717 1.007,36.915C1.126,36.952 1.247,36.969 1.366,36.969C1.883,36.969 2.364,36.635 2.524,36.115C8.949,15.342 29.829,5.293 36.232,2.754C36.855,2.507 37.688,0.57 36.174,0.127Z" fill="#84829A"/>
<path d="M6.426,31.995C9.901,33.453 13.376,34.2 16.607,34.2C19.512,34.2 22.22,33.603 24.555,32.392C29.252,29.955 32.123,25.294 32.856,18.911C33.603,12.405 34.532,8.331 35.308,5.838C28.404,9.023 13.6,17.278 6.426,31.995Z" fill="#84829A"/>
</svg>
