<svg width="96" height="98" viewBox="0 0 96 98" fill="none" xmlns="http://www.w3.org/2000/svg" xmlns:xlink="http://www.w3.org/1999/xlink">
<path d="M71.35,37.42L77.29,37.42C79.2,37.42 80.75,35.87 80.75,33.96C80.75,32.05 79.2,30.5 77.29,30.5L71.35,30.5C69.44,30.5 67.89,32.05 67.89,33.96C67.89,35.87 69.44,37.42 71.35,37.42ZM71.35,31.48L77.29,31.48C78.65,31.48 79.76,32.59 79.76,33.95C79.76,35.31 78.65,36.42 77.29,36.42L71.35,36.42C69.99,36.42 68.88,35.31 68.88,33.95C68.88,32.59 69.99,31.48 71.35,31.48Z" fill="#000000"/>
<path d="M47.6,42.37C37.5,42.37 29.29,50.58 29.29,60.68C29.29,70.78 37.5,78.99 47.6,78.99C57.7,78.99 65.91,70.78 65.91,60.68C65.91,50.58 57.7,42.37 47.6,42.37ZM47.6,43.36C56.71,43.36 64.18,50.43 64.85,59.37C63.39,57.98 61.49,57.22 59.47,57.22C57.38,57.22 55.42,58.03 53.95,59.51L47.33,66.13L31.17,66.13C30.6,64.42 30.28,62.59 30.28,60.69C30.28,51.13 38.05,43.36 47.6,43.36ZM31.53,67.11L46.34,67.11L38.23,75.22C35.24,73.29 32.88,70.46 31.53,67.11ZM47.6,78C44.51,78 41.61,77.18 39.1,75.75L54.65,60.2C55.94,58.91 57.65,58.2 59.47,58.2C61.29,58.2 63.01,58.91 64.3,60.2C64.52,60.42 64.72,60.66 64.91,60.91C64.78,70.35 57.07,78 47.6,78Z" fill="#000000"/>
<path d="M44.63,61.17C48.18,61.17 51.06,58.28 51.06,54.74C51.06,51.2 48.17,48.31 44.63,48.31C41.08,48.31 38.2,51.2 38.2,54.74C38.2,58.28 41.08,61.17 44.63,61.17ZM44.63,49.29C47.63,49.29 50.07,51.73 50.07,54.73C50.07,57.73 47.63,60.17 44.63,60.17C41.63,60.17 39.19,57.73 39.19,54.73C39.19,51.73 41.63,49.29 44.63,49.29Z" fill="#000000"/>
<path d="M14.45,33.95C14.45,35.86 16,37.41 17.91,37.41C19.82,37.41 21.37,35.86 21.37,33.95C21.37,32.04 19.82,30.49 17.91,30.49C16,30.49 14.45,32.04 14.45,33.95ZM20.38,33.95C20.38,35.31 19.27,36.42 17.91,36.42C16.55,36.42 15.44,35.31 15.44,33.95C15.44,32.59 16.55,31.48 17.91,31.48C19.27,31.48 20.38,32.59 20.38,33.95Z" fill="#000000"/>
<path d="M26.82,37.42C28.73,37.42 30.28,35.87 30.28,33.96C30.28,32.05 28.73,30.5 26.82,30.5C24.91,30.5 23.36,32.05 23.36,33.96C23.36,35.87 24.91,37.42 26.82,37.42ZM26.82,31.48C28.18,31.48 29.29,32.59 29.29,33.95C29.29,35.31 28.18,36.42 26.82,36.42C25.46,36.42 24.35,35.31 24.35,33.95C24.35,32.59 25.45,31.48 26.82,31.48Z" fill="#000000"/>
<path d="M57,18.61L38.2,18.61L38.2,25.54L57,25.54L57,18.61ZM39.19,19.6L41.17,19.6L41.17,24.55L39.19,24.55L39.19,19.6ZM42.16,19.6L44.14,19.6L44.14,24.55L42.16,24.55L42.16,19.6ZM45.13,19.6L47.11,19.6L47.11,24.55L45.13,24.55L45.13,19.6ZM48.09,19.6L50.07,19.6L50.07,24.55L48.09,24.55L48.09,19.6ZM51.06,19.6L53.04,19.6L53.04,24.55L51.06,24.55L51.06,19.6ZM56.01,24.55L54.03,24.55L54.03,19.6L56.01,19.6L56.01,24.55Z" fill="#000000"/>
<path d="M95.6,48.8C95.6,22.33 74.07,0.8 47.6,0.8C21.13,0.8 -0.4,22.33 -0.4,48.8C-0.4,60.55 3.85,71.32 10.89,79.68L10.82,79.75L11.52,80.45L11.54,80.43C20.34,90.45 33.24,96.8 47.6,96.8C61.96,96.8 74.86,90.45 83.66,80.43L83.68,80.45L84.38,79.75L84.31,79.68C91.35,71.32 95.6,60.55 95.6,48.8ZM48.09,95.8L48.09,81.93C55,81.77 61.1,78.3 64.87,73.05L76.28,73.05L82.96,79.73C74.44,89.46 61.98,95.65 48.09,95.8ZM12.24,79.72L18.92,73.04L30.33,73.04C34.1,78.3 40.2,81.76 47.11,81.92L47.11,95.8C33.22,95.65 20.76,89.46 12.24,79.72ZM10.87,19.51L18.88,27.52L17.91,27.52C14.36,27.52 11.48,30.41 11.48,33.95L11.48,48.3L0.6,48.3C0.72,37.43 4.54,27.43 10.87,19.51ZM47.11,1.8L47.11,15.64L35.42,15.64L29.48,27.52L20.28,27.52L11.49,18.73C20.03,8.51 32.81,1.95 47.11,1.8ZM83.96,19.04L83.68,18.76L74.92,27.52L65.72,27.52L59.78,15.64L48.09,15.64L48.09,1.8C62.53,1.95 75.43,8.64 83.96,19.04ZM65.55,72.06C66.52,70.53 67.32,68.87 67.88,67.11L82.71,67.11C82.46,69.88 80.13,72.06 77.29,72.06L65.55,72.06ZM47.6,80.96C36.41,80.96 27.31,71.86 27.31,60.67C27.31,58.95 27.53,57.24 27.95,55.58C30.26,46.63 38.34,40.38 47.59,40.38C56.84,40.38 64.92,46.63 67.23,55.58C67.66,57.23 67.87,58.95 67.87,60.67C67.89,71.86 58.79,80.96 47.6,80.96ZM17.91,72.06C15.08,72.06 12.74,69.88 12.49,67.11L27.32,67.11C27.88,68.87 28.68,70.53 29.65,72.06L17.91,72.06ZM77.29,28.51C80.29,28.51 82.73,30.95 82.73,33.95L82.73,42.36L64.73,42.36C62.09,35.29 55.3,30.49 47.6,30.49C39.9,30.49 33.11,35.29 30.46,42.37L12.46,42.37L12.46,33.96C12.46,30.96 14.9,28.52 17.9,28.52L77.29,28.52L77.29,28.51ZM59.17,16.64L64.61,27.53L30.59,27.53L36.03,16.64L59.17,16.64ZM82.73,48.31L66.39,48.31L65.33,44.21C65.26,43.92 65.16,43.64 65.07,43.36L82.73,43.36L82.73,48.31ZM12.47,49.29L14.94,49.29L28.56,49.29L27.28,54.24L12.47,54.24L12.47,49.29ZM12.47,61.17L26.35,61.17C26.39,62.88 26.64,64.53 27.06,66.12L12.47,66.12L12.47,61.17ZM26.34,60.18L12.47,60.18L12.47,55.23L27.03,55.23L27,55.34C26.59,56.92 26.37,58.54 26.34,60.18ZM30.83,44.46C32.8,36.82 39.7,31.48 47.6,31.48C55.5,31.48 62.4,36.82 64.37,44.46L65.65,49.43C61.85,43.32 55.1,39.4 47.6,39.4C40.1,39.4 33.35,43.32 29.55,49.43L30.83,44.46ZM12.47,43.36L30.13,43.36C30.04,43.64 29.95,43.92 29.87,44.21L28.81,48.31L14.94,48.31L12.47,48.31L12.47,43.36ZM82.73,66.12L68.15,66.12C68.57,64.53 68.82,62.88 68.86,61.17L82.74,61.17L82.74,66.12L82.73,66.12ZM82.73,60.18L68.86,60.18C68.82,58.54 68.61,56.91 68.2,55.34L68.17,55.23L82.73,55.23L82.73,60.18ZM82.73,54.24L67.92,54.24L66.64,49.29L82.73,49.29L82.73,54.24ZM77.29,27.52L76.32,27.52L84.33,19.51C90.66,27.43 94.48,37.43 94.6,48.31L83.72,48.31L83.72,33.95C83.72,30.41 80.84,27.52 77.29,27.52ZM11.48,49.29L11.48,66.61C11.48,70.03 14.17,72.83 17.54,73.02L11.59,78.97C4.83,70.92 0.72,60.58 0.6,49.29L11.48,49.29ZM77.67,73.03C81.04,72.83 83.73,70.04 83.73,66.62L83.73,49.29L94.6,49.29C94.48,60.57 90.37,70.92 83.61,78.97L77.67,73.03Z" fill="#000000"/>
</svg>
