<svg width="56" height="36" viewBox="0 0 56 36" fill="none" xmlns="http://www.w3.org/2000/svg" xmlns:xlink="http://www.w3.org/1999/xlink">
<g opacity="0.01">
<rect  x="0.572" y="-0.443" width="54.57" height="36.089" fill="#FFFFFF"/>
</g>
<rect  x="20.662" y="5.844" width="14.393" height="23.514" fill="#F26122"/>
<path d="M22.213,17.601C22.189,13.025 24.268,8.691 27.852,5.844C21.72,1.022 12.911,1.722 7.618,7.453C2.325,13.183 2.325,22.019 7.618,27.75C12.911,33.48 21.72,34.181 27.852,29.358C24.268,26.512 22.189,22.178 22.213,17.601Z" fill="#EA1D25"/>
<path d="M50.602,26.385L50.602,26.864L50.518,26.864L50.518,26.385L50.32,26.385L50.32,26.286L50.814,26.286L50.814,26.385L50.602,26.385ZM51.561,26.286L51.561,26.864L51.462,26.864L51.462,26.427L51.308,26.807L51.195,26.807L51.026,26.427L51.026,26.864L50.927,26.864L50.927,26.286L51.068,26.286L51.251,26.695L51.42,26.286L51.561,26.286Z" clip-rule="evenodd" fill-rule="evenodd" fill="#F69E1E"/>
<path d="M52.042,17.602C52.039,23.324 48.77,28.543 43.623,31.045C38.476,33.546 32.353,32.892 27.852,29.359C34.336,24.253 35.459,14.859 30.361,8.368C29.63,7.428 28.787,6.581 27.852,5.845C32.353,2.312 38.476,1.658 43.623,4.159C48.77,6.661 52.039,11.879 52.042,17.602Z" fill="#F69E1E"/>
</svg>
