<svg width="242" height="242" viewBox="0 0 242 242" fill="none" xmlns="http://www.w3.org/2000/svg" xmlns:xlink="http://www.w3.org/1999/xlink">
<path d="M121.425,37.55C127.825,37.675 133.975,38.8 139.75,40.775L151.95,7.275C142.225,4.525 132,3.025 121.425,2.9L121.425,37.55Z" fill="#FEE39A"/>
<path d="M172.05,66.775L210.075,44.825C202.9,36.3 194.525,28.8 185.2,22.575L160.075,52.525C164.75,56.625 168.8,61.425 172.05,66.775Z" fill="#FEE39A"/>
<path d="M120.2,40C88.15,40 62.05,66.075 62.05,98.15C62.05,114.925 69.25,130.75 81.825,141.8L118.975,97.7L118.975,73.875L137.825,83.3L121.45,91.475L121.45,97.675L158.6,141.775C171.175,130.725 178.375,114.9 178.375,98.125C178.35,66.075 152.25,40 120.2,40Z" fill="#F2B203"/>
<path d="M121.425,88.7L132.275,83.275L121.425,77.875L121.425,88.7Z" fill="#FF5D5D"/>
<path d="M118.975,37.55L118.975,2.9C108.4,3 98.175,4.525 88.45,7.275L100.65,40.775C106.4,38.8 112.575,37.675 118.975,37.55Z" fill="#FFF7E1"/>
<path d="M142.075,41.625C147.925,43.9 153.35,47.05 158.175,50.95L183.125,21.225C174.25,15.575 164.6,11.075 154.35,7.95L142.075,41.625Z" fill="#FFF7E1"/>
<path d="M57.275,21.225L82.225,50.95C87.05,47.075 92.475,43.9 98.325,41.625L86.075,7.95C75.8,11.075 66.15,15.575 57.275,21.225Z" fill="#FEE39A"/>
<path d="M30.3,44.8L68.325,66.75C71.575,61.4 75.625,56.625 80.3,52.525L55.175,22.575C45.875,28.775 37.5,36.275 30.3,44.8Z" fill="#FFF7E1"/>
<path d="M160.175,143.675L177.25,163.95L195.075,142.8L172.1,129.525C168.9,134.75 164.9,139.525 160.175,143.675Z" fill="#FEE39A"/>
<path d="M190.6,151.925L194.425,155.775L201.85,148.35L209.275,155.775L216.7,148.35L224.125,155.775L227.95,151.925L209.275,129.75L190.6,151.925Z" fill="#FFFFFF"/>
<path d="M68.325,129.5L45.35,142.775L63.175,163.925L80.25,143.65C75.5,139.525 71.5,134.75 68.325,129.5Z" fill="#FFF7E1"/>
<path d="M229.55,153.825L224.125,159.25L216.7,151.825L209.275,159.25L201.85,151.825L194.425,159.25L189,153.825L178.875,165.85L207.125,199.4C218.225,187.225 226.75,172.675 231.975,156.675L229.55,153.825Z" fill="#004F32"/>
<path d="M83.725,143.375C84.275,143.825 84.8,144.25 85.375,144.675L103.15,158C105.35,159.65 106.625,162.175 106.625,164.925C106.625,167.4 105.55,169.775 103.7,171.425L88.975,184.4C86.05,186.975 84.35,190.7 84.35,194.6C84.35,200.2 87.7,205.15 92.875,207.225L136.4,224.75C141.2,226.675 145.2,230.15 147.825,234.6C170.175,229.2 190.05,217.375 205.4,201.2L143.875,128.175L135.05,137L127.625,129.575L120.2,137L112.775,129.575L105.35,137L96.525,128.175L83.725,143.375Z" fill="#34E0A1"/>
<path d="M35,201.225C56.425,223.8 86.7,237.925 120.2,237.925C128.825,237.925 137.2,236.975 145.3,235.2C142.95,231.55 139.5,228.7 135.475,227.075L91.95,209.55C85.825,207.075 81.875,201.225 81.875,194.625C81.875,190 83.85,185.6 87.325,182.55L102.05,169.575C103.375,168.4 104.15,166.7 104.15,164.925C104.15,162.95 103.25,161.15 101.675,159.975L83.9,146.65C83.3,146.2 82.725,145.725 82.15,145.25L35,201.225Z" fill="#00AA6C"/>
<path d="M8.425,156.701C13.65,172.726 22.175,187.251 33.275,199.426L61.525,165.876L51.4,153.851L45.975,159.276L38.55,151.851L31.125,159.276L23.7,151.851L16.275,159.276L10.85,153.851L8.425,156.701Z" fill="#004F32"/>
<path d="M237.65,117.575C237.325,104.375 234.875,91.7 230.55,79.925L180.1,88.825C180.575,91.85 180.825,94.975 180.825,98.125C180.825,101.275 180.575,104.375 180.1,107.425L237.65,117.575Z" fill="#FEE39A"/>
<path d="M179.65,109.875C178.45,116.025 176.3,121.925 173.3,127.375L196.675,140.875L209.275,125.925L232.85,153.9C236.025,143.275 237.725,132.05 237.725,120.425C237.725,120.325 237.725,120.225 237.725,120.125L179.65,109.875Z" fill="#FFF7E1"/>
<path d="M229.625,77.576C225.225,66.351 219.15,55.976 211.7,46.726L173.3,68.901C176.275,74.276 178.45,80.151 179.675,86.376L229.625,77.576Z" fill="#FFF7E1"/>
<path d="M12.45,151.925L16.275,155.775L23.7,148.35L31.125,155.775L38.55,148.35L45.975,155.775L49.8,151.925L31.125,129.75L12.45,151.925Z" fill="#FFFFFF"/>
<path d="M112.775,126.075L120.2,133.5L127.625,126.075L135.05,133.5L142.275,126.275L120.2,100.05L98.125,126.275L105.35,133.5L112.775,126.075Z" fill="#FFFFFF"/>
<path d="M67.1,68.901L28.7,46.726C21.275,55.976 15.2,66.376 10.775,77.576L60.725,86.376C61.95,80.176 64.125,74.301 67.1,68.901Z" fill="#FEE39A"/>
<path d="M31.125,125.901L43.725,140.851L67.1,127.351C64.1,121.901 61.95,116.001 60.75,109.851L2.675,120.101C2.675,120.201 2.675,120.301 2.675,120.401C2.675,132.026 4.4,143.276 7.55,153.876L31.125,125.901Z" fill="#FEE39A"/>
<path d="M9.85,79.925C5.525,91.7 3.05,104.375 2.75,117.575L60.325,107.425C59.85,104.375 59.6,101.25 59.6,98.125C59.6,94.95 59.85,91.85 60.325,88.825L9.85,79.925Z" fill="#FFF7E1"/>
<path d="M120.2,0.4C54.025,0.4 0.2,54.225 0.2,120.4C0.2,186.575 54.025,240.4 120.2,240.4C186.375,240.4 240.2,186.575 240.2,120.4C240.2,54.225 186.375,0.4 120.2,0.4ZM229.624,77.575L179.675,86.4C178.45,80.175 176.275,74.3 173.3,68.925L211.7,46.75C219.126,55.975 225.2,66.375 229.624,77.575ZM237.65,117.575L180.075,107.425C180.55,104.375 180.8,101.25 180.8,98.125C180.8,94.95 180.55,91.85 180.075,88.825L230.524,79.925C234.874,91.725 237.35,104.4 237.65,117.575ZM147.825,234.626C145.2,230.2 141.175,226.7 136.4,224.776L92.875,207.25C87.7,205.174 84.35,200.2 84.35,194.625C84.35,190.725 86.025,187 88.975,184.425L103.7,171.45C105.575,169.8 106.625,167.425 106.625,164.95C106.625,162.2 105.35,159.675 103.15,158.025L85.375,144.7C84.825,144.275 84.275,143.825 83.725,143.4L96.525,128.175L105.35,137L112.775,129.575L120.2,137L127.625,129.575L135.05,137L143.875,128.175L205.4,201.226C190.05,217.4 170.175,229.2 147.825,234.626ZM120.2,237.926C86.7,237.926 56.425,223.8 35,201.226L82.125,145.275C82.7,145.75 83.275,146.225 83.875,146.675L101.65,160C103.225,161.175 104.125,163 104.125,164.95C104.125,166.725 103.35,168.425 102.025,169.6L87.3,182.575C83.85,185.625 81.85,190.025 81.85,194.65C81.85,201.25 85.8,207.1 91.925,209.574L135.45,227.1C139.5,228.724 142.925,231.576 145.275,235.224C137.2,236.974 128.825,237.926 120.2,237.926ZM9.85,79.925L60.3,88.825C59.825,91.85 59.575,94.975 59.575,98.125C59.575,101.275 59.825,104.375 60.3,107.425L2.75,117.575C3.05,104.4 5.525,91.725 9.85,79.925ZM28.725,46.75L67.125,68.925C64.15,74.3 61.975,80.175 60.75,86.4L10.775,77.575C15.2,66.375 21.275,55.975 28.725,46.75ZM55.175,22.575L80.325,52.55C75.65,56.65 71.6,61.45 68.35,66.775L30.325,44.825C37.5,36.275 45.875,28.775 55.175,22.575ZM86.05,7.95L98.3,41.625C92.45,43.9 87.025,47.05 82.2,50.95L57.275,21.225C66.15,15.575 75.8,11.075 86.05,7.95ZM118.975,2.9L118.975,37.55C112.575,37.675 106.425,38.8 100.65,40.775L88.45,7.275C98.175,4.525 108.4,3.025 118.975,2.9ZM151.95,7.275L139.75,40.775C133.975,38.8 127.825,37.675 121.425,37.55L121.425,2.9C132,3.025 142.225,4.525 151.95,7.275ZM183.125,21.225L158.175,50.95C153.35,47.075 147.925,43.9 142.075,41.625L154.325,7.95C164.6,11.075 174.25,15.575 183.125,21.225ZM178.35,98.125C178.35,114.9 171.15,130.725 158.575,141.775L121.425,97.675L121.425,91.475L137.8,83.3L118.95,73.875L118.95,97.7L81.825,141.775C69.25,130.725 62.05,114.9 62.05,98.125C62.05,66.075 88.125,39.975 120.2,39.975C152.275,39.975 178.35,66.075 178.35,98.125ZM209.274,129.75L227.95,151.925L224.126,155.75L216.7,148.325L209.274,155.75L201.85,148.325L194.425,155.75L190.6,151.925L209.274,129.75ZM177.25,163.95L160.175,143.675C164.9,139.525 168.9,134.75 172.075,129.5L195.05,142.775L177.25,163.95ZM120.2,100.05L142.275,126.275L135.05,133.5L127.625,126.075L120.2,133.5L112.775,126.075L105.35,133.5L98.125,126.275L120.2,100.05ZM121.425,88.7L121.425,77.85L132.275,83.275L121.425,88.7ZM63.15,163.95L45.325,142.8L68.3,129.525C71.475,134.775 75.475,139.55 80.2,143.7L63.15,163.95ZM49.8,151.925L45.975,155.75L38.55,148.325L31.125,155.75L23.7,148.35L16.275,155.775L12.45,151.925L31.125,129.75L49.8,151.925ZM2.675,120.4C2.675,120.3 2.675,120.2 2.675,120.1L60.75,109.85C61.95,116 64.1,121.9 67.1,127.35L43.725,140.85L31.125,125.9L7.55,153.875C4.4,143.275 2.675,132.025 2.675,120.4ZM8.425,156.7L10.825,153.825L16.25,159.25L23.675,151.825L31.1,159.25L38.525,151.825L45.95,159.25L51.375,153.825L61.5,165.85L33.25,199.4C22.2,187.25 13.65,172.7 8.425,156.7ZM178.85,165.875L188.975,153.85L194.4,159.275L201.824,151.85L209.25,159.275L216.674,151.85L224.1,159.275L229.526,153.85L231.926,156.725C226.7,172.75 218.176,187.275 207.076,199.45L178.85,165.875ZM209.274,125.9L196.675,140.85L173.3,127.35C176.3,121.9 178.45,116 179.65,109.85L237.726,120.1C237.726,120.2 237.726,120.3 237.726,120.4C237.726,132.025 236,143.275 232.85,153.875L209.274,125.9ZM172.05,66.775C168.8,61.425 164.75,56.65 160.075,52.55L185.225,22.575C194.525,28.775 202.9,36.275 210.1,44.825L172.05,66.775Z" fill="#000000"/>
</svg>
