<svg width="242" height="240" viewBox="0 0 242 240" fill="none" xmlns="http://www.w3.org/2000/svg" xmlns:xlink="http://www.w3.org/1999/xlink">
<path d="M68.25,210.3L45.1,210.3C65.475,227.3 91.65,237.525 120.2,237.525C148.75,237.525 174.925,227.3 195.325,210.3L172.175,210.3L68.25,210.3Z" fill="#00AA6C"/>
<path d="M120.2,2.475C55.4,2.475 2.675,55.2 2.675,120C2.675,154.9 18,186.3 42.225,207.825L62.2,207.825C60.85,206.499 59.95,204.725 59.7,202.775C53.4,202.2 48.45,196.95 48.45,190.525C48.45,183.7 54,178.15 60.825,178.15L66.9,178.15L59.7,98.975L53.4,98.975C48.625,98.975 44.75,95.1 44.75,90.325L44.75,53.2C44.75,48.425 48.625,44.55 53.4,44.55L59.575,44.55L59.575,39.6L53.4,39.6L53.4,37.125L187,37.125L187,39.6L180.825,39.6L180.825,44.55L187,44.55C191.775,44.55 195.65,48.425 195.65,53.2L195.65,90.325C195.65,95.1 191.775,98.975 187,98.975L180.075,98.975L173.5,178.15L179.575,178.15C186.4,178.15 191.95,183.7 191.95,190.525C191.95,196.95 187,202.2 180.7,202.775C180.45,204.751 179.55,206.525 178.2,207.825L198.175,207.825C222.425,186.275 237.725,154.9 237.725,120C237.725,55.2 185,2.475 120.2,2.475Z" fill="#C9F2E3"/>
<path d="M106.65,127.5C108.875,124 112.375,121.55 116.35,120.55C113.025,119.45 110.3,117 108.9,113.8L107.25,113.8C103.95,117.325 101.45,122.1 100.175,127.475L106.65,127.475L106.65,127.5Z" fill="#FFFFFF"/>
<path d="M120.2,85.35C123.825,85.35 127.25,83.925 129.825,81.375C132.4,78.8 133.8,75.4 133.8,71.75C133.8,68.1 132.375,64.7 129.825,62.125C127.275,59.55 123.85,58.15 120.2,58.15C116.55,58.15 113.15,59.575 110.575,62.125C108,64.675 106.6,68.1 106.6,71.75C106.6,75.4 108.025,78.8 110.575,81.375C113.15,83.95 116.575,85.35 120.2,85.35ZM125.45,64.75L127.2,66.5L120.2,73.5L118.45,71.75L125.45,64.75Z" fill="#FFFFFF"/>
<circle cx="60.825" cy="60.625" r="6.175" fill="#FF5D5D"/>
<path d="M133.75,127.5L140.225,127.5C138.95,122.125 136.45,117.35 133.15,113.825L131.5,113.825C130.1,117.025 127.375,119.45 124.05,120.575C128.025,121.55 131.525,124 133.75,127.5Z" fill="#FFFFFF"/>
<path d="M47.2,53.2L47.2,90.325C47.2,93.725 49.975,96.5 53.375,96.5L59.45,96.5L120.2,96.5L180.3,96.5L187,96.5C190.4,96.5 193.175,93.725 193.175,90.325L193.175,53.2C193.175,49.8 190.4,47.025 187,47.025L53.4,47.025C49.975,47 47.2,49.775 47.2,53.2ZM60.825,91.55C56.05,91.55 52.175,87.675 52.175,82.9C52.175,78.125 56.05,74.25 60.825,74.25C65.6,74.25 69.475,78.125 69.475,82.9C69.475,87.675 65.6,91.55 60.825,91.55ZM185.775,53.2L188.25,53.2L188.25,90.325L185.775,90.325L185.775,53.2ZM178.35,53.2L180.825,53.2L180.825,90.325L178.35,90.325L178.35,53.2ZM170.925,53.2L173.4,53.2L173.4,90.325L170.925,90.325L170.925,53.2ZM108.825,60.375C111.85,57.35 115.9,55.675 120.2,55.675C124.5,55.675 128.525,57.35 131.575,60.375C134.625,63.4 136.275,67.45 136.275,71.75C136.275,76.05 134.6,80.075 131.575,83.125C128.45,86.25 124.325,87.825 120.2,87.825C116.075,87.825 111.975,86.25 108.825,83.125C105.8,80.1 104.125,76.05 104.125,71.75C104.125,67.45 105.8,63.425 108.825,60.375ZM60.825,51.95C65.6,51.95 69.475,55.825 69.475,60.6C69.475,65.375 65.6,69.25 60.825,69.25C56.05,69.25 52.175,65.375 52.175,60.6C52.175,55.825 56.05,51.95 60.825,51.95Z" fill="#F2B203"/>
<path d="M141.225,105.15L141.225,98.975L127.55,98.975C130.575,101.225 132.575,104.8 132.575,108.875C132.575,109.725 132.5,110.55 132.325,111.35L135.05,111.35C138.45,111.35 141.225,108.575 141.225,105.15Z" fill="#FEE39A"/>
<path d="M149.25,143.5L143.075,143.5L143.075,164.525C143.075,165.3 142.975,166.05 142.875,166.825L154,153.675C154.95,152.55 155.45,151.15 155.45,149.675C155.45,146.275 152.675,143.5 149.25,143.5Z" fill="#8E6500"/>
<circle cx="60.825" cy="82.875" r="6.175" fill="#FF5D5D"/>
<circle cx="120.2" cy="108.875" r="9.9" fill="#F2B203"/>
<path d="M140.6,164.525L140.6,143.5L98.55,143.5L98.55,164.525C98.55,172.025 104.65,178.125 112.15,178.125L127,178.125C131.025,178.125 134.8,176.375 137.4,173.3C139.45,170.875 140.6,167.75 140.6,164.525Z" fill="#FFFFFF"/>
<path d="M68.25,207.825C71.25,207.825 73.725,205.7 74.3,202.875L62.175,202.875C62.75,205.7 65.25,207.825 68.25,207.825Z" fill="#8E6500"/>
<path d="M172.15,207.825C175.15,207.825 177.625,205.7 178.2,202.875L166.075,202.875C166.675,205.7 169.175,207.825 172.15,207.825Z" fill="#8E6500"/>
<path d="M76.775,202.875C76.5,204.8 75.6,206.525 74.275,207.825L166.1,207.825C164.775,206.525 163.875,204.8 163.6,202.875L76.775,202.875Z" fill="#C9F2E3"/>
<path d="M50.925,190.525C50.925,195.975 55.375,200.425 60.825,200.425L179.6,200.425C185.05,200.425 189.5,195.975 189.5,190.525C189.5,185.075 185.05,180.625 179.6,180.625L173.325,180.625L127,180.625L112.15,180.625L67.1,180.625L60.8,180.625C55.35,180.625 50.925,185.05 50.925,190.525Z" fill="#F2B203"/>
<rect  x="62.05" y="39.6" width="116.3" height="4.95" fill="#C9F2E3"/>
<path d="M103.625,178.15C99.1,175.3 96.075,170.275 96.075,164.55L96.075,141.05L141.85,141.05L143.075,141.05L149.25,141.05C154.025,141.05 157.9,144.925 157.9,149.7C157.9,151.75 157.175,153.725 155.85,155.3L139.25,174.925C138.175,176.2 136.9,177.275 135.5,178.15L170.975,178.15L177.55,98.975L143.7,98.975L143.7,105.15C143.7,109.475 140.5,113.05 136.35,113.675C139.575,117.675 141.9,122.85 143,128.5L143.275,129.975L132.35,129.975L132,129.35C129.575,125.15 125.05,122.55 120.2,122.55C115.35,122.55 110.85,125.15 108.4,129.35L108.05,129.975L97.125,129.975L97.4,128.5C98.5,122.85 100.825,117.7 104.05,113.675C99.9,113.05 96.7,109.475 96.7,105.15L96.7,98.975L62.175,98.975L69.375,178.15L103.625,178.15Z" fill="#8E6500"/>
<path d="M112.85,98.975L99.175,98.975L99.175,105.15C99.175,108.55 101.95,111.325 105.35,111.325L108.075,111.325C107.9,110.525 107.825,109.7 107.825,108.85C107.825,104.8 109.825,101.225 112.85,98.975Z" fill="#FEE39A"/>
<path d="M120.2,0C54.025,0 0.2,53.825 0.2,120C0.2,186.175 54.025,240 120.2,240C186.375,240 240.2,186.175 240.2,120C240.2,53.825 186.375,0 120.2,0ZM198.175,207.824L178.2,207.824C179.55,206.5 180.45,204.726 180.7,202.774C187,202.2 191.95,196.95 191.95,190.525C191.95,183.7 186.4,178.15 179.575,178.15L173.5,178.15L180.075,98.975L187,98.975C191.775,98.975 195.65,95.1 195.65,90.325L195.65,53.2C195.65,48.425 191.775,44.55 187,44.55L180.825,44.55L180.825,39.6L187,39.6L187,37.125L53.4,37.125L53.4,39.6L59.575,39.6L59.575,44.55L53.4,44.55C48.625,44.55 44.75,48.425 44.75,53.2L44.75,90.325C44.75,95.1 48.625,98.975 53.4,98.975L59.7,98.975L66.9,178.15L60.825,178.15C54,178.15 48.45,183.7 48.45,190.525C48.45,196.95 53.4,202.2 59.7,202.774C59.95,204.75 60.85,206.524 62.2,207.824L42.225,207.824C18,186.3 2.675,154.9 2.675,120C2.675,55.2 55.4,2.475 120.2,2.475C185,2.475 237.726,55.2 237.726,120C237.726,154.9 222.4,186.3 198.175,207.824ZM120.2,237.526C91.65,237.526 65.475,227.3 45.075,210.3L68.225,210.3L172.15,210.3L195.3,210.3C174.925,227.3 148.75,237.526 120.2,237.526ZM62.175,202.876L74.3,202.876C73.725,205.7 71.225,207.824 68.25,207.824C65.25,207.824 62.75,205.7 62.175,202.876ZM62.05,39.6L178.35,39.6L178.35,44.55L62.05,44.55L62.05,39.6ZM187,47C190.4,47 193.175,49.775 193.175,53.175L193.175,90.3C193.175,93.7 190.4,96.475 187,96.475L180.3,96.475L120.2,96.475L59.475,96.475L53.4,96.475C50,96.475 47.225,93.7 47.225,90.3L47.225,53.2C47.225,49.8 50,47.025 53.4,47.025L187,47.025L187,47ZM99.175,98.975L112.85,98.975C109.825,101.225 107.825,104.8 107.825,108.875C107.825,109.725 107.9,110.55 108.075,111.35L105.35,111.35C101.95,111.35 99.175,108.575 99.175,105.175L99.175,98.975ZM130.1,108.875C130.1,114.325 125.65,118.775 120.2,118.775C114.75,118.775 110.3,114.325 110.3,108.875C110.3,103.425 114.75,98.975 120.2,98.975C125.65,98.975 130.1,103.4 130.1,108.875ZM107.25,113.825L108.9,113.825C110.3,117.025 113.025,119.45 116.35,120.575C112.4,121.55 108.9,124.025 106.65,127.525L100.175,127.525C101.45,122.125 103.925,117.325 107.25,113.825ZM131.525,113.825L133.175,113.825C136.475,117.35 138.975,122.125 140.25,127.5L133.775,127.5C131.55,124 128.05,121.55 124.075,120.55C127.4,119.45 130.125,117 131.525,113.825ZM132.325,111.35C132.5,110.55 132.575,109.725 132.575,108.875C132.575,104.825 130.575,101.225 127.55,98.975L141.225,98.975L141.225,105.15C141.225,108.55 138.45,111.325 135.05,111.325L132.325,111.325L132.325,111.35ZM96.7,98.975L96.7,105.15C96.7,109.475 99.9,113.05 104.05,113.675C100.825,117.675 98.5,122.85 97.4,128.5L97.125,129.975L108.05,129.975L108.4,129.35C110.825,125.15 115.35,122.55 120.2,122.55C125.05,122.55 129.55,125.15 132,129.35L132.35,129.975L143.275,129.975L143,128.5C141.9,122.85 139.575,117.7 136.35,113.675C140.5,113.05 143.7,109.475 143.7,105.15L143.7,98.975L177.6,98.975L171.025,178.15L135.55,178.15C136.925,177.275 138.2,176.2 139.3,174.925L155.9,155.3C157.225,153.75 157.95,151.75 157.95,149.7C157.95,144.925 154.075,141.05 149.3,141.05L143.125,141.05L141.9,141.05L96.075,141.05L96.075,164.55C96.075,170.275 99.1,175.3 103.625,178.15L69.375,178.15L62.175,98.975L96.7,98.975ZM143.075,164.525L143.075,143.5L149.25,143.5C152.65,143.5 155.425,146.275 155.425,149.675C155.425,151.125 154.9,152.55 153.975,153.675L142.85,166.825C142.975,166.075 143.075,165.3 143.075,164.525ZM140.6,164.525C140.6,167.725 139.45,170.85 137.4,173.3C134.8,176.375 131.025,178.125 127,178.125L112.15,178.125C104.65,178.125 98.55,172.025 98.55,164.525L98.55,143.5L140.6,143.5L140.6,164.525ZM112.15,180.625L127,180.625L173.3,180.625L179.575,180.625C185.025,180.625 189.475,185.075 189.475,190.525C189.475,195.975 185.025,200.424 179.575,200.424L60.825,200.424C55.375,200.424 50.925,195.975 50.925,190.525C50.925,185.075 55.375,180.625 60.825,180.625L67.125,180.625L112.15,180.625ZM172.15,207.824C169.15,207.824 166.675,205.7 166.1,202.876L178.225,202.876C177.65,205.7 175.15,207.824 172.15,207.824ZM163.625,202.876C163.9,204.8 164.8,206.524 166.125,207.824L74.275,207.824C75.6,206.524 76.5,204.8 76.775,202.876L163.625,202.876Z" fill="#000000"/>
<path d="M60.825,69.275C65.6,69.275 69.475,65.4 69.475,60.625C69.475,55.85 65.6,51.975 60.825,51.975C56.05,51.975 52.175,55.85 52.175,60.625C52.175,65.4 56.05,69.275 60.825,69.275ZM60.825,54.425C64.225,54.425 67,57.2 67,60.6C67,64 64.225,66.775 60.825,66.775C57.425,66.775 54.65,64 54.65,60.6C54.625,57.2 57.4,54.425 60.825,54.425Z" fill="#000000"/>
<path d="M60.825,74.225C56.05,74.225 52.175,78.1 52.175,82.875C52.175,87.65 56.05,91.525 60.825,91.525C65.6,91.525 69.475,87.65 69.475,82.875C69.475,78.1 65.6,74.225 60.825,74.225ZM60.825,89.075C57.425,89.075 54.65,86.3 54.65,82.9C54.65,79.5 57.425,76.725 60.825,76.725C64.225,76.725 67,79.5 67,82.9C67,86.3 64.225,89.075 60.825,89.075Z" fill="#000000"/>
<rect  x="178.35" y="53.2" width="2.475" height="37.125" fill="#000000"/>
<rect  x="170.925" y="53.2" width="2.475" height="37.125" fill="#000000"/>
<rect  x="185.775" y="53.2" width="2.475" height="37.125" fill="#000000"/>
<path d="M120.2,87.825C124.325,87.825 128.425,86.25 131.575,83.125C134.6,80.1 136.275,76.05 136.275,71.75C136.275,67.45 134.6,63.425 131.575,60.375C128.55,57.325 124.5,55.675 120.2,55.675C115.9,55.675 111.875,57.35 108.825,60.375C105.775,63.4 104.125,67.45 104.125,71.75C104.125,76.05 105.8,80.075 108.825,83.125C111.975,86.25 116.075,87.825 120.2,87.825ZM110.575,62.125C113.15,59.55 116.55,58.15 120.2,58.15C123.85,58.15 127.25,59.575 129.825,62.125C132.4,64.675 133.8,68.1 133.8,71.75C133.8,75.4 132.375,78.8 129.825,81.375C127.25,83.95 123.85,85.35 120.2,85.35C116.55,85.35 113.15,83.925 110.575,81.375C108,78.8 106.6,75.4 106.6,71.75C106.6,68.1 108,64.7 110.575,62.125Z" fill="#000000"/>
<path d="M127.78,67.897L117.88,67.897L117.88,70.372L127.78,70.372L127.78,67.897Z" transform="rotate(-90 122.83 69.135)" fill="#000000"/>
</svg>
