<svg width="64" height="50" viewBox="0 0 64 50" fill="none" xmlns="http://www.w3.org/2000/svg" xmlns:xlink="http://www.w3.org/1999/xlink">
<path d="M62.287,38.498C62.287,43.774 57.991,48.071 52.715,48.071L0.633,48.071L0.633,10.158C0.633,4.882 4.929,0.586 10.205,0.586L62.287,0.586L62.287,38.498Z" fill="#FFFFFF"/>
<path d="M45.328,28.775L49.285,28.775C49.398,28.775 49.662,28.738 49.775,28.738C50.529,28.587 51.169,27.909 51.169,26.966C51.169,26.062 50.529,25.384 49.775,25.195C49.662,25.157 49.436,25.157 49.285,25.157L45.328,25.157L45.328,28.775Z" fill="url(#pf_0_313_3355)"/>
<path d="M48.834,3.789C45.065,3.789 41.975,6.842 41.975,10.648L41.975,17.771L51.661,17.771C51.887,17.771 52.15,17.771 52.339,17.809C54.525,17.922 56.145,19.052 56.145,21.012C56.145,22.557 55.052,23.876 53.017,24.14L53.017,24.215C55.241,24.366 56.937,25.61 56.937,27.532C56.937,29.604 55.052,30.961 52.565,30.961L41.938,30.961L41.938,44.905L52,44.905C55.768,44.905 58.859,41.852 58.859,38.046L58.859,3.789L48.834,3.789Z" fill="url(#pf_0_313_3356)"/>
<path d="M50.68,21.464C50.68,20.56 50.039,19.957 49.285,19.844C49.21,19.844 49.021,19.806 48.908,19.806L45.328,19.806L45.328,23.122L48.908,23.122C49.021,23.122 49.247,23.122 49.285,23.085C50.039,22.972 50.68,22.369 50.68,21.464Z" fill="url(#pf_0_313_3357)"/>
<path d="M10.922,3.789C7.153,3.789 4.063,6.842 4.063,10.648L4.063,27.569C5.985,28.512 7.982,29.115 9.98,29.115C12.354,29.115 13.635,27.682 13.635,25.723L13.635,17.733L19.514,17.733L19.514,25.685C19.514,28.775 17.592,31.3 11.073,31.3C7.116,31.3 4.025,30.434 4.025,30.434L4.025,44.867L14.088,44.867C17.856,44.867 20.946,41.815 20.946,38.008L20.946,3.789L10.922,3.789Z" fill="url(#pf_0_313_3358)"/>
<path d="M29.876,3.789C26.108,3.789 23.018,6.842 23.018,10.648L23.018,19.618C24.751,18.148 27.766,17.206 32.628,17.432C35.228,17.545 38.017,18.261 38.017,18.261L38.017,21.163C36.622,20.447 34.964,19.806 32.816,19.655C29.123,19.392 26.899,21.2 26.899,24.366C26.899,27.569 29.123,29.378 32.816,29.077C34.964,28.926 36.622,28.248 38.017,27.569L38.017,30.471C38.017,30.471 35.266,31.187 32.628,31.3C27.766,31.526 24.751,30.584 23.018,29.115L23.018,44.943L33.08,44.943C36.848,44.943 39.939,41.89 39.939,38.084L39.939,3.789L29.876,3.789Z" fill="url(#pf_0_313_3359)"/>
<defs>
<linearGradient id="pf_0_313_3355" x1="41.969" y1="26.971" x2="58.903" y2="26.971" gradientUnits="userSpaceOnUse">
<stop stop-color="#007940"/>
<stop offset="0.228" stop-color="#00873F"/>
<stop offset="0.743" stop-color="#40A737"/>
<stop offset="1" stop-color="#5CB531"/>
</linearGradient>
<linearGradient id="pf_0_313_3356" x1="41.966" y1="24.33" x2="58.904" y2="24.33" gradientUnits="userSpaceOnUse">
<stop stop-color="#007940"/>
<stop offset="0.228" stop-color="#00873F"/>
<stop offset="0.743" stop-color="#40A737"/>
<stop offset="1" stop-color="#5CB531"/>
</linearGradient>
<linearGradient id="pf_0_313_3357" x1="41.965" y1="21.459" x2="58.903" y2="21.459" gradientUnits="userSpaceOnUse">
<stop stop-color="#007940"/>
<stop offset="0.228" stop-color="#00873F"/>
<stop offset="0.743" stop-color="#40A737"/>
<stop offset="1" stop-color="#5CB531"/>
</linearGradient>
<linearGradient id="pf_0_313_3358" x1="4.055" y1="24.33" x2="21.252" y2="24.33" gradientUnits="userSpaceOnUse">
<stop stop-color="#1F286F"/>
<stop offset="0.475" stop-color="#004E94"/>
<stop offset="0.826" stop-color="#0066B1"/>
<stop offset="1" stop-color="#006FBC"/>
</linearGradient>
<linearGradient id="pf_0_313_3359" x1="22.92" y1="24.33" x2="39.625" y2="24.33" gradientUnits="userSpaceOnUse">
<stop stop-color="#6C2C2F"/>
<stop offset="0.174" stop-color="#882730"/>
<stop offset="0.573" stop-color="#BE1833"/>
<stop offset="0.859" stop-color="#DC0436"/>
<stop offset="1" stop-color="#E60039"/>
</linearGradient>
</defs>
</svg>
