<svg width="184" height="184" viewBox="0 0 184 184" fill="none" xmlns="http://www.w3.org/2000/svg" xmlns:xlink="http://www.w3.org/1999/xlink">
<path d="M160.34,33.218C143.991,14.052 119.783,1.804 92.739,1.517L92.739,45.121L148.303,45.121L160.34,33.218Z" fill="#FFFFFF"/>
<path d="M33.936,46.463L22.033,34.675C9.517,49.97 1.947,69.444 1.717,90.661L33.936,90.661L33.936,46.463Z" fill="#FFFFFF"/>
<path d="M52.777,114.236C55.846,114.236 58.335,111.747 58.335,108.677C58.335,105.608 55.846,103.119 52.777,103.119C49.707,103.119 47.218,105.608 47.218,108.677C47.218,111.747 49.707,114.236 52.777,114.236Z" fill="#34E0A1"/>
<path d="M58.795,79.947C55.862,78.337 53.869,75.251 53.869,71.686C53.869,66.453 58.124,62.198 63.357,62.198C68.589,62.198 72.844,66.453 72.844,71.686C72.844,75.27 70.832,78.356 67.899,79.966C70.889,80.848 73.572,82.592 75.604,84.988C78.019,82.17 79.476,78.509 79.476,74.522C79.476,65.629 72.25,58.403 63.357,58.403C54.463,58.403 47.237,65.629 47.237,74.522C47.237,78.509 48.694,82.151 51.109,84.968C53.141,82.553 55.824,80.828 58.795,79.947Z" fill="#FFF7E1"/>
<path d="M147.767,136.182L147.767,47.019L35.833,47.019L35.833,136.182L80.913,136.182L91.8,152.493L102.667,136.182L147.767,136.182ZM91.8,56.506L137.321,56.506L137.321,58.404L91.8,58.404L91.8,56.506ZM138.279,108.678C138.279,112.779 134.944,116.134 130.823,116.134C126.722,116.134 123.367,112.799 123.367,108.678C123.367,104.576 126.702,101.222 130.823,101.222C134.925,101.222 138.279,104.557 138.279,108.678ZM91.8,67.891L137.321,67.891L137.321,69.789L91.8,69.789L91.8,67.891ZM91.8,79.276L137.321,79.276L137.321,81.174L91.8,81.174L91.8,79.276ZM91.8,90.661L137.321,90.661L137.321,92.559L91.8,92.559L91.8,90.661ZM118.767,108.678C118.767,112.779 115.432,116.134 111.312,116.134C107.21,116.134 103.856,112.799 103.856,108.678C103.856,104.576 107.191,101.222 111.312,101.222C115.413,101.222 118.767,104.557 118.767,108.678ZM91.8,101.222C95.902,101.222 99.256,104.557 99.256,108.678C99.256,112.779 95.921,116.134 91.8,116.134C87.679,116.134 84.344,112.799 84.344,108.678C84.344,104.557 87.698,101.222 91.8,101.222ZM63.337,56.506C73.266,56.506 81.354,64.594 81.354,74.523C81.354,84.451 73.266,92.539 63.337,92.539C53.409,92.539 45.321,84.451 45.321,74.523C45.321,64.594 53.409,56.506 63.337,56.506ZM79.744,108.678C79.744,112.779 76.409,116.134 72.288,116.134C68.167,116.134 64.832,112.799 64.832,108.678C64.832,104.576 68.167,101.222 72.288,101.222C76.409,101.222 79.744,104.557 79.744,108.678ZM52.777,101.222C56.878,101.222 60.232,104.557 60.232,108.678C60.232,112.779 56.897,116.134 52.777,116.134C48.656,116.134 45.321,112.799 45.321,108.678C45.321,104.557 48.675,101.222 52.777,101.222ZM46.279,126.694L46.279,124.797L137.34,124.797L137.34,126.694L46.279,126.694Z" fill="#FFFFFF"/>
<path d="M33.936,92.539L1.717,92.539C1.947,113.756 9.517,133.23 22.033,148.525L33.955,136.718L33.955,92.539L33.936,92.539Z" fill="#FFFFFF"/>
<path d="M149.664,136.737L161.586,148.544C174.083,133.23 181.653,113.756 181.883,92.539L149.664,92.539L149.664,136.737Z" fill="#FFFFFF"/>
<path d="M149.664,46.463L149.664,90.642L181.883,90.642C181.653,69.444 174.083,49.97 161.567,34.675L149.664,46.463Z" fill="#FFFFFF"/>
<path d="M35.277,138.079L23.241,149.982C39.59,169.148 63.797,181.396 90.842,181.683L90.842,154.486L79.897,138.079L35.277,138.079Z" fill="#FFFFFF"/>
<path d="M103.683,138.079L92.739,154.486L92.739,181.683C119.783,181.396 143.991,169.148 160.34,149.982L148.303,138.079L103.683,138.079Z" fill="#FFFFFF"/>
<path d="M90.861,45.121L90.861,1.517C63.817,1.804 39.609,14.052 23.26,33.218L35.297,45.121L90.861,45.121Z" fill="#FFFFFF"/>
<path d="M105.753,108.677C105.753,111.744 108.245,114.236 111.312,114.236C114.378,114.236 116.87,111.744 116.87,108.677C116.87,105.611 114.378,103.119 111.312,103.119C108.245,103.119 105.753,105.611 105.753,108.677Z" fill="#FFFFFF"/>
<circle cx="91.8" cy="108.677" r="5.558" fill="#FFFFFF"/>
<circle cx="72.288" cy="108.677" r="5.558" fill="#FFFFFF"/>
<path d="M63.337,79.276C67.529,79.276 70.927,75.878 70.927,71.686C70.927,67.494 67.529,64.096 63.337,64.096C59.146,64.096 55.747,67.494 55.747,71.686C55.747,75.878 59.146,79.276 63.337,79.276Z" fill="#FFFFFF"/>
<path d="M63.337,81.173C59.082,81.173 55.115,83.071 52.412,86.348C55.287,89.012 59.121,90.661 63.337,90.661C67.554,90.661 71.387,89.032 74.262,86.367C71.579,83.109 67.573,81.173 63.337,81.173Z" fill="#FFFFFF"/>
<path d="M130.823,103.119C127.757,103.119 125.265,105.611 125.265,108.677C125.265,111.744 127.757,114.236 130.823,114.236C133.89,114.236 136.382,111.744 136.382,108.677C136.382,105.611 133.89,103.119 130.823,103.119Z" fill="#FFFFFF"/>
<path d="M91.8,-0.4C41.066,-0.4 -0.2,40.866 -0.2,91.6C-0.2,142.334 41.066,183.6 91.8,183.6C142.534,183.6 183.8,142.334 183.8,91.6C183.8,40.866 142.534,-0.4 91.8,-0.4ZM92.739,181.683L92.739,154.486L103.683,138.079L148.303,138.079L160.34,149.982C143.991,169.148 119.783,181.396 92.739,181.683ZM90.861,1.517L90.861,45.121L35.278,45.121L23.241,33.218C39.609,14.052 63.817,1.804 90.861,1.517ZM160.34,33.218L148.303,45.121L92.739,45.121L92.739,1.517C119.783,1.804 143.991,14.052 160.34,33.218ZM91.8,152.492L80.932,136.182L35.833,136.182L35.833,47.018L147.767,47.018L147.767,136.182L102.667,136.182L91.8,152.492ZM22.033,34.675L33.955,46.482L33.955,90.661L1.717,90.661C1.947,69.443 9.517,49.97 22.033,34.675ZM33.936,92.539L33.936,136.718L22.033,148.525C9.517,133.23 1.947,113.757 1.717,92.539L33.936,92.539ZM35.278,138.079L79.917,138.079L90.861,154.486L90.861,181.683C63.817,181.396 39.609,169.148 23.26,149.982L35.278,138.079ZM161.567,148.525L149.645,136.718L149.645,92.539L181.883,92.539C181.653,113.757 174.083,133.23 161.567,148.525ZM149.664,90.661L149.664,46.462L161.586,34.656C174.083,49.97 181.653,69.443 181.883,90.661L149.664,90.661Z" fill="#000000"/>
<path d="M63.337,92.539C73.266,92.539 81.354,84.451 81.354,74.523C81.354,64.594 73.266,56.506 63.337,56.506C53.409,56.506 45.321,64.594 45.321,74.523C45.321,84.451 53.409,92.539 63.337,92.539ZM63.337,90.661C59.121,90.661 55.287,89.012 52.412,86.348C55.115,83.052 59.082,81.173 63.337,81.173C67.573,81.173 71.579,83.109 74.262,86.367C71.387,89.012 67.554,90.661 63.337,90.661ZM63.337,58.403C72.231,58.403 79.457,65.629 79.457,74.523C79.457,78.509 77.981,82.17 75.585,84.987C73.553,82.572 70.87,80.847 67.88,79.966C70.812,78.356 72.825,75.27 72.825,71.686C72.825,66.453 68.57,62.198 63.337,62.198C58.105,62.198 53.85,66.453 53.85,71.686C53.85,75.251 55.862,78.337 58.776,79.947C55.805,80.828 53.141,82.553 51.071,84.987C48.656,82.17 47.199,78.528 47.199,74.542C47.218,65.629 54.463,58.403 63.337,58.403ZM63.337,79.276C59.159,79.276 55.747,75.864 55.747,71.686C55.747,67.508 59.159,64.096 63.337,64.096C67.516,64.096 70.927,67.508 70.927,71.686C70.927,75.864 67.535,79.276 63.337,79.276Z" fill="#000000"/>
<path d="M52.777,116.133C56.878,116.133 60.232,112.798 60.232,108.678C60.232,104.576 56.897,101.222 52.777,101.222C48.656,101.222 45.321,104.557 45.321,108.678C45.321,112.779 48.675,116.133 52.777,116.133ZM52.777,103.119C55.843,103.119 58.335,105.611 58.335,108.678C58.335,111.744 55.843,114.236 52.777,114.236C49.71,114.236 47.218,111.744 47.218,108.678C47.218,105.611 49.71,103.119 52.777,103.119Z" fill="#000000"/>
<path d="M64.832,108.678C64.832,112.779 68.167,116.133 72.288,116.133C76.409,116.133 79.744,112.798 79.744,108.678C79.744,104.576 76.409,101.222 72.288,101.222C68.167,101.222 64.832,104.557 64.832,108.678ZM77.847,108.678C77.847,111.744 75.355,114.236 72.288,114.236C69.222,114.236 66.73,111.744 66.73,108.678C66.73,105.611 69.222,103.119 72.288,103.119C75.355,103.119 77.847,105.611 77.847,108.678Z" fill="#000000"/>
<path d="M91.8,116.133C95.902,116.133 99.256,112.798 99.256,108.678C99.256,104.576 95.921,101.222 91.8,101.222C87.679,101.222 84.344,104.557 84.344,108.678C84.344,112.779 87.698,116.133 91.8,116.133ZM91.8,103.119C94.867,103.119 97.358,105.611 97.358,108.678C97.358,111.744 94.867,114.236 91.8,114.236C88.733,114.236 86.242,111.744 86.242,108.678C86.242,105.611 88.733,103.119 91.8,103.119Z" fill="#000000"/>
<path d="M103.856,108.678C103.856,112.779 107.191,116.133 111.312,116.133C115.413,116.133 118.767,112.798 118.767,108.678C118.767,104.576 115.432,101.222 111.312,101.222C107.21,101.222 103.856,104.557 103.856,108.678ZM116.87,108.678C116.87,111.744 114.378,114.236 111.312,114.236C108.245,114.236 105.753,111.744 105.753,108.678C105.753,105.611 108.245,103.119 111.312,103.119C114.378,103.119 116.87,105.611 116.87,108.678Z" fill="#000000"/>
<path d="M130.823,101.222C126.722,101.222 123.367,104.557 123.367,108.678C123.367,112.779 126.702,116.133 130.823,116.133C134.925,116.133 138.279,112.798 138.279,108.678C138.279,104.557 134.925,101.222 130.823,101.222ZM130.823,114.236C127.757,114.236 125.265,111.744 125.265,108.678C125.265,105.611 127.757,103.119 130.823,103.119C133.89,103.119 136.382,105.611 136.382,108.678C136.382,111.744 133.89,114.236 130.823,114.236Z" fill="#000000"/>
<rect  x="91.8" y="56.506" width="45.521" height="1.897" fill="#000000"/>
<rect  x="91.8" y="67.891" width="45.521" height="1.897" fill="#000000"/>
<rect  x="91.8" y="79.276" width="45.521" height="1.898" fill="#000000"/>
<rect  x="91.8" y="90.661" width="45.521" height="1.898" fill="#000000"/>
<rect  x="46.279" y="124.797" width="91.061" height="1.897" fill="#000000"/>
</svg>
