<svg width="68" height="44" viewBox="0 0 68 44" fill="none" xmlns="http://www.w3.org/2000/svg" xmlns:xlink="http://www.w3.org/1999/xlink">
<path d="M45.171,30.108C48.008,27.272 51.764,25.719 55.751,25.719C59.623,25.719 63.264,27.195 66.063,29.84C64.778,12.724 50.461,-0.827 33,-0.827C14.696,-0.827 -0.197,14.066 -0.197,32.37C-0.197,36.012 0.417,39.519 1.509,42.797L32.483,42.797L45.171,30.108ZM14.983,20.985C14.983,14.181 20.523,8.661 27.308,8.661C34.112,8.661 39.632,14.2 39.632,20.985C39.632,27.77 34.093,33.309 27.308,33.309C20.503,33.309 14.983,27.789 14.983,20.985Z" fill="#C9F2E3"/>
<circle cx="27.307" cy="20.985" r="10.427" fill="#FF5D5D"/>
</svg>
