<svg width="96" height="96" viewBox="0 0 96 96" fill="none" xmlns="http://www.w3.org/2000/svg" xmlns:xlink="http://www.w3.org/1999/xlink">
<path d="M83.36,17.14C74.83,7.14 62.2,0.75 48.09,0.6L48.09,23.35L77.08,23.35L83.36,17.14Z" fill="#FFFFFF"/>
<path d="M17.41,24.05L11.2,17.9C4.67,25.88 0.72,36.04 0.6,47.11L17.41,47.11L17.41,24.05Z" fill="#FFFFFF"/>
<path d="M27.24,59.41C28.842,59.41 30.14,58.112 30.14,56.51C30.14,54.908 28.842,53.61 27.24,53.61C25.638,53.61 24.34,54.908 24.34,56.51C24.34,58.112 25.638,59.41 27.24,59.41Z" fill="#34E0A1"/>
<path d="M30.38,41.52C28.85,40.68 27.81,39.07 27.81,37.21C27.81,34.48 30.03,32.26 32.76,32.26C35.49,32.26 37.71,34.48 37.71,37.21C37.71,39.08 36.66,40.69 35.13,41.53C36.69,41.99 38.09,42.9 39.15,44.15C40.41,42.68 41.17,40.77 41.17,38.69C41.17,34.05 37.4,30.28 32.76,30.28C28.12,30.28 24.35,34.05 24.35,38.69C24.35,40.77 25.11,42.67 26.37,44.14C27.43,42.88 28.83,41.98 30.38,41.52Z" fill="#FFF7E1"/>
<path d="M76.8,70.86L76.8,24.34L18.4,24.34L18.4,70.86L41.92,70.86L47.6,79.37L53.27,70.86L76.8,70.86ZM47.6,29.29L71.35,29.29L71.35,30.28L47.6,30.28L47.6,29.29ZM71.85,56.51C71.85,58.65 70.11,60.4 67.96,60.4C65.82,60.4 64.07,58.66 64.07,56.51C64.07,54.37 65.81,52.62 67.96,52.62C70.1,52.62 71.85,54.36 71.85,56.51ZM47.6,35.23L71.35,35.23L71.35,36.22L47.6,36.22L47.6,35.23ZM47.6,41.17L71.35,41.17L71.35,42.16L47.6,42.16L47.6,41.17ZM47.6,47.11L71.35,47.11L71.35,48.1L47.6,48.1L47.6,47.11ZM61.67,56.51C61.67,58.65 59.93,60.4 57.78,60.4C55.64,60.4 53.89,58.66 53.89,56.51C53.89,54.37 55.63,52.62 57.78,52.62C59.92,52.62 61.67,54.36 61.67,56.51ZM47.6,52.62C49.74,52.62 51.49,54.36 51.49,56.51C51.49,58.65 49.75,60.4 47.6,60.4C45.45,60.4 43.71,58.66 43.71,56.51C43.71,54.36 45.46,52.62 47.6,52.62ZM32.75,29.29C37.93,29.29 42.15,33.51 42.15,38.69C42.15,43.87 37.93,48.09 32.75,48.09C27.57,48.09 23.35,43.87 23.35,38.69C23.35,33.51 27.57,29.29 32.75,29.29ZM41.31,56.51C41.31,58.65 39.57,60.4 37.42,60.4C35.27,60.4 33.53,58.66 33.53,56.51C33.53,54.37 35.27,52.62 37.42,52.62C39.57,52.62 41.31,54.36 41.31,56.51ZM27.24,52.62C29.38,52.62 31.13,54.36 31.13,56.51C31.13,58.65 29.39,60.4 27.24,60.4C25.09,60.4 23.35,58.66 23.35,56.51C23.35,54.36 25.1,52.62 27.24,52.62ZM23.85,65.91L23.85,64.92L71.36,64.92L71.36,65.91L23.85,65.91Z" fill="#FFFFFF"/>
<path d="M17.41,48.09L0.6,48.09C0.72,59.16 4.67,69.32 11.2,77.3L17.42,71.14L17.42,48.09L17.41,48.09Z" fill="#FFFFFF"/>
<path d="M77.79,71.15L84.01,77.31C90.53,69.32 94.48,59.16 94.6,48.09L77.79,48.09L77.79,71.15Z" fill="#FFFFFF"/>
<path d="M77.79,24.05L77.79,47.1L94.6,47.1C94.48,36.04 90.53,25.88 84,17.9L77.79,24.05Z" fill="#FFFFFF"/>
<path d="M18.11,71.85L11.83,78.06C20.36,88.06 32.99,94.45 47.1,94.6L47.1,80.41L41.39,71.85L18.11,71.85Z" fill="#FFFFFF"/>
<path d="M53.8,71.85L48.09,80.41L48.09,94.6C62.2,94.45 74.83,88.06 83.36,78.06L77.08,71.85L53.8,71.85Z" fill="#FFFFFF"/>
<path d="M47.11,23.35L47.11,0.6C33,0.75 20.37,7.14 11.84,17.14L18.12,23.35L47.11,23.35Z" fill="#FFFFFF"/>
<path d="M54.88,56.51C54.88,58.11 56.18,59.41 57.78,59.41C59.38,59.41 60.68,58.11 60.68,56.51C60.68,54.91 59.38,53.61 57.78,53.61C56.18,53.61 54.88,54.91 54.88,56.51Z" fill="#FFFFFF"/>
<circle cx="47.6" cy="56.51" r="2.9" fill="#FFFFFF"/>
<circle cx="37.42" cy="56.51" r="2.9" fill="#FFFFFF"/>
<path d="M32.75,41.17C34.937,41.17 36.71,39.397 36.71,37.21C36.71,35.023 34.937,33.25 32.75,33.25C30.563,33.25 28.79,35.023 28.79,37.21C28.79,39.397 30.563,41.17 32.75,41.17Z" fill="#FFFFFF"/>
<path d="M32.75,42.16C30.53,42.16 28.46,43.15 27.05,44.86C28.55,46.25 30.55,47.11 32.75,47.11C34.95,47.11 36.95,46.26 38.45,44.87C37.05,43.17 34.96,42.16 32.75,42.16Z" fill="#FFFFFF"/>
<path d="M67.96,53.61C66.36,53.61 65.06,54.91 65.06,56.51C65.06,58.11 66.36,59.41 67.96,59.41C69.56,59.41 70.86,58.11 70.86,56.51C70.86,54.91 69.56,53.61 67.96,53.61Z" fill="#FFFFFF"/>
<path d="M47.6,-0.4C21.13,-0.4 -0.4,21.13 -0.4,47.6C-0.4,74.07 21.13,95.6 47.6,95.6C74.07,95.6 95.6,74.07 95.6,47.6C95.6,21.13 74.07,-0.4 47.6,-0.4ZM48.09,94.6L48.09,80.41L53.8,71.85L77.08,71.85L83.36,78.06C74.83,88.06 62.2,94.45 48.09,94.6ZM47.11,0.6L47.11,23.35L18.11,23.35L11.83,17.14C20.37,7.14 33,0.75 47.11,0.6ZM83.36,17.14L77.08,23.35L48.09,23.35L48.09,0.6C62.2,0.75 74.83,7.14 83.36,17.14ZM47.6,79.37L41.93,70.86L18.4,70.86L18.4,24.34L76.8,24.34L76.8,70.86L53.27,70.86L47.6,79.37ZM11.2,17.9L17.42,24.06L17.42,47.11L0.6,47.11C0.72,36.04 4.67,25.88 11.2,17.9ZM17.41,48.09L17.41,71.14L11.2,77.3C4.67,69.32 0.72,59.16 0.6,48.09L17.41,48.09ZM18.11,71.85L41.4,71.85L47.11,80.41L47.11,94.6C33,94.45 20.37,88.06 11.84,78.06L18.11,71.85ZM84,77.3L77.78,71.14L77.78,48.09L94.6,48.09C94.48,59.16 90.53,69.32 84,77.3ZM77.79,47.11L77.79,24.05L84.01,17.89C90.53,25.88 94.48,36.04 94.6,47.11L77.79,47.11Z" fill="#000000"/>
<path d="M32.75,48.09C37.93,48.09 42.15,43.87 42.15,38.69C42.15,33.51 37.93,29.29 32.75,29.29C27.57,29.29 23.35,33.51 23.35,38.69C23.35,43.87 27.57,48.09 32.75,48.09ZM32.75,47.11C30.55,47.11 28.55,46.25 27.05,44.86C28.46,43.14 30.53,42.16 32.75,42.16C34.96,42.16 37.05,43.17 38.45,44.87C36.95,46.25 34.95,47.11 32.75,47.11ZM32.75,30.28C37.39,30.28 41.16,34.05 41.16,38.69C41.16,40.77 40.39,42.68 39.14,44.15C38.08,42.89 36.68,41.99 35.12,41.53C36.65,40.69 37.7,39.08 37.7,37.21C37.7,34.48 35.48,32.26 32.75,32.26C30.02,32.26 27.8,34.48 27.8,37.21C27.8,39.07 28.85,40.68 30.37,41.52C28.82,41.98 27.43,42.88 26.35,44.15C25.09,42.68 24.33,40.78 24.33,38.7C24.34,34.05 28.12,30.28 32.75,30.28ZM32.75,41.17C30.57,41.17 28.79,39.39 28.79,37.21C28.79,35.03 30.57,33.25 32.75,33.25C34.93,33.25 36.71,35.03 36.71,37.21C36.71,39.39 34.94,41.17 32.75,41.17Z" fill="#000000"/>
<path d="M27.24,60.4C29.38,60.4 31.13,58.66 31.13,56.51C31.13,54.37 29.39,52.62 27.24,52.62C25.09,52.62 23.35,54.36 23.35,56.51C23.35,58.65 25.1,60.4 27.24,60.4ZM27.24,53.61C28.84,53.61 30.14,54.91 30.14,56.51C30.14,58.11 28.84,59.41 27.24,59.41C25.64,59.41 24.34,58.11 24.34,56.51C24.34,54.91 25.64,53.61 27.24,53.61Z" fill="#000000"/>
<path d="M33.53,56.51C33.53,58.65 35.27,60.4 37.42,60.4C39.57,60.4 41.31,58.66 41.31,56.51C41.31,54.37 39.57,52.62 37.42,52.62C35.27,52.62 33.53,54.36 33.53,56.51ZM40.32,56.51C40.32,58.11 39.02,59.41 37.42,59.41C35.82,59.41 34.52,58.11 34.52,56.51C34.52,54.91 35.82,53.61 37.42,53.61C39.02,53.61 40.32,54.91 40.32,56.51Z" fill="#000000"/>
<path d="M47.6,60.4C49.74,60.4 51.49,58.66 51.49,56.51C51.49,54.37 49.75,52.62 47.6,52.62C45.45,52.62 43.71,54.36 43.71,56.51C43.71,58.65 45.46,60.4 47.6,60.4ZM47.6,53.61C49.2,53.61 50.5,54.91 50.5,56.51C50.5,58.11 49.2,59.41 47.6,59.41C46,59.41 44.7,58.11 44.7,56.51C44.7,54.91 46,53.61 47.6,53.61Z" fill="#000000"/>
<path d="M53.89,56.51C53.89,58.65 55.63,60.4 57.78,60.4C59.92,60.4 61.67,58.66 61.67,56.51C61.67,54.37 59.93,52.62 57.78,52.62C55.64,52.62 53.89,54.36 53.89,56.51ZM60.68,56.51C60.68,58.11 59.38,59.41 57.78,59.41C56.18,59.41 54.88,58.11 54.88,56.51C54.88,54.91 56.18,53.61 57.78,53.61C59.38,53.61 60.68,54.91 60.68,56.51Z" fill="#000000"/>
<path d="M67.96,52.62C65.82,52.62 64.07,54.36 64.07,56.51C64.07,58.65 65.81,60.4 67.96,60.4C70.1,60.4 71.85,58.66 71.85,56.51C71.85,54.36 70.1,52.62 67.96,52.62ZM67.96,59.41C66.36,59.41 65.06,58.11 65.06,56.51C65.06,54.91 66.36,53.61 67.96,53.61C69.56,53.61 70.86,54.91 70.86,56.51C70.86,58.11 69.56,59.41 67.96,59.41Z" fill="#000000"/>
<rect  x="47.6" y="29.29" width="23.75" height="0.99" fill="#000000"/>
<rect  x="47.6" y="35.23" width="23.75" height="0.99" fill="#000000"/>
<rect  x="47.6" y="41.17" width="23.75" height="0.99" fill="#000000"/>
<rect  x="47.6" y="47.11" width="23.75" height="0.99" fill="#000000"/>
<rect  x="23.85" y="64.92" width="47.51" height="0.99" fill="#000000"/>
</svg>
