<svg width="242" height="242" viewBox="0 0 242 242" fill="none" xmlns="http://www.w3.org/2000/svg" xmlns:xlink="http://www.w3.org/1999/xlink">
<circle cx="120.2" cy="120.8" r="118.5" fill="#000000" stroke="#000000" stroke-width="1.5" stroke-miterlimit="3.999327"/>
<path d="M206.85,186.374L161.924,124.6L161.924,135.25L196.976,186.376L206.85,186.374Z" fill="#F2B203"/>
<path d="M80.95,134.4L159.45,134.4L159.45,119.55L237.7,119.55C237.65,115.171 237.358,110.797 236.826,106.45L235.676,106.65C234.328,107 232.942,107.177 231.55,107.176C227.404,107.174 223.418,105.57 220.424,102.7C217.43,105.566 213.446,107.169 209.3,107.174C205.154,107.173 201.167,105.57 198.174,102.7C195.175,105.557 191.192,107.151 187.05,107.151C182.908,107.151 178.925,105.557 175.926,102.7C172.93,105.566 168.946,107.169 164.8,107.174C160.653,107.173 156.667,105.57 153.674,102.7C150.679,105.566 146.695,107.168 142.55,107.174C138.403,107.173 134.417,105.57 131.424,102.7C128.425,105.557 124.442,107.151 120.3,107.151C116.158,107.151 112.175,105.557 109.176,102.7C106.18,105.566 102.196,107.169 98.05,107.174C93.903,107.173 89.917,105.57 86.924,102.7C83.929,105.566 79.945,107.168 75.8,107.174C71.653,107.173 67.667,105.57 64.674,102.7C61.679,105.566 57.695,107.168 53.55,107.174C49.403,107.173 45.417,105.57 42.424,102.7C39.429,105.566 35.445,107.168 31.3,107.174C27.154,107.169 23.17,105.566 20.174,102.7C18.17,104.589 15.722,105.942 13.056,106.633C10.39,107.323 7.593,107.329 4.924,106.65C4.524,106.55 4.174,106.376 3.8,106.25C3.074,110.626 2.75,115.05 2.7,119.576L80.95,119.576L80.95,134.4Z" fill="#00AA6C"/>
<path d="M120.2,238.324C184.6,238.324 237.024,186.274 237.7,122.024L163.126,122.024L211.7,188.85L135.274,188.85L136.5,196.274L103.9,196.274L105.124,188.85L28.7,188.85L48.526,161.6C47.726,161.23 46.856,161.034 45.974,161.024C44.337,161.028 42.769,161.68 41.612,162.838C40.455,163.995 39.803,165.564 39.8,167.2L37.324,167.2C37.325,164.906 38.236,162.707 39.858,161.085C41.48,159.462 43.68,158.551 45.974,158.55C47.426,158.55 48.774,158.95 49.974,159.576L58.1,148.4C57.524,147.705 56.802,147.146 55.985,146.762C55.168,146.377 54.277,146.177 53.374,146.176C51.738,146.18 50.169,146.832 49.012,147.989C47.855,149.146 47.204,150.714 47.2,152.35L44.724,152.35C44.725,150.056 45.636,147.857 47.258,146.235C48.88,144.612 51.08,143.701 53.374,143.7C55.8,143.7 58,144.726 59.574,146.35L77.25,122.05L2.7,122.05C3.374,186.274 55.8,238.324 120.2,238.324Z" fill="#FEE39A"/>
<path d="M193.976,186.375L160.024,136.875L80.374,136.875L62.05,163.575L62.05,174.625L59.574,174.625L59.574,167.201L54.624,174.401L54.624,186.375L105.55,186.375L111.726,149.251L128.674,149.251L134.85,186.377L193.976,186.375Z" fill="#34E0A1"/>
<path d="M19.076,100.1L20,99.05L20.926,100.1C22.202,101.548 23.772,102.707 25.53,103.501C27.289,104.295 29.196,104.706 31.126,104.706C33.056,104.706 34.963,104.295 36.722,103.501C38.48,102.707 40.05,101.548 41.326,100.1L42.25,99.05L43.176,100.1C44.452,101.548 46.022,102.707 47.78,103.501C49.539,104.295 51.446,104.706 53.376,104.706C55.306,104.706 57.213,104.295 58.972,103.501C60.73,102.707 62.3,101.548 63.576,100.1L64.5,99.05L65.424,100.1C66.7,101.548 68.27,102.707 70.028,103.501C71.787,104.295 73.694,104.706 75.624,104.706C77.554,104.706 79.461,104.295 81.22,103.501C82.978,102.707 84.548,101.548 85.824,100.1L86.75,99.05L87.674,100.1C88.95,101.548 90.52,102.707 92.278,103.501C94.037,104.295 95.944,104.706 97.874,104.706C99.804,104.706 101.711,104.295 103.47,103.501C105.228,102.707 106.798,101.548 108.074,100.1L109,99.05L109.924,100.1C111.2,101.548 112.77,102.707 114.528,103.501C116.287,104.295 118.194,104.706 120.124,104.706C122.054,104.706 123.961,104.295 125.72,103.501C127.478,102.707 129.048,101.548 130.324,100.1L131.25,99.05L132.174,100.1C133.45,101.548 135.02,102.707 136.778,103.501C138.537,104.295 140.444,104.706 142.374,104.706C144.304,104.706 146.211,104.295 147.97,103.501C149.728,102.707 151.298,101.548 152.574,100.1L153.5,99.05L154.424,100.1C155.7,101.548 157.27,102.707 159.028,103.501C160.787,104.295 162.694,104.706 164.624,104.706C166.554,104.706 168.461,104.295 170.22,103.501C171.978,102.707 173.548,101.548 174.824,100.1L175.75,99.05L176.674,100.1C177.95,101.548 179.52,102.707 181.278,103.501C183.037,104.295 184.944,104.706 186.874,104.706C188.804,104.706 190.711,104.295 192.47,103.501C194.228,102.707 195.798,101.548 197.074,100.1L198,99.05L198.924,100.1C200.847,102.282 203.419,103.79 206.262,104.402C209.106,105.014 212.07,104.698 214.72,103.5C216.48,102.707 218.05,101.548 219.326,100.1L220.25,99.05L221.174,100.1C222.86,101.979 225.03,103.358 227.446,104.09C229.86,104.822 232.43,104.877 234.876,104.25C235.35,104.124 235.85,104.076 236.35,104C235.788,99.993 235.004,96.02 234,92.1C233.134,92.258 232.256,92.34 231.376,92.35C227.23,92.35 223.244,90.747 220.25,87.876C217.254,90.742 213.27,92.345 209.124,92.35C204.978,92.349 200.993,90.746 198,87.876C195.001,90.734 191.018,92.328 186.875,92.328C182.733,92.328 178.749,90.734 175.75,87.876C172.754,90.743 168.77,92.345 164.624,92.35C160.478,92.349 156.493,90.746 153.5,87.876C150.504,90.743 146.52,92.345 142.374,92.35C138.228,92.349 134.243,90.746 131.25,87.876C128.251,90.734 124.268,92.328 120.125,92.328C115.982,92.328 111.999,90.734 109,87.876C106.004,90.743 102.02,92.345 97.874,92.35C93.728,92.349 89.743,90.746 86.75,87.876C83.754,90.743 79.77,92.345 75.624,92.35C71.478,92.349 67.493,90.746 64.5,87.876C61.504,90.743 57.52,92.345 53.374,92.35C49.228,92.349 45.243,90.746 42.25,87.876C39.255,90.742 35.271,92.344 31.126,92.35C26.98,92.345 22.995,90.743 20,87.876C16.374,91.35 11.15,92.9 6.25,92.1C5.291,95.935 4.524,99.815 3.95,103.726C4.424,103.9 4.9,104.126 5.4,104.25C10.226,105.55 15.7,103.924 19.076,100.1Z" fill="#00AA6C"/>
<path d="M52.15,167.2C52.15,165.6 51.524,164.15 50.5,163.05L33.526,186.374L43.4,186.374L52.124,173.65L52.124,167.2L52.15,167.2Z" fill="#F2B203"/>
<path d="M52.15,178.024L46.424,186.374L52.15,186.374L52.15,178.024ZM19.076,85.276L20,84.224L20.926,85.274C22.202,86.722 23.772,87.881 25.53,88.675C27.289,89.469 29.196,89.88 31.126,89.88C33.056,89.88 34.963,89.469 36.722,88.675C38.48,87.881 40.05,86.722 41.326,85.274L42.25,84.224L43.176,85.274C44.452,86.722 46.022,87.881 47.78,88.675C49.539,89.469 51.446,89.88 53.376,89.88C55.306,89.88 57.213,89.469 58.972,88.675C60.73,87.881 62.3,86.722 63.576,85.274L64.5,84.224L65.424,85.274C66.7,86.722 68.27,87.881 70.028,88.675C71.787,89.469 73.694,89.88 75.624,89.88C77.554,89.88 79.461,89.469 81.22,88.675C82.978,87.881 84.548,86.722 85.824,85.274L86.75,84.224L87.674,85.274C88.95,86.722 90.519,87.882 92.278,88.676C94.037,89.47 95.944,89.881 97.874,89.881C99.804,89.881 101.711,89.47 103.47,88.676C105.229,87.882 106.798,86.722 108.074,85.274L109,84.224L109.924,85.274C111.2,86.722 112.77,87.881 114.528,88.674C116.287,89.468 118.194,89.879 120.124,89.879C122.054,89.879 123.961,89.468 125.72,88.674C127.478,87.881 129.048,86.722 130.324,85.274L131.25,84.224L132.174,85.274C133.45,86.722 135.02,87.881 136.778,88.674C138.537,89.468 140.444,89.879 142.374,89.879C144.304,89.879 146.211,89.468 147.97,88.674C149.728,87.881 151.298,86.722 152.574,85.274L153.5,84.224L154.424,85.274C155.7,86.722 157.27,87.881 159.028,88.675C160.787,89.469 162.694,89.88 164.624,89.88C166.554,89.88 168.461,89.469 170.22,88.675C171.978,87.881 173.548,86.722 174.824,85.274L175.75,84.224L176.674,85.274C177.95,86.722 179.52,87.881 181.278,88.675C183.037,89.469 184.944,89.88 186.874,89.88C188.804,89.88 190.711,89.469 192.47,88.675C194.228,87.881 195.798,86.722 197.074,85.274L198,84.224L198.924,85.274C200.847,87.456 203.419,88.964 206.262,89.576C209.106,90.188 212.07,89.872 214.72,88.674C216.48,87.881 218.05,86.722 219.326,85.274L220.25,84.224L221.176,85.274C224.2,88.7 228.9,90.35 233.35,89.724C219.85,39.95 174.25,3.274 120.2,3.274C66.15,3.274 20.55,39.95 6.876,89.7C11.326,90.326 16.05,88.702 19.076,85.276ZM120.2,23.074C133.15,23.074 143.7,33.624 143.7,46.574C143.7,59.522 133.15,70.074 120.2,70.074C107.25,70.074 96.7,59.524 96.7,46.574C96.7,33.622 107.25,23.074 120.2,23.074Z" fill="#34E0A1"/>
<path d="M78.476,135.25L78.476,124.6L61.1,148.5C61.7,149.676 62.05,150.976 62.05,152.376L62.05,159.226L78.476,135.25ZM54.626,170.026L59.572,162.8L59.572,152.35C59.572,151.824 59.498,151.324 59.372,150.85L52,161C52.832,161.804 53.493,162.767 53.944,163.833C54.395,164.898 54.627,166.043 54.626,167.2L54.626,170.026Z" fill="#F2B203"/>
<path d="M120.2,67.6C131.812,67.6 141.224,58.186 141.224,46.576C141.224,34.964 131.812,25.55 120.2,25.55C108.588,25.55 99.174,34.964 99.174,46.574C99.174,58.188 108.588,67.6 120.2,67.6Z" fill="#F2B203"/>
<path d="M126.576,151.726L113.824,151.726L108.05,186.376L107.65,188.85L106.824,193.8L133.576,193.8L132.75,188.85L132.35,186.374L126.574,151.724L126.576,151.726Z" fill="#FFFFFF"/>
<path d="M237.2,120.8C237.2,185.418 184.817,237.8 120.2,237.8L120.2,240.8C186.474,240.8 240.2,187.074 240.2,120.8L237.2,120.8ZM120.2,237.8C55.583,237.8 3.2,185.418 3.2,120.8L0.2,120.8C0.2,187.074 53.926,240.8 120.2,240.8L120.2,237.8ZM3.2,120.8C3.2,56.183 55.583,3.8 120.2,3.8L120.2,0.8C53.926,0.8 0.2,54.526 0.2,120.8L3.2,120.8ZM120.2,3.8C184.817,3.8 237.2,56.183 237.2,120.8L240.2,120.8C240.2,54.526 186.474,0.8 120.2,0.8L120.2,3.8Z" fill="#000000"/>
</svg>
