<svg width="214" height="170" viewBox="0 0 214 170" fill="none" xmlns="http://www.w3.org/2000/svg" xmlns:xlink="http://www.w3.org/1999/xlink">
<path d="M90.469,90.676C90.469,117.122 111.907,138.56 138.353,138.56L199.525,138.56C206.871,138.56 212.826,132.605 212.826,125.259L212.826,26.602C212.826,11.91 200.916,0 186.224,0L103.77,0C96.424,0 90.469,5.955 90.469,13.301Z" fill="#FFF1DA"/>
<path d="M92.001,161.226C138.57,161.226 176.326,126.753 176.326,84.233C176.326,41.713 138.57,7.241 92.001,7.241C45.432,7.241 7.676,41.713 7.676,84.233C7.676,126.753 45.432,161.226 92.001,161.226Z" fill="#66E1FF"/>
<path d="M33.073,104.331C33.07,90.884 36.925,77.67 44.255,66.006C51.584,54.342 62.131,44.633 74.846,37.848C87.562,31.062 102.002,27.435 116.73,27.329C131.458,27.222 145.959,30.639 158.79,37.24C151.16,28.204 141.424,20.829 130.289,15.649C119.154,10.469 106.897,7.613 94.405,7.289C81.912,6.965 69.497,9.18 58.058,13.774C46.618,18.368 36.44,25.227 28.259,33.853C20.079,42.479 14.101,52.658 10.757,63.653C7.414,74.647 6.789,86.183 8.927,97.425C11.066,108.668 15.915,119.335 23.123,128.657C30.331,137.979 39.718,145.721 50.605,151.323C39.212,137.869 33.044,121.337 33.073,104.331Z" fill="#C2F3FF"/>
<path d="M17.926,117.923C16.189,117.923 14.78,119.332 14.78,121.069C14.779,122.807 16.188,124.215 17.925,124.216L17.926,117.923ZM77.334,124.223C79.072,124.223 80.481,122.814 80.481,121.077C80.481,119.339 79.073,117.931 77.335,117.93L77.334,124.223ZM17.925,124.216L77.334,124.223L77.335,117.93L17.926,117.923L17.925,124.216Z" fill="#191919"/>
<line x1="22.43" y1="37.584" x2="161.632" y2="37.584" stroke="#191919" stroke-width="3.146" stroke-miterlimit="3.999327" stroke-linecap="round" stroke-linejoin="round"/>
<line x1="7.754" y1="77.755" x2="84.666" y2="77.755" stroke="#191919" stroke-width="3.146" stroke-miterlimit="3.999327" stroke-linecap="round" stroke-linejoin="round"/>
<path d="M87.28,164.275C89.016,164.363 90.493,163.026 90.581,161.291C90.668,159.556 89.332,158.078 87.596,157.991L87.28,164.275ZM42.278,146.389L40.53,149.005L40.53,149.005L42.278,146.389ZM13.228,111.546L10.322,112.752L10.322,112.752L13.228,111.546ZM9.685,67.876L12.745,68.606L12.745,68.606L9.685,67.876ZM32.795,29.505L30.687,27.169L30.687,27.169L32.795,29.505ZM75.082,8.845L74.501,5.753L74.501,5.753L75.082,8.845ZM122.868,12.58L121.807,15.542L121.807,15.542L122.868,12.58ZM173.182,81.051C173.265,82.786 174.739,84.126 176.474,84.043C178.21,83.96 179.55,82.486 179.467,80.75L173.182,81.051ZM87.596,157.991C71.847,157.199 56.712,152.249 44.026,143.773L40.53,149.005C54.191,158.132 70.431,163.428 87.28,164.275L87.596,157.991ZM44.026,143.773C31.343,135.298 21.669,123.673 16.134,110.34L10.322,112.752C16.359,127.292 26.868,139.875 40.53,149.005L44.026,143.773ZM16.134,110.34C10.6,97.01 9.427,82.517 12.745,68.606L6.624,67.146C2.996,82.36 4.284,98.207 10.322,112.752L16.134,110.34ZM12.745,68.606C16.064,54.69 23.744,41.912 34.903,31.84L30.687,27.169C18.628,38.054 10.252,51.935 6.624,67.146L12.745,68.606ZM34.903,31.84C46.064,21.766 60.219,14.839 75.663,11.937L74.501,5.753C57.967,8.86 42.743,16.287 30.687,27.169L34.903,31.84ZM75.663,11.937C91.107,9.035 107.14,10.29 121.807,15.542L123.928,9.618C108.201,3.987 91.034,2.647 74.501,5.753L75.663,11.937ZM121.807,15.542C136.473,20.794 149.111,29.804 158.216,41.44L163.171,37.563C153.298,24.944 139.656,15.25 123.928,9.618L121.807,15.542ZM158.216,41.44C167.317,53.073 172.502,66.834 173.182,81.051L179.467,80.75C178.723,65.187 173.048,50.185 163.171,37.563L158.216,41.44Z" fill="#191919"/>
<path d="M88.851,9.672C90.086,8.451 90.097,6.459 88.875,5.223C87.653,3.988 85.661,3.977 84.426,5.199L88.851,9.672ZM85.007,163.136C86.11,164.479 88.093,164.673 89.435,163.57C90.778,162.467 90.972,160.485 89.869,159.142L85.007,163.136ZM84.426,5.199C61.908,27.473 50.689,53.296 50.896,80.546C51.102,107.738 62.682,135.958 85.007,163.136L89.869,159.142C68.198,132.76 57.381,105.888 57.188,80.498C56.995,55.165 67.374,30.916 88.851,9.672L84.426,5.199Z" fill="#191919"/>
<path d="M99.517,5.153C98.256,3.957 96.265,4.01 95.069,5.271C93.873,6.531 93.926,8.523 95.187,9.718L99.517,5.153ZM126.033,68.008C126.286,69.727 127.884,70.915 129.603,70.663C131.323,70.41 132.511,68.812 132.259,67.093L126.033,68.008ZM95.187,9.718C112.033,25.696 122.817,46.122 126.033,68.008L132.259,67.093C128.828,43.746 117.336,22.054 99.517,5.153L95.187,9.718Z" fill="#191919"/>
<path d="M128.877,148.244C137.685,148.244 146.132,145.05 152.36,139.363C158.588,133.677 162.087,125.964 162.087,117.923C162.087,109.88 158.588,102.168 152.36,96.482C146.132,90.796 137.685,87.601 128.877,87.601C120.069,87.601 111.622,90.796 105.395,96.482C99.166,102.168 95.668,109.88 95.668,117.923C95.668,125.964 99.166,133.677 105.395,139.363C111.622,145.05 120.069,148.244 128.877,148.244Z" fill="#E3E3E3"/>
<path d="M105.398,139.363C99.574,133.609 96.415,126.019 96.585,118.186C96.753,110.353 100.237,102.883 106.305,97.343C112.373,91.803 120.554,88.622 129.134,88.468C137.713,88.313 146.025,91.197 152.327,96.514L105.398,139.363Z" fill="#FFFFFF"/>
<path d="M152.36,139.363L150.239,137.04L150.238,137.04L152.36,139.363ZM105.395,96.482L107.516,98.805L107.516,98.805L105.395,96.482ZM105.395,139.363L107.516,137.04L107.516,137.039L105.395,139.363ZM128.877,151.39C138.432,151.39 147.646,147.928 154.481,141.686L150.238,137.04C144.618,142.172 136.939,145.098 128.877,145.098L128.877,151.39ZM154.481,141.686C161.326,135.437 165.233,126.896 165.233,117.923L158.94,117.923C158.94,125.033 155.849,131.917 150.239,137.04L154.481,141.686ZM165.233,117.923C165.233,108.949 161.326,100.408 154.481,94.158L150.239,98.805C155.849,103.928 158.94,110.812 158.94,117.923L165.233,117.923ZM154.481,94.158C147.646,87.918 138.432,84.455 128.877,84.455L128.877,90.747C136.938,90.747 144.618,93.673 150.239,98.805L154.481,94.158ZM128.877,84.455C119.323,84.455 110.108,87.918 103.273,94.158L107.516,98.805C113.136,93.673 120.816,90.747 128.877,90.747L128.877,84.455ZM103.273,94.158C96.428,100.408 92.522,108.949 92.522,117.923L98.814,117.923C98.814,110.812 101.905,103.928 107.516,98.805L103.273,94.158ZM92.522,117.923C92.522,126.896 96.428,135.437 103.273,141.687L107.516,137.039C101.905,131.917 98.814,125.033 98.814,117.923L92.522,117.923ZM103.273,141.686C110.108,147.928 119.323,151.39 128.877,151.39L128.877,145.098C120.816,145.098 113.136,142.172 107.516,137.04L103.273,141.686Z" fill="#191919"/>
<path d="M174.202,163.564C175.485,164.736 177.475,164.645 178.647,163.362C179.818,162.079 179.728,160.089 178.445,158.917L174.202,163.564ZM154.629,137.172C153.346,136.001 151.356,136.091 150.184,137.374C149.013,138.658 149.103,140.648 150.386,141.819L154.629,137.172ZM178.445,158.917L154.629,137.172L150.386,141.819L174.202,163.564L178.445,158.917Z" fill="#191919"/>
</svg>
