<svg width="274" height="218" viewBox="0 0 274 218" fill="none" xmlns="http://www.w3.org/2000/svg" xmlns:xlink="http://www.w3.org/1999/xlink">
<path d="M149.918,103.326C149.918,129.772 171.357,151.211 197.802,151.211L258.974,151.211C266.32,151.211 272.275,145.256 272.276,137.909L272.276,26.602C272.276,11.91 260.365,0 245.673,0L163.219,0C155.873,0 149.918,5.955 149.918,13.301Z" fill="#FFF1DA"/>
<path d="M135.654,145.823L135.654,147.734C134.388,147.734 133.207,147.654 131.94,147.575C121.336,146.683 111.522,141.912 104.599,134.28C97.632,141.9 87.798,146.667 77.174,147.575C75.908,147.654 74.727,147.734 73.461,147.734L73.461,145.823C73.461,123.24 99.374,109.126 120.105,120.417C129.726,125.657 135.654,135.342 135.654,145.823Z" fill="#C77F67" stroke="#191919" stroke-width="2.111" stroke-miterlimit="3.999327" stroke-linecap="round" stroke-linejoin="round"/>
<path d="M75.577,147.734C75.577,146.568 74.632,145.623 73.467,145.623C72.301,145.623 71.356,146.568 71.356,147.734L75.577,147.734ZM73.467,151.395L71.356,151.395C71.356,151.419 71.356,151.444 71.357,151.468L73.467,151.395ZM65.872,171.107C65.239,172.087 65.52,173.393 66.499,174.026C67.478,174.658 68.785,174.377 69.417,173.398L65.872,171.107ZM71.356,147.734L71.356,151.395L75.577,151.395L75.577,147.734L71.356,147.734ZM71.357,151.468C71.594,158.369 69.692,165.193 65.872,171.107L69.417,173.398C73.698,166.772 75.843,159.1 75.576,151.323L71.357,151.468Z" fill="#191919"/>
<path d="M137.765,147.734C137.765,146.568 136.82,145.623 135.654,145.623C134.489,145.623 133.544,146.568 133.544,147.734L137.765,147.734ZM135.654,151.395L137.764,151.475C137.765,151.449 137.765,151.422 137.765,151.395L135.654,151.395ZM139.616,173.391C140.245,174.373 141.55,174.659 142.532,174.03C143.514,173.401 143.8,172.096 143.171,171.114L139.616,173.391ZM133.544,147.734L133.544,151.395L137.765,151.395L137.765,147.734L133.544,147.734ZM133.545,151.316C133.251,159.084 135.366,166.757 139.616,173.391L143.171,171.114C139.377,165.192 137.503,158.368 137.764,151.475L133.545,151.316Z" fill="#191919"/>
<path d="M131.938,147.575C130.768,167.461 107.217,178.695 89.547,167.795C82.249,163.294 77.655,155.787 77.172,147.575C87.796,146.667 97.629,141.9 104.597,134.28C111.519,141.912 121.333,146.684 131.938,147.575Z" fill="#FFDDA1" stroke="#191919" stroke-width="2.111" stroke-miterlimit="3.999327" stroke-linecap="round" stroke-linejoin="round"/>
<path d="M145.745,208.076C129.705,178.158 85.348,175.841 65.904,203.906C64.972,205.251 64.12,206.643 63.352,208.076Z" fill="#FF808C"/>
<path d="M143.885,209.074C144.436,210.101 145.715,210.487 146.743,209.937C147.77,209.386 148.157,208.106 147.606,207.079L143.885,209.074ZM65.904,203.906L64.169,202.704L64.169,202.704L65.904,203.906ZM61.491,207.079C60.94,208.106 61.327,209.385 62.354,209.936C63.381,210.487 64.661,210.101 65.212,209.074L61.491,207.079ZM147.606,207.079C130.808,175.748 84.497,173.363 64.169,202.704L67.639,205.108C86.199,178.319 128.602,180.568 143.885,209.074L147.606,207.079ZM64.169,202.704C63.191,204.115 62.298,205.575 61.491,207.079L65.212,209.074C65.943,207.711 66.752,206.388 67.639,205.108L64.169,202.704Z" fill="#191919"/>
<path d="M143.408,92.166L151.002,97.149L142.893,114.734C141.585,117.699 144.169,120.888 147.545,120.474C148.125,120.404 148.682,120.225 149.187,119.949L168.799,109.544L188.411,119.949C191.367,121.551 195.054,119.533 195.046,116.315C195.046,115.773 194.932,115.236 194.714,114.734L186.596,97.149L201.246,87.516C203.618,85.515 202.805,81.841 199.781,80.903C199.318,80.759 198.83,80.693 198.342,80.71L181.465,80.71L172.799,59.104C171.226,56.215 166.928,56.014 165.062,58.743C164.982,58.861 164.909,58.981 164.841,59.104L156.167,80.702L147.626,80.702Z" fill="#FFEF5E"/>
<path d="M181.499,80.702L172.8,59.104C171.226,56.214 166.929,56.015 165.062,58.744C164.982,58.861 164.909,58.981 164.841,59.104L156.167,80.702L147.627,80.702L143.408,92.158L151.003,97.141L142.893,114.727C142.529,115.575 142.475,116.514 142.741,117.394L181.676,80.702L181.499,80.702Z" fill="#FFF9BF"/>
<path d="M67.46,92.167L59.866,97.15L67.983,114.735C69.291,117.7 66.706,120.889 63.33,120.475C62.752,120.405 62.193,120.225 61.688,119.95L42.144,109.545L22.508,119.95C19.576,121.57 15.885,119.587 15.864,116.382C15.86,115.817 15.979,115.256 16.212,114.735L24.33,97.149L9.681,87.517C7.3,85.524 8.1,81.847 11.12,80.898C11.6,80.747 12.104,80.681 12.61,80.702L29.486,80.702L38.178,59.097C39.765,56.207 44.072,56.022 45.931,58.762C46.005,58.871 46.073,58.982 46.135,59.097L54.802,80.702L63.241,80.702Z" fill="#FFEF5E"/>
<path d="M16.061,116.447L54.548,80.137L46.11,59.104C44.538,56.214 40.239,56.015 38.373,58.744C38.293,58.861 38.22,58.981 38.152,59.104L29.486,80.702L12.609,80.702C9.428,80.595 7.317,83.777 8.809,86.43C9.038,86.836 9.342,87.201 9.706,87.508L24.355,97.141L16.237,114.727C16.048,115.281 15.988,115.868 16.061,116.447Z" fill="#FFF9BF"/>
<path d="M109.51,27.26L118.184,48.858L135.062,48.858C138.243,48.745 140.36,51.923 138.874,54.578C138.645,54.988 138.339,55.356 137.974,55.664L123.324,65.305L131.442,82.891C132.75,85.856 130.165,89.044 126.79,88.63C126.21,88.559 125.652,88.381 125.147,88.106L105.535,77.701L85.915,88.106C82.969,89.712 79.283,87.707 79.281,84.496C79.281,83.945 79.396,83.399 79.621,82.891L87.713,65.305L73.089,55.673C70.702,53.695 71.479,50.022 74.488,49.06C74.971,48.905 75.482,48.837 75.992,48.858L92.869,48.858L101.552,27.26C103.124,24.37 107.423,24.171 109.289,26.9C109.37,27.017 109.444,27.137 109.51,27.26Z" fill="#FFEF5E"/>
<path d="M118.188,48.859L109.514,27.261C107.927,24.371 103.619,24.186 101.76,26.927C101.687,27.035 101.618,27.147 101.556,27.261L92.873,48.859L75.995,48.859C72.814,48.752 70.704,51.934 72.196,54.586C72.425,54.993 72.728,55.358 73.093,55.665L87.717,65.298L79.624,82.884C79.257,83.805 79.257,84.82 79.624,85.742L118.694,48.859L118.188,48.859Z" fill="#FFF9BF"/>
<path d="M109.51,27.26L111.469,26.473C111.439,26.4 111.406,26.329 111.369,26.26L109.51,27.26ZM118.184,48.858L116.226,49.645C116.547,50.445 117.322,50.969 118.184,50.969L118.184,48.858ZM135.062,48.858L135.062,50.969C135.087,50.969 135.112,50.968 135.137,50.967L135.062,48.858ZM138.874,54.578L137.032,53.547L137.031,53.549L138.874,54.578ZM137.974,55.664L139.134,57.428C139.204,57.382 139.271,57.332 139.335,57.278L137.974,55.664ZM123.324,65.305L122.163,63.542C121.291,64.116 120.97,65.242 121.407,66.19L123.324,65.305ZM131.442,82.891L133.374,82.039C133.369,82.028 133.364,82.017 133.359,82.006L131.442,82.891ZM126.79,88.63L126.532,90.725L126.533,90.726L126.79,88.63ZM125.147,88.106L126.158,86.252L126.136,86.241L125.147,88.106ZM105.535,77.701L106.524,75.836C105.906,75.508 105.165,75.508 104.546,75.836L105.535,77.701ZM85.915,88.106L84.926,86.241L84.905,86.252L85.915,88.106ZM79.281,84.496L81.392,84.495L81.392,84.493L79.281,84.496ZM79.621,82.891L77.703,82.008C77.698,82.018 77.694,82.028 77.69,82.038L79.621,82.891ZM87.713,65.305L89.631,66.187C90.067,65.24 89.745,64.116 88.874,63.542L87.713,65.305ZM73.089,55.673L71.743,57.298C71.802,57.347 71.864,57.393 71.928,57.435L73.089,55.673ZM74.488,49.06L73.845,47.049L73.845,47.049L74.488,49.06ZM75.992,48.858L75.905,50.967C75.934,50.968 75.963,50.969 75.992,50.969L75.992,48.858ZM92.869,48.858L92.869,50.969C93.731,50.969 94.506,50.445 94.827,49.645L92.869,48.858ZM101.552,27.26L99.698,26.251C99.659,26.323 99.624,26.397 99.594,26.473L101.552,27.26ZM109.289,26.9L107.547,28.091L107.549,28.094L109.289,26.9ZM107.551,28.047L116.226,49.645L120.143,48.071L111.469,26.473L107.551,28.047ZM118.184,50.969L135.062,50.969L135.062,46.747L118.184,46.747L118.184,50.969ZM135.137,50.967C136.904,50.904 137.604,52.524 137.032,53.547L140.716,55.609C143.116,51.321 139.582,46.585 134.987,46.749L135.137,50.967ZM137.031,53.549C136.93,53.73 136.79,53.902 136.612,54.051L139.335,57.278C139.889,56.81 140.36,56.246 140.717,55.607L137.031,53.549ZM136.813,53.901L122.163,63.542L124.484,67.068L139.134,57.428L136.813,53.901ZM121.407,66.19L129.526,83.776L133.359,82.006L125.24,64.42L121.407,66.19ZM129.511,83.743C130.061,84.99 129.039,86.78 127.047,86.535L126.533,90.726C131.291,91.309 135.438,86.721 133.374,82.039L129.511,83.743ZM127.048,86.535C126.727,86.496 126.425,86.398 126.158,86.253L124.136,89.959C124.88,90.364 125.694,90.622 126.532,90.725L127.048,86.535ZM126.136,86.241L106.524,75.836L104.546,79.565L124.158,89.97L126.136,86.241ZM104.546,75.836L84.926,86.241L86.904,89.97L106.524,79.566L104.546,75.836ZM84.905,86.252C83.182,87.192 81.393,85.901 81.392,84.495L77.171,84.497C77.173,89.512 82.755,92.233 86.926,89.959L84.905,86.252ZM81.392,84.493C81.392,84.24 81.445,83.985 81.552,83.743L77.69,82.038C77.347,82.813 77.17,83.65 77.171,84.499L81.392,84.493ZM81.538,83.773L89.631,66.187L85.796,64.423L77.703,82.008L81.538,83.773ZM88.874,63.542L74.25,53.91L71.928,57.435L86.552,67.068L88.874,63.542ZM74.436,54.047C73.41,53.198 73.614,51.555 75.13,51.07L73.845,47.049C69.343,48.488 67.993,54.193 71.743,57.298L74.436,54.047ZM75.13,51.07C75.377,50.992 75.64,50.956 75.905,50.967L76.079,46.749C75.323,46.718 74.566,46.819 73.845,47.049L75.13,51.07ZM75.992,50.969L92.869,50.969L92.869,46.747L75.992,46.747L75.992,50.969ZM94.827,49.645L103.511,28.047L99.594,26.473L90.911,48.071L94.827,49.645ZM103.406,28.269C104.214,26.785 106.558,26.645 107.547,28.091L111.031,25.708C108.288,21.696 102.035,21.956 99.698,26.251L103.406,28.269ZM107.549,28.094C107.591,28.156 107.625,28.211 107.651,28.26L111.369,26.26C111.263,26.063 111.148,25.878 111.029,25.705L107.549,28.094Z" fill="#191919"/>
<path d="M68.618,93.931C69.593,93.292 69.864,91.983 69.225,91.009C68.585,90.034 67.276,89.762 66.302,90.402L68.618,93.931ZM59.866,97.15L58.707,95.385C57.834,95.959 57.511,97.086 57.949,98.035L59.866,97.15ZM67.983,114.735L69.914,113.883C69.909,113.872 69.904,113.862 69.899,113.851L67.983,114.735ZM63.33,120.475L63.588,118.38L63.584,118.379L63.33,120.475ZM61.688,119.95L62.697,118.096L62.68,118.087L61.688,119.95ZM42.144,109.545L43.136,107.682C42.518,107.353 41.776,107.352 41.156,107.68L42.144,109.545ZM22.508,119.95L21.52,118.085C21.509,118.091 21.498,118.097 21.487,118.103L22.508,119.95ZM15.864,116.382L17.975,116.368L17.975,116.367L15.864,116.382ZM16.212,114.735L14.296,113.851L14.286,113.873L16.212,114.735ZM24.33,97.149L26.247,98.034C26.685,97.086 26.363,95.96 25.49,95.386L24.33,97.149ZM9.681,87.517L8.326,89.136C8.388,89.188 8.454,89.236 8.521,89.281L9.681,87.517ZM11.12,80.898L11.752,82.912L11.753,82.912L11.12,80.898ZM12.61,80.702L12.522,82.811C12.551,82.813 12.58,82.813 12.61,82.813L12.61,80.702ZM29.486,80.702L29.486,82.813C30.348,82.813 31.123,82.29 31.445,81.49L29.486,80.702ZM38.178,59.097L36.328,58.081C36.287,58.155 36.251,58.231 36.22,58.309L38.178,59.097ZM45.931,58.762L44.184,59.947L44.186,59.949L45.931,58.762ZM46.135,59.097L48.094,58.311C48.063,58.233 48.027,58.157 47.987,58.083L46.135,59.097ZM54.802,80.702L52.843,81.488C53.164,82.289 53.939,82.813 54.802,82.813L54.802,80.702ZM63.241,82.813C64.406,82.813 65.351,81.868 65.351,80.702C65.351,79.537 64.406,78.592 63.241,78.592L63.241,82.813ZM66.302,90.402L58.707,95.385L61.024,98.915L68.618,93.931L66.302,90.402ZM57.949,98.035L66.066,115.62L69.899,113.851L61.782,96.266L57.949,98.035ZM66.052,115.588C66.602,116.835 65.581,118.624 63.588,118.38L63.073,122.57C67.832,123.153 71.98,118.566 69.914,113.883L66.052,115.588ZM63.584,118.379C63.27,118.341 62.968,118.244 62.697,118.096L60.679,121.804C61.419,122.207 62.234,122.468 63.077,122.57L63.584,118.379ZM62.68,118.087L43.136,107.682L41.152,111.409L60.696,121.814L62.68,118.087ZM41.156,107.68L21.52,118.085L23.496,121.816L43.133,111.411L41.156,107.68ZM21.487,118.103C19.777,119.047 17.984,117.771 17.975,116.368L13.754,116.396C13.786,121.403 19.375,124.092 23.528,121.798L21.487,118.103ZM17.975,116.367C17.973,116.108 18.028,115.846 18.139,115.598L14.286,113.873C13.931,114.666 13.748,115.526 13.754,116.397L17.975,116.367ZM18.129,115.62L26.247,98.034L22.414,96.265L14.296,113.851L18.129,115.62ZM25.49,95.386L10.841,85.753L8.521,89.281L23.171,98.913L25.49,95.386ZM11.036,85.899C10.013,85.043 10.224,83.392 11.752,82.912L10.488,78.885C5.975,80.301 4.587,86.005 8.326,89.136L11.036,85.899ZM11.753,82.912C11.998,82.835 12.258,82.8 12.522,82.811L12.698,78.594C11.951,78.562 11.202,78.66 10.487,78.885L11.753,82.912ZM12.61,82.813L29.486,82.813L29.486,78.592L12.61,78.592L12.61,82.813ZM31.445,81.49L40.136,59.885L36.22,58.309L27.528,79.915L31.445,81.49ZM40.028,60.113C40.846,58.624 43.199,58.495 44.184,59.947L47.678,57.577C44.945,53.549 38.684,53.791 36.328,58.081L40.028,60.113ZM44.186,59.949C44.22,59.999 44.252,60.053 44.284,60.111L47.987,58.083C47.893,57.912 47.79,57.742 47.676,57.575L44.186,59.949ZM44.176,59.883L52.843,81.488L56.761,79.917L48.094,58.311L44.176,59.883ZM54.802,82.813L63.241,82.813L63.241,78.592L54.802,78.592L54.802,82.813Z" fill="#191919"/>
<path d="M144.566,90.401C143.591,89.762 142.283,90.033 141.643,91.008C141.003,91.982 141.275,93.291 142.25,93.931L144.566,90.401ZM151.002,97.149L152.918,98.033C153.356,97.084 153.033,95.958 152.16,95.385L151.002,97.149ZM142.893,114.734L140.976,113.851C140.971,113.861 140.966,113.872 140.961,113.883L142.893,114.734ZM147.545,120.474L147.289,118.379L147.289,118.379L147.545,120.474ZM149.187,119.949L148.198,118.085L148.176,118.097L149.187,119.949ZM168.799,109.544L169.788,107.68C169.17,107.352 168.428,107.352 167.81,107.68L168.799,109.544ZM188.411,119.949L189.416,118.093L189.4,118.085L188.411,119.949ZM195.046,116.315L192.936,116.319L192.936,116.321L195.046,116.315ZM194.714,114.734L196.65,113.893C196.644,113.878 196.637,113.864 196.631,113.85L194.714,114.734ZM186.596,97.149L185.436,95.386C184.563,95.96 184.241,97.086 184.679,98.034L186.596,97.149ZM201.246,87.516L202.405,89.28C202.475,89.234 202.543,89.184 202.607,89.13L201.246,87.516ZM199.781,80.903L199.153,82.918L199.156,82.919L199.781,80.903ZM198.342,80.71L198.342,82.821C198.366,82.821 198.39,82.82 198.413,82.82L198.342,80.71ZM181.465,80.71L179.506,81.496C179.827,82.296 180.603,82.821 181.465,82.821L181.465,80.71ZM172.799,59.104L174.758,58.318C174.727,58.242 174.692,58.167 174.653,58.095L172.799,59.104ZM165.062,58.743L163.319,57.552L163.315,57.558L165.062,58.743ZM164.841,59.104L162.993,58.083C162.951,58.159 162.914,58.237 162.882,58.317L164.841,59.104ZM156.167,80.702L156.167,82.812C157.029,82.812 157.804,82.288 158.125,81.488L156.167,80.702ZM147.626,78.591C146.461,78.591 145.516,79.536 145.516,80.702C145.516,81.867 146.461,82.812 147.626,82.812L147.626,78.591ZM142.25,93.931L149.844,98.914L152.16,95.385L144.566,90.401L142.25,93.931ZM149.085,96.266L140.976,113.851L144.809,115.618L152.918,98.033L149.085,96.266ZM140.961,113.883C138.897,118.565 143.043,123.152 147.802,122.57L147.289,118.379C145.295,118.623 144.274,116.834 144.824,115.586L140.961,113.883ZM147.801,122.57C148.642,122.467 149.456,122.207 150.199,121.802L148.176,118.097C147.908,118.243 147.607,118.34 147.289,118.379L147.801,122.57ZM150.177,121.814L169.788,111.409L167.81,107.68L148.198,118.085L150.177,121.814ZM167.81,111.409L187.422,121.814L189.4,118.085L169.788,107.68L167.81,111.409ZM187.405,121.805C191.587,124.071 197.17,121.333 197.157,116.31L192.936,116.321C192.939,117.732 191.148,119.031 189.416,118.094L187.405,121.805ZM197.157,116.312C197.156,115.477 196.982,114.655 196.65,113.893L192.779,115.576C192.883,115.817 192.935,116.068 192.936,116.319L197.157,116.312ZM196.631,113.85L188.512,96.265L184.679,98.034L192.798,115.619L196.631,113.85ZM187.755,98.913L202.405,89.28L200.086,85.753L185.436,95.386L187.755,98.913ZM202.607,89.13C206.334,85.985 204.922,80.287 200.406,78.887L199.156,82.919C200.687,83.394 200.902,85.044 199.885,85.903L202.607,89.13ZM200.409,78.888C199.718,78.672 198.993,78.576 198.271,78.6L198.413,82.82C198.667,82.811 198.919,82.845 199.153,82.918L200.409,78.888ZM198.342,78.599L181.465,78.599L181.465,82.821L198.342,82.821L198.342,78.599ZM183.424,79.924L174.758,58.318L170.84,59.89L179.506,81.496L183.424,79.924ZM174.653,58.095C172.316,53.801 166.064,53.539 163.319,57.552L166.804,59.935C167.793,58.489 170.137,58.629 170.945,60.113L174.653,58.095ZM163.315,57.558C163.198,57.731 163.091,57.906 162.993,58.083L166.689,60.124C166.727,60.055 166.767,59.99 166.808,59.929L163.315,57.558ZM162.882,58.317L154.208,79.915L158.125,81.488L166.8,59.891L162.882,58.317ZM156.167,78.591L147.626,78.591L147.626,82.812L156.167,82.812L156.167,78.591Z" fill="#191919"/>
</svg>
