<svg width="36" height="38" viewBox="0 0 36 38" fill="none" xmlns="http://www.w3.org/2000/svg" xmlns:xlink="http://www.w3.org/1999/xlink">
<mask id="mask_0_77_753" style="mask-type:alpha" maskUnits="userSpaceOnUse" x="0" y="0.500854" width="18" height="18">
<rect  x="0" y="0.501" width="36" height="36" fill="#000000"/>
</mask>
<g mask="url(#mask_0_77_753)">
<path d="M32.708,15.563L31.5,15.563L31.5,15.501L18,15.501L18,21.501L26.477,21.501C25.241,24.994 21.917,27.501 18,27.501C13.03,27.501 9,23.471 9,18.501C9,13.531 13.03,9.501 18,9.501C20.294,9.501 22.381,10.366 23.971,11.78L28.213,7.537C25.535,5.041 21.951,3.501 18,3.501C9.716,3.501 3,10.217 3,18.501C3,26.785 9.716,33.501 18,33.501C26.284,33.501 33,26.785 33,18.501C33,17.495 32.896,16.513 32.708,15.563L32.708,15.563Z" clip-rule="evenodd" fill-rule="evenodd" fill="#FFC107"/>
<path d="M4.73,11.519L9.659,15.133C10.992,11.832 14.222,9.501 18.001,9.501C20.295,9.501 22.382,10.366 23.972,11.78L28.214,7.537C25.535,5.041 21.952,3.501 18.001,3.501C12.239,3.501 7.243,6.754 4.73,11.519L4.73,11.519Z" clip-rule="evenodd" fill-rule="evenodd" fill="#FF3D00"/>
<path d="M18,33.501C21.875,33.501 25.395,32.018 28.057,29.607L23.414,25.678C21.908,26.819 20.036,27.501 18,27.501C14.099,27.501 10.786,25.013 9.538,21.541L4.646,25.31C7.129,30.168 12.17,33.501 18,33.501L18,33.501Z" clip-rule="evenodd" fill-rule="evenodd" fill="#4CAF50"/>
<path d="M32.708,15.563L31.5,15.563L31.5,15.501L18,15.501L18,21.501L26.477,21.501C25.883,23.179 24.804,24.625 23.412,25.679C23.413,25.678 23.413,25.678 23.414,25.678L28.057,29.606C27.728,29.905 33,26.001 33,18.501C33,17.495 32.896,16.513 32.708,15.563L32.708,15.563Z" clip-rule="evenodd" fill-rule="evenodd" fill="#1976D2"/>
</g>
</svg>
