<svg width="36" height="38" viewBox="0 0 36 38" fill="none" xmlns="http://www.w3.org/2000/svg" xmlns:xlink="http://www.w3.org/1999/xlink">
<mask id="mask_0_77_761" style="mask-type:alpha" maskUnits="userSpaceOnUse" x="0" y="0.500854" width="18" height="18">
<rect  x="0" y="0.501" width="36" height="36" fill="#000000"/>
</mask>
<g mask="url(#mask_0_77_761)">
<path d="M18,4.251C10.13,4.251 3.75,10.631 3.75,18.501C3.75,26.371 10.13,32.751 18,32.751C25.87,32.751 32.25,26.371 32.25,18.501C32.25,10.631 25.87,4.251 18,4.251L18,4.251Z" clip-rule="evenodd" fill-rule="evenodd" fill="#039BE5"/>
<path d="M19.93,22.278L23.618,22.278L24.197,18.532L19.929,18.532L19.929,16.484C19.929,14.928 20.438,13.548 21.893,13.548L24.233,13.548L24.233,10.279C23.822,10.223 22.952,10.102 21.31,10.102C17.88,10.102 15.869,11.913 15.869,16.039L15.869,18.532L12.344,18.532L12.344,22.278L15.869,22.278L15.869,32.575C16.568,32.68 17.275,32.751 18.001,32.751C18.657,32.751 19.298,32.691 19.93,32.605L19.93,22.278L19.93,22.278Z" clip-rule="evenodd" fill-rule="evenodd" fill="#FFFFFF"/>
</g>
</svg>
