<svg width="218" height="230" viewBox="0 0 218 230" fill="none" xmlns="http://www.w3.org/2000/svg" xmlns:xlink="http://www.w3.org/1999/xlink">
<path d="M216.016,180.353C216.016,206.799 194.577,228.237 168.131,228.237L106.959,228.237C99.613,228.237 93.658,222.282 93.658,214.936L93.658,88.13C93.658,73.438 105.568,61.527 120.261,61.527L202.714,61.527C210.06,61.527 216.016,67.483 216.016,74.829Z" fill="#FFF1DA"/>
<path d="M82.527,43.372C92.469,43.372 100.527,33.663 100.527,21.686C100.527,9.709 92.469,0 82.527,0C72.587,0 64.527,9.709 64.527,21.686C64.527,33.663 72.587,43.372 82.527,43.372Z" fill="#FFDDA1" stroke="#191919" stroke-width="2.111" stroke-miterlimit="3.999327" stroke-linecap="round" stroke-linejoin="round"/>
<path d="M130.706,54.848L132.215,53.372L132.215,53.372L130.706,54.848ZM115.992,56.926L114.203,55.804L114.203,55.804L115.992,56.926ZM111.412,64.228L109.624,63.107L109.62,63.113L111.412,64.228ZM106.067,68.761L105.356,66.774L105.356,66.774L106.067,68.761ZM99.657,68.437L100.554,66.527L100.546,66.522L99.657,68.437ZM50.794,45.753L51.682,43.838L51.676,43.835L50.794,45.753ZM31.891,44.767L31.201,42.772L31.201,42.772L31.891,44.767ZM15.954,57.79L14.188,56.634L14.186,56.638L15.954,57.79ZM7.933,70.096L9.643,71.334C9.663,71.306 9.683,71.277 9.702,71.248L7.933,70.096ZM5.751,74.704L3.717,74.139L3.717,74.139L5.751,74.704ZM5.168,80.04L3.06,80.146L3.06,80.146L5.168,80.04ZM6.281,85.236L4.319,86.015L4.319,86.015L6.281,85.236ZM8.907,89.449L7.368,90.893L7.368,90.893L8.907,89.449ZM16.823,92.468L16.514,90.38L16.514,90.38L16.823,92.468ZM20.828,90.783L22.076,92.486L22.077,92.485L20.828,90.783ZM23.989,87.217L22.222,86.061C22.204,86.089 22.186,86.117 22.169,86.146L23.989,87.217ZM32.037,74.911L30.272,73.752L30.27,73.755L32.037,74.911ZM37.355,70.573L38.043,72.569L38.043,72.569L37.355,70.573ZM43.66,70.907L44.549,68.993L44.543,68.99L43.66,70.907ZM55.352,76.337L57.385,76.905C57.663,75.909 57.179,74.858 56.241,74.423L55.352,76.337ZM42.222,123.365L40.188,122.797C40.185,122.809 40.182,122.821 40.179,122.832L42.222,123.365ZM38.411,129.987L39.841,131.54L39.841,131.54L38.411,129.987ZM32.288,132.514L32.288,134.624L32.289,134.624L32.288,132.514ZM5.067,136.431L6.729,137.732L6.729,137.732L5.067,136.431ZM5.067,155.345L6.729,154.044L6.729,154.044L5.067,155.345ZM32.288,159.264L32.292,157.153L32.288,157.153L32.288,159.264ZM48.956,153.173L47.639,151.524L47.639,151.524L48.956,153.173ZM60.545,136.704L61.506,134.825C60.972,134.552 60.347,134.519 59.787,134.734C59.227,134.949 58.785,135.393 58.572,135.954L60.545,136.704ZM68.392,140.717L69.357,138.84L69.353,138.838L68.392,140.717ZM73.82,147.048L75.779,146.262L75.779,146.261L73.82,147.048ZM74.674,156.375L76.745,156.78L76.746,156.773L74.674,156.375ZM68.635,187.227L70.707,187.633L70.707,187.633L68.635,187.227ZM76.251,203.447L75.608,205.457L75.614,205.459L76.251,203.447ZM78.799,203.848L78.792,205.958L78.802,205.958L78.799,203.848ZM85.237,201.012L83.747,199.517L83.746,199.518L85.237,201.012ZM88.949,193.718L91.02,194.124L91.02,194.123L88.949,193.718ZM94.98,162.83L97.051,163.235L97.052,163.23L94.98,162.83ZM92.436,134.854L94.396,134.07L94.396,134.07L92.436,134.854ZM76.167,115.848L77.135,113.971L77.126,113.967L76.167,115.848ZM67.742,111.55L65.709,110.983C65.439,111.95 65.888,112.974 66.783,113.43L67.742,111.55ZM75.03,85.442L75.919,83.527C75.357,83.266 74.709,83.265 74.146,83.525C73.583,83.784 73.163,84.277 72.997,84.874L75.03,85.442ZM92.481,93.547L93.371,91.633L93.37,91.633L92.481,93.547ZM111.705,94.475L112.417,96.462L112.417,96.462L111.705,94.475ZM127.746,80.912L125.962,79.784L125.957,79.791L127.746,80.912ZM132.326,73.662L134.11,74.79L134.113,74.785L132.326,73.662ZM134.213,69.03L132.156,68.56L132.155,68.561L134.213,69.03ZM134.569,63.826L132.466,64.006L132.466,64.007L134.569,63.826ZM133.337,58.846L131.398,59.68L131.398,59.681L133.337,58.846ZM132.215,53.372C129.639,50.738 126.223,49.41 122.717,49.905L123.307,54.085C125.32,53.801 127.438,54.525 129.197,56.324L132.215,53.372ZM122.717,49.905C119.233,50.397 116.206,52.61 114.203,55.804L117.78,58.047C119.248,55.706 121.273,54.372 123.307,54.085L122.717,49.905ZM114.203,55.804L109.624,63.107L113.2,65.35L117.78,58.047L114.203,55.804ZM109.62,63.113C108.468,64.964 106.952,66.203 105.356,66.774L106.779,70.749C109.404,69.809 111.629,67.875 113.204,65.344L109.62,63.113ZM105.356,66.774C103.779,67.339 102.115,67.26 100.554,66.527L98.759,70.347C101.314,71.548 104.135,71.695 106.779,70.749L105.356,66.774ZM100.546,66.522L51.682,43.838L49.905,47.667L98.768,70.352L100.546,66.522ZM51.676,43.835C45.116,40.817 37.955,40.438 31.201,42.772L32.58,46.762C38.289,44.789 44.325,45.099 49.911,47.67L51.676,43.835ZM31.201,42.772C24.465,45.099 18.547,49.979 14.188,56.634L17.72,58.947C21.645,52.954 26.854,48.74 32.58,46.762L31.201,42.772ZM14.186,56.638L6.165,68.943L9.702,71.248L17.722,58.943L14.186,56.638ZM6.224,68.857C5.101,70.407 4.254,72.207 3.717,74.139L7.784,75.27C8.198,73.783 8.836,72.447 9.643,71.334L6.224,68.857ZM3.717,74.139C3.18,76.071 2.958,78.114 3.06,80.146L7.276,79.933C7.196,78.344 7.371,76.756 7.784,75.27L3.717,74.139ZM3.06,80.146C3.162,82.177 3.587,84.173 4.319,86.015L8.242,84.456C7.688,83.062 7.356,81.522 7.276,79.933L3.06,80.146ZM4.319,86.015C5.05,87.856 6.08,89.52 7.368,90.893L10.447,88.005C9.554,87.053 8.796,85.85 8.242,84.456L4.319,86.015ZM7.368,90.893C8.656,92.266 10.182,93.327 11.871,93.97L13.374,90.025C12.341,89.632 11.34,88.957 10.447,88.005L7.368,90.893ZM11.871,93.97C13.561,94.614 15.356,94.819 17.132,94.556L16.514,90.38C15.469,90.534 14.405,90.418 13.374,90.025L11.871,93.97ZM17.132,94.556C18.906,94.293 20.588,93.576 22.076,92.486L19.581,89.08C18.606,89.795 17.561,90.225 16.514,90.38L17.132,94.556ZM22.077,92.485C23.562,91.396 24.824,89.958 25.808,88.287L22.169,86.146C21.447,87.374 20.558,88.364 19.58,89.081L22.077,92.485ZM25.755,88.372L33.803,76.066L30.27,73.755L22.222,86.061L25.755,88.372ZM33.802,76.069C34.968,74.292 36.469,73.111 38.043,72.569L36.668,68.578C34.084,69.468 31.873,71.314 30.272,73.752L33.802,76.069ZM38.043,72.569C39.599,72.033 41.237,72.115 42.776,72.824L44.543,68.99C42.032,67.833 39.269,67.682 36.668,68.578L38.043,72.569ZM42.77,72.821L54.463,78.252L56.241,74.423L44.549,68.993L42.77,72.821ZM53.319,75.77L40.188,122.797L44.255,123.933L57.385,76.905L53.319,75.77ZM40.179,122.832C39.572,125.158 38.427,127.102 36.981,128.435L39.841,131.54C41.961,129.587 43.481,126.898 44.264,123.898L40.179,122.832ZM36.981,128.435C35.545,129.757 33.9,130.402 32.287,130.403L32.289,134.624C35.073,134.623 37.712,133.501 39.841,131.54L36.981,128.435ZM32.288,130.403L12.471,130.403L12.471,134.624L32.288,134.624L32.288,130.403ZM12.471,130.403C8.944,130.403 5.702,132.195 3.405,135.13L6.729,137.732C8.359,135.65 10.443,134.624 12.471,134.624L12.471,130.403ZM3.405,135.13C1.117,138.051 -0.111,141.925 -0.111,145.888L4.111,145.888C4.111,142.755 5.089,139.826 6.729,137.732L3.405,135.13ZM-0.111,145.888C-0.111,149.85 1.117,153.725 3.405,156.647L6.729,154.044C5.089,151.95 4.111,149.02 4.111,145.888L-0.111,145.888ZM3.405,156.646C5.702,159.581 8.944,161.374 12.471,161.374L12.471,157.153C10.444,157.153 8.359,156.127 6.729,154.044L3.405,156.646ZM12.471,161.374L32.288,161.374L32.288,157.153L12.471,157.153L12.471,161.374ZM32.284,161.374C38.7,161.386 44.935,159.086 50.273,154.823L47.639,151.524C42.982,155.242 37.664,157.163 32.292,157.153L32.284,161.374ZM50.273,154.823C55.604,150.567 59.827,144.531 62.518,137.454L58.572,135.954C56.113,142.42 52.304,147.8 47.639,151.524L50.273,154.823ZM59.584,138.583L67.43,142.596L69.353,138.838L61.506,134.825L59.584,138.583ZM67.426,142.594C69.244,143.53 70.861,145.343 71.861,147.834L75.779,146.261C74.47,143.001 72.232,140.319 69.357,138.84L67.426,142.594ZM71.861,147.834C72.86,150.323 73.13,153.222 72.601,155.976L76.746,156.773C77.424,153.25 77.089,149.527 75.779,146.262L71.861,147.834ZM72.602,155.969L66.564,186.822L70.707,187.633L76.745,156.78L72.602,155.969ZM66.564,186.821C65.808,190.681 66.276,194.782 67.903,198.248L71.725,196.454C70.496,193.836 70.115,190.653 70.707,187.633L66.564,186.821ZM67.903,198.248C69.53,201.712 72.251,204.384 75.608,205.457L76.894,201.436C74.864,200.787 72.954,199.073 71.725,196.454L67.903,198.248ZM75.614,205.459C76.649,205.787 77.717,205.955 78.792,205.958L78.806,201.737C78.164,201.735 77.521,201.635 76.888,201.434L75.614,205.459ZM78.802,205.958C81.759,205.955 84.544,204.687 86.729,202.505L83.746,199.518C82.254,201.007 80.507,201.735 78.796,201.737L78.802,205.958ZM86.728,202.506C88.904,200.336 90.384,197.37 91.02,194.124L86.877,193.312C86.381,195.849 85.249,198.019 83.747,199.517L86.728,202.506ZM91.02,194.123L97.051,163.235L92.908,162.426L86.877,193.314L91.02,194.123ZM97.052,163.23C98.941,153.433 98.007,143.089 94.396,134.07L90.477,135.639C93.777,143.882 94.648,153.402 92.907,162.431L97.052,163.23ZM94.396,134.07C90.786,125.056 84.7,117.872 77.135,113.971L75.2,117.724C81.71,121.08 87.175,127.394 90.477,135.639L94.396,134.07ZM77.126,113.967L68.701,109.67L66.783,113.43L75.208,117.728L77.126,113.967ZM69.775,112.118L77.063,86.009L72.997,84.874L65.709,110.983L69.775,112.118ZM74.141,87.356L91.592,95.462L93.37,91.633L75.919,83.527L74.141,87.356ZM91.591,95.461C98.261,98.561 105.56,98.918 112.417,96.462L110.993,92.488C105.197,94.564 99.048,94.272 93.371,91.633L91.591,95.461ZM112.417,96.462C119.254,94.011 125.218,88.922 129.535,82.032L125.957,79.791C122.064,86.005 116.807,90.404 110.993,92.488L112.417,96.462ZM129.531,82.039L134.11,74.79L130.541,72.535L125.962,79.784L129.531,82.039ZM134.113,74.785C135.108,73.2 135.838,71.403 136.271,69.498L132.155,68.561C131.82,70.032 131.265,71.383 130.538,72.539L134.113,74.785ZM136.271,69.499C136.706,67.595 136.841,65.607 136.672,63.645L132.466,64.007C132.598,65.54 132.492,67.089 132.156,68.56L136.271,69.499ZM136.672,63.646C136.504,61.683 136.033,59.769 135.276,58.011L131.398,59.681C131.968,61.004 132.335,62.475 132.466,64.006L136.672,63.646ZM135.276,58.012C134.52,56.255 133.487,54.673 132.215,53.372L129.197,56.323C130.074,57.22 130.828,58.356 131.398,59.68L135.276,58.012Z" fill="#191919"/>
</svg>
