<svg width="36" height="36" viewBox="0 0 36 36" fill="none" xmlns="http://www.w3.org/2000/svg" xmlns:xlink="http://www.w3.org/1999/xlink">
<mask id="mask_0_76_3542" style="mask-type:alpha" maskUnits="userSpaceOnUse" x="0" y="-0.000061" width="18" height="18">
<rect  x="0" y="0" width="36" height="36" fill="#000000"/>
</mask>
<g mask="url(#mask_0_76_3542)">
<path d="M18,3.75C10.13,3.75 3.75,10.13 3.75,18C3.75,25.87 10.13,32.25 18,32.25C25.87,32.25 32.25,25.87 32.25,18C32.25,10.13 25.87,3.75 18,3.75L18,3.75Z" clip-rule="evenodd" fill-rule="evenodd" fill="#039BE5"/>
<path d="M19.93,21.777L23.618,21.777L24.197,18.031L19.929,18.031L19.929,15.983C19.929,14.427 20.438,13.047 21.893,13.047L24.233,13.047L24.233,9.778C23.822,9.722 22.952,9.601 21.31,9.601C17.88,9.601 15.869,11.412 15.869,15.538L15.869,18.031L12.344,18.031L12.344,21.777L15.869,21.777L15.869,32.074C16.568,32.179 17.275,32.25 18.001,32.25C18.657,32.25 19.298,32.19 19.93,32.104L19.93,21.777L19.93,21.777Z" clip-rule="evenodd" fill-rule="evenodd" fill="#FFFFFF"/>
</g>
</svg>
