<svg width="42" height="26" viewBox="0 0 42 26" fill="none" xmlns="http://www.w3.org/2000/svg" xmlns:xlink="http://www.w3.org/1999/xlink">
<path d="M0.085,20.775C-0.935,21.833 -0.904,23.517 0.154,24.537C1.212,25.557 2.896,25.526 3.915,24.468L0.085,20.775ZM19.951,4L21.866,2.154L19.951,0.167L18.035,2.154L19.951,4ZM35.986,24.468C37.006,25.526 38.69,25.557 39.748,24.537C40.805,23.517 40.836,21.833 39.817,20.775L35.986,24.468ZM3.915,24.468L21.866,5.846L18.035,2.154L0.085,20.775L3.915,24.468ZM18.035,5.846L35.986,24.468L39.817,20.775L21.866,2.154L18.035,5.846Z" fill="#BCB7C2"/>
</svg>
