<svg width="42" height="26" viewBox="0 0 42 26" fill="none" xmlns="http://www.w3.org/2000/svg" xmlns:xlink="http://www.w3.org/1999/xlink">
<path d="M0.085,20.36C-0.935,21.418 -0.904,23.102 0.154,24.121C1.212,25.141 2.896,25.11 3.915,24.052L0.085,20.36ZM19.951,3.584L21.866,1.738L19.951,-0.249L18.035,1.738L19.951,3.584ZM35.986,24.052C37.006,25.11 38.69,25.141 39.748,24.121C40.805,23.102 40.836,21.418 39.817,20.36L35.986,24.052ZM3.915,24.052L21.866,5.431L18.035,1.738L0.085,20.36L3.915,24.052ZM18.035,5.431L35.986,24.052L39.817,20.36L21.866,1.738L18.035,5.431Z" fill="#3E2E4D"/>
</svg>
