<svg width="60" height="50" viewBox="0 0 60 50" fill="none" xmlns="http://www.w3.org/2000/svg" xmlns:xlink="http://www.w3.org/1999/xlink">
<path d="M25,0C11.193,0 0,11.193 0,25C0,38.807 11.193,50 25,50C38.807,50 50,38.807 50,25C50,11.193 38.807,0 25,0ZM41.129,21.724L41.129,22.422C41.129,23.014 40.794,23.555 40.265,23.82L38.714,24.596C38.467,24.719 38.193,24.775 37.918,24.758C37.643,24.741 37.377,24.651 37.148,24.498L35.312,23.274C35.114,23.142 34.889,23.057 34.653,23.026C34.417,22.994 34.177,23.017 33.952,23.092L33.684,23.18C32.707,23.506 32.307,24.671 32.879,25.529L34.214,27.531C34.503,27.966 34.991,28.227 35.513,28.227L36.341,28.227C37.204,28.227 37.903,28.926 37.903,29.789L37.903,30.932C37.903,31.27 37.793,31.6 37.591,31.87L35.702,34.388C35.558,34.58 35.461,34.801 35.416,35.036L34.983,37.338C34.92,37.669 34.752,37.972 34.503,38.201C33.548,39.075 32.702,40.062 31.983,41.14L30.669,43.111C30.414,43.494 30.068,43.808 29.662,44.026C29.256,44.243 28.802,44.357 28.342,44.357C27.282,44.357 26.314,43.758 25.84,42.81C25.287,41.706 25,40.488 25,39.253L25,36.24C25,35.377 24.3,34.677 23.438,34.677L20.829,34.677C19.368,34.677 17.968,34.097 16.934,33.065C15.902,32.032 15.322,30.631 15.322,29.17L15.322,27.753C15.322,26.02 16.138,24.388 17.524,23.348L20.304,21.262C21.258,20.547 22.417,20.161 23.609,20.16L23.699,20.16C24.553,20.16 25.397,20.359 26.161,20.742L27.645,21.484C28.016,21.669 28.445,21.7 28.838,21.569L33.607,19.979C34.245,19.766 34.675,19.169 34.675,18.497C34.675,17.634 33.976,16.934 33.113,16.934L32.096,16.934C31.681,16.934 31.284,16.77 30.991,16.477L30.293,15.779C30.148,15.634 29.976,15.519 29.786,15.44C29.597,15.362 29.394,15.322 29.189,15.322L20.111,15.322C19.248,15.322 18.548,14.622 18.548,13.759L18.548,13.316C18.548,12.599 19.036,11.974 19.732,11.799L21.189,11.435C21.566,11.341 21.894,11.11 22.11,10.786L22.924,9.566C23.214,9.131 23.702,8.87 24.224,8.87L26.664,8.87C27.527,8.87 28.227,8.17 28.227,7.307L28.227,5.12C36.213,6.414 42.627,12.401 44.549,20.161L42.692,20.161C41.829,20.161 41.129,20.861 41.129,21.724Z" fill="#000000"/>
<path d="M55.25,38.25L54.625,38.25L50.376,32.938C50.141,32.646 49.844,32.409 49.506,32.247C49.169,32.084 48.798,32 48.423,32L40.068,32C39.045,32 38.126,32.622 37.746,33.571L35.875,38.338C34.798,38.617 34,39.586 34,40.75L34,45.125C34,45.47 34.28,45.75 34.625,45.75L36.5,45.75C36.5,47.821 38.179,49.5 40.25,49.5C42.321,49.5 44,47.821 44,45.75L49,45.75C49,47.821 50.679,49.5 52.75,49.5C54.821,49.5 56.5,47.821 56.5,45.75L58.375,45.75C58.72,45.75 59,45.47 59,45.125L59,42C59,39.929 57.321,38.25 55.25,38.25ZM40.25,47.625C39.216,47.625 38.375,46.784 38.375,45.75C38.375,44.716 39.216,43.875 40.25,43.875C41.284,43.875 42.125,44.716 42.125,45.75C42.125,46.784 41.284,47.625 40.25,47.625ZM43.063,38.25L38.568,38.25L40.068,34.5L43.063,34.5L43.063,38.25ZM44.938,38.25L44.938,34.5L48.423,34.5L51.423,38.25L44.938,38.25ZM52.75,47.625C51.716,47.625 50.875,46.784 50.875,45.75C50.875,44.716 51.716,43.875 52.75,43.875C53.784,43.875 54.625,44.716 54.625,45.75C54.625,46.784 53.784,47.625 52.75,47.625Z" fill="#000000" stroke="#000000" stroke-width="0.5" stroke-miterlimit="3.999327"/>
</svg>
