<svg width="70" height="50" viewBox="0 0 70 50" fill="none" xmlns="http://www.w3.org/2000/svg" xmlns:xlink="http://www.w3.org/1999/xlink">
<path d="M29.372,37.094L29.879,33.904L28.748,33.904L23.412,33.904L27.124,10.327C27.134,10.254 27.17,10.187 27.226,10.139C27.284,10.094 27.355,10.068 27.429,10.066L36.433,10.066C39.435,10.066 41.494,10.69 42.581,11.922C43.062,12.439 43.398,13.075 43.553,13.764C43.722,14.601 43.722,15.464 43.553,16.301L43.553,17.026L44.06,17.316C44.447,17.509 44.795,17.769 45.09,18.085C45.533,18.62 45.819,19.267 45.916,19.955C46.025,20.855 45.986,21.766 45.8,22.652C45.609,23.729 45.231,24.765 44.684,25.712C44.241,26.471 43.643,27.128 42.929,27.64C42.21,28.131 41.41,28.489 40.566,28.699C39.618,28.938 38.643,29.055 37.666,29.047L36.955,29.047C36.457,29.047 35.975,29.221 35.592,29.54C35.207,29.864 34.955,30.318 34.882,30.816L34.882,31.106L33.997,36.732L33.997,36.949C34.008,36.987 34.008,37.027 33.997,37.065L33.91,37.065L29.372,37.094Z" fill="#253D80"/>
<path d="M44.538,16.446L44.451,16.983C43.262,23.073 39.188,25.19 33.997,25.19L31.358,25.19C30.723,25.189 30.181,25.65 30.082,26.277L28.733,34.861L28.342,37.297C28.312,37.492 28.369,37.691 28.497,37.841C28.625,37.991 28.811,38.078 29.009,38.08L33.707,38.08C34.264,38.08 34.737,37.674 34.823,37.123L34.823,36.891L35.708,31.28L35.708,30.975C35.787,30.427 36.256,30.02 36.81,30.018L37.578,30.018C42.117,30.018 45.684,28.177 46.713,22.768C47.27,20.92 46.926,18.917 45.785,17.36C45.423,16.988 45.001,16.68 44.538,16.446Z" fill="#189BD7"/>
<path d="M43.294,15.954L42.743,15.809L42.134,15.693C41.366,15.578 40.59,15.524 39.814,15.533L32.738,15.533C32.572,15.529 32.408,15.563 32.259,15.635C31.923,15.792 31.689,16.108 31.636,16.476L30.186,26.002L30.186,26.278C30.286,25.651 30.827,25.189 31.462,25.19L34.101,25.19C39.292,25.19 43.366,23.073 44.555,16.983L44.642,16.447C44.33,16.285 44.005,16.149 43.671,16.041L43.294,15.954Z" fill="#242E65"/>
<path d="M31.634,16.475C31.687,16.108 31.921,15.791 32.257,15.634C32.407,15.563 32.571,15.528 32.736,15.533L39.812,15.533C40.588,15.524 41.364,15.577 42.132,15.692L42.741,15.808L43.292,15.953L43.567,16.04C43.902,16.149 44.226,16.285 44.539,16.446C45.01,14.634 44.578,12.707 43.379,11.27C41.929,9.733 39.551,9.08 36.448,9.08L27.429,9.08C26.794,9.079 26.253,9.541 26.153,10.168L22.397,33.962C22.364,34.186 22.429,34.414 22.577,34.587C22.724,34.759 22.939,34.859 23.166,34.861L28.734,34.861L30.184,26.001L31.634,16.475Z" fill="#253D80"/>
</svg>
