<svg width="38" height="38" viewBox="0 0 38 38" fill="none" xmlns="http://www.w3.org/2000/svg" xmlns:xlink="http://www.w3.org/1999/xlink">
<path d="M32.689,3.029L15.883,19.897C15.69,19.785 15.488,19.692 15.278,19.617L4.182,15.862C3.847,15.778 3.549,15.584 3.336,15.311C3.123,15.039 3.008,14.703 3.008,14.357C3.008,14.011 3.123,13.675 3.336,13.402C3.549,13.129 3.847,12.936 4.182,12.852L31.711,3.06C31.891,2.998 32.08,2.967 32.27,2.966C32.412,2.964 32.554,2.985 32.689,3.029L32.689,3.029Z" fill="#84829A"/>
<path d="M33.759,5.11L23.967,32.671C23.859,32.992 23.649,33.269 23.369,33.459C23.088,33.65 22.753,33.743 22.415,33.726C22.073,33.741 21.735,33.643 21.454,33.447C21.173,33.25 20.966,32.967 20.863,32.64L17.17,21.544C17.096,21.334 17.002,21.132 16.891,20.939L33.79,4.133C33.885,4.454 33.874,4.796 33.759,5.11L33.759,5.11Z" fill="#84829A"/>
</svg>
