<svg width="28" height="26" viewBox="0 0 28 26" fill="none" xmlns="http://www.w3.org/2000/svg" xmlns:xlink="http://www.w3.org/1999/xlink">
<path d="M11.978,0.116C12.326,-0.687 13.465,-0.687 13.813,0.116L16.938,7.322C17.083,7.656 17.398,7.885 17.76,7.919L25.579,8.664C26.45,8.747 26.802,9.83 26.146,10.409L20.259,15.608C19.986,15.849 19.865,16.219 19.944,16.575L21.652,24.241C21.842,25.095 20.921,25.765 20.168,25.32L13.404,21.327C13.09,21.141 12.701,21.141 12.387,21.327L5.624,25.32C4.87,25.765 3.949,25.095 4.139,24.241L5.847,16.575C5.926,16.219 5.806,15.849 5.533,15.608L-0.355,10.409C-1.011,9.83 -0.659,8.747 0.212,8.664L8.031,7.919C8.394,7.885 8.709,7.656 8.854,7.322L11.978,0.116Z" fill="#FBBC04"/>
</svg>
