<svg width="28" height="26" viewBox="0 0 28 26" fill="none" xmlns="http://www.w3.org/2000/svg" xmlns:xlink="http://www.w3.org/1999/xlink">
<path d="M12.062,0.116C12.41,-0.687 13.548,-0.687 13.897,0.116L17.021,7.322C17.166,7.656 17.481,7.885 17.844,7.919L25.663,8.664C26.534,8.747 26.886,9.83 26.23,10.409L20.342,15.608C20.069,15.849 19.949,16.219 20.028,16.575L21.735,24.241C21.926,25.095 21.005,25.765 20.251,25.32L13.488,21.327C13.174,21.141 12.784,21.141 12.471,21.327L5.707,25.32C4.954,25.765 4.033,25.095 4.223,24.241L5.93,16.575C6.01,16.219 5.889,15.849 5.616,15.608L-0.271,10.409C-0.927,9.83 -0.575,8.747 0.296,8.664L8.114,7.919C8.477,7.885 8.792,7.656 8.937,7.322L12.062,0.116Z" fill="#FBBC04"/>
</svg>
