<svg width="28" height="26" viewBox="0 0 28 26" fill="none" xmlns="http://www.w3.org/2000/svg" xmlns:xlink="http://www.w3.org/1999/xlink">
<path d="M11.937,0.116C12.285,-0.687 13.423,-0.687 13.771,0.116L16.896,7.322C17.041,7.656 17.356,7.885 17.719,7.919L25.537,8.664C26.409,8.747 26.76,9.83 26.104,10.409L20.217,15.608C19.944,15.849 19.823,16.219 19.903,16.575L21.61,24.241C21.8,25.095 20.879,25.765 20.126,25.32L13.362,21.327C13.049,21.141 12.659,21.141 12.346,21.327L5.582,25.32C4.829,25.765 3.907,25.095 4.098,24.241L5.805,16.575C5.884,16.219 5.764,15.849 5.491,15.608L-0.396,10.409C-1.052,9.83 -0.701,8.747 0.171,8.664L7.989,7.919C8.352,7.885 8.667,7.656 8.812,7.322L11.937,0.116Z" fill="#FBBC04"/>
</svg>
