<svg width="28" height="26" viewBox="0 0 28 26" fill="none" xmlns="http://www.w3.org/2000/svg" xmlns:xlink="http://www.w3.org/1999/xlink">
<path d="M12.02,0.116C12.368,-0.687 13.507,-0.687 13.855,0.116L16.98,7.322C17.124,7.656 17.44,7.885 17.802,7.919L25.621,8.664C26.492,8.747 26.844,9.83 26.188,10.409L20.3,15.608C20.027,15.849 19.907,16.219 19.986,16.575L21.694,24.241C21.884,25.095 20.963,25.765 20.209,25.32L13.446,21.327C13.132,21.141 12.743,21.141 12.429,21.327L5.666,25.32C4.912,25.765 3.991,25.095 4.181,24.241L5.889,16.575C5.968,16.219 5.848,15.849 5.575,15.608L-0.313,10.409C-0.969,9.83 -0.617,8.747 0.254,8.664L8.073,7.919C8.435,7.885 8.75,7.656 8.895,7.322L12.02,0.116Z" fill="#FBBC04"/>
</svg>
