<svg width="180" height="164" viewBox="0 0 180 164" fill="none" xmlns="http://www.w3.org/2000/svg" xmlns:xlink="http://www.w3.org/1999/xlink">
<path d="M38.761,0C15.338,16.249 0,43.333 0,74C0,123.706 40.294,164 90,164C139.706,164 180,123.706 180,74C180,43.333 164.662,16.249 141.239,0C138.208,2.103 135.042,4.024 131.755,5.748C154.696,19.813 170,45.119 170,74C170,118.183 134.183,154 90,154C45.817,154 10,118.183 10,74C10,45.119 25.304,19.813 48.245,5.748C44.958,4.024 41.792,2.103 38.761,0Z" clip-rule="evenodd" fill-rule="evenodd" fill="#22C55E"/>
</svg>
