<svg width="32" height="32" viewBox="0 0 32 32" fill="none" xmlns="http://www.w3.org/2000/svg" xmlns:xlink="http://www.w3.org/1999/xlink">
<path d="M21.691,9.924L21.691,25.627L19.691,25.627L19.691,20.128L17.042,20.128L17.042,13.587C17.042,12.213 17.646,11.256 18.449,10.675C19.101,10.212 19.876,9.956 20.675,9.939L21.691,9.924ZM19.691,18.128L19.691,12.248L19.622,12.296C19.321,12.515 19.042,12.876 19.042,13.589L19.042,18.128L19.691,18.128Z" clip-rule="evenodd" fill-rule="evenodd" fill="#000000"/>
<path d="M11.514,25.627L13.514,25.627L13.514,15.333C13.841,15.25 14.14,15.119 14.41,14.94C14.919,14.601 15.254,14.14 15.471,13.664C15.885,12.755 15.921,11.68 15.921,10.94L15.921,9.94L13.921,9.94L13.921,10.94C13.921,11.681 13.867,12.36 13.651,12.833C13.614,12.917 13.568,12.996 13.514,13.071L13.514,9.94L11.514,9.94L11.514,12.98C11.48,12.93 11.45,12.877 11.423,12.823C11.189,12.364 11.107,11.689 11.107,10.94L11.107,9.94L9.107,9.94L9.107,10.94C9.107,11.745 9.179,12.825 9.641,13.731C9.881,14.201 10.235,14.645 10.751,14.967C10.986,15.112 11.24,15.224 11.514,15.304L11.514,25.627Z" fill="#000000"/>
<path d="M24.489,-0.577L4.914,4.989L4.76,4.989L4.76,30.577L26.04,30.577L26.04,4.989L24.49,4.989L24.489,-0.577ZM22.489,4.989L22.489,2.069L12.226,4.991L22.489,4.989ZM24.038,6.989L6.76,6.989L6.76,28.577L24.04,28.577L24.038,6.989Z" clip-rule="evenodd" fill-rule="evenodd" fill="#000000"/>
</svg>
