<svg width="34" height="34" viewBox="0 0 34 34" fill="none" xmlns="http://www.w3.org/2000/svg" xmlns:xlink="http://www.w3.org/1999/xlink">
<path d="M9.558,5.064C7.628,6.26 6.035,7.929 4.931,9.912C3.826,11.896 3.247,14.129 3.247,16.4C3.247,23.764 9.216,29.733 16.58,29.733C23.944,29.733 29.914,23.764 29.914,16.4C29.914,9.036 23.944,3.066 16.58,3.066L16.58,5.066C19.259,5.067 21.852,6.016 23.897,7.746C25.943,9.476 27.31,11.874 27.755,14.516C28.2,17.158 27.695,19.872 26.33,22.177C24.964,24.482 22.826,26.228 20.296,27.107C17.765,27.985 15.004,27.938 12.504,26.975C10.005,26.012 7.927,24.194 6.64,21.844C5.353,19.495 4.94,16.765 5.474,14.14C6.008,11.515 7.455,9.164 9.558,7.504L9.558,5.064Z" clip-rule="evenodd" fill-rule="evenodd" fill="#000000"/>
<path d="M9.037,6.333L4.304,6.333L4.304,4.333L11.037,4.333L11.037,11.066L9.037,11.066L9.037,6.333ZM15.718,17.133L15.718,9.986L17.718,9.986L17.718,17.262C17.718,17.678 17.562,18.078 17.282,18.385L13.597,22.428L12.118,21.081L15.718,17.133Z" clip-rule="evenodd" fill-rule="evenodd" fill="#000000"/>
</svg>
