<svg width="40" height="42" viewBox="0 0 40 42" fill="none" xmlns="http://www.w3.org/2000/svg" xmlns:xlink="http://www.w3.org/1999/xlink">
<path d="M27.871,4.102L11.923,4.102L11.923,32.48L27.871,32.48L27.871,4.102ZM9.423,1.602L9.423,34.98L30.371,34.98L30.371,1.602L9.423,1.602Z" clip-rule="evenodd" fill-rule="evenodd" fill="#FFFFFF"/>
<path d="M17.509,27.4L17.509,34.718L22.492,34.718L22.492,27.402L17.509,27.4ZM33.05,39.198L6.95,39.198L6.95,36.698L33.05,36.698L33.05,39.198ZM16.149,7.243L16.149,10.952L13.649,10.952L13.649,7.243L16.149,7.243ZM21.149,7.243L21.149,10.952L18.649,10.952L18.649,7.243L21.149,7.243ZM26.149,7.243L26.149,10.952L23.649,10.952L23.649,7.243L26.149,7.243ZM16.149,13.918L16.149,17.627L13.649,17.627L13.649,13.918L16.149,13.918ZM21.149,13.918L21.149,17.627L18.649,17.627L18.649,13.918L21.149,13.918ZM26.149,13.918L26.149,17.627L23.649,17.627L23.649,13.918L26.149,13.918ZM16.149,20.593L16.149,24.302L13.649,24.302L13.649,20.593L16.149,20.593ZM21.149,20.593L21.149,24.302L18.649,24.302L18.649,20.593L21.149,20.593ZM26.149,20.593L26.149,24.302L23.649,24.302L23.649,20.593L26.149,20.593Z" clip-rule="evenodd" fill-rule="evenodd" fill="#FFFFFF"/>
</svg>
