<svg width="32" height="34" viewBox="0 0 32 34" fill="none" xmlns="http://www.w3.org/2000/svg" xmlns:xlink="http://www.w3.org/1999/xlink">
<path d="M21.691,11.524L21.691,27.227L19.691,27.227L19.691,21.728L17.042,21.728L17.042,15.187C17.042,13.813 17.646,12.856 18.449,12.275C19.101,11.812 19.876,11.556 20.675,11.539L21.691,11.524ZM19.691,19.728L19.691,13.848L19.622,13.896C19.321,14.115 19.042,14.476 19.042,15.189L19.042,19.728L19.691,19.728Z" clip-rule="evenodd" fill-rule="evenodd" fill="#000000"/>
<path d="M11.514,27.227L13.514,27.227L13.514,16.933C13.841,16.85 14.14,16.719 14.41,16.54C14.919,16.201 15.254,15.74 15.471,15.264C15.885,14.355 15.921,13.28 15.921,12.54L15.921,11.54L13.921,11.54L13.921,12.54C13.921,13.281 13.867,13.96 13.651,14.433C13.614,14.517 13.568,14.597 13.514,14.671L13.514,11.54L11.514,11.54L11.514,14.58C11.48,14.53 11.45,14.477 11.423,14.423C11.189,13.964 11.107,13.289 11.107,12.54L11.107,11.54L9.107,11.54L9.107,12.54C9.107,13.345 9.179,14.425 9.641,15.331C9.881,15.801 10.235,16.245 10.751,16.567C10.986,16.712 11.24,16.824 11.514,16.904L11.514,27.227Z" fill="#000000"/>
<path d="M24.489,1.023L4.914,6.589L4.76,6.589L4.76,32.177L26.04,32.177L26.04,6.589L24.49,6.589L24.489,1.023ZM22.489,6.589L22.489,3.669L12.226,6.591L22.489,6.589ZM24.038,8.589L6.76,8.589L6.76,30.177L24.04,30.177L24.038,8.589Z" clip-rule="evenodd" fill-rule="evenodd" fill="#000000"/>
</svg>
