<svg width="32" height="32" viewBox="0 0 32 32" fill="none" xmlns="http://www.w3.org/2000/svg" xmlns:xlink="http://www.w3.org/1999/xlink">
<path d="M15.226,15.957L15.226,8.756L17.226,8.756L17.226,16.785L13.189,20.823L11.775,19.409L15.226,15.957ZM27.702,19.857L20.479,27.079L16.626,23.225L18.039,21.812L20.479,24.251L26.287,18.443L27.702,19.857Z" clip-rule="evenodd" fill-rule="evenodd" fill="#333333"/>
<path d="M27.214,16C27.213,13.112 26.076,10.34 24.048,8.284C22.02,6.229 19.264,5.054 16.376,5.015L16.376,3.015C23.479,3.095 29.212,8.877 29.212,16C29.212,16.12 29.211,16.239 29.208,16.357L27.207,16.357C27.21,16.237 27.214,16.118 27.214,16ZM16.182,26.985C13.961,26.976 11.795,26.294 9.97,25.028C8.145,23.763 6.746,21.975 5.957,19.899C5.169,17.822 5.028,15.556 5.554,13.398C6.08,11.241 7.247,9.293 8.902,7.812L7.598,6.296C6.226,7.513 5.129,9.008 4.377,10.68C3.626,12.353 3.239,14.166 3.24,16C3.24,23.156 9.031,28.96 16.182,28.985L16.182,26.985Z" fill="#333333"/>
<path d="M7.227,7.644L2.787,7.644L2.787,5.644L9.227,5.644L9.227,12.084L7.227,12.084L7.227,7.644Z" clip-rule="evenodd" fill-rule="evenodd" fill="#333333"/>
</svg>
