<svg width="32" height="32" viewBox="0 0 32 32" fill="none" xmlns="http://www.w3.org/2000/svg" xmlns:xlink="http://www.w3.org/1999/xlink">
<path d="M21.691,10.924L21.691,26.627L19.691,26.627L19.691,21.128L17.042,21.128L17.042,14.587C17.042,13.213 17.646,12.256 18.449,11.675C19.101,11.212 19.876,10.956 20.675,10.939L21.691,10.924ZM19.691,19.128L19.691,13.248L19.622,13.296C19.321,13.515 19.042,13.876 19.042,14.589L19.042,19.128L19.691,19.128Z" clip-rule="evenodd" fill-rule="evenodd" fill="#000000"/>
<path d="M11.514,26.627L13.514,26.627L13.514,16.333C13.841,16.25 14.14,16.119 14.41,15.94C14.919,15.601 15.254,15.14 15.471,14.664C15.885,13.755 15.921,12.68 15.921,11.94L15.921,10.94L13.921,10.94L13.921,11.94C13.921,12.681 13.867,13.36 13.651,13.833C13.614,13.917 13.568,13.996 13.514,14.071L13.514,10.94L11.514,10.94L11.514,13.98C11.48,13.93 11.45,13.877 11.423,13.823C11.189,13.364 11.107,12.689 11.107,11.94L11.107,10.94L9.107,10.94L9.107,11.94C9.107,12.745 9.179,13.825 9.641,14.731C9.881,15.201 10.235,15.645 10.751,15.967C10.986,16.112 11.24,16.224 11.514,16.304L11.514,26.627Z" fill="#000000"/>
<path d="M24.489,0.423L4.914,5.989L4.76,5.989L4.76,31.577L26.04,31.577L26.04,5.989L24.49,5.989L24.489,0.423ZM22.489,5.989L22.489,3.069L12.226,5.991L22.489,5.989ZM24.038,7.989L6.76,7.989L6.76,29.577L24.04,29.577L24.038,7.989Z" clip-rule="evenodd" fill-rule="evenodd" fill="#000000"/>
</svg>
