<svg width="66" height="64" viewBox="0 0 66 64" fill="none" xmlns="http://www.w3.org/2000/svg" xmlns:xlink="http://www.w3.org/1999/xlink">
<path d="M32.6,9.741C29.994,9.741 27.413,10.255 25.006,11.252C22.598,12.25 20.41,13.712 18.568,15.555C16.725,17.398 15.263,19.586 14.266,21.993C13.269,24.401 12.756,26.982 12.756,29.588C12.756,32.194 13.27,34.775 14.267,37.182C15.265,39.59 16.727,41.778 18.57,43.62C20.412,45.463 22.6,46.925 25.008,47.922C27.416,48.919 29.996,49.432 32.603,49.432C37.866,49.432 42.914,47.34 46.635,43.618C50.356,39.896 52.447,34.849 52.447,29.585C52.446,24.322 50.355,19.274 46.633,15.553C42.911,11.831 37.863,9.741 32.6,9.741ZM32.6,47.208C30.26,47.249 27.935,46.823 25.761,45.955C23.587,45.088 21.608,43.796 19.938,42.156C18.269,40.515 16.943,38.559 16.038,36.4C15.133,34.242 14.667,31.924 14.667,29.584C14.667,27.243 15.133,24.926 16.038,22.768C16.943,20.609 18.269,18.653 19.938,17.012C21.608,15.371 23.587,14.08 25.761,13.212C27.935,12.345 30.26,11.919 32.6,11.96C37.237,12.017 41.665,13.899 44.923,17.198C48.182,20.497 50.01,24.948 50.01,29.585C50.01,34.223 48.182,38.673 44.923,41.972C41.665,45.271 37.237,47.151 32.6,47.208ZM28.181,30.933C28.181,31.577 27.925,32.195 27.47,32.65C27.015,33.105 26.397,33.361 25.753,33.361C25.109,33.361 24.492,33.105 24.036,32.65C23.581,32.195 23.325,31.577 23.325,30.933C23.325,30.289 23.581,29.672 24.036,29.216C24.492,28.761 25.109,28.505 25.753,28.505C26.397,28.505 27.015,28.761 27.47,29.216C27.925,29.672 28.181,30.289 28.181,30.933ZM41.872,30.933C41.872,31.252 41.809,31.568 41.687,31.862C41.565,32.157 41.386,32.425 41.161,32.65C40.935,32.876 40.668,33.054 40.373,33.176C40.079,33.298 39.763,33.361 39.444,33.361C39.125,33.361 38.809,33.298 38.515,33.176C38.22,33.054 37.953,32.876 37.727,32.65C37.502,32.425 37.323,32.157 37.201,31.862C37.079,31.568 37.016,31.252 37.016,30.933C37.016,30.29 37.272,29.672 37.727,29.217C38.182,28.762 38.799,28.507 39.443,28.507C40.086,28.507 40.703,28.762 41.159,29.217C41.614,29.672 41.869,30.29 41.869,30.933M44.056,25.875L46.296,23.44L41.328,23.44C38.756,21.684 35.714,20.745 32.6,20.747C29.488,20.74 26.448,21.678 23.88,23.435L18.899,23.435L21.139,25.869C19.802,27.098 19.008,28.808 18.932,30.622C18.856,32.436 19.503,34.206 20.732,35.543C21.961,36.879 23.67,37.673 25.484,37.749C27.298,37.826 29.069,37.178 30.405,35.949L32.6,38.339L34.795,35.952C35.451,36.59 36.229,37.091 37.082,37.424C37.935,37.757 38.846,37.915 39.761,37.889C40.677,37.864 41.578,37.655 42.411,37.275C43.244,36.895 43.993,36.352 44.612,35.678C45.232,35.004 45.71,34.212 46.018,33.35C46.327,32.487 46.459,31.572 46.407,30.658C46.356,29.744 46.121,28.849 45.718,28.027C45.314,27.205 44.75,26.472 44.059,25.872M25.752,35.563C25.143,35.563 24.541,35.443 23.978,35.21C23.416,34.977 22.905,34.635 22.475,34.205C22.044,33.775 21.703,33.264 21.47,32.701C21.237,32.139 21.117,31.536 21.117,30.928C21.117,30.319 21.237,29.717 21.47,29.154C21.703,28.592 22.044,28.081 22.475,27.651C22.905,27.22 23.416,26.879 23.978,26.646C24.541,26.413 25.143,26.293 25.752,26.293C26.981,26.293 28.16,26.782 29.029,27.651C29.898,28.52 30.387,29.699 30.387,30.928C30.387,32.157 29.898,33.336 29.029,34.205C28.16,35.074 26.981,35.563 25.752,35.563ZM32.6,30.8C32.6,27.752 30.381,25.136 27.456,24.019C29.085,23.337 30.834,22.987 32.6,22.987C34.365,22.986 36.113,23.336 37.741,24.016C34.819,25.136 32.603,27.749 32.603,30.797M39.445,35.563C38.837,35.562 38.234,35.442 37.672,35.209C37.11,34.976 36.599,34.635 36.168,34.204C35.738,33.774 35.397,33.263 35.164,32.7C34.931,32.138 34.812,31.535 34.812,30.927C34.812,30.318 34.932,29.715 35.165,29.153C35.398,28.591 35.74,28.08 36.17,27.65C36.601,27.22 37.112,26.878 37.674,26.646C38.237,26.413 38.839,26.293 39.448,26.293C40.677,26.293 41.856,26.782 42.725,27.651C43.594,28.52 44.083,29.699 44.083,30.928C44.083,32.157 43.594,33.336 42.725,34.205C41.856,35.074 40.674,35.563 39.445,35.563ZM16.899,45.48C16.899,45.48 15.893,42.957 13.176,40.405C10.456,37.853 7.035,37.387 7.035,37.387C7.035,37.387 8.253,40.107 11.141,42.827C14.037,45.539 16.899,45.48 16.899,45.48ZM23.747,49.24C23.747,49.24 22.349,47.877 19.803,46.885C17.256,45.893 14.84,46.376 14.84,46.376C14.84,46.376 16.435,47.816 19.147,48.869C21.856,49.928 23.747,49.24 23.747,49.24ZM30.395,50.587C30.395,50.587 28.941,49.989 26.776,50.064C24.611,50.139 23.003,51.317 23.003,51.317C23.003,51.317 24.624,51.909 26.931,51.832C29.237,51.755 30.395,50.587 30.395,50.587ZM13.901,39.379C13.901,39.379 13.435,36.691 11.304,33.635C9.171,30.576 5.931,29.427 5.931,29.427C5.931,29.427 6.565,32.355 8.835,35.611C11.101,38.864 13.901,39.379 13.901,39.379ZM11.227,31.189C11.227,31.189 11.747,28.467 10.869,24.808C9.995,21.152 7.419,18.915 7.419,18.915C7.419,18.915 6.965,21.923 7.899,25.819C8.832,29.712 11.227,31.189 11.227,31.189Z" fill="#000000"/>
<path d="M48.298,45.48C48.298,45.48 49.304,42.957 52.021,40.405C54.741,37.853 58.162,37.387 58.162,37.387C58.162,37.387 56.944,40.107 54.056,42.827C51.16,45.539 48.298,45.48 48.298,45.48ZM41.453,49.24C41.453,49.24 42.85,47.877 45.397,46.885C47.944,45.893 50.36,46.376 50.36,46.376C50.36,46.376 48.765,47.816 46.053,48.869C43.344,49.928 41.453,49.24 41.453,49.24ZM34.805,50.587C34.805,50.587 36.258,49.989 38.424,50.064C40.589,50.139 42.197,51.317 42.197,51.317C42.197,51.317 40.576,51.909 38.269,51.832C35.962,51.755 34.805,50.587 34.805,50.587ZM51.298,39.379C51.298,39.379 51.765,36.691 53.896,33.635C56.029,30.576 59.269,29.427 59.269,29.427C59.269,29.427 58.634,32.355 56.365,35.611C54.098,38.864 51.298,39.379 51.298,39.379ZM53.973,31.189C53.973,31.189 53.453,28.467 54.328,24.808C55.208,21.152 57.776,18.915 57.776,18.915C57.776,18.915 58.229,21.923 57.296,25.819C56.365,29.712 53.973,31.189 53.973,31.189ZM32.6,52.659C32.892,52.659 33.173,52.542 33.379,52.336C33.586,52.129 33.702,51.848 33.702,51.556C33.702,51.263 33.586,50.983 33.379,50.776C33.173,50.569 32.892,50.453 32.6,50.453C32.307,50.453 32.027,50.569 31.82,50.776C31.613,50.983 31.497,51.263 31.497,51.556C31.497,51.848 31.613,52.129 31.82,52.336C32.027,52.542 32.307,52.659 32.6,52.659Z" fill="#000000"/>
</svg>
