<svg width="40" height="42" viewBox="0 0 40 42" fill="none" xmlns="http://www.w3.org/2000/svg" xmlns:xlink="http://www.w3.org/1999/xlink">
<path d="M3.75,8.717L36.25,8.717L36.25,16.14L35.357,16.407C34.412,16.69 33.583,17.271 32.995,18.062C32.406,18.853 32.088,19.814 32.088,20.8C32.088,21.787 32.406,22.747 32.995,23.538C33.583,24.33 34.412,24.91 35.357,25.193L36.25,25.46L36.25,32.883L3.75,32.883L3.75,25.46L4.643,25.193C5.588,24.91 6.417,24.33 7.005,23.538C7.594,22.747 7.912,21.787 7.912,20.8C7.912,19.814 7.594,18.853 7.005,18.062C6.417,17.271 5.588,16.69 4.643,16.407L3.75,16.14L3.75,8.717ZM6.25,11.217L6.25,14.343C7.493,14.904 8.547,15.812 9.287,16.957C10.027,18.102 10.42,19.437 10.42,20.8C10.42,22.164 10.027,23.498 9.287,24.643C8.547,25.789 7.493,26.696 6.25,27.257L6.25,30.383L33.75,30.383L33.75,27.257C32.507,26.696 31.453,25.789 30.713,24.643C29.973,23.498 29.58,22.164 29.58,20.8C29.58,19.437 29.973,18.102 30.713,16.957C31.453,15.812 32.507,14.904 33.75,14.343L33.75,11.217L6.25,11.217Z" clip-rule="evenodd" fill-rule="evenodd" fill="#FFFFFF"/>
<path d="M20,24.967C20.442,24.967 20.866,25.142 21.178,25.455C21.491,25.767 21.666,26.191 21.666,26.633C21.666,27.075 21.491,27.499 21.178,27.812C20.866,28.124 20.442,28.3 20,28.3C19.558,28.3 19.134,28.124 18.821,27.812C18.509,27.499 18.333,27.075 18.333,26.633C18.333,26.191 18.509,25.767 18.821,25.455C19.134,25.142 19.558,24.967 20,24.967ZM20,19.133C20.442,19.133 20.866,19.309 21.178,19.622C21.491,19.934 21.666,20.358 21.666,20.8C21.666,21.242 21.491,21.666 21.178,21.979C20.866,22.291 20.442,22.467 20,22.467C19.558,22.467 19.134,22.291 18.821,21.979C18.509,21.666 18.333,21.242 18.333,20.8C18.333,20.358 18.509,19.934 18.821,19.622C19.134,19.309 19.558,19.133 20,19.133ZM20,13.3C20.442,13.3 20.866,13.476 21.178,13.788C21.491,14.101 21.666,14.525 21.666,14.967C21.666,15.409 21.491,15.833 21.178,16.145C20.866,16.458 20.442,16.633 20,16.633C19.558,16.633 19.134,16.458 18.821,16.145C18.509,15.833 18.333,15.409 18.333,14.967C18.333,14.525 18.509,14.101 18.821,13.788C19.134,13.476 19.558,13.3 20,13.3Z" fill="#FFFFFF"/>
</svg>
