<svg width="36" height="36" viewBox="0 0 36 36" fill="none" xmlns="http://www.w3.org/2000/svg" xmlns:xlink="http://www.w3.org/1999/xlink">
<path d="M10.1,5.147C7.928,6.492 6.136,8.37 4.894,10.602C3.652,12.834 3,15.346 3,17.9C3,26.185 9.715,32.9 18,32.9C26.285,32.9 33,26.185 33,17.9C33,9.616 26.285,2.9 18,2.9L18,5.15C21.014,5.15 23.93,6.218 26.232,8.164C28.533,10.11 30.071,12.809 30.572,15.781C31.073,18.753 30.505,21.806 28.968,24.399C27.432,26.992 25.027,28.957 22.179,29.945C19.332,30.933 16.227,30.881 13.415,29.797C10.602,28.714 8.265,26.669 6.817,24.025C5.369,21.382 4.904,18.311 5.505,15.358C6.106,12.404 7.734,9.759 10.1,7.892L10.1,5.147Z" clip-rule="evenodd" fill-rule="evenodd" fill="#000000"/>
<path d="M9.514,6.575L4.189,6.575L4.189,4.325L11.764,4.325L11.764,11.9L9.514,11.9L9.514,6.575ZM17.031,18.725L17.031,10.685L19.281,10.685L19.281,18.871C19.281,19.339 19.105,19.789 18.79,20.134L14.644,24.682L12.981,23.167L17.031,18.725Z" clip-rule="evenodd" fill-rule="evenodd" fill="#000000"/>
</svg>
