<svg width="32" height="32" viewBox="0 0 32 32" fill="none" xmlns="http://www.w3.org/2000/svg" xmlns:xlink="http://www.w3.org/1999/xlink">
<path d="M2.6,5.933L28.6,5.933L28.6,11.872L27.885,12.085C27.129,12.312 26.466,12.776 25.995,13.41C25.524,14.043 25.27,14.811 25.27,15.6C25.27,16.389 25.524,17.157 25.995,17.79C26.466,18.424 27.129,18.888 27.885,19.115L28.6,19.328L28.6,25.267L2.6,25.267L2.6,19.328L3.314,19.115C4.07,18.888 4.733,18.424 5.204,17.79C5.675,17.157 5.93,16.389 5.93,15.6C5.93,14.811 5.675,14.043 5.204,13.41C4.733,12.776 4.07,12.312 3.314,12.085L2.6,11.872L2.6,5.933ZM4.6,7.933L4.6,10.435C5.594,10.883 6.438,11.609 7.029,12.525C7.621,13.442 7.936,14.509 7.936,15.6C7.936,16.691 7.621,17.758 7.029,18.675C6.438,19.591 5.594,20.317 4.6,20.765L4.6,23.267L26.6,23.267L26.6,20.765C25.605,20.317 24.762,19.591 24.17,18.675C23.578,17.758 23.263,16.691 23.263,15.6C23.263,14.509 23.578,13.442 24.17,12.525C24.762,11.609 25.605,10.883 26.6,10.435L26.6,7.933L4.6,7.933Z" clip-rule="evenodd" fill-rule="evenodd" fill="#000000"/>
<path d="M15.6,18.933C15.954,18.933 16.293,19.074 16.543,19.324C16.793,19.574 16.933,19.913 16.933,20.267C16.933,20.62 16.793,20.959 16.543,21.209C16.293,21.459 15.954,21.6 15.6,21.6C15.246,21.6 14.907,21.459 14.657,21.209C14.407,20.959 14.267,20.62 14.267,20.267C14.267,19.913 14.407,19.574 14.657,19.324C14.907,19.074 15.246,18.933 15.6,18.933ZM15.6,14.267C15.954,14.267 16.293,14.407 16.543,14.657C16.793,14.907 16.933,15.246 16.933,15.6C16.933,15.954 16.793,16.293 16.543,16.543C16.293,16.793 15.954,16.933 15.6,16.933C15.246,16.933 14.907,16.793 14.657,16.543C14.407,16.293 14.267,15.954 14.267,15.6C14.267,15.246 14.407,14.907 14.657,14.657C14.907,14.407 15.246,14.267 15.6,14.267ZM15.6,9.6C15.954,9.6 16.293,9.74 16.543,9.99C16.793,10.241 16.933,10.58 16.933,10.933C16.933,11.287 16.793,11.626 16.543,11.876C16.293,12.126 15.954,12.267 15.6,12.267C15.246,12.267 14.907,12.126 14.657,11.876C14.407,11.626 14.267,11.287 14.267,10.933C14.267,10.58 14.407,10.241 14.657,9.99C14.907,9.74 15.246,9.6 15.6,9.6Z" fill="#000000"/>
</svg>
