<svg width="68" height="68" viewBox="0 0 68 68" fill="none" xmlns="http://www.w3.org/2000/svg" xmlns:xlink="http://www.w3.org/1999/xlink">
<path d="M15.965,22.785C17.092,22.785 18.173,22.337 18.97,21.54C19.767,20.743 20.215,19.662 20.215,18.535C20.215,17.407 19.767,16.326 18.97,15.529C18.173,14.732 17.092,14.285 15.965,14.285C14.838,14.285 13.757,14.732 12.96,15.529C12.163,16.326 11.715,17.407 11.715,18.535C11.715,19.662 12.163,20.743 12.96,21.54C13.757,22.337 14.838,22.785 15.965,22.785ZM15.965,27.035C18.219,27.035 20.381,26.139 21.975,24.545C23.569,22.951 24.465,20.789 24.465,18.535C24.465,16.28 23.569,14.118 21.975,12.524C20.381,10.93 18.219,10.035 15.965,10.035C13.711,10.035 11.549,10.93 9.954,12.524C8.36,14.118 7.465,16.28 7.465,18.535C7.465,20.789 8.36,22.951 9.954,24.545C11.549,26.139 13.711,27.035 15.965,27.035ZM50.435,22.785C51.562,22.785 52.643,22.337 53.44,21.54C54.237,20.743 54.685,19.662 54.685,18.535C54.685,17.407 54.237,16.326 53.44,15.529C52.643,14.732 51.562,14.285 50.435,14.285C49.308,14.285 48.227,14.732 47.43,15.529C46.633,16.326 46.185,17.407 46.185,18.535C46.185,19.662 46.633,20.743 47.43,21.54C48.227,22.337 49.308,22.785 50.435,22.785ZM50.435,27.035C52.689,27.035 54.851,26.139 56.446,24.545C58.04,22.951 58.935,20.789 58.935,18.535C58.935,16.28 58.04,14.118 56.446,12.524C54.851,10.93 52.689,10.035 50.435,10.035C48.181,10.035 46.019,10.93 44.425,12.524C42.831,14.118 41.935,16.28 41.935,18.535C41.935,20.789 42.831,22.951 44.425,24.545C46.019,26.139 48.181,27.035 50.435,27.035ZM33.472,29.046C34.302,29.046 35.099,28.716 35.686,28.129C36.273,27.542 36.603,26.746 36.603,25.916C36.603,25.085 36.273,24.289 35.686,23.702C35.099,23.115 34.302,22.785 33.472,22.785C32.642,22.785 31.845,23.115 31.258,23.702C30.671,24.289 30.341,25.085 30.341,25.916C30.341,26.746 30.671,27.542 31.258,28.129C31.845,28.716 32.642,29.046 33.472,29.046ZM33.472,33.296C35.429,33.296 37.307,32.519 38.691,31.134C40.075,29.75 40.853,27.873 40.853,25.916C40.853,23.958 40.075,22.081 38.691,20.696C37.307,19.312 35.429,18.535 33.472,18.535C31.514,18.535 29.637,19.312 28.253,20.696C26.869,22.081 26.091,23.958 26.091,25.916C26.091,27.873 26.869,29.75 28.253,31.134C29.637,32.519 31.514,33.296 33.472,33.296Z" clip-rule="evenodd" fill-rule="evenodd" fill="#000000"/>
<path d="M3.948,52.101L3.948,39.125C5.824,36.915 9.04,34.472 13.021,33.727C16.942,32.993 21.946,33.846 27.573,38.912C25.448,39.977 23.804,41.505 22.776,42.85L22.34,43.423L22.34,52.101L3.948,52.101ZM22.337,56.351L-0.299,56.351L-0.299,37.657L0.138,37.085C2.393,34.138 6.654,30.593 12.244,29.548C17.979,28.477 24.717,30.112 31.596,36.858L32.234,37.481L32.234,37.592C32.894,37.537 33.557,37.54 34.217,37.6L34.608,37.085C36.863,34.138 41.125,30.593 46.715,29.548C52.449,28.477 59.19,30.112 66.066,36.858L66.704,37.481L66.704,56.351L44.61,56.351L44.61,56.365L22.34,56.365L22.337,56.351ZM44.607,52.101L62.451,52.101L62.451,39.283C56.66,33.889 51.509,32.976 47.491,33.727C43.686,34.435 40.578,36.702 38.677,38.827C40.416,39.646 42.193,40.881 43.969,42.624L44.607,43.247L44.607,52.101ZM26.587,52.115L26.587,44.907C27.714,43.661 29.539,42.349 31.741,41.938C33.97,41.522 36.926,41.966 40.354,45.058L40.354,52.113L26.587,52.115Z" clip-rule="evenodd" fill-rule="evenodd" fill="#000000"/>
</svg>
