<svg width="34" height="32" viewBox="0 0 34 32" fill="none" xmlns="http://www.w3.org/2000/svg" xmlns:xlink="http://www.w3.org/1999/xlink">
<path d="M9.558,4.264C7.628,5.46 6.035,7.129 4.931,9.113C3.826,11.096 3.247,13.329 3.247,15.6C3.247,22.964 9.216,28.933 16.58,28.933C23.944,28.933 29.914,22.964 29.914,15.6C29.914,8.236 23.944,2.267 16.58,2.267L16.58,4.267C19.259,4.267 21.852,5.216 23.897,6.946C25.943,8.676 27.31,11.074 27.755,13.716C28.2,16.358 27.695,19.072 26.33,21.377C24.964,23.682 22.826,25.428 20.296,26.307C17.765,27.185 15.004,27.139 12.504,26.175C10.005,25.212 7.927,23.394 6.64,21.045C5.353,18.695 4.94,15.965 5.474,13.34C6.008,10.715 7.455,8.364 9.558,6.704L9.558,4.264Z" clip-rule="evenodd" fill-rule="evenodd" fill="#000000"/>
<path d="M9.037,5.533L4.304,5.533L4.304,3.533L11.037,3.533L11.037,10.267L9.037,10.267L9.037,5.533ZM15.718,16.333L15.718,9.187L17.718,9.187L17.718,16.463C17.718,16.879 17.562,17.279 17.282,17.585L13.597,21.628L12.118,20.281L15.718,16.333Z" clip-rule="evenodd" fill-rule="evenodd" fill="#000000"/>
</svg>
