<svg width="40" height="40" viewBox="0 0 40 40" fill="none" xmlns="http://www.w3.org/2000/svg" xmlns:xlink="http://www.w3.org/1999/xlink">
<path d="M7.083,13.65C7.636,13.65 8.166,13.431 8.556,13.04C8.947,12.649 9.167,12.119 9.167,11.567C9.167,11.014 8.947,10.484 8.556,10.094C8.166,9.703 7.636,9.483 7.083,9.483C6.531,9.483 6.001,9.703 5.61,10.094C5.219,10.484 5,11.014 5,11.567C5,12.119 5.219,12.649 5.61,13.04C6.001,13.431 6.531,13.65 7.083,13.65ZM7.083,21.983C7.636,21.983 8.166,21.764 8.556,21.373C8.947,20.982 9.167,20.453 9.167,19.9C9.167,19.348 8.947,18.818 8.556,18.427C8.166,18.036 7.636,17.817 7.083,17.817C6.531,17.817 6.001,18.036 5.61,18.427C5.219,18.818 5,19.348 5,19.9C5,20.453 5.219,20.982 5.61,21.373C6.001,21.764 6.531,21.983 7.083,21.983ZM7.083,30.317C7.636,30.317 8.166,30.097 8.556,29.707C8.947,29.316 9.167,28.786 9.167,28.233C9.167,27.681 8.947,27.151 8.556,26.76C8.166,26.37 7.636,26.15 7.083,26.15C6.531,26.15 6.001,26.37 5.61,26.76C5.219,27.151 5,27.681 5,28.233C5,28.786 5.219,29.316 5.61,29.707C6.001,30.097 6.531,30.317 7.083,30.317Z" fill="#333333"/>
<path d="M35,12.816L12.5,12.816L12.5,10.316L35,10.316L35,12.816ZM35,21.15L12.5,21.15L12.5,18.65L35,18.65L35,21.15ZM35,29.483L12.5,29.483L12.5,26.983L35,26.983L35,29.483Z" clip-rule="evenodd" fill-rule="evenodd" fill="#333333"/>
</svg>
