<svg width="40" height="40" viewBox="0 0 40 40" fill="none" xmlns="http://www.w3.org/2000/svg" xmlns:xlink="http://www.w3.org/1999/xlink">
<path d="M3.75,7.917L36.25,7.917L36.25,15.34L35.357,15.607C34.412,15.89 33.583,16.47 32.995,17.262C32.406,18.053 32.088,19.013 32.088,20C32.088,20.986 32.406,21.947 32.995,22.738C33.583,23.529 34.412,24.11 35.357,24.393L36.25,24.66L36.25,32.083L3.75,32.083L3.75,24.66L4.643,24.393C5.588,24.11 6.417,23.529 7.005,22.738C7.594,21.947 7.912,20.986 7.912,20C7.912,19.013 7.594,18.053 7.005,17.262C6.417,16.47 5.588,15.89 4.643,15.607L3.75,15.34L3.75,7.917ZM6.25,10.417L6.25,13.543C7.493,14.104 8.547,15.011 9.287,16.157C10.027,17.302 10.42,18.637 10.42,20C10.42,21.363 10.027,22.698 9.287,23.843C8.547,24.988 7.493,25.896 6.25,26.457L6.25,29.583L33.75,29.583L33.75,26.457C32.507,25.896 31.453,24.988 30.713,23.843C29.973,22.698 29.58,21.363 29.58,20C29.58,18.637 29.973,17.302 30.713,16.157C31.453,15.011 32.507,14.104 33.75,13.543L33.75,10.417L6.25,10.417Z" clip-rule="evenodd" fill-rule="evenodd" fill="#FFFFFF"/>
<path d="M20,24.167C20.442,24.167 20.866,24.342 21.178,24.655C21.491,24.967 21.666,25.391 21.666,25.833C21.666,26.275 21.491,26.699 21.178,27.012C20.866,27.324 20.442,27.5 20,27.5C19.558,27.5 19.134,27.324 18.821,27.012C18.509,26.699 18.333,26.275 18.333,25.833C18.333,25.391 18.509,24.967 18.821,24.655C19.134,24.342 19.558,24.167 20,24.167ZM20,18.333C20.442,18.333 20.866,18.509 21.178,18.821C21.491,19.134 21.666,19.558 21.666,20C21.666,20.442 21.491,20.866 21.178,21.179C20.866,21.491 20.442,21.667 20,21.667C19.558,21.667 19.134,21.491 18.821,21.179C18.509,20.866 18.333,20.442 18.333,20C18.333,19.558 18.509,19.134 18.821,18.821C19.134,18.509 19.558,18.333 20,18.333ZM20,12.5C20.442,12.5 20.866,12.676 21.178,12.988C21.491,13.301 21.666,13.725 21.666,14.167C21.666,14.609 21.491,15.033 21.178,15.345C20.866,15.658 20.442,15.833 20,15.833C19.558,15.833 19.134,15.658 18.821,15.345C18.509,15.033 18.333,14.609 18.333,14.167C18.333,13.725 18.509,13.301 18.821,12.988C19.134,12.676 19.558,12.5 20,12.5Z" fill="#FFFFFF"/>
</svg>
