<svg width="32" height="32" viewBox="0 0 32 32" fill="none" xmlns="http://www.w3.org/2000/svg" xmlns:xlink="http://www.w3.org/1999/xlink">
<path d="M14.228,13.333L14.228,22.667L16.895,22.667L16.895,13.333L14.228,13.333ZM14.183,9.397C13.998,9.67 13.897,9.991 13.895,10.32C13.891,10.54 13.932,10.759 14.014,10.964C14.096,11.168 14.219,11.354 14.374,11.511C14.529,11.668 14.714,11.791 14.918,11.875C15.122,11.959 15.341,12.002 15.561,12C15.849,12 16.131,11.926 16.382,11.784C16.632,11.643 16.841,11.439 16.99,11.193C17.138,10.947 17.22,10.666 17.228,10.379C17.236,10.091 17.169,9.807 17.035,9.553C16.9,9.299 16.702,9.084 16.46,8.929C16.218,8.774 15.94,8.685 15.653,8.669C15.366,8.653 15.08,8.712 14.822,8.84C14.564,8.967 14.344,9.159 14.183,9.397Z" fill="#757575"/>
<path d="M15.56,2.667C8.196,2.667 2.227,8.636 2.227,16C2.227,23.364 8.196,29.333 15.56,29.333C22.924,29.333 28.893,23.364 28.893,16C28.893,8.636 22.924,2.667 15.56,2.667ZM4.893,16C4.893,13.171 6.017,10.458 8.017,8.457C10.018,6.457 12.731,5.333 15.56,5.333C18.389,5.333 21.102,6.457 23.102,8.457C25.103,10.458 26.227,13.171 26.227,16C26.227,18.829 25.103,21.542 23.102,23.542C21.102,25.543 18.389,26.667 15.56,26.667C12.731,26.667 10.018,25.543 8.017,23.542C6.017,21.542 4.893,18.829 4.893,16Z" clip-rule="evenodd" fill-rule="evenodd" fill="#757575"/>
</svg>
