<svg width="68" height="68" viewBox="0 0 68 68" fill="none" xmlns="http://www.w3.org/2000/svg" xmlns:xlink="http://www.w3.org/1999/xlink">
<path d="M44.226,55.079L45.076,55.643L45.926,54.935C47.343,54.093 59.243,46.29 59.243,40.204C59.243,35.673 55.409,31.987 50.737,31.987C48.618,31.987 46.779,32.976 45.362,33.829C45.231,33.898 45.085,33.935 44.937,33.935C44.789,33.935 44.643,33.898 44.512,33.829C43.237,32.979 41.39,31.987 39.412,31.987C34.737,31.987 30.912,35.809 30.912,40.343C30.912,46.29 42.809,54.232 44.226,55.079ZM44.982,50.48C46.834,49.221 48.606,47.847 50.286,46.366C51.74,45.069 53.018,43.731 53.899,42.493C54.843,41.167 54.996,40.422 54.996,40.204C54.996,38.164 53.211,36.237 50.74,36.237C49.887,36.237 48.926,36.645 47.558,37.47L47.422,37.552L47.28,37.623C46.553,37.996 45.748,38.19 44.93,38.188C44.113,38.187 43.308,37.99 42.583,37.614L42.359,37.501L42.152,37.362C41.672,37.031 41.159,36.75 40.622,36.523C40.241,36.355 39.831,36.258 39.415,36.237C37.035,36.237 35.165,38.206 35.165,40.343C35.165,40.507 35.298,41.23 36.253,42.567C37.14,43.808 38.423,45.151 39.882,46.463C41.752,48.143 43.693,49.579 44.982,50.48Z" clip-rule="evenodd" fill-rule="evenodd" fill="#000000"/>
<path d="M21.412,10.76C24.727,10.76 27.826,12.421 29.96,13.849C30.179,13.968 30.425,14.03 30.675,14.03C30.925,14.03 31.171,13.968 31.391,13.849C33.765,12.415 36.848,10.76 40.401,10.76C48.238,10.76 54.664,16.937 54.664,24.536C54.664,26.417 53.986,28.395 52.864,30.381L49.663,27.327C50.19,26.196 50.414,25.264 50.414,24.536C50.414,19.43 46.036,15.007 40.403,15.007C38.114,15.007 35.91,16.084 33.581,17.487L33.445,17.569L33.303,17.64C31.626,18.49 29.722,18.495 28.027,17.631L27.806,17.518L27.597,17.379C25.636,16.07 23.423,15.01 21.412,15.01C15.867,15.01 11.404,19.566 11.404,24.771C11.404,25.941 12.045,27.755 13.767,30.171C15.428,32.495 17.748,34.903 20.273,37.173C23.499,40.047 26.92,42.694 30.512,45.095L33.847,48.274C33.139,48.744 32.612,49.073 32.331,49.24L30.909,50.43L29.484,49.483C27.112,48.061 7.154,34.744 7.154,24.771C7.154,17.169 13.569,10.76 21.412,10.76Z" clip-rule="evenodd" fill-rule="evenodd" fill="#000000"/>
</svg>
