<svg width="24" height="24" viewBox="0 0 24 24" fill="none" xmlns="http://www.w3.org/2000/svg" xmlns:xlink="http://www.w3.org/1999/xlink">
<path d="M18.873,7.66L17.713,3.61C17.695,3.547 17.665,3.488 17.624,3.436C17.583,3.384 17.532,3.342 17.475,3.31C17.417,3.278 17.354,3.257 17.289,3.25C17.223,3.242 17.157,3.248 17.094,3.266L2.226,7.523C2.14,7.548 2.062,7.596 2,7.661L18.873,7.66ZM12.433,6.16L16.883,6.16L16.546,4.983L12.433,6.16Z" clip-rule="evenodd" fill-rule="evenodd" fill="#000000"/>
<path d="M3.5,8.29L3.5,19.053L20.5,19.053L20.5,8.29L3.5,8.29ZM2.5,6.79C2.367,6.79 2.24,6.843 2.146,6.936C2.053,7.03 2,7.157 2,7.29L2,20.053C2,20.186 2.053,20.313 2.146,20.407C2.24,20.5 2.367,20.553 2.5,20.553L21.5,20.553C21.633,20.553 21.76,20.5 21.854,20.407C21.947,20.313 22,20.186 22,20.053L22,7.29C22,7.157 21.947,7.03 21.854,6.936C21.76,6.843 21.633,6.79 21.5,6.79L2.5,6.79Z" clip-rule="evenodd" fill-rule="evenodd" fill="#000000"/>
<path d="M18.872,13.19C18.872,13.341 18.843,13.491 18.785,13.63C18.727,13.77 18.642,13.896 18.535,14.003C18.429,14.11 18.302,14.195 18.162,14.252C18.023,14.31 17.873,14.34 17.722,14.34C17.571,14.34 17.422,14.31 17.282,14.252C17.143,14.195 17.016,14.11 16.909,14.003C16.802,13.896 16.718,13.77 16.66,13.63C16.602,13.491 16.572,13.341 16.572,13.19C16.572,12.885 16.693,12.593 16.909,12.377C17.125,12.161 17.417,12.04 17.722,12.04C18.027,12.04 18.32,12.161 18.535,12.377C18.751,12.593 18.872,12.885 18.872,13.19Z" fill="#000000"/>
</svg>
