<svg width="36" height="36" viewBox="0 0 36 36" fill="none" xmlns="http://www.w3.org/2000/svg" xmlns:xlink="http://www.w3.org/1999/xlink">
<path d="M13.966,14.63L20.233,14.63C20.129,12.244 19.699,10.141 19.084,8.605C18.728,7.715 18.332,7.07 17.95,6.665C17.633,6.331 17.38,6.215 17.2,6.185L17,6.185C16.82,6.215 16.567,6.331 16.25,6.665C15.868,7.07 15.472,7.715 15.116,8.605C14.501,10.141 14.071,12.244 13.966,14.63ZM13.405,6.92C13.27,7.192 13.144,7.475 13.027,7.769C12.292,9.608 11.821,12.005 11.716,14.63L7.583,14.63C7.784,12.945 8.428,11.343 9.451,9.988C10.473,8.634 11.839,7.575 13.405,6.92ZM16.855,3.937C13.76,3.998 10.814,5.27 8.647,7.48C6.48,9.69 5.266,12.662 5.266,15.757C5.265,17.31 5.57,18.848 6.164,20.284C6.758,21.719 7.629,23.023 8.727,24.121C9.825,25.22 11.129,26.091 12.565,26.685C14,27.279 15.538,27.585 17.092,27.584C17.968,27.584 18.398,27.563 18.757,27.473C18.943,27.427 19.015,27.4 19.076,27.377C19.163,27.347 19.225,27.323 19.544,27.268L19.154,25.052C18.834,25.106 18.519,25.186 18.212,25.291C18.166,25.301 18.014,25.334 17.098,25.334C16.916,25.334 16.628,25.244 16.249,24.844C15.866,24.439 15.47,23.795 15.115,22.906C14.5,21.368 14.069,19.267 13.964,16.88L20.269,16.88C20.25,17.306 20.194,17.729 20.099,18.145C20.051,18.353 19.994,18.56 19.931,18.764L19.913,18.824L19.907,18.848C19.856,19.019 19.774,19.295 19.757,19.565L22.004,19.697L22.004,19.706C22.004,19.706 22.015,19.654 22.07,19.465L22.088,19.405C22.145,19.216 22.223,18.958 22.292,18.647C22.4,18.178 22.493,17.6 22.52,16.88L26.621,16.88C26.579,17.364 26.481,17.842 26.329,18.304C26.246,18.544 26.164,18.724 26.08,18.908L26.074,18.923L26.059,18.953C25.99,19.105 25.861,19.385 25.817,19.682L28.043,20.011L28.036,20.05C28.036,20.05 28.054,20.002 28.121,19.855L28.133,19.828C28.217,19.643 28.339,19.378 28.457,19.034C28.709,18.299 28.922,17.282 28.922,15.755C28.922,12.662 27.71,9.691 25.545,7.482C23.38,5.272 20.435,3.999 17.342,3.937C17.18,3.923 17.017,3.923 16.855,3.937ZM20.794,6.922C20.928,7.193 21.054,7.475 21.172,7.769C21.907,9.608 22.379,12.005 22.484,14.63L26.609,14.63C26.41,12.945 25.767,11.342 24.745,9.988C23.723,8.633 22.36,7.574 20.794,6.92M13.411,24.599C13.271,24.318 13.143,24.031 13.027,23.74C12.292,21.899 11.819,19.504 11.714,16.879L7.583,16.879C7.783,18.567 8.428,20.171 9.452,21.528C10.476,22.884 11.842,23.944 13.411,24.599Z" clip-rule="evenodd" fill-rule="evenodd" fill="#000000"/>
<path d="M30.734,18.415L17.609,18.415L17.609,28.387L25.492,28.387L30.734,31.874L30.734,18.415ZM28.484,20.665L28.484,27.676L26.171,26.137L19.861,26.137L19.861,20.665L28.484,20.665Z" clip-rule="evenodd" fill-rule="evenodd" fill="#000000"/>
</svg>
