<svg width="40" height="42" viewBox="0 0 40 42" fill="none" xmlns="http://www.w3.org/2000/svg" xmlns:xlink="http://www.w3.org/1999/xlink">
<path d="M3.75,8.316L36.25,8.316L36.25,15.74L35.357,16.006C34.412,16.29 33.583,16.87 32.995,17.662C32.406,18.453 32.088,19.413 32.088,20.4C32.088,21.386 32.406,22.346 32.995,23.138C33.583,23.929 34.412,24.51 35.357,24.793L36.25,25.06L36.25,32.483L3.75,32.483L3.75,25.06L4.643,24.793C5.588,24.51 6.417,23.929 7.005,23.138C7.594,22.346 7.912,21.386 7.912,20.4C7.912,19.413 7.594,18.453 7.005,17.662C6.417,16.87 5.588,16.29 4.643,16.006L3.75,15.74L3.75,8.316ZM6.25,10.816L6.25,13.943C7.493,14.504 8.547,15.411 9.287,16.557C10.027,17.702 10.42,19.036 10.42,20.4C10.42,21.763 10.027,23.098 9.287,24.243C8.547,25.388 7.493,26.296 6.25,26.856L6.25,29.983L33.75,29.983L33.75,26.856C32.507,26.296 31.453,25.388 30.713,24.243C29.973,23.098 29.58,21.763 29.58,20.4C29.58,19.036 29.973,17.702 30.713,16.557C31.453,15.411 32.507,14.504 33.75,13.943L33.75,10.816L6.25,10.816Z" clip-rule="evenodd" fill-rule="evenodd" fill="#FFFFFF"/>
<path d="M20,24.567C20.442,24.567 20.866,24.742 21.178,25.055C21.491,25.367 21.666,25.791 21.666,26.233C21.666,26.675 21.491,27.099 21.178,27.412C20.866,27.724 20.442,27.9 20,27.9C19.558,27.9 19.134,27.724 18.821,27.412C18.509,27.099 18.333,26.675 18.333,26.233C18.333,25.791 18.509,25.367 18.821,25.055C19.134,24.742 19.558,24.567 20,24.567ZM20,18.733C20.442,18.733 20.866,18.909 21.178,19.221C21.491,19.534 21.666,19.958 21.666,20.4C21.666,20.842 21.491,21.266 21.178,21.578C20.866,21.891 20.442,22.067 20,22.067C19.558,22.067 19.134,21.891 18.821,21.578C18.509,21.266 18.333,20.842 18.333,20.4C18.333,19.958 18.509,19.534 18.821,19.221C19.134,18.909 19.558,18.733 20,18.733ZM20,12.9C20.442,12.9 20.866,13.075 21.178,13.388C21.491,13.701 21.666,14.125 21.666,14.567C21.666,15.009 21.491,15.433 21.178,15.745C20.866,16.058 20.442,16.233 20,16.233C19.558,16.233 19.134,16.058 18.821,15.745C18.509,15.433 18.333,15.009 18.333,14.567C18.333,14.125 18.509,13.701 18.821,13.388C19.134,13.075 19.558,12.9 20,12.9Z" fill="#FFFFFF"/>
</svg>
