<svg width="32" height="34" viewBox="0 0 32 34" fill="none" xmlns="http://www.w3.org/2000/svg" xmlns:xlink="http://www.w3.org/1999/xlink">
<path d="M2.6,6.733L28.6,6.733L28.6,12.672L27.885,12.885C27.129,13.112 26.466,13.576 25.995,14.21C25.524,14.843 25.27,15.611 25.27,16.4C25.27,17.189 25.524,17.957 25.995,18.591C26.466,19.224 27.129,19.688 27.885,19.915L28.6,20.128L28.6,26.067L2.6,26.067L2.6,20.128L3.314,19.915C4.07,19.688 4.733,19.224 5.204,18.591C5.675,17.957 5.93,17.189 5.93,16.4C5.93,15.611 5.675,14.843 5.204,14.21C4.733,13.576 4.07,13.112 3.314,12.885L2.6,12.672L2.6,6.733ZM4.6,8.733L4.6,11.235C5.594,11.683 6.438,12.409 7.029,13.325C7.621,14.242 7.936,15.309 7.936,16.4C7.936,17.491 7.621,18.558 7.029,19.475C6.438,20.391 5.594,21.117 4.6,21.565L4.6,24.067L26.6,24.067L26.6,21.565C25.605,21.117 24.762,20.391 24.17,19.475C23.578,18.558 23.263,17.491 23.263,16.4C23.263,15.309 23.578,14.242 24.17,13.325C24.762,12.409 25.605,11.683 26.6,11.235L26.6,8.733L4.6,8.733Z" clip-rule="evenodd" fill-rule="evenodd" fill="#000000"/>
<path d="M15.6,19.733C15.954,19.733 16.293,19.874 16.543,20.124C16.793,20.374 16.933,20.713 16.933,21.067C16.933,21.42 16.793,21.759 16.543,22.009C16.293,22.259 15.954,22.4 15.6,22.4C15.246,22.4 14.907,22.259 14.657,22.009C14.407,21.759 14.267,21.42 14.267,21.067C14.267,20.713 14.407,20.374 14.657,20.124C14.907,19.874 15.246,19.733 15.6,19.733ZM15.6,15.067C15.954,15.067 16.293,15.207 16.543,15.457C16.793,15.707 16.933,16.046 16.933,16.4C16.933,16.754 16.793,17.093 16.543,17.343C16.293,17.593 15.954,17.733 15.6,17.733C15.246,17.733 14.907,17.593 14.657,17.343C14.407,17.093 14.267,16.754 14.267,16.4C14.267,16.046 14.407,15.707 14.657,15.457C14.907,15.207 15.246,15.067 15.6,15.067ZM15.6,10.4C15.954,10.4 16.293,10.54 16.543,10.79C16.793,11.04 16.933,11.38 16.933,11.733C16.933,12.087 16.793,12.426 16.543,12.676C16.293,12.926 15.954,13.067 15.6,13.067C15.246,13.067 14.907,12.926 14.657,12.676C14.407,12.426 14.267,12.087 14.267,11.733C14.267,11.38 14.407,11.04 14.657,10.79C14.907,10.54 15.246,10.4 15.6,10.4Z" fill="#000000"/>
</svg>
