<svg width="32" height="32" viewBox="0 0 32 32" fill="none" xmlns="http://www.w3.org/2000/svg" xmlns:xlink="http://www.w3.org/1999/xlink">
<path d="M21.691,10.724L21.691,26.426L19.691,26.426L19.691,20.928L17.042,20.928L17.042,14.386C17.042,13.013 17.646,12.056 18.449,11.474C19.101,11.012 19.876,10.756 20.675,10.738L21.691,10.724ZM19.691,18.928L19.691,13.048L19.622,13.096C19.321,13.314 19.042,13.676 19.042,14.389L19.042,18.928L19.691,18.928Z" clip-rule="evenodd" fill-rule="evenodd" fill="#000000"/>
<path d="M11.514,26.426L13.514,26.426L13.514,16.133C13.841,16.05 14.14,15.918 14.41,15.74C14.919,15.401 15.254,14.94 15.471,14.464C15.885,13.554 15.921,12.48 15.921,11.74L15.921,10.74L13.921,10.74L13.921,11.74C13.921,12.481 13.867,13.16 13.651,13.633C13.614,13.717 13.568,13.796 13.514,13.87L13.514,10.74L11.514,10.74L11.514,13.78C11.48,13.729 11.45,13.677 11.423,13.622C11.189,13.164 11.107,12.489 11.107,11.74L11.107,10.74L9.107,10.74L9.107,11.74C9.107,12.545 9.179,13.625 9.641,14.53C9.881,15.001 10.235,15.445 10.751,15.766C10.986,15.911 11.24,16.024 11.514,16.104L11.514,26.426Z" fill="#000000"/>
<path d="M24.489,0.223L4.914,5.789L4.76,5.789L4.76,31.377L26.04,31.377L26.04,5.789L24.49,5.789L24.489,0.223ZM22.489,5.789L22.489,2.869L12.226,5.791L22.489,5.789ZM24.038,7.789L6.76,7.789L6.76,29.377L24.04,29.377L24.038,7.789Z" clip-rule="evenodd" fill-rule="evenodd" fill="#000000"/>
</svg>
