<svg width="32" height="34" viewBox="0 0 32 34" fill="none" xmlns="http://www.w3.org/2000/svg" xmlns:xlink="http://www.w3.org/1999/xlink">
<path d="M21.691,11.124L21.691,26.827L19.691,26.827L19.691,21.328L17.042,21.328L17.042,14.787C17.042,13.414 17.646,12.456 18.449,11.875C19.101,11.413 19.876,11.156 20.675,11.139L21.691,11.124ZM19.691,19.328L19.691,13.448L19.622,13.496C19.321,13.715 19.042,14.076 19.042,14.79L19.042,19.328L19.691,19.328Z" clip-rule="evenodd" fill-rule="evenodd" fill="#000000"/>
<path d="M11.514,26.827L13.514,26.827L13.514,16.533C13.841,16.45 14.14,16.319 14.41,16.14C14.919,15.801 15.254,15.34 15.471,14.864C15.885,13.955 15.921,12.88 15.921,12.14L15.921,11.14L13.921,11.14L13.921,12.14C13.921,12.881 13.867,13.56 13.651,14.033C13.614,14.117 13.568,14.197 13.514,14.271L13.514,11.14L11.514,11.14L11.514,14.18C11.48,14.13 11.45,14.077 11.423,14.023C11.189,13.564 11.107,12.889 11.107,12.14L11.107,11.14L9.107,11.14L9.107,12.14C9.107,12.945 9.179,14.025 9.641,14.931C9.881,15.401 10.235,15.845 10.751,16.167C10.986,16.312 11.24,16.424 11.514,16.504L11.514,26.827Z" fill="#000000"/>
<path d="M24.489,0.623L4.914,6.189L4.76,6.189L4.76,31.777L26.04,31.777L26.04,6.189L24.49,6.189L24.489,0.623ZM22.489,6.189L22.489,3.269L12.226,6.191L22.489,6.189ZM24.038,8.189L6.76,8.189L6.76,29.777L24.04,29.777L24.038,8.189Z" clip-rule="evenodd" fill-rule="evenodd" fill="#000000"/>
</svg>
