<svg width="32" height="32" viewBox="0 0 32 32" fill="none" xmlns="http://www.w3.org/2000/svg" xmlns:xlink="http://www.w3.org/1999/xlink">
<path d="M21.897,2.961L9.139,2.961L9.139,25.664L21.897,25.664L21.897,2.961ZM7.139,0.961L7.139,27.664L23.897,27.664L23.897,0.961L7.139,0.961Z" clip-rule="evenodd" fill-rule="evenodd" fill="#000000"/>
<path d="M13.606,21.6L13.606,27.455L17.593,27.455L17.593,21.601L13.606,21.6ZM26.039,31.039L5.159,31.039L5.159,29.039L26.039,29.039L26.039,31.039ZM12.518,5.475L12.518,8.441L10.518,8.441L10.518,5.475L12.518,5.475ZM16.518,5.475L16.518,8.441L14.518,8.441L14.518,5.475L16.518,5.475ZM20.518,5.475L20.518,8.441L18.518,8.441L18.518,5.475L20.518,5.475ZM12.518,10.815L12.518,13.781L10.518,13.781L10.518,10.815L12.518,10.815ZM16.518,10.815L16.518,13.781L14.518,13.781L14.518,10.815L16.518,10.815ZM20.518,10.815L20.518,13.781L18.518,13.781L18.518,10.815L20.518,10.815ZM12.518,16.155L12.518,19.121L10.518,19.121L10.518,16.155L12.518,16.155ZM16.518,16.155L16.518,19.121L14.518,19.121L14.518,16.155L16.518,16.155ZM20.518,16.155L20.518,19.121L18.518,19.121L18.518,16.155L20.518,16.155Z" clip-rule="evenodd" fill-rule="evenodd" fill="#000000"/>
</svg>
