<svg width="42" height="38" viewBox="0 0 42 38" fill="none" xmlns="http://www.w3.org/2000/svg" xmlns:xlink="http://www.w3.org/1999/xlink">
<path d="M41.02,29C41.573,28.74 41.85,28.398 41.85,27.975L41.85,0.875C41.85,0.583 41.752,0.338 41.557,0.143C41.361,-0.052 41.101,-0.15 40.775,-0.15L1.225,-0.15C0.899,-0.15 0.639,-0.052 0.443,0.143C0.248,0.338 0.15,0.583 0.15,0.875L0.15,27.975C0.313,28.431 0.671,28.773 1.225,29L33.305,37.35C33.956,37.35 34.363,37.073 34.525,36.52L36.625,29L41.02,29ZM31.205,32.565L16.85,29L32.23,29L31.205,32.565ZM37.65,4L37.65,24.85L4.35,24.85L4.35,4L37.65,4ZM31.4,12.155C30.587,12.155 29.862,12.472 29.228,13.107C28.593,13.742 28.275,14.466 28.275,15.28C28.275,16.094 28.593,16.818 29.228,17.453C29.862,18.087 30.587,18.405 31.4,18.405C32.214,18.405 32.938,18.087 33.573,17.453C34.208,16.818 34.525,16.094 34.525,15.28C34.525,14.433 34.232,13.701 33.646,13.083C33.061,12.464 32.312,12.155 31.4,12.155Z" fill="#000000"/>
</svg>
