<svg width="28" height="28" viewBox="0 0 28 28" fill="none" xmlns="http://www.w3.org/2000/svg" xmlns:xlink="http://www.w3.org/1999/xlink">
<path d="M13.46,2.4C10.543,2.4 7.745,3.559 5.682,5.622C3.619,7.685 2.46,10.483 2.46,13.4C2.46,16.317 3.619,19.115 5.682,21.178C7.745,23.241 10.543,24.4 13.46,24.4C16.377,24.4 19.175,23.241 21.238,21.178C23.301,19.115 24.46,16.317 24.46,13.4C24.46,10.483 23.301,7.685 21.238,5.622C19.175,3.559 16.377,2.4 13.46,2.4ZM0.46,13.4C0.46,6.22 6.28,0.4 13.46,0.4C20.64,0.4 26.46,6.22 26.46,13.4C26.46,20.58 20.64,26.4 13.46,26.4C6.28,26.4 0.46,20.58 0.46,13.4ZM12.46,6.067L14.46,6.067L14.46,12.987L18.833,17.36L17.42,18.773L12.46,13.813L12.46,6.067Z" clip-rule="evenodd" fill-rule="evenodd" fill="#000000"/>
</svg>
