<svg width="24" height="26" viewBox="0 0 24 26" fill="none" xmlns="http://www.w3.org/2000/svg" xmlns:xlink="http://www.w3.org/1999/xlink">
<path d="M14.041,14.041C14.041,14.041 13.927,14.155 13.699,14.382C13.471,14.61 13.038,14.724 12.4,14.724C11.762,14.724 11.215,14.496 10.759,14.041C10.304,13.585 10.076,13.038 10.076,12.4C10.076,11.762 10.304,11.215 10.759,10.759C11.215,10.304 11.762,10.076 12.4,10.076C13.038,10.076 13.585,10.304 14.041,10.759C14.496,11.215 14.724,11.762 14.724,12.4C14.724,13.038 14.496,13.585 14.041,14.041ZM9.105,9.091C9.105,9.091 8.875,9.319 8.415,9.775C7.954,10.231 7.724,11.106 7.724,12.4C7.724,13.694 8.184,14.797 9.105,15.709C10.026,16.62 11.124,17.076 12.4,17.076C13.676,17.076 14.774,16.62 15.695,15.709C16.615,14.797 17.076,13.694 17.076,12.4C17.076,11.106 16.615,10.003 15.695,9.091C14.774,8.18 13.676,7.724 12.4,7.724C11.124,7.724 10.026,8.18 9.105,9.091ZM8.326,21.806C8.344,22.426 8.576,22.959 9.023,23.406C9.47,23.852 10.012,24.076 10.65,24.076L14.15,24.076C14.788,24.076 15.335,23.843 15.791,23.378C16.246,22.914 16.474,22.362 16.474,21.724L16.474,20.822L17.568,20.412L18.58,20.986C18.962,21.205 19.354,21.314 19.755,21.314C20.649,21.314 21.323,20.922 21.779,20.138L23.529,17.103C23.729,16.739 23.83,16.356 23.83,15.955C23.83,15.025 23.438,14.351 22.654,13.931L21.724,13.384L21.724,11.908L22.654,11.361C23.438,10.905 23.83,10.231 23.83,9.338C23.83,8.936 23.729,8.554 23.529,8.189L21.779,5.154C21.323,4.37 20.649,3.978 19.755,3.978C19.354,3.978 18.962,4.088 18.58,4.306L17.65,4.826L16.474,4.142L16.474,3.076C16.474,2.438 16.246,1.886 15.791,1.422C15.335,0.957 14.788,0.724 14.15,0.724L10.65,0.724C10.012,0.724 9.465,0.957 9.009,1.422C8.554,1.886 8.326,2.438 8.326,3.076L8.326,4.142L7.15,4.826L6.22,4.306C5.837,4.088 5.445,3.978 5.044,3.978C4.151,3.978 3.477,4.37 3.021,5.154L1.271,8.189C1.07,8.554 0.97,8.936 0.97,9.338C0.97,10.231 1.362,10.905 2.146,11.361L3.076,11.908L3.076,13.384L2.146,13.931C1.362,14.351 0.97,15.025 0.97,15.955C0.97,16.356 1.07,16.739 1.271,17.103L3.021,20.138C3.477,20.922 4.151,21.314 5.044,21.314C5.445,21.314 5.837,21.205 6.22,20.986L7.232,20.412L8.326,20.822L8.326,21.724L8.326,21.806ZM10.65,21.724L10.65,19.236L7.068,17.814L5.044,18.963L3.294,15.955L5.4,14.724L5.4,10.568L3.294,9.338L5.044,6.33L7.15,7.533L10.65,5.482L10.65,3.076L14.15,3.076L14.15,5.482L17.65,7.533L19.755,6.33L21.505,9.338L19.4,10.568L19.4,14.724L21.505,15.955L19.755,18.963L17.732,17.814L14.15,19.236L14.15,21.724L10.65,21.724Z" fill="#000000"/>
</svg>
