<svg width="8" height="10" viewBox="0 0 8 10" fill="none" xmlns="http://www.w3.org/2000/svg" xmlns:xlink="http://www.w3.org/1999/xlink">
<path d="M3.893,0.335C3.103,0.335 2.332,0.569 1.676,1.007C1.02,1.446 0.508,2.069 0.206,2.798C-0.096,3.527 -0.175,4.33 -0.021,5.104C0.133,5.878 0.513,6.589 1.071,7.147C1.629,7.705 2.34,8.085 3.114,8.239C3.888,8.393 4.691,8.314 5.42,8.012C6.149,7.71 6.772,7.198 7.211,6.542C7.649,5.886 7.883,5.115 7.883,4.325C7.883,3.267 7.463,2.252 6.714,1.504C5.966,0.755 4.951,0.335 3.893,0.335ZM3.893,6.321C3.498,6.321 3.112,6.204 2.784,5.984C2.456,5.765 2.2,5.453 2.049,5.089C1.898,4.724 1.859,4.323 1.936,3.936C2.013,3.549 2.203,3.194 2.482,2.915C2.761,2.636 3.116,2.445 3.503,2.368C3.891,2.292 4.292,2.331 4.656,2.482C5.021,2.633 5.332,2.889 5.552,3.217C5.771,3.545 5.888,3.931 5.888,4.325C5.888,4.855 5.678,5.362 5.304,5.736C4.929,6.11 4.422,6.321 3.893,6.321Z" fill="#FFFFFF"/>
</svg>
