<svg width="138" height="46" viewBox="0 0 138 46" fill="none" xmlns="http://www.w3.org/2000/svg" xmlns:xlink="http://www.w3.org/1999/xlink">
<path d="M7.878,11.955L10.525,11.955L6.926,1.177L3.841,1.177L0.242,11.955L2.888,11.955L3.418,10.261L7.349,10.261L7.878,11.955ZM4.144,7.951L5.383,3.994L6.623,7.951L4.144,7.951Z" fill="#FFFFFF"/>
<path d="M15.88,4.256L14.307,9.137L12.735,4.256L10.225,4.256L13.022,11.955L15.593,11.955L18.39,4.256L15.88,4.256Z" fill="#FFFFFF"/>
<path d="M24.416,4.256L24.416,4.98C23.917,4.395 23.176,4.041 22.163,4.041C20.182,4.041 18.549,5.811 18.549,8.105C18.549,10.4 20.182,12.17 22.163,12.17C23.176,12.17 23.917,11.816 24.416,11.231L24.416,11.955L26.684,11.955L26.684,4.256L24.416,4.256ZM22.617,9.984C21.573,9.984 20.817,9.26 20.817,8.105C20.817,6.951 21.573,6.227 22.617,6.227C23.66,6.227 24.416,6.951 24.416,8.105C24.416,9.26 23.66,9.984 22.617,9.984Z" fill="#FFFFFF"/>
<path d="M28.348,11.955L30.617,11.955L30.617,0.715L28.348,0.715L28.348,11.955Z" fill="#FFFFFF"/>
<path d="M33.411,3.579C34.152,3.579 34.772,2.947 34.772,2.193C34.772,1.439 34.152,0.807 33.411,0.807C32.67,0.807 32.05,1.439 32.05,2.193C32.05,2.947 32.67,3.579 33.411,3.579ZM32.276,11.955L34.545,11.955L34.545,4.256L32.276,4.256L32.276,11.955Z" fill="#FFFFFF"/>
<path d="M40.726,4.041C39.713,4.041 38.972,4.395 38.473,4.98L38.473,1.177L36.205,1.177L36.205,11.955L38.473,11.955L38.473,11.231C38.972,11.816 39.713,12.17 40.726,12.17C42.707,12.17 44.34,10.4 44.34,8.105C44.34,5.811 42.707,4.041 40.726,4.041ZM40.272,9.984C39.229,9.984 38.473,9.26 38.473,8.105C38.473,6.951 39.229,6.227 40.272,6.227C41.316,6.227 42.072,6.951 42.072,8.105C42.072,9.26 41.316,9.984 40.272,9.984Z" fill="#FFFFFF"/>
<path d="M45.626,11.955L47.894,11.955L47.894,0.715L45.626,0.715L45.626,11.955Z" fill="#FFFFFF"/>
<path d="M51.58,9.029L56.948,9.029C57.009,8.737 57.039,8.429 57.039,8.105C57.039,5.78 55.406,4.041 53.198,4.041C50.809,4.041 49.176,5.811 49.176,8.105C49.176,10.4 50.779,12.17 53.364,12.17C54.801,12.17 55.92,11.631 56.661,10.584L54.846,9.522C54.544,9.861 54.015,10.107 53.395,10.107C52.563,10.107 51.867,9.83 51.58,9.029ZM51.535,7.305C51.746,6.52 52.321,6.088 53.183,6.088C53.863,6.088 54.544,6.412 54.786,7.305L51.535,7.305Z" fill="#FFFFFF"/>
<path d="M65.735,12.17C67.958,12.17 69.742,10.4 69.742,8.105C69.742,5.811 67.958,4.041 65.735,4.041C63.512,4.041 61.728,5.811 61.728,8.105C61.728,10.4 63.512,12.17 65.735,12.17ZM65.735,9.922C64.752,9.922 63.996,9.199 63.996,8.105C63.996,7.012 64.752,6.289 65.735,6.289C66.718,6.289 67.474,7.012 67.474,8.105C67.474,9.199 66.718,9.922 65.735,9.922Z" fill="#FFFFFF"/>
<path d="M75.456,4.041C74.458,4.041 73.702,4.41 73.293,4.98L73.293,4.256L71.025,4.256L71.025,11.955L73.293,11.955L73.293,7.751C73.293,6.658 73.868,6.165 74.7,6.165C75.425,6.165 76.015,6.612 76.015,7.567L76.015,11.955L78.283,11.955L78.283,7.228C78.283,5.149 76.983,4.041 75.456,4.041Z" fill="#FFFFFF"/>
<path d="M88.052,6.473L88.052,4.256L86.494,4.256L86.494,2.101L84.226,2.793L84.226,4.256L83.016,4.256L83.016,6.473L84.226,6.473L84.226,9.199C84.226,11.354 85.088,12.263 88.052,11.955L88.052,9.861C87.054,9.922 86.494,9.861 86.494,9.199L86.494,6.473L88.052,6.473Z" fill="#FFFFFF"/>
<path d="M93.767,4.041C92.769,4.041 92.013,4.41 91.604,4.98L91.604,1.177L89.336,1.177L89.336,11.955L91.604,11.955L91.604,7.751C91.604,6.658 92.179,6.165 93.011,6.165C93.736,6.165 94.326,6.612 94.326,7.567L94.326,11.955L96.594,11.955L96.594,7.228C96.594,5.149 95.294,4.041 93.767,4.041Z" fill="#FFFFFF"/>
<path d="M100.178,9.029L105.546,9.029C105.607,8.737 105.637,8.429 105.637,8.105C105.637,5.78 104.004,4.041 101.796,4.041C99.407,4.041 97.774,5.811 97.774,8.105C97.774,10.4 99.377,12.17 101.963,12.17C103.399,12.17 104.518,11.631 105.259,10.584L103.444,9.522C103.142,9.861 102.613,10.107 101.993,10.107C101.161,10.107 100.466,9.83 100.178,9.029ZM100.133,7.305C100.345,6.52 100.919,6.088 101.781,6.088C102.462,6.088 103.142,6.412 103.384,7.305L100.133,7.305Z" fill="#FFFFFF"/>
<path d="M12.969,40.182L17.38,40.182L11.382,22.219L6.24,22.219L0.242,40.182L4.653,40.182L5.535,37.36L12.087,37.36L12.969,40.182ZM6.744,33.51L8.811,26.915L10.878,33.51L6.744,33.51Z" fill="#FFFFFF"/>
<path d="M26.294,26.992C24.605,26.992 23.37,27.583 22.538,28.558L22.538,27.352L18.758,27.352L18.758,45.315L22.538,45.315L22.538,38.976C23.37,39.952 24.605,40.542 26.294,40.542C29.595,40.542 32.317,37.591 32.317,33.767C32.317,29.943 29.595,26.992 26.294,26.992ZM25.537,36.898C23.798,36.898 22.538,35.692 22.538,33.767C22.538,31.842 23.798,30.636 25.537,30.636C27.276,30.636 28.537,31.842 28.537,33.767C28.537,35.692 27.276,36.898 25.537,36.898Z" fill="#FFFFFF"/>
<path d="M41.996,26.992C40.307,26.992 39.072,27.583 38.241,28.558L38.241,27.352L34.46,27.352L34.46,45.315L38.241,45.315L38.241,38.976C39.072,39.952 40.307,40.542 41.996,40.542C45.297,40.542 48.019,37.591 48.019,33.767C48.019,29.943 45.297,26.992 41.996,26.992ZM41.24,36.898C39.501,36.898 38.241,35.692 38.241,33.767C38.241,31.842 39.501,30.636 41.24,30.636C42.979,30.636 44.239,31.842 44.239,33.767C44.239,35.692 42.979,36.898 41.24,36.898Z" fill="#FFFFFF"/>
<path d="M50.162,40.182L53.943,40.182L53.943,21.449L50.162,21.449L50.162,40.182Z" fill="#FFFFFF"/>
<path d="M60.086,35.307L69.033,35.307C69.134,34.819 69.184,34.306 69.184,33.767C69.184,29.892 66.462,26.992 62.783,26.992C58.801,26.992 56.079,29.943 56.079,33.767C56.079,37.591 58.751,40.542 63.06,40.542C65.454,40.542 67.319,39.644 68.554,37.899L65.53,36.128C65.026,36.692 64.144,37.103 63.111,37.103C61.724,37.103 60.565,36.641 60.086,35.307ZM60.011,32.433C60.363,31.124 61.321,30.405 62.758,30.405C63.892,30.405 65.026,30.944 65.429,32.433L60.011,32.433Z" fill="#FFFFFF"/>
<path d="M83.93,40.542C87.76,40.542 90.482,38.489 90.482,35.024C90.482,31.227 87.483,30.277 84.812,29.456C82.065,28.609 81.636,28.044 81.636,27.223C81.636,26.505 82.266,25.863 83.526,25.863C85.139,25.863 85.971,26.659 86.576,27.942L89.978,25.915C88.693,23.271 86.425,21.86 83.526,21.86C80.477,21.86 77.604,23.862 77.604,27.326C77.604,30.765 80.174,32.048 82.795,32.792C85.442,33.536 86.45,33.972 86.45,35.076C86.45,35.769 85.971,36.539 84.056,36.539C82.065,36.539 80.981,35.538 80.351,34.049L76.873,36.102C77.856,38.745 80.225,40.542 83.93,40.542Z" fill="#FFFFFF"/>
<path d="M99.386,31.047L99.386,27.352L96.791,27.352L96.791,23.759L93.01,24.914L93.01,27.352L90.994,27.352L90.994,31.047L93.01,31.047L93.01,35.589C93.01,39.182 94.447,40.696 99.386,40.182L99.386,36.692C97.723,36.795 96.791,36.692 96.791,35.589L96.791,31.047L99.386,31.047Z" fill="#FFFFFF"/>
<path d="M107.329,40.542C111.034,40.542 114.008,37.591 114.008,33.767C114.008,29.943 111.034,26.992 107.329,26.992C103.625,26.992 100.651,29.943 100.651,33.767C100.651,37.591 103.625,40.542 107.329,40.542ZM107.329,36.795C105.691,36.795 104.431,35.589 104.431,33.767C104.431,31.945 105.691,30.739 107.329,30.739C108.967,30.739 110.228,31.945 110.228,33.767C110.228,35.589 108.967,36.795 107.329,36.795Z" fill="#FFFFFF"/>
<path d="M119.927,29.636L119.927,27.352L116.146,27.352L116.146,40.182L119.927,40.182L119.927,34.383C119.927,31.842 122.144,31.201 123.707,31.457L123.707,27.095C122.119,27.095 120.431,27.916 119.927,29.636Z" fill="#FFFFFF"/>
<path d="M128.482,35.307L137.429,35.307C137.53,34.819 137.58,34.306 137.58,33.767C137.58,29.892 134.858,26.992 131.179,26.992C127.197,26.992 124.475,29.943 124.475,33.767C124.475,37.591 127.146,40.542 131.456,40.542C133.85,40.542 135.715,39.644 136.95,37.899L133.926,36.128C133.422,36.692 132.54,37.103 131.506,37.103C130.12,37.103 128.961,36.641 128.482,35.307ZM128.406,32.433C128.759,31.124 129.717,30.405 131.153,30.405C132.288,30.405 133.422,30.944 133.825,32.433L128.406,32.433Z" fill="#FFFFFF"/>
</svg>
