<svg width="52" height="62" viewBox="0 0 52 62" fill="none" xmlns="http://www.w3.org/2000/svg" xmlns:xlink="http://www.w3.org/1999/xlink">
<path d="M6.731,19.1L5.8,19.1C2.577,19.1 -0.033,21.712 -0.033,24.933L-0.033,54.933C-0.033,58.155 2.578,60.767 5.8,60.767L45.8,60.767C49.022,60.767 51.633,58.155 51.633,54.933L51.633,24.933C51.633,21.712 49.022,19.1 45.8,19.1L44.869,19.1C44.511,14.542 43.152,10.01 40.535,6.386C37.369,2.003 32.457,-0.9 25.8,-0.9C19.143,-0.9 14.231,2.003 11.065,6.386C8.448,10.01 7.089,14.542 6.731,19.1ZM11.749,19.1L39.851,19.1C39.505,15.395 38.38,11.943 36.482,9.314C34.231,6.197 30.809,4.1 25.8,4.1C20.791,4.1 17.369,6.197 15.118,9.314C13.22,11.943 12.095,15.395 11.749,19.1ZM5.8,24.1C5.34,24.1 4.967,24.473 4.967,24.933L4.967,54.933C4.967,55.394 5.34,55.767 5.8,55.767L45.8,55.767C46.26,55.767 46.633,55.394 46.633,54.933L46.633,24.933C46.633,24.473 46.26,24.1 45.8,24.1L5.8,24.1ZM23.3,46.6L23.3,33.267L28.3,33.267L28.3,46.6L23.3,46.6Z" clip-rule="evenodd" fill-rule="evenodd" fill="#000000"/>
</svg>
