<svg width="32" height="28" viewBox="0 0 32 28" fill="none" xmlns="http://www.w3.org/2000/svg" xmlns:xlink="http://www.w3.org/1999/xlink">
<path d="M28,8L19.582,8L21.266,2.95C21.569,2.037 21.416,1.026 20.854,0.247C20.291,-0.534 19.379,-1 18.418,-1L16,-1C15.554,-1 15.133,-0.802 14.846,-0.46L7.796,8L4,8C2.345,8 1,9.345 1,11L1,24.5C1,26.154 2.345,27.5 4,27.5L23.96,27.5C24.571,27.498 25.166,27.311 25.668,26.963C26.169,26.615 26.554,26.124 26.77,25.553L30.905,14.526C30.968,14.358 31,14.18 31,14L31,11C31,9.345 29.654,8 28,8ZM4,11L7,11L7,24.5L4,24.5L4,11ZM28,13.729L23.96,24.5L10,24.5L10,10.043L16.702,2L18.421,2L16.078,9.024C16.002,9.25 15.981,9.49 16.016,9.726C16.051,9.961 16.142,10.184 16.281,10.378C16.42,10.571 16.604,10.728 16.815,10.836C17.027,10.944 17.262,11.001 17.5,11L28,11L28,13.729Z" fill="#9E9E9E"/>
</svg>
