<svg width="28" height="26" viewBox="0 0 28 26" fill="none" xmlns="http://www.w3.org/2000/svg" xmlns:xlink="http://www.w3.org/1999/xlink">
<path d="M13.279,1.8C10.362,1.8 7.564,2.959 5.501,5.022C3.438,7.085 2.279,9.883 2.279,12.8C2.279,15.718 3.438,18.516 5.501,20.578C7.564,22.641 10.362,23.8 13.279,23.8C16.197,23.8 18.995,22.641 21.057,20.578C23.12,18.516 24.279,15.718 24.279,12.8C24.279,9.883 23.12,7.085 21.057,5.022C18.995,2.959 16.197,1.8 13.279,1.8ZM0.279,12.8C0.279,5.62 6.099,-0.2 13.279,-0.2C20.459,-0.2 26.279,5.62 26.279,12.8C26.279,19.98 20.459,25.8 13.279,25.8C6.099,25.8 0.279,19.98 0.279,12.8ZM12.279,5.467L14.279,5.467L14.279,12.387L18.653,16.76L17.239,18.174L12.279,13.214L12.279,5.467Z" clip-rule="evenodd" fill-rule="evenodd" fill="#000000"/>
</svg>
