<svg width="28" height="24" viewBox="0 0 28 24" fill="none" xmlns="http://www.w3.org/2000/svg" xmlns:xlink="http://www.w3.org/1999/xlink">
<path d="M13.606,0.59L26.731,22.209L0.466,22.209L6.512,12.689L13.606,0.59ZM8.186,13.786L4.106,20.21L23.175,20.21L19.756,14.578L19.66,14.658C19.079,15.122 18.195,15.544 16.952,15.544C16.22,15.544 15.592,15.297 15.059,15C14.622,14.745 14.201,14.462 13.799,14.154L13.614,14.018C12.699,13.353 11.934,12.877 10.952,12.877C9.795,12.877 9.075,13.164 8.668,13.404C8.491,13.509 8.329,13.637 8.186,13.786ZM18.686,12.816L13.634,4.496L9.851,10.949C10.189,10.902 10.556,10.878 10.952,10.877C12.639,10.877 13.872,11.733 14.791,12.401L14.996,12.552C15.388,12.838 15.708,13.072 16.034,13.254C16.396,13.456 16.684,13.544 16.952,13.544C17.71,13.544 18.159,13.298 18.411,13.096C18.544,12.989 18.632,12.888 18.683,12.818L18.686,12.816Z" clip-rule="evenodd" fill-rule="evenodd" fill="#000000"/>
</svg>
