<svg width="26" height="26" viewBox="0 0 26 26" fill="none" xmlns="http://www.w3.org/2000/svg" xmlns:xlink="http://www.w3.org/1999/xlink">
<path d="M12.52,1.8C9.602,1.8 6.804,2.959 4.741,5.022C2.678,7.085 1.52,9.883 1.52,12.8C1.52,15.717 2.678,18.515 4.741,20.578C6.804,22.641 9.602,23.8 12.52,23.8C15.437,23.8 18.235,22.641 20.298,20.578C22.361,18.515 23.52,15.717 23.52,12.8C23.52,9.883 22.361,7.085 20.298,5.022C18.235,2.959 15.437,1.8 12.52,1.8ZM-0.48,12.8C-0.48,5.62 5.34,-0.2 12.52,-0.2C19.7,-0.2 25.52,5.62 25.52,12.8C25.52,19.98 19.7,25.8 12.52,25.8C5.34,25.8 -0.48,19.98 -0.48,12.8ZM11.52,5.467L13.52,5.467L13.52,12.387L17.893,16.76L16.48,18.173L11.52,13.213L11.52,5.467Z" clip-rule="evenodd" fill-rule="evenodd" fill="#000000"/>
</svg>
