<svg width="28" height="28" viewBox="0 0 28 28" fill="none" xmlns="http://www.w3.org/2000/svg" xmlns:xlink="http://www.w3.org/1999/xlink">
<path d="M15.704,3.521L19.267,-0.04L20.68,1.373L17.119,4.936C16.213,5.841 15.712,6.885 15.625,7.868C15.568,8.535 15.697,9.205 16.061,9.831L22.6,3.293L24.013,4.707L17.472,11.248C18.103,11.623 18.771,11.764 19.427,11.72C20.384,11.657 21.383,11.195 22.221,10.356C23.359,9.217 24.494,8.076 25.627,6.933L25.928,6.629L27.351,8.036L27.048,8.343C25.912,9.487 24.775,10.629 23.635,11.769C22.503,12.901 21.065,13.615 19.559,13.715C18.298,13.799 17.049,13.436 16.029,12.691L14.388,14.333L24.681,24.627L23.267,26.04L15.307,18.08L11.307,22.08L8.973,19.747L2.68,26.04L1.267,24.627L7.56,18.333L1.704,12.479C1.116,11.891 0.649,11.192 0.331,10.424C0.012,9.655 -0.151,8.832 -0.151,8C-0.151,7.168 0.012,6.345 0.331,5.576C0.649,4.808 1.116,4.109 1.704,3.521L2.64,2.585L12.973,12.919L14.617,11.276C13.868,10.24 13.519,8.968 13.635,7.695C13.768,6.165 14.527,4.7 15.704,3.521ZM13.893,16.667L2.677,5.451C2.07,6.285 1.781,7.309 1.861,8.339C1.942,9.368 2.387,10.334 3.117,11.064L11.307,19.252L13.893,16.667Z" clip-rule="evenodd" fill-rule="evenodd" fill="#000000"/>
</svg>
