<svg width="52" height="62" viewBox="0 0 52 62" fill="none" xmlns="http://www.w3.org/2000/svg" xmlns:xlink="http://www.w3.org/1999/xlink">
<path d="M5.931,19.1L5,19.1C1.777,19.1 -0.833,21.712 -0.833,24.933L-0.833,54.933C-0.833,58.155 1.778,60.767 5,60.767L45,60.767C48.222,60.767 50.833,58.155 50.833,54.933L50.833,24.933C50.833,21.712 48.222,19.1 45,19.1L44.069,19.1C43.711,14.542 42.352,10.01 39.735,6.386C36.569,2.003 31.657,-0.9 25,-0.9C18.343,-0.9 13.431,2.003 10.265,6.386C7.648,10.01 6.289,14.542 5.931,19.1ZM10.949,19.1L39.051,19.1C38.705,15.395 37.58,11.943 35.682,9.314C33.431,6.197 30.009,4.1 25,4.1C19.991,4.1 16.569,6.197 14.318,9.314C12.42,11.943 11.295,15.395 10.949,19.1ZM5,24.1C4.54,24.1 4.167,24.473 4.167,24.933L4.167,54.933C4.167,55.394 4.54,55.767 5,55.767L45,55.767C45.46,55.767 45.833,55.394 45.833,54.933L45.833,24.933C45.833,24.473 45.46,24.1 45,24.1L5,24.1ZM22.5,46.6L22.5,33.267L27.5,33.267L27.5,46.6L22.5,46.6Z" clip-rule="evenodd" fill-rule="evenodd" fill="#000000"/>
</svg>
