<svg width="30" height="28" viewBox="0 0 30 28" fill="none" xmlns="http://www.w3.org/2000/svg" xmlns:xlink="http://www.w3.org/1999/xlink">
<path d="M7.881,3.025C7.585,3.025 7.293,3.083 7.02,3.196C6.747,3.309 6.499,3.475 6.29,3.684C6.081,3.893 5.915,4.141 5.802,4.414C5.689,4.687 5.631,4.98 5.631,5.275C5.631,5.571 5.689,5.863 5.802,6.136C5.915,6.409 6.081,6.657 6.29,6.866C6.499,7.075 6.747,7.241 7.02,7.354C7.293,7.467 7.585,7.525 7.881,7.525C8.478,7.525 9.05,7.288 9.472,6.866C9.894,6.444 10.131,5.872 10.131,5.275C10.131,4.678 9.894,4.106 9.472,3.684C9.05,3.262 8.478,3.025 7.881,3.025ZM3.381,5.275C3.381,4.082 3.855,2.937 4.699,2.093C5.543,1.249 6.687,0.775 7.881,0.775C9.074,0.775 10.219,1.249 11.063,2.093C11.907,2.937 12.381,4.082 12.381,5.275C12.381,6.469 11.907,7.613 11.063,8.457C10.219,9.301 9.074,9.775 7.881,9.775C6.687,9.775 5.543,9.301 4.699,8.457C3.855,7.613 3.381,6.469 3.381,5.275ZM19.881,6.025C19.284,6.025 18.712,6.262 18.29,6.684C17.868,7.106 17.631,7.678 17.631,8.275C17.631,8.872 17.868,9.444 18.29,9.866C18.712,10.288 19.284,10.525 19.881,10.525C20.478,10.525 21.05,10.288 21.472,9.866C21.894,9.444 22.131,8.872 22.131,8.275C22.131,7.678 21.894,7.106 21.472,6.684C21.05,6.262 20.478,6.025 19.881,6.025ZM15.381,8.275C15.381,7.082 15.855,5.937 16.699,5.093C17.543,4.249 18.687,3.775 19.881,3.775C21.074,3.775 22.219,4.249 23.063,5.093C23.907,5.937 24.381,7.082 24.381,8.275C24.381,9.469 23.907,10.613 23.063,11.457C22.219,12.301 21.074,12.775 19.881,12.775C18.687,12.775 17.543,12.301 16.699,11.457C15.855,10.613 15.381,9.469 15.381,8.275ZM7.881,12.025C9.414,12.015 10.931,12.345 12.321,12.992C13.711,13.638 14.941,14.585 15.921,15.765C18.074,14.882 20.46,14.744 22.7,15.372C24.941,16 26.907,17.359 28.287,19.233L28.506,19.531L28.506,27.025L-0.744,27.025L-0.744,16.53L-0.524,16.231C0.447,14.917 1.714,13.852 3.174,13.121C4.635,12.39 6.248,12.014 7.881,12.025ZM13.506,24.775L26.256,24.775L26.256,20.283C25.488,19.331 24.517,18.563 23.414,18.035C22.311,17.508 21.104,17.234 19.881,17.234C18.658,17.234 17.451,17.508 16.348,18.035C15.245,18.563 14.273,19.331 13.506,20.283L13.506,24.775ZM11.256,24.775L1.506,24.775L1.506,17.284C2.273,16.336 3.244,15.574 4.346,15.053C5.449,14.532 6.654,14.266 7.873,14.275L7.888,14.275C9.015,14.266 10.132,14.492 11.167,14.939C12.201,15.385 13.131,16.043 13.897,16.87C12.967,17.521 12.149,18.319 11.475,19.233L11.256,19.531L11.256,24.775Z" clip-rule="evenodd" fill-rule="evenodd" fill="#000000"/>
</svg>
