<svg width="26" height="34" viewBox="0 0 26 34" fill="none" xmlns="http://www.w3.org/2000/svg" xmlns:xlink="http://www.w3.org/1999/xlink">
<path d="M-0.916,12.232C-0.916,5.153 4.897,-0.613 12.001,-0.613C19.104,-0.613 24.917,5.153 24.917,12.232C24.917,16.032 23.021,19.693 20.799,22.77C18.616,25.792 15.994,28.417 14.171,30.242L14.032,30.38L14.029,30.383L11.987,32.413L9.966,30.342L9.916,30.292L9.896,30.27C8.062,28.45 5.387,25.792 3.171,22.72C0.964,19.657 -0.916,16.013 -0.916,12.232ZM12.001,1.887C6.264,1.887 1.584,6.548 1.584,12.232C1.584,15.225 3.096,18.34 5.201,21.257C7.287,24.15 9.831,26.683 11.677,28.518L11.749,28.588L12.016,28.862L12.262,28.613L12.266,28.61L12.367,28.51C14.206,26.668 16.709,24.163 18.772,21.307C20.891,18.373 22.417,15.24 22.417,12.232C22.417,6.548 17.737,1.887 12.001,1.887ZM14.832,10.242C14.521,9.491 13.925,8.894 13.174,8.583C12.423,8.272 11.58,8.272 10.829,8.583C10.457,8.737 10.119,8.963 9.835,9.248C9.55,9.532 9.325,9.87 9.171,10.242C8.86,10.992 8.86,11.836 9.171,12.587C9.325,12.959 9.55,13.296 9.835,13.581C10.119,13.866 10.457,14.092 10.829,14.246C11.201,14.4 11.599,14.479 12.002,14.479C12.404,14.479 12.803,14.4 13.175,14.246C13.547,14.092 13.885,13.866 14.169,13.582C14.454,13.297 14.68,12.959 14.834,12.587C14.988,12.216 15.067,11.817 15.067,11.415C15.067,11.012 14.986,10.614 14.832,10.242ZM9.874,6.275C10.549,5.995 11.272,5.852 12.003,5.852C12.734,5.851 13.457,5.995 14.132,6.275C14.807,6.555 15.42,6.964 15.937,7.481C16.454,7.998 16.864,8.611 17.143,9.286C17.423,9.961 17.567,10.684 17.567,11.415C17.567,12.146 17.423,12.869 17.143,13.544C16.864,14.219 16.454,14.832 15.937,15.349C15.421,15.866 14.807,16.275 14.132,16.555C13.457,16.835 12.734,16.979 12.003,16.979C11.272,16.978 10.549,16.835 9.874,16.555C8.51,15.99 7.427,14.907 6.862,13.543C6.298,12.18 6.298,10.648 6.862,9.285C7.427,7.921 8.511,6.84 9.874,6.275Z" clip-rule="evenodd" fill-rule="evenodd" fill="#333333"/>
</svg>
