<svg width="34" height="30" viewBox="0 0 34 30" fill="none" xmlns="http://www.w3.org/2000/svg" xmlns:xlink="http://www.w3.org/1999/xlink">
<path d="M12.014,1.895L12.014,-0.585L9.73,-0.585L9.73,2.14L9.749,2.14L9.749,10.507L8.505,10.507L8.505,7.41L8.489,7.41L8.489,5.145L6.205,5.145L6.205,7.408L5.092,7.408L5.092,5.145L2.809,5.145L2.809,7.408L1.717,7.408L1.717,5.145L-0.566,5.145L-0.566,7.408L-0.6,7.408L-0.6,29.385L13.284,29.385L13.284,19.618C13.289,19.607 13.305,19.555 13.369,19.497C13.445,19.427 13.689,19.25 14.329,19.25L17.705,19.25C17.862,19.276 18.011,19.339 18.139,19.433C18.205,19.487 18.257,19.549 18.292,19.62C18.325,19.688 18.364,19.803 18.364,19.987L18.364,29.387L32.604,29.387L32.604,7.407L32.579,7.407L32.579,5.145L30.295,5.145L30.295,7.408L29.077,7.408L29.077,5.145L26.794,5.145L26.794,7.408L25.652,7.408L25.652,5.145L23.369,5.145L23.369,7.408L23.357,7.408L23.357,10.508L21.747,10.508L21.747,1.895L21.73,1.895L21.73,-0.585L19.447,-0.585L19.447,1.895L18.427,1.895L18.427,-0.585L16.144,-0.585L16.144,1.895L15.357,1.895L15.357,-0.585L13.074,-0.585L13.074,1.895L12.014,1.895ZM12.032,4.178L12.032,12.79L6.222,12.79L6.222,9.69L1.682,9.69L1.682,27.103L10.999,27.103L10.999,19.548C11.012,19.007 11.252,18.343 11.815,17.82C12.4,17.28 13.244,16.967 14.327,16.967L17.807,16.967L17.852,16.97C18.325,17.008 18.99,17.193 19.564,17.65C20.18,18.145 20.645,18.923 20.645,19.987L20.645,27.103L30.319,27.103L30.319,9.692L25.639,9.692L25.639,12.792L19.462,12.792L19.462,4.177L12.032,4.178Z" clip-rule="evenodd" fill-rule="evenodd" fill="#FFFFFF"/>
</svg>
