<svg width="42" height="44" viewBox="0 0 42 44" fill="none" xmlns="http://www.w3.org/2000/svg" xmlns:xlink="http://www.w3.org/1999/xlink">
<path d="M41.586,2.675L23.553,42.579C23.402,42.913 23.146,43.187 22.825,43.358C22.504,43.529 22.137,43.588 21.78,43.525C21.422,43.461 21.096,43.28 20.852,43.008C20.607,42.737 20.458,42.391 20.428,42.024L18.904,23.475L0.613,21.928C0.252,21.898 -0.089,21.747 -0.357,21.499C-0.625,21.251 -0.804,20.92 -0.866,20.558C-0.929,20.196 -0.871,19.823 -0.702,19.498C-0.534,19.172 -0.263,18.913 0.066,18.76L39.413,0.471C39.717,0.329 40.056,0.286 40.386,0.346C40.715,0.406 41.018,0.566 41.255,0.806C41.491,1.046 41.65,1.354 41.709,1.688C41.768,2.022 41.725,2.366 41.586,2.675L41.586,2.675Z" fill="#080809"/>
</svg>
