<svg width="32" height="38" viewBox="0 0 32 38" fill="none" xmlns="http://www.w3.org/2000/svg" xmlns:xlink="http://www.w3.org/1999/xlink">
<path d="M4.16,12.1L3.6,12.1C2.672,12.1 1.782,12.469 1.125,13.125C0.469,13.782 0.1,14.672 0.1,15.6L0.1,33.6C0.1,35.532 1.668,37.1 3.6,37.1L27.6,37.1C28.528,37.1 29.418,36.731 30.075,36.075C30.731,35.418 31.1,34.528 31.1,33.6L31.1,15.6C31.1,14.672 30.731,13.782 30.075,13.125C29.418,12.469 28.528,12.1 27.6,12.1L27.04,12.1C26.826,9.364 26.012,6.646 24.44,4.472C22.54,1.84 19.596,0.1 15.6,0.1C11.604,0.1 8.66,1.84 6.76,4.472C5.188,6.646 4.374,9.364 4.16,12.1ZM7.17,12.1L24.03,12.1C23.822,9.878 23.15,7.806 22.01,6.228C20.658,4.36 18.606,3.1 15.6,3.1C12.594,3.1 10.54,4.36 9.192,6.228C8.052,7.806 7.376,9.878 7.17,12.1ZM3.6,15.1C3.467,15.1 3.34,15.153 3.246,15.247C3.153,15.34 3.1,15.467 3.1,15.6L3.1,33.6C3.1,33.876 3.324,34.1 3.6,34.1L27.6,34.1C27.733,34.1 27.86,34.047 27.954,33.954C28.047,33.86 28.1,33.733 28.1,33.6L28.1,15.6C28.1,15.467 28.047,15.34 27.954,15.247C27.86,15.153 27.733,15.1 27.6,15.1L3.6,15.1ZM14.1,28.6L14.1,20.6L17.1,20.6L17.1,28.6L14.1,28.6Z" clip-rule="evenodd" fill-rule="evenodd" fill="#757575"/>
</svg>
