<svg width="26" height="28" viewBox="0 0 26 28" fill="none" xmlns="http://www.w3.org/2000/svg" xmlns:xlink="http://www.w3.org/1999/xlink">
<path d="M12.92,2.2C10.003,2.2 7.205,3.359 5.142,5.422C3.079,7.485 1.92,10.283 1.92,13.2C1.92,16.117 3.079,18.915 5.142,20.978C7.205,23.041 10.003,24.2 12.92,24.2C15.837,24.2 18.635,23.041 20.698,20.978C22.761,18.915 23.92,16.117 23.92,13.2C23.92,10.283 22.761,7.485 20.698,5.422C18.635,3.359 15.837,2.2 12.92,2.2ZM-0.08,13.2C-0.08,6.02 5.74,0.2 12.92,0.2C20.1,0.2 25.92,6.02 25.92,13.2C25.92,20.38 20.1,26.2 12.92,26.2C5.74,26.2 -0.08,20.38 -0.08,13.2ZM11.92,5.867L13.92,5.867L13.92,12.787L18.293,17.16L16.88,18.573L11.92,13.613L11.92,5.867Z" clip-rule="evenodd" fill-rule="evenodd" fill="#000000"/>
</svg>
