<svg width="54" height="62" viewBox="0 0 54 62" fill="none" xmlns="http://www.w3.org/2000/svg" xmlns:xlink="http://www.w3.org/1999/xlink">
<path d="M7.131,19.1L6.2,19.1C2.977,19.1 0.367,21.712 0.367,24.933L0.367,54.933C0.367,58.155 2.978,60.767 6.2,60.767L46.2,60.767C49.422,60.767 52.033,58.155 52.033,54.933L52.033,24.933C52.033,21.712 49.422,19.1 46.2,19.1L45.269,19.1C44.911,14.542 43.552,10.01 40.935,6.386C37.769,2.003 32.857,-0.9 26.2,-0.9C19.543,-0.9 14.631,2.003 11.465,6.386C8.848,10.01 7.489,14.542 7.131,19.1ZM12.149,19.1L40.251,19.1C39.905,15.395 38.78,11.943 36.882,9.314C34.631,6.197 31.209,4.1 26.2,4.1C21.191,4.1 17.769,6.197 15.518,9.314C13.62,11.943 12.495,15.395 12.149,19.1ZM6.2,24.1C5.74,24.1 5.367,24.473 5.367,24.933L5.367,54.933C5.367,55.394 5.74,55.767 6.2,55.767L46.2,55.767C46.66,55.767 47.033,55.394 47.033,54.933L47.033,24.933C47.033,24.473 46.66,24.1 46.2,24.1L6.2,24.1ZM23.7,46.6L23.7,33.267L28.7,33.267L28.7,46.6L23.7,46.6Z" clip-rule="evenodd" fill-rule="evenodd" fill="#000000"/>
</svg>
