<svg width="28" height="26" viewBox="0 0 28 26" fill="none" xmlns="http://www.w3.org/2000/svg" xmlns:xlink="http://www.w3.org/1999/xlink">
<path d="M13.479,1.8C10.562,1.8 7.764,2.959 5.701,5.022C3.638,7.085 2.479,9.883 2.479,12.8C2.479,15.717 3.638,18.515 5.701,20.578C7.764,22.641 10.562,23.8 13.479,23.8C16.397,23.8 19.195,22.641 21.258,20.578C23.32,18.515 24.479,15.717 24.479,12.8C24.479,9.883 23.32,7.085 21.258,5.022C19.195,2.959 16.397,1.8 13.479,1.8ZM0.479,12.8C0.479,5.62 6.299,-0.2 13.479,-0.2C20.659,-0.2 26.479,5.62 26.479,12.8C26.479,19.98 20.659,25.8 13.479,25.8C6.299,25.8 0.479,19.98 0.479,12.8ZM12.479,5.467L14.479,5.467L14.479,12.387L18.853,16.76L17.439,18.173L12.479,13.213L12.479,5.467Z" clip-rule="evenodd" fill-rule="evenodd" fill="#000000"/>
</svg>
