<svg width="40" height="38" viewBox="0 0 40 38" fill="none" xmlns="http://www.w3.org/2000/svg" xmlns:xlink="http://www.w3.org/1999/xlink">
<path d="M36.757,-0.936C36.551,-0.936 36.347,-0.888 36.162,-0.796L26.082,4.245L14.685,-0.821C14.666,-0.829 14.645,-0.83 14.625,-0.838C14.574,-0.857 14.521,-0.873 14.468,-0.886C14.415,-0.9 14.361,-0.912 14.307,-0.919C14.199,-0.928 14.09,-0.928 13.983,-0.919C13.928,-0.912 13.875,-0.9 13.822,-0.886C13.768,-0.873 13.716,-0.857 13.665,-0.838C13.645,-0.83 13.623,-0.829 13.605,-0.821L1.634,4.499C1.153,4.713 0.844,5.189 0.844,5.715L0.844,34.977C0.844,35.427 1.072,35.847 1.449,36.092C1.826,36.338 2.302,36.376 2.714,36.193L14.145,31.112L25.576,36.193C25.596,36.201 25.617,36.193 25.637,36.205C25.959,36.349 26.329,36.341 26.644,36.182C26.665,36.173 26.689,36.182 26.71,36.168L37.351,30.847C37.802,30.622 38.087,30.161 38.087,29.657L38.087,0.395C38.087,-0.34 37.492,-0.936 36.757,-0.936ZM12.815,28.792L3.504,32.93L3.504,6.58L12.815,2.442L12.815,28.792ZM24.786,32.93L15.475,28.792L15.475,2.442L24.786,6.58L24.786,32.93ZM35.426,28.835L27.446,32.825L27.446,6.537L35.426,2.547L35.426,28.835L35.426,28.835Z" fill="#84829A"/>
</svg>
