<svg width="62" height="74" viewBox="0 0 62 74" fill="none" xmlns="http://www.w3.org/2000/svg" xmlns:xlink="http://www.w3.org/1999/xlink">
<path d="M7.317,23.8L6.199,23.8C2.333,23.8 -0.8,26.935 -0.8,30.8L-0.8,66.8C-0.8,70.666 2.334,73.8 6.2,73.8L54.2,73.8C58.066,73.8 61.2,70.666 61.2,66.8L61.2,30.8C61.2,26.935 58.067,23.8 54.2,23.8L53.083,23.8C52.654,18.33 51.023,12.892 47.882,8.544C44.083,3.284 38.189,-0.2 30.2,-0.2C22.211,-0.2 16.317,3.284 12.518,8.544C9.377,12.892 7.746,18.33 7.317,23.8ZM13.338,23.8L47.062,23.8C46.646,19.355 45.296,15.212 43.018,12.057C40.317,8.317 36.211,5.8 30.2,5.8C24.189,5.8 20.083,8.317 17.382,12.057C15.104,15.212 13.754,19.355 13.338,23.8ZM6.199,29.8C5.648,29.8 5.2,30.247 5.2,30.8L5.2,66.8C5.2,67.353 5.648,67.8 6.2,67.8L54.2,67.8C54.752,67.8 55.2,67.353 55.2,66.8L55.2,30.8C55.2,30.247 54.752,29.8 54.2,29.8L6.199,29.8ZM27.2,56.8L27.2,40.8L33.2,40.8L33.2,56.8L27.2,56.8Z" clip-rule="evenodd" fill-rule="evenodd" fill="#000000"/>
</svg>
