<svg width="26" height="28" viewBox="0 0 26 28" fill="none" xmlns="http://www.w3.org/2000/svg" xmlns:xlink="http://www.w3.org/1999/xlink">
<path d="M6.67,0.025C6.818,0.025 6.964,0.055 7.101,0.112C7.237,0.169 7.361,0.252 7.465,0.357C7.569,0.461 7.652,0.586 7.708,0.722C7.764,0.859 7.793,1.005 7.792,1.153L7.789,2.275L11.557,2.275L11.557,1.15C11.557,0.852 11.676,0.566 11.887,0.355C12.098,0.144 12.384,0.025 12.682,0.025C12.981,0.025 13.267,0.144 13.478,0.355C13.689,0.566 13.807,0.852 13.807,1.15L13.807,2.275L17.515,2.275L17.512,1.153C17.512,1.005 17.541,0.859 17.597,0.722C17.653,0.586 17.736,0.461 17.84,0.357C17.944,0.252 18.068,0.169 18.204,0.112C18.34,0.055 18.487,0.025 18.634,0.025C18.782,0.025 18.928,0.053 19.065,0.11C19.202,0.166 19.326,0.248 19.431,0.352C19.536,0.457 19.619,0.58 19.676,0.717C19.733,0.853 19.762,0.999 19.762,1.147L19.765,2.275L25.792,2.275L25.792,27.775L-0.473,27.775L-0.473,2.275L5.539,2.275L5.542,1.147C5.543,0.999 5.572,0.853 5.629,0.717C5.686,0.58 5.769,0.457 5.874,0.352C5.979,0.248 6.103,0.166 6.24,0.11C6.376,0.053 6.523,0.025 6.67,0.025ZM5.533,4.525L1.777,4.525L1.777,25.525L23.542,25.525L23.542,4.525L19.773,4.525L19.782,7.146L17.532,7.153L17.523,4.525L13.807,4.525L13.807,7.15L11.557,7.15L11.557,4.525L7.783,4.525L7.777,7.153L5.527,7.147L5.533,4.525ZM5.527,13.525L13.777,13.525L13.777,21.775L5.527,21.775L5.527,13.525ZM7.777,15.775L7.777,19.525L11.527,19.525L11.527,15.775L7.777,15.775Z" clip-rule="evenodd" fill-rule="evenodd" fill="#000000"/>
</svg>
