<svg width="28" height="26" viewBox="0 0 28 26" fill="none" xmlns="http://www.w3.org/2000/svg" xmlns:xlink="http://www.w3.org/1999/xlink">
<path d="M15.704,2.721L19.267,-0.84L20.68,0.573L17.119,4.136C16.213,5.041 15.712,6.085 15.625,7.068C15.568,7.735 15.697,8.405 16.061,9.031L22.6,2.493L24.013,3.907L17.472,10.448C18.103,10.823 18.771,10.964 19.427,10.92C20.384,10.857 21.383,10.395 22.221,9.556C23.359,8.418 24.494,7.277 25.627,6.133L25.928,5.829L27.351,7.236L27.048,7.543C25.912,8.687 24.775,9.829 23.635,10.969C22.503,12.101 21.065,12.815 19.559,12.915C18.298,12.999 17.049,12.636 16.029,11.891L14.388,13.533L24.681,23.827L23.267,25.24L15.307,17.28L11.307,21.28L8.973,18.947L2.68,25.24L1.267,23.827L7.56,17.533L1.704,11.679C1.116,11.091 0.649,10.392 0.331,9.624C0.012,8.856 -0.151,8.032 -0.151,7.2C-0.151,6.368 0.012,5.545 0.331,4.776C0.649,4.008 1.116,3.31 1.704,2.721L2.64,1.785L12.973,12.119L14.617,10.476C13.868,9.44 13.519,8.168 13.635,6.895C13.768,5.365 14.527,3.9 15.704,2.721ZM13.893,15.867L2.677,4.651C2.07,5.486 1.781,6.51 1.861,7.539C1.942,8.568 2.387,9.534 3.117,10.264L11.307,18.452L13.893,15.867Z" clip-rule="evenodd" fill-rule="evenodd" fill="#000000"/>
</svg>
