<svg width="26" height="28" viewBox="0 0 26 28" fill="none" xmlns="http://www.w3.org/2000/svg" xmlns:xlink="http://www.w3.org/1999/xlink">
<path d="M1.725,13.6C1.725,10.663 2.771,8.152 4.865,6.069C6.959,3.986 9.475,2.944 12.412,2.944L12.412,0.256C8.808,0.256 5.652,1.548 2.943,4.131C0.339,6.715 -0.963,9.871 -0.963,13.6C-0.963,17.329 0.339,20.486 2.943,23.069L0.412,25.6L7.068,25.6L7.068,18.944L4.943,21.069C3.943,20.131 3.157,19.001 2.584,17.678C2.011,16.355 1.725,14.996 1.725,13.6ZM13.068,20.256C13.506,20.256 13.725,20.038 13.725,19.6L13.725,12.006C13.725,11.736 13.683,11.558 13.6,11.475L9.881,7.725C9.714,7.6 9.558,7.538 9.412,7.538C9.225,7.538 9.068,7.6 8.943,7.725L8.006,8.663C7.86,8.808 7.787,8.965 7.787,9.131C7.787,9.298 7.86,9.454 8.006,9.6L10.943,12.538C10.943,12.579 10.964,12.668 11.006,12.803C11.048,12.939 11.068,13.027 11.068,13.069L11.068,19.6C11.068,20.038 11.287,20.256 11.725,20.256L13.068,20.256ZM23.068,13.6C23.068,16.538 22.022,19.048 19.928,21.131C17.834,23.215 15.329,24.256 12.412,24.256L12.412,26.944C16.079,26.944 19.214,25.637 21.818,23.022C24.423,20.407 25.725,17.267 25.725,13.6L23.068,13.6ZM24.006,10.944L25.725,9.069L18.006,0.944L13.725,5.475L15.6,7.319L18.006,4.663L24.006,10.944Z" fill="#000000"/>
</svg>
