<svg width="28" height="24" viewBox="0 0 28 24" fill="none" xmlns="http://www.w3.org/2000/svg" xmlns:xlink="http://www.w3.org/1999/xlink">
<path d="M10.41,1.596L10.41,-0.388L8.583,-0.388L8.583,1.792L8.598,1.792L8.598,8.486L7.603,8.486L7.603,6.008L7.59,6.008L7.59,4.196L5.763,4.196L5.763,6.007L4.873,6.007L4.873,4.196L3.046,4.196L3.046,6.007L2.173,6.007L2.173,4.196L0.346,4.196L0.346,6.007L0.319,6.007L0.319,23.588L11.426,23.588L11.426,15.775C11.43,15.766 11.443,15.724 11.494,15.678C11.555,15.622 11.75,15.48 12.262,15.48L14.963,15.48C15.089,15.501 15.208,15.551 15.31,15.627C15.363,15.67 15.404,15.719 15.433,15.776C15.459,15.831 15.49,15.923 15.49,16.07L15.49,23.59L26.882,23.59L26.882,6.006L26.862,6.006L26.862,4.196L25.035,4.196L25.035,6.007L24.061,6.007L24.061,4.196L22.234,4.196L22.234,6.007L21.321,6.007L21.321,4.196L19.494,4.196L19.494,6.007L19.485,6.007L19.485,8.487L18.197,8.487L18.197,1.596L18.183,1.596L18.183,-0.388L16.357,-0.388L16.357,1.596L15.541,1.596L15.541,-0.388L13.714,-0.388L13.714,1.596L13.085,1.596L13.085,-0.388L11.258,-0.388L11.258,1.596L10.41,1.596ZM10.425,3.423L10.425,10.312L5.777,10.312L5.777,7.832L2.145,7.832L2.145,21.763L9.598,21.763L9.598,15.719C9.609,15.286 9.801,14.755 10.251,14.336C10.719,13.904 11.394,13.654 12.261,13.654L15.045,13.654L15.081,13.656C15.459,13.687 15.991,13.835 16.45,14.2C16.943,14.596 17.315,15.219 17.315,16.07L17.315,21.763L25.054,21.763L25.054,7.834L21.31,7.834L21.31,10.314L16.369,10.314L16.369,3.422L10.425,3.423Z" clip-rule="evenodd" fill-rule="evenodd" fill="#000000"/>
</svg>
