<svg width="28" height="26" viewBox="0 0 28 26" fill="none" xmlns="http://www.w3.org/2000/svg" xmlns:xlink="http://www.w3.org/1999/xlink">
<path d="M13.119,1C10.202,1 7.404,2.159 5.341,4.222C3.278,6.285 2.119,9.083 2.119,12C2.119,14.917 3.278,17.715 5.341,19.778C7.404,21.841 10.202,23 13.119,23C16.037,23 18.834,21.841 20.897,19.778C22.96,17.715 24.119,14.917 24.119,12C24.119,9.083 22.96,6.285 20.897,4.222C18.834,2.159 16.037,1 13.119,1ZM0.119,12C0.119,4.82 5.939,-1 13.119,-1C20.299,-1 26.119,4.82 26.119,12C26.119,19.18 20.299,25 13.119,25C5.939,25 0.119,19.18 0.119,12ZM12.119,4.667L14.119,4.667L14.119,11.587L18.492,15.96L17.079,17.373L12.119,12.413L12.119,4.667Z" clip-rule="evenodd" fill-rule="evenodd" fill="#000000"/>
</svg>
