<svg width="44" height="50" viewBox="0 0 44 50" fill="none" xmlns="http://www.w3.org/2000/svg" xmlns:xlink="http://www.w3.org/1999/xlink">
<path d="M21.199,4.659C20.361,4.659 19.532,4.824 18.759,5.144C17.986,5.464 17.283,5.934 16.691,6.526C16.099,7.118 15.629,7.821 15.309,8.594C14.988,9.368 14.824,10.197 14.824,11.034C14.824,11.871 14.988,12.7 15.309,13.473C15.629,14.247 16.099,14.95 16.691,15.541C17.283,16.133 17.986,16.603 18.759,16.923C19.532,17.244 20.361,17.409 21.199,17.409C22.889,17.409 24.511,16.737 25.706,15.541C26.902,14.346 27.574,12.724 27.574,11.034C27.574,9.343 26.902,7.721 25.706,6.526C24.511,5.33 22.889,4.659 21.199,4.659ZM10.574,11.034C10.574,8.216 11.693,5.513 13.686,3.521C15.678,1.528 18.381,0.409 21.199,0.409C24.016,0.409 26.719,1.528 28.712,3.521C30.704,5.513 31.824,8.216 31.824,11.034C31.824,13.852 30.704,16.554 28.712,18.547C26.719,20.539 24.016,21.659 21.199,21.659C18.381,21.659 15.678,20.539 13.686,18.547C11.693,16.554 10.574,13.852 10.574,11.034ZM-0.264,35.624C4.675,29.725 12.463,25.909 21.241,25.909C29.973,25.909 37.731,29.683 42.655,35.525L43.157,36.12L43.157,49.992L-0.76,49.992L-0.76,36.216L-0.264,35.624ZM3.49,37.78L3.49,45.742L38.907,45.742L38.907,37.695C34.784,33.148 28.452,30.159 21.244,30.159C13.991,30.159 7.63,33.185 3.49,37.78Z" clip-rule="evenodd" fill-rule="evenodd" fill="#000000"/>
</svg>
