<svg width="36" height="34" viewBox="0 0 36 34" fill="none" xmlns="http://www.w3.org/2000/svg" xmlns:xlink="http://www.w3.org/1999/xlink">
<path d="M20.63,5.352L25.083,0.9L26.85,2.667L22.398,7.12C21.266,8.252 20.64,9.557 20.531,10.785C20.46,11.619 20.621,12.457 21.076,13.239L29.25,5.067L31.016,6.834L22.84,15.01C23.628,15.479 24.463,15.655 25.283,15.6C26.48,15.522 27.728,14.944 28.776,13.895C30.198,12.472 31.617,11.046 33.033,9.617L33.41,9.237L35.188,10.995L34.81,11.379C33.39,12.809 31.968,14.237 30.543,15.662C29.128,17.077 27.331,17.969 25.448,18.094C23.873,18.199 22.311,17.746 21.036,16.814L18.985,18.867L31.851,31.734L30.083,33.5L20.133,23.55L15.133,28.55L12.216,25.634L4.35,33.5L2.583,31.734L10.45,23.867L3.13,16.549C2.394,15.814 1.811,14.941 1.413,13.98C1.015,13.02 0.811,11.99 0.811,10.95C0.811,9.911 1.015,8.881 1.413,7.921C1.811,6.96 2.394,6.087 3.13,5.352L4.3,4.182L17.216,17.099L19.271,15.045C18.335,13.75 17.898,12.16 18.043,10.569C18.21,8.657 19.158,6.825 20.63,5.352ZM18.366,21.784L4.346,7.764C3.587,8.807 3.226,10.087 3.326,11.374C3.427,12.66 3.984,13.868 4.896,14.78L15.133,25.015L18.366,21.784Z" clip-rule="evenodd" fill-rule="evenodd" fill="#FFFFFF"/>
</svg>
