<svg width="36" height="42" viewBox="0 0 36 42" fill="none" xmlns="http://www.w3.org/2000/svg" xmlns:xlink="http://www.w3.org/1999/xlink">
<path d="M30.135,27.866C31.339,27.866 32.373,27.443 33.235,26.597C34.098,25.75 34.529,24.709 34.529,23.472L34.529,3.745C34.529,2.541 34.098,1.507 33.235,0.645C32.373,-0.218 31.339,-0.649 30.135,-0.649L3.865,-0.649C2.661,-0.649 1.627,-0.218 0.765,0.645C-0.098,1.507 -0.529,2.541 -0.529,3.745L-0.529,23.472C-0.529,24.709 -0.098,25.75 0.765,26.597C1.627,27.443 2.661,27.866 3.865,27.866L3.963,27.866C4.288,31.024 5.249,33.742 6.844,36.021C9.285,39.373 12.671,41.05 17,41.05C21.33,41.05 24.715,39.373 27.156,36.021C28.751,33.742 29.712,31.024 30.037,27.866L30.135,27.866ZM10.408,33.433C9.367,32 8.683,30.145 8.357,27.866L25.643,27.866C25.317,30.145 24.634,32 23.592,33.433C22.062,35.581 19.865,36.655 17,36.655C14.135,36.655 11.938,35.581 10.408,33.433ZM30.135,3.745L30.135,23.472L3.865,23.472L3.865,3.745L30.135,3.745ZM19.197,9.214L14.803,9.214L14.803,18.003L19.197,18.003L19.197,9.214Z" fill="#000000"/>
</svg>
