<svg width="28" height="24" viewBox="0 0 28 24" fill="none" xmlns="http://www.w3.org/2000/svg" xmlns:xlink="http://www.w3.org/1999/xlink">
<path d="M10.41,1.996L10.41,0.012L8.583,0.012L8.583,2.192L8.598,2.192L8.598,8.886L7.603,8.886L7.603,6.408L7.59,6.408L7.59,4.596L5.763,4.596L5.763,6.407L4.873,6.407L4.873,4.596L3.046,4.596L3.046,6.407L2.173,6.407L2.173,4.596L0.346,4.596L0.346,6.407L0.319,6.407L0.319,23.988L11.426,23.988L11.426,16.175C11.43,16.166 11.443,16.124 11.494,16.078C11.555,16.022 11.75,15.88 12.262,15.88L14.963,15.88C15.089,15.901 15.208,15.951 15.31,16.027C15.363,16.07 15.404,16.119 15.433,16.176C15.459,16.231 15.49,16.323 15.49,16.47L15.49,23.99L26.882,23.99L26.882,6.406L26.862,6.406L26.862,4.596L25.035,4.596L25.035,6.407L24.061,6.407L24.061,4.596L22.234,4.596L22.234,6.407L21.321,6.407L21.321,4.596L19.494,4.596L19.494,6.407L19.485,6.407L19.485,8.887L18.197,8.887L18.197,1.996L18.183,1.996L18.183,0.012L16.357,0.012L16.357,1.996L15.541,1.996L15.541,0.012L13.714,0.012L13.714,1.996L13.085,1.996L13.085,0.012L11.258,0.012L11.258,1.996L10.41,1.996ZM10.425,3.823L10.425,10.712L5.777,10.712L5.777,8.232L2.145,8.232L2.145,22.163L9.598,22.163L9.598,16.119C9.609,15.686 9.801,15.155 10.251,14.736C10.719,14.304 11.394,14.054 12.261,14.054L15.045,14.054L15.081,14.056C15.459,14.087 15.991,14.235 16.45,14.6C16.943,14.996 17.315,15.619 17.315,16.47L17.315,22.163L25.054,22.163L25.054,8.234L21.31,8.234L21.31,10.714L16.369,10.714L16.369,3.822L10.425,3.823Z" clip-rule="evenodd" fill-rule="evenodd" fill="#000000"/>
</svg>
