<svg width="28" height="28" viewBox="0 0 28 28" fill="none" xmlns="http://www.w3.org/2000/svg" xmlns:xlink="http://www.w3.org/1999/xlink">
<path d="M13.6,2.6C10.682,2.6 7.884,3.759 5.821,5.822C3.759,7.885 2.6,10.683 2.6,13.6C2.6,16.517 3.759,19.315 5.821,21.378C7.884,23.441 10.682,24.6 13.6,24.6C16.517,24.6 19.315,23.441 21.378,21.378C23.441,19.315 24.6,16.517 24.6,13.6C24.6,10.683 23.441,7.885 21.378,5.822C19.315,3.759 16.517,2.6 13.6,2.6ZM0.6,13.6C0.6,6.42 6.42,0.6 13.6,0.6C20.78,0.6 26.6,6.42 26.6,13.6C26.6,20.78 20.78,26.6 13.6,26.6C6.42,26.6 0.6,20.78 0.6,13.6ZM12.6,6.267L14.6,6.267L14.6,13.187L18.973,17.56L17.56,18.973L12.6,14.013L12.6,6.267Z" clip-rule="evenodd" fill-rule="evenodd" fill="#000000"/>
</svg>
