<svg width="22" height="28" viewBox="0 0 22 28" fill="none" xmlns="http://www.w3.org/2000/svg" xmlns:xlink="http://www.w3.org/1999/xlink">
<path d="M2.719,23.913C2.719,23.913 3.224,24.418 4.234,25.428C5.245,26.439 7.167,26.944 10,26.944C12.833,26.944 15.26,25.933 17.281,23.913C19.302,21.892 20.313,19.465 20.313,16.631C20.313,15.486 20.078,14.267 19.609,12.975C19.141,11.683 18.615,10.553 18.031,9.584C17.448,8.616 16.646,7.522 15.625,6.303C14.604,5.084 13.818,4.183 13.266,3.6C12.714,3.017 11.958,2.246 11,1.288L10,0.256L9,1.319C8.063,2.236 7.307,2.996 6.734,3.6C6.161,4.204 5.375,5.111 4.375,6.319C3.375,7.527 2.578,8.621 1.984,9.6C1.391,10.579 0.859,11.709 0.391,12.991C-0.078,14.272 -0.313,15.486 -0.313,16.631C-0.313,19.465 0.698,21.892 2.719,23.913ZM6.703,13.647C6.703,13.647 6.93,13.42 7.383,12.967C7.836,12.514 8.708,12.288 10,12.288C11.292,12.288 12.391,12.741 13.297,13.647C14.203,14.553 14.656,15.652 14.656,16.944C14.656,18.236 14.203,19.34 13.297,20.256C12.391,21.173 11.292,21.631 10,21.631C8.708,21.631 7.609,21.173 6.703,20.256C5.797,19.34 5.344,18.236 5.344,16.944C5.344,15.652 5.797,14.553 6.703,13.647Z" fill="#333333"/>
</svg>
