<svg width="34" height="24" viewBox="0 0 34 24" fill="none" xmlns="http://www.w3.org/2000/svg" xmlns:xlink="http://www.w3.org/1999/xlink">
<path d="M16.014,2.893C15.517,2.893 15.04,3.09 14.689,3.442C14.337,3.793 14.139,4.27 14.139,4.768C14.139,5.265 14.337,5.742 14.689,6.093C15.04,6.445 15.517,6.643 16.014,6.643C16.512,6.643 16.989,6.445 17.34,6.093C17.692,5.742 17.889,5.265 17.889,4.768C17.889,4.27 17.692,3.793 17.34,3.442C16.989,3.09 16.512,2.893 16.014,2.893ZM11.889,4.768C11.889,3.674 12.324,2.624 13.098,1.851C13.871,1.077 14.92,0.643 16.014,0.643C17.108,0.643 18.158,1.077 18.931,1.851C19.705,2.624 20.139,3.674 20.139,4.768C20.139,5.862 19.705,6.911 18.931,7.684C18.158,8.458 17.108,8.893 16.014,8.893C14.92,8.893 13.871,8.458 13.098,7.684C12.324,6.911 11.889,5.862 11.889,4.768ZM5.889,5.893C5.392,5.893 4.915,6.09 4.564,6.442C4.212,6.793 4.014,7.27 4.014,7.768C4.014,8.265 4.212,8.742 4.564,9.093C4.915,9.445 5.392,9.643 5.889,9.643C6.387,9.643 6.864,9.445 7.215,9.093C7.567,8.742 7.764,8.265 7.764,7.768C7.764,7.27 7.567,6.793 7.215,6.442C6.864,6.09 6.387,5.893 5.889,5.893ZM1.764,7.768C1.764,6.674 2.199,5.624 2.973,4.851C3.746,4.077 4.795,3.643 5.889,3.643C6.983,3.643 8.033,4.077 8.806,4.851C9.58,5.624 10.014,6.674 10.014,7.768C10.014,8.862 9.58,9.911 8.806,10.684C8.033,11.458 6.983,11.893 5.889,11.893C4.795,11.893 3.746,11.458 2.973,10.684C2.199,9.911 1.764,8.862 1.764,7.768ZM26.139,5.893C25.642,5.893 25.165,6.09 24.814,6.442C24.462,6.793 24.264,7.27 24.264,7.768C24.264,8.265 24.462,8.742 24.814,9.093C25.165,9.445 25.642,9.643 26.139,9.643C26.637,9.643 27.114,9.445 27.465,9.093C27.817,8.742 28.014,8.265 28.014,7.768C28.014,7.27 27.817,6.793 27.465,6.442C27.114,6.09 26.637,5.893 26.139,5.893ZM22.014,7.768C22.014,6.674 22.449,5.624 23.223,4.851C23.996,4.077 25.045,3.643 26.139,3.643C27.233,3.643 28.283,4.077 29.056,4.851C29.83,5.624 30.264,6.674 30.264,7.768C30.264,8.862 29.83,9.911 29.056,10.684C28.283,11.458 27.233,11.893 26.139,11.893C25.045,11.893 23.996,11.458 23.223,10.684C22.449,9.911 22.014,8.862 22.014,7.768ZM18.725,14.398C17.874,13.997 16.944,13.797 16.004,13.813L15.972,13.813C14.43,13.794 12.937,14.355 11.789,15.386C12.401,15.83 12.951,16.355 13.427,16.949L13.674,17.258L13.674,23.125L-0.141,23.161L-0.141,17.258L0.107,16.949C1.226,15.553 2.756,14.543 4.48,14.063C6.204,13.584 8.035,13.658 9.714,14.276C10.511,13.41 11.48,12.721 12.559,12.253C13.639,11.785 14.805,11.549 15.981,11.561C17.165,11.543 18.339,11.776 19.426,12.244C20.513,12.711 21.489,13.403 22.29,14.275C23.969,13.658 25.799,13.585 27.522,14.065C29.245,14.545 30.773,15.553 31.892,16.949L32.139,17.258L32.139,23.125L18.324,23.161L18.324,17.258L18.572,16.949C19.047,16.356 19.599,15.83 20.213,15.383C19.768,14.983 19.266,14.651 18.725,14.396M6.767,16.001C5.89,16.002 5.022,16.186 4.22,16.541C3.418,16.897 2.699,17.416 2.109,18.065L2.109,20.903L11.424,20.879L11.424,18.065C10.835,17.415 10.116,16.896 9.314,16.54C8.512,16.185 7.644,16.001 6.767,16M25.232,16C24.355,16 23.487,16.184 22.685,16.54C21.883,16.895 21.164,17.414 20.574,18.064L20.574,20.902L29.889,20.878L29.889,18.065C29.3,17.415 28.581,16.896 27.779,16.54C26.977,16.185 26.109,16.001 25.232,16Z" clip-rule="evenodd" fill-rule="evenodd" fill="#000000"/>
</svg>
