<svg width="56" height="12" viewBox="0 0 56 12" fill="none" xmlns="http://www.w3.org/2000/svg" xmlns:xlink="http://www.w3.org/1999/xlink">
<path d="M55.293,2.056L51.162,2.056C50.455,1.974 49.746,2.203 49.221,2.685C48.696,3.167 48.407,3.853 48.428,4.565C48.385,5.224 48.638,5.867 49.118,6.319C49.597,6.772 50.254,6.987 50.909,6.905L52.727,6.905C53.013,6.848 53.305,6.968 53.466,7.21C53.628,7.452 53.628,7.768 53.466,8.01C53.305,8.252 53.013,8.373 52.727,8.315L48.653,8.315L48.653,10.007L52.699,10.007C53.819,10.11 54.869,9.452 55.265,8.4L55.265,11.078C54.495,11.554 53.604,11.799 52.699,11.783L30.679,11.783L29.044,9.725L29.044,11.783L24.208,11.783L24.208,8.879C23.524,9.091 22.811,9.195 22.094,9.189L21.304,9.189L21.304,11.783L14.185,11.783L13.001,10.063L11.789,11.783L0.145,11.783L0.145,0.28L11.817,0.28L13.001,1.971L14.214,0.28L55.293,0.28L55.293,2.056ZM54.531,3.747L51.063,3.747C50.778,3.69 50.486,3.811 50.324,4.052C50.162,4.294 50.162,4.61 50.324,4.852C50.486,5.094 50.778,5.214 51.063,5.157L52.91,5.157C53.885,5.057 54.816,5.59 55.222,6.482L55.222,2.112L54.531,3.747ZM8.363,3.748L3.894,3.748L3.894,5.157L8.279,5.157L8.279,6.821L3.894,6.821L3.894,8.231L8.363,8.231L8.363,9.922L1.977,9.922L1.977,2.056L8.363,2.056L8.363,3.748ZM13.001,7.469L14.918,10.007L17.343,10.063L14.129,6.06L17.287,2.056L14.947,2.056L13.001,4.565L11.07,2.084L8.673,2.084L11.873,6.06L8.772,10.007L11.013,10.007L13.001,7.469ZM21.967,7.385L19.571,7.385L19.571,10.007L17.682,10.007L17.682,2.056L22.066,2.056C22.805,1.977 23.542,2.225 24.084,2.734C24.626,3.244 24.918,3.964 24.885,4.707C24.91,5.459 24.607,6.186 24.056,6.699C23.505,7.213 22.759,7.463 22.01,7.385L21.967,7.385ZM28.607,7.188L30.976,10.007L33.428,10.007L30.764,7.075C31.661,6.969 32.433,6.393 32.789,5.564C33.146,4.735 33.033,3.778 32.493,3.055C31.953,2.331 31.068,1.951 30.172,2.056L25.858,2.056L25.858,10.007L27.733,10.007L27.733,7.188L28.607,7.188ZM40.252,3.748L35.825,3.748L35.825,5.157L40.181,5.157L40.181,6.821L35.825,6.821L35.825,8.231L40.294,8.231L40.294,9.922L33.88,9.922L33.88,2.056L40.294,2.056L40.252,3.748ZM41.309,10.006L45.425,10.006C46.125,10.063 46.816,9.818 47.325,9.334C47.834,8.849 48.112,8.171 48.089,7.469C48.125,6.817 47.868,6.184 47.387,5.742C46.907,5.3 46.255,5.096 45.608,5.185L43.762,5.185C43.476,5.243 43.184,5.122 43.022,4.88C42.861,4.638 42.861,4.322 43.022,4.08C43.184,3.839 43.476,3.718 43.762,3.776L47.187,3.776L47.948,2.084L43.818,2.084C43.115,2.002 42.411,2.228 41.888,2.704C41.364,3.179 41.07,3.858 41.083,4.565C41.04,5.223 41.293,5.866 41.773,6.319C42.253,6.771 42.91,6.986 43.564,6.905L45.425,6.905C45.711,6.848 46.002,6.968 46.164,7.21C46.326,7.452 46.326,7.768 46.164,8.01C46.002,8.252 45.711,8.372 45.425,8.315L41.309,8.315L41.309,10.006ZM30.002,3.748L27.775,3.748L27.775,5.496L30.002,5.496C30.254,5.533 30.509,5.458 30.7,5.289C30.89,5.12 30.996,4.876 30.989,4.622C30.991,4.369 30.884,4.128 30.695,3.96C30.506,3.793 30.253,3.715 30.002,3.748ZM19.613,3.748L21.897,3.748C22.434,3.748 22.869,4.183 22.869,4.721C22.869,5.258 22.434,5.693 21.897,5.693L19.613,5.693L19.613,3.748Z" clip-rule="evenodd" fill-rule="evenodd" fill="#296DB6"/>
</svg>
