<svg width="28" height="28" viewBox="0 0 28 28" fill="none" xmlns="http://www.w3.org/2000/svg" xmlns:xlink="http://www.w3.org/1999/xlink">
<path d="M19.281,7.487C18.948,6.154 18.323,4.56 17.406,2.706C18.177,2.956 18.979,3.352 19.812,3.894L18.062,0.175C16.542,-0.283 15.167,-0.513 13.937,-0.513C12.437,-0.513 10.75,-0.2 8.875,0.425C6.354,1.467 4.354,3.123 2.875,5.394C1.396,7.665 0.656,10.133 0.656,12.8C0.656,14.592 0.99,16.29 1.656,17.894C2.698,20.414 4.354,22.414 6.625,23.894C8.896,25.373 11.365,26.112 14.031,26.112C15.781,26.112 17.479,25.769 19.125,25.081C21.646,24.039 23.646,22.388 25.125,20.128C26.604,17.868 27.344,15.404 27.344,12.737C27.344,10.967 27.01,9.258 26.344,7.612L24.594,11.362C24.677,11.717 24.719,12.206 24.719,12.831C24.719,13.665 24.594,14.55 24.344,15.487L19.812,15.487C19.812,15.175 19.833,14.732 19.875,14.159C19.917,13.586 19.937,13.144 19.937,12.831C19.937,11.665 19.896,10.779 19.812,10.175L22.875,10.175L21.531,7.487L19.281,7.487ZM23.125,18.175C22,20.321 20.094,21.914 17.406,22.956C18.323,21.102 18.948,19.508 19.281,18.175L23.125,18.175ZM13.937,23.487C12.687,21.467 11.844,19.696 11.406,18.175L16.469,18.175C16.031,19.862 15.187,21.633 13.937,23.487ZM3.656,10.175L8.187,10.175C8.187,10.467 8.167,10.904 8.125,11.487C8.083,12.071 8.062,12.519 8.062,12.831C8.062,13.977 8.104,14.862 8.187,15.487L3.656,15.487C3.469,14.612 3.375,13.727 3.375,12.831C3.375,11.915 3.469,11.029 3.656,10.175ZM4.719,7.487C5.906,5.3 7.823,3.706 10.469,2.706C9.594,4.415 8.969,6.008 8.594,7.487L4.719,7.487ZM8.594,18.175C8.969,19.654 9.594,21.248 10.469,22.956C7.948,21.977 6.031,20.383 4.719,18.175L8.594,18.175ZM13.937,2.175C15.208,4.217 16.052,5.987 16.469,7.487L11.406,7.487C11.844,5.8 12.687,4.029 13.937,2.175ZM10.875,10.175L17,10.175C17.125,11.029 17.26,11.915 17.406,12.831C17.406,13.477 17.312,14.362 17.125,15.487L10.875,15.487C10.687,14.362 10.594,13.477 10.594,12.831C10.594,12.144 10.687,11.258 10.875,10.175ZM20.594,2.55L23.937,9.487C25.792,5.675 26.896,3.362 27.25,2.55C26.062,2.925 25.219,3.196 24.719,3.362L24.719,-0.513L23.125,-0.513L23.125,3.362C22.812,3.258 22.391,3.123 21.859,2.956C21.328,2.79 20.906,2.654 20.594,2.55Z" fill="#333333"/>
</svg>
