<svg width="40" height="34" viewBox="0 0 40 34" fill="none" xmlns="http://www.w3.org/2000/svg" xmlns:xlink="http://www.w3.org/1999/xlink">
<path d="M7.38,21.816C7.38,22.628 7.677,23.331 8.271,23.925C8.864,24.519 9.567,24.816 10.38,24.816C11.192,24.816 11.896,24.519 12.489,23.925C13.083,23.331 13.38,22.628 13.38,21.816C13.38,20.972 13.083,20.261 12.489,19.683C11.896,19.105 11.192,18.816 10.38,18.816C9.567,18.816 8.864,19.105 8.271,19.683C7.677,20.261 7.38,20.972 7.38,21.816ZM8.364,8.784C8.052,8.784 7.794,8.886 7.591,9.089C7.388,9.292 7.286,9.534 7.286,9.816C7.286,10.066 7.38,10.331 7.567,10.613L10.755,13.378C10.974,13.597 11.255,13.706 11.599,13.706C11.911,13.706 12.177,13.597 12.396,13.378L14.599,11.222C14.786,11.003 15.052,10.894 15.396,10.894C15.708,10.894 15.974,11.003 16.192,11.222L22.193,16.613C22.38,16.8 22.646,16.894 22.989,16.894C23.333,16.894 23.599,16.8 23.786,16.613L30.958,10.613C31.146,10.456 31.239,10.222 31.239,9.909C31.239,9.597 31.146,9.331 30.958,9.113C30.771,8.894 30.505,8.784 30.161,8.784L17.974,8.784L13.192,8.784L8.364,8.784ZM38.364,32.784C39.052,32.784 39.396,32.456 39.396,31.8L39.396,1.8C39.396,1.144 39.052,0.816 38.364,0.816L0.396,0.816C-0.292,0.816 -0.636,1.144 -0.636,1.8L-0.636,31.8C-0.636,32.456 -0.292,32.784 0.396,32.784L38.364,32.784ZM35.364,4.8L35.364,28.8L3.396,28.8L3.396,4.8L35.364,4.8Z" fill="#000000"/>
</svg>
