<svg width="28" height="28" viewBox="0 0 28 28" fill="none" xmlns="http://www.w3.org/2000/svg" xmlns:xlink="http://www.w3.org/1999/xlink">
<path d="M13.22,2.6C10.302,2.6 7.504,3.759 5.442,5.822C3.379,7.885 2.22,10.683 2.22,13.6C2.22,16.517 3.379,19.315 5.442,21.378C7.504,23.441 10.302,24.6 13.22,24.6C16.137,24.6 18.935,23.441 20.998,21.378C23.061,19.315 24.22,16.517 24.22,13.6C24.22,10.683 23.061,7.885 20.998,5.822C18.935,3.759 16.137,2.6 13.22,2.6ZM0.22,13.6C0.22,6.42 6.04,0.6 13.22,0.6C20.4,0.6 26.22,6.42 26.22,13.6C26.22,20.78 20.4,26.6 13.22,26.6C6.04,26.6 0.22,20.78 0.22,13.6ZM12.22,6.267L14.22,6.267L14.22,13.187L18.593,17.56L17.18,18.973L12.22,14.013L12.22,6.267Z" clip-rule="evenodd" fill-rule="evenodd" fill="#000000"/>
</svg>
