<svg width="42" height="42" viewBox="0 0 42 42" fill="none" xmlns="http://www.w3.org/2000/svg" xmlns:xlink="http://www.w3.org/1999/xlink">
<path d="M32.572,-0.241C31.433,-0.241 30.204,-0.135 28.886,0.077C27.567,0.288 25.899,0.711 23.881,1.346C21.863,1.981 19.674,3.039 17.313,4.52C14.953,6.001 12.683,7.832 10.502,10.013C8.288,12.259 6.425,14.595 4.911,17.02C3.397,19.445 2.331,21.691 1.713,23.758C1.094,25.825 0.679,27.502 0.468,28.788C0.256,30.073 0.15,31.27 0.15,32.376C0.15,32.539 0.159,32.702 0.175,32.865C0.191,33.027 0.199,33.158 0.199,33.255L0.199,33.402L0.297,34.427L9.672,41.361L21,29.984L17.24,24.32C18.868,20.804 21.423,18.265 24.906,16.703L31.498,19.535L41.85,9.232L34.867,-0.045L33.891,-0.192C33.598,-0.224 33.158,-0.241 32.572,-0.241ZM4.838,31.986C4.838,31.074 4.936,30.073 5.131,28.983C5.326,27.892 5.692,26.493 6.229,24.784C6.767,23.075 7.694,21.203 9.013,19.168C10.331,17.134 11.934,15.156 13.822,13.236C15.71,11.315 17.663,9.712 19.682,8.426C21.7,7.14 23.563,6.229 25.272,5.692C26.981,5.155 28.373,4.797 29.447,4.618C30.521,4.439 31.514,4.349 32.426,4.349L35.746,8.695L30.473,13.968L25.199,11.722L24.369,12.015C21.635,13.024 19.234,14.562 17.167,16.629C15.1,18.696 13.546,21.097 12.504,23.831L12.162,24.906L15.092,29.398L9.232,35.257L4.838,31.986Z" fill="#000000"/>
</svg>
