<svg width="28" height="26" viewBox="0 0 28 26" fill="none" xmlns="http://www.w3.org/2000/svg" xmlns:xlink="http://www.w3.org/1999/xlink">
<path d="M13.8,1.4C10.882,1.4 8.085,2.559 6.022,4.622C3.959,6.685 2.8,9.483 2.8,12.4C2.8,15.318 3.959,18.115 6.022,20.178C8.085,22.241 10.882,23.4 13.8,23.4C16.717,23.4 19.515,22.241 21.578,20.178C23.641,18.115 24.8,15.318 24.8,12.4C24.8,9.483 23.641,6.685 21.578,4.622C19.515,2.559 16.717,1.4 13.8,1.4ZM0.8,12.4C0.8,5.22 6.62,-0.6 13.8,-0.6C20.98,-0.6 26.8,5.22 26.8,12.4C26.8,19.58 20.98,25.4 13.8,25.4C6.62,25.4 0.8,19.58 0.8,12.4ZM12.8,5.067L14.8,5.067L14.8,11.987L19.173,16.36L17.76,17.773L12.8,12.813L12.8,5.067Z" clip-rule="evenodd" fill-rule="evenodd" fill="#000000"/>
</svg>
