<svg width="36" height="34" viewBox="0 0 36 34" fill="none" xmlns="http://www.w3.org/2000/svg" xmlns:xlink="http://www.w3.org/1999/xlink">
<path d="M20.63,4.552L25.083,0.1L26.85,1.867L22.398,6.32C21.266,7.452 20.64,8.757 20.531,9.985C20.46,10.818 20.621,11.657 21.076,12.438L29.25,4.267L31.016,6.033L22.84,14.21C23.628,14.678 24.463,14.855 25.283,14.8C26.48,14.722 27.728,14.143 28.776,13.095C30.198,11.672 31.617,10.245 33.033,8.817L33.41,8.437L35.188,10.195L34.81,10.578C33.39,12.009 31.968,13.436 30.543,14.862C29.128,16.277 27.331,17.168 25.448,17.293C23.873,17.398 22.311,16.945 21.036,16.013L18.985,18.067L31.851,30.933L30.083,32.7L20.133,22.75L15.133,27.75L12.216,24.833L4.35,32.7L2.583,30.933L10.45,23.066L3.13,15.748C2.394,15.013 1.811,14.14 1.413,13.18C1.015,12.219 0.811,11.19 0.811,10.15C0.811,9.11 1.015,8.081 1.413,7.12C1.811,6.159 2.394,5.287 3.13,4.552L4.3,3.382L17.216,16.298L19.271,14.245C18.335,12.95 17.898,11.36 18.043,9.768C18.21,7.857 19.158,6.025 20.63,4.552ZM18.366,20.983L4.346,6.963C3.587,8.007 3.226,9.287 3.326,10.573C3.427,11.859 3.984,13.067 4.896,13.98L15.133,24.215L18.366,20.983Z" clip-rule="evenodd" fill-rule="evenodd" fill="#FFFFFF"/>
</svg>
