<svg width="28" height="28" viewBox="0 0 28 28" fill="none" xmlns="http://www.w3.org/2000/svg" xmlns:xlink="http://www.w3.org/1999/xlink">
<path d="M15.704,4.521L19.267,0.96L20.68,2.373L17.119,5.936C16.213,6.841 15.712,7.885 15.625,8.868C15.568,9.535 15.697,10.205 16.061,10.831L22.6,4.293L24.013,5.707L17.472,12.248C18.103,12.623 18.771,12.764 19.427,12.72C20.384,12.657 21.383,12.195 22.221,11.356C23.359,10.217 24.494,9.076 25.627,7.933L25.928,7.629L27.351,9.036L27.048,9.343C25.912,10.487 24.775,11.629 23.635,12.769C22.503,13.901 21.065,14.615 19.559,14.715C18.298,14.799 17.049,14.436 16.029,13.691L14.388,15.333L24.681,25.627L23.267,27.04L15.307,19.08L11.307,23.08L8.973,20.747L2.68,27.04L1.267,25.627L7.56,19.333L1.704,13.479C1.116,12.891 0.649,12.192 0.331,11.424C0.012,10.655 -0.151,9.832 -0.151,9C-0.151,8.168 0.012,7.345 0.331,6.576C0.649,5.808 1.116,5.109 1.704,4.521L2.64,3.585L12.973,13.919L14.617,12.276C13.868,11.24 13.519,9.968 13.635,8.695C13.768,7.165 14.527,5.7 15.704,4.521ZM13.893,17.667L2.677,6.451C2.07,7.285 1.781,8.309 1.861,9.339C1.942,10.368 2.387,11.334 3.117,12.064L11.307,20.252L13.893,17.667Z" clip-rule="evenodd" fill-rule="evenodd" fill="#000000"/>
</svg>
