<svg width="38" height="40" viewBox="0 0 38 40" fill="none" xmlns="http://www.w3.org/2000/svg" xmlns:xlink="http://www.w3.org/1999/xlink">
<path d="M19.439,39.155C24.55,39.058 28.88,37.186 32.428,33.54C35.976,29.894 37.75,25.516 37.75,20.405L37.75,0.63C37.75,-0.054 37.408,-0.396 36.725,-0.396L26.275,-0.396C25.592,-0.396 25.25,-0.054 25.25,0.63L25.25,15.229C25.25,15.522 25.348,15.767 25.543,15.962C25.738,16.157 25.982,16.255 26.275,16.255L33.6,16.255L33.6,20.405L33.6,20.845C33.469,24.816 32.005,28.169 29.205,30.903C26.406,33.638 23.069,35.005 19.195,35.005L18.805,35.005C14.801,34.809 11.399,33.28 8.6,30.415C5.8,27.55 4.4,24.132 4.4,20.161L4.4,19.819L4.4,16.255L11.725,16.255C12.018,16.255 12.262,16.157 12.457,15.962C12.652,15.767 12.75,15.522 12.75,15.229L12.75,0.63C12.75,-0.054 12.408,-0.396 11.725,-0.396L1.275,-0.396C0.592,-0.396 0.25,-0.054 0.25,0.63L0.25,19.819C0.25,25.125 2.122,29.674 5.865,33.467C9.609,37.259 14.133,39.155 19.439,39.155Z" fill="#000000"/>
</svg>
