<svg width="28" height="26" viewBox="0 0 28 26" fill="none" xmlns="http://www.w3.org/2000/svg" xmlns:xlink="http://www.w3.org/1999/xlink">
<path d="M13.6,1C10.682,1 7.884,2.159 5.821,4.222C3.759,6.285 2.6,9.083 2.6,12C2.6,14.917 3.759,17.715 5.821,19.778C7.884,21.841 10.682,23 13.6,23C16.517,23 19.315,21.841 21.378,19.778C23.441,17.715 24.6,14.917 24.6,12C24.6,9.083 23.441,6.285 21.378,4.222C19.315,2.159 16.517,1 13.6,1ZM0.6,12C0.6,4.82 6.42,-1 13.6,-1C20.78,-1 26.6,4.82 26.6,12C26.6,19.18 20.78,25 13.6,25C6.42,25 0.6,19.18 0.6,12ZM12.6,4.667L14.6,4.667L14.6,11.587L18.973,15.96L17.56,17.373L12.6,12.413L12.6,4.667Z" clip-rule="evenodd" fill-rule="evenodd" fill="#000000"/>
</svg>
