<svg width="32" height="40" viewBox="0 0 32 40" fill="none" xmlns="http://www.w3.org/2000/svg" xmlns:xlink="http://www.w3.org/1999/xlink">
<path d="M-0.32,15.598C-0.32,7.104 6.656,0.184 15.18,0.184C23.704,0.184 30.68,7.104 30.68,15.598C30.68,20.158 28.404,24.552 25.738,28.244C23.118,31.87 19.972,35.02 17.784,37.21L17.618,37.376L17.614,37.38L15.164,39.816L12.738,37.33L12.678,37.27L12.654,37.244C10.454,35.06 7.244,31.87 4.584,28.184C1.936,24.508 -0.32,20.136 -0.32,15.598ZM15.18,3.184C8.296,3.184 2.68,8.778 2.68,15.598C2.68,19.19 4.494,22.928 7.02,26.428C9.524,29.9 12.576,32.94 14.792,35.142L14.878,35.226L15.198,35.554L15.494,35.256L15.498,35.252L15.62,35.132C17.826,32.922 20.83,29.916 23.306,26.488C25.848,22.968 27.68,19.208 27.68,15.598C27.68,8.778 22.064,3.184 15.18,3.184ZM18.578,13.21C18.205,12.309 17.489,11.593 16.588,11.22C15.687,10.847 14.675,10.847 13.774,11.22C13.328,11.405 12.922,11.676 12.581,12.017C12.239,12.358 11.969,12.764 11.784,13.21C11.411,14.111 11.411,15.123 11.784,16.024C11.968,16.47 12.239,16.876 12.581,17.217C12.922,17.559 13.328,17.83 13.774,18.015C14.22,18.199 14.698,18.295 15.181,18.295C15.664,18.295 16.142,18.2 16.589,18.015C17.035,17.83 17.44,17.559 17.782,17.218C18.124,16.876 18.394,16.471 18.579,16.025C18.764,15.579 18.859,15.1 18.859,14.617C18.86,14.134 18.762,13.656 18.578,13.21ZM12.628,8.45C13.438,8.114 14.306,7.942 15.183,7.942C16.059,7.942 16.927,8.114 17.737,8.45C18.547,8.785 19.283,9.277 19.903,9.897C20.523,10.517 21.015,11.253 21.351,12.063C21.686,12.873 21.859,13.741 21.859,14.618C21.859,15.495 21.686,16.363 21.351,17.173C21.015,17.983 20.523,18.719 19.904,19.339C19.284,19.959 18.548,20.45 17.738,20.786C16.928,21.122 16.059,21.294 15.182,21.294C14.306,21.294 13.437,21.121 12.627,20.786C10.991,20.108 9.691,18.808 9.014,17.172C8.336,15.536 8.336,13.698 9.014,12.061C9.692,10.425 10.992,9.128 12.628,8.45Z" clip-rule="evenodd" fill-rule="evenodd" fill="#E0E0E0"/>
</svg>
