<svg width="26" height="28" viewBox="0 0 26 28" fill="none" xmlns="http://www.w3.org/2000/svg" xmlns:xlink="http://www.w3.org/1999/xlink">
<path d="M4.969,5.45L4.969,13.887L13.438,13.887L13.438,5.45L4.969,5.45ZM7.781,11.106L7.781,8.262L10.625,8.262L10.625,11.106L7.781,11.106ZM19,24.419L24.625,24.419L24.625,-0.144L-0.625,-0.144L-0.625,24.419L5,24.419L5,25.137C5,25.533 5.135,25.867 5.406,26.137C5.677,26.408 6.01,26.544 6.406,26.544C6.781,26.544 7.104,26.408 7.375,26.137C7.646,25.867 7.781,25.533 7.781,25.137L7.781,24.419L10.625,24.419L10.625,25.137C10.625,25.533 10.76,25.867 11.031,26.137C11.302,26.408 11.635,26.544 12.031,26.544C12.427,26.544 12.76,26.408 13.031,26.137C13.302,25.867 13.438,25.533 13.438,25.137L13.438,24.419L16.219,24.419L16.219,25.137C16.219,25.533 16.354,25.867 16.625,26.137C16.896,26.408 17.229,26.544 17.625,26.544C18,26.544 18.323,26.408 18.594,26.137C18.865,25.867 19,25.533 19,25.137L19,24.419ZM21.844,2.669L21.844,21.606L19,21.606L19,19.512L16.188,19.512L16.188,21.606L13.438,21.606L13.406,19.512L10.625,19.512L10.625,21.606L7.781,21.606L7.781,19.512L4.969,19.512L4.969,21.606L2.156,21.606L2.156,2.669L21.844,2.669Z" fill="#333333"/>
</svg>
