<svg width="114" height="200" viewBox="0 0 114 200" fill="none" xmlns="http://www.w3.org/2000/svg" xmlns:xlink="http://www.w3.org/1999/xlink">
<path d="M43.751,123.807L43.751,185.015L52.353,197.914C54.208,200.696 58.298,200.696 60.154,197.914L68.751,185.015L68.751,123.807C64.693,124.557 60.525,125.002 56.251,125.002C51.978,125.002 47.81,124.557 43.751,123.807ZM56.251,0C25.184,0 0,25.184 0,56.251C0,87.318 25.184,112.502 56.251,112.502C87.318,112.502 112.502,87.318 112.502,56.251C112.502,25.184 87.318,0 56.251,0ZM56.251,29.688C41.602,29.688 29.688,41.602 29.688,56.251C29.688,58.837 27.586,60.939 25,60.939C22.415,60.939 20.313,58.837 20.313,56.251C20.313,36.434 36.438,20.313 56.251,20.313C58.837,20.313 60.939,22.415 60.939,25C60.939,27.586 58.837,29.688 56.251,29.688Z" fill="#000000" fill-opacity="0" stroke="#22C55E" stroke-width="3" stroke-miterlimit="3.999327"/>
</svg>
