<svg width="44" height="44" viewBox="0 0 44 44" fill="none" xmlns="http://www.w3.org/2000/svg" xmlns:xlink="http://www.w3.org/1999/xlink">
<path d="M41.856,2.675L23.822,42.579C23.671,42.913 23.416,43.187 23.095,43.358C22.774,43.529 22.406,43.588 22.049,43.525C21.692,43.461 21.366,43.28 21.121,43.008C20.877,42.737 20.728,42.391 20.698,42.024L19.173,23.475L0.883,21.928C0.521,21.898 0.18,21.747 -0.087,21.499C-0.355,21.251 -0.534,20.92 -0.597,20.558C-0.659,20.196 -0.601,19.823 -0.433,19.498C-0.264,19.172 0.006,18.913 0.336,18.76L39.682,0.471C39.986,0.329 40.326,0.286 40.655,0.346C40.984,0.406 41.288,0.566 41.524,0.806C41.761,1.046 41.92,1.354 41.979,1.688C42.038,2.022 41.995,2.366 41.855,2.675L41.856,2.675Z" fill="#080809"/>
</svg>
