<svg width="60" height="52" viewBox="0 0 60 52" fill="none" xmlns="http://www.w3.org/2000/svg" xmlns:xlink="http://www.w3.org/1999/xlink">
<path d="M59.773,23.346L59.773,21.351C59.771,20.558 59.455,19.798 58.894,19.237C58.334,18.676 57.574,18.36 56.781,18.358L52.83,18.358L50.765,11.115L50.147,8.651C49.984,8.004 49.611,7.43 49.085,7.02C48.559,6.61 47.911,6.387 47.244,6.387L38.824,6.387L38.824,2.397C38.822,1.868 38.612,1.361 38.238,0.987C37.864,0.614 37.358,0.403 36.829,0.401L22.863,0.401C22.334,0.403 21.827,0.614 21.454,0.987C21.08,1.361 20.869,1.868 20.867,2.397L20.867,6.387L12.448,6.387C11.781,6.387 11.133,6.61 10.607,7.02C10.081,7.43 9.707,8.004 9.545,8.651L8.936,11.106L6.861,18.358L2.911,18.358C2.118,18.36 1.358,18.676 0.797,19.237C0.236,19.798 -0.08,20.558 -0.082,21.351L-0.082,23.346C-0.08,23.851 0.049,24.348 0.296,24.789C0.542,25.231 0.896,25.603 1.325,25.87C0.423,26.797 -0.082,28.039 -0.082,29.332L-0.082,41.303C-0.081,41.721 0.009,42.135 0.181,42.516C0.353,42.898 0.603,43.239 0.916,43.517L0.916,47.288C0.918,48.081 1.234,48.841 1.795,49.402C2.355,49.963 3.115,50.279 3.908,50.281L11.889,50.281C12.682,50.279 13.442,49.963 14.003,49.402C14.563,48.841 14.879,48.081 14.882,47.288L14.882,44.295L44.81,44.295L44.81,47.288C44.812,48.081 45.128,48.841 45.689,49.402C46.25,49.963 47.009,50.279 47.802,50.281L55.783,50.281C56.576,50.279 57.336,49.963 57.897,49.402C58.457,48.841 58.774,48.081 58.776,47.288L58.776,43.517C59.088,43.239 59.339,42.898 59.511,42.516C59.683,42.135 59.772,41.721 59.773,41.303L59.773,29.332C59.773,28.039 59.269,26.797 58.367,25.87C58.796,25.603 59.15,25.231 59.396,24.789C59.642,24.348 59.772,23.851 59.773,23.346L59.773,23.346ZM22.863,2.397L36.829,2.397L36.829,6.387L22.863,6.387L22.863,2.397ZM11.48,9.14C11.534,8.924 11.658,8.732 11.833,8.594C12.009,8.457 12.225,8.382 12.448,8.382L47.244,8.382C47.467,8.382 47.683,8.457 47.858,8.594C48.034,8.732 48.158,8.924 48.211,9.14L48.521,10.377L11.171,10.377L11.48,9.14ZM10.642,12.372L49.049,12.372L52.461,24.344L23.77,24.344C23.536,22.949 22.815,21.684 21.736,20.771C20.656,19.858 19.288,19.357 17.875,19.357C16.461,19.357 15.093,19.858 14.014,20.771C12.934,21.684 12.213,22.949 11.979,24.344L7.23,24.344L10.642,12.372ZM21.725,24.344L14.024,24.344C14.242,23.488 14.739,22.729 15.436,22.186C16.133,21.644 16.991,21.35 17.875,21.35C18.758,21.35 19.616,21.644 20.313,22.186C21.011,22.729 21.508,23.488 21.725,24.344L21.725,24.344ZM1.913,21.351C1.913,21.086 2.018,20.832 2.205,20.645C2.392,20.458 2.646,20.353 2.911,20.353L6.293,20.353L5.155,24.344L2.911,24.344C2.646,24.344 2.392,24.238 2.205,24.051C2.018,23.864 1.913,23.611 1.913,23.346L1.913,21.351ZM12.887,47.288C12.887,47.553 12.782,47.807 12.594,47.994C12.407,48.181 12.154,48.286 11.889,48.286L3.908,48.286C3.644,48.286 3.39,48.181 3.203,47.994C3.016,47.807 2.911,47.553 2.911,47.288L2.911,44.295L12.887,44.295L12.887,47.288ZM56.781,47.288C56.781,47.553 56.676,47.807 56.489,47.994C56.301,48.181 56.048,48.286 55.783,48.286L47.802,48.286C47.538,48.286 47.284,48.181 47.097,47.994C46.91,47.807 46.805,47.553 46.805,47.288L46.805,44.295L56.781,44.295L56.781,47.288ZM57.778,41.303C57.778,41.567 57.673,41.821 57.486,42.008C57.299,42.195 57.045,42.3 56.781,42.3L2.911,42.3C2.646,42.3 2.392,42.195 2.205,42.008C2.018,41.821 1.913,41.567 1.913,41.303L1.913,40.305L57.778,40.305L57.778,41.303ZM57.778,38.31L1.913,38.31L1.913,29.332C1.916,28.539 2.232,27.779 2.792,27.218C3.353,26.657 4.113,26.341 4.906,26.339L54.786,26.339C55.579,26.341 56.338,26.657 56.899,27.218C57.46,27.779 57.776,28.539 57.778,29.332L57.778,38.31ZM57.778,23.346C57.778,23.611 57.673,23.864 57.486,24.051C57.299,24.238 57.045,24.344 56.781,24.344L54.536,24.344L53.399,20.353L56.781,20.353C57.045,20.353 57.299,20.458 57.486,20.645C57.673,20.832 57.778,21.086 57.778,21.351L57.778,23.346Z" fill="#FFFFFF"/>
</svg>
