<svg width="36" height="32" viewBox="0 0 36 32" fill="none" xmlns="http://www.w3.org/2000/svg" xmlns:xlink="http://www.w3.org/1999/xlink">
<path d="M2.736,29.118C2.016,29.618 1.296,29.618 0.576,28.864C0.096,28.614 -0.146,28.114 0.096,27.61C3.216,17.82 11.142,11.042 20.75,9.536L20.75,2.004C20.99,1.252 21.47,1 22.19,1C22.43,1 22.67,1.252 22.67,1.252L35.64,15.058C36.12,15.56 36.12,16.314 35.64,16.816L23.92,29.294L22.67,30.624C22.19,31.124 21.47,31.124 21.23,30.624C20.99,30.372 20.99,30.372 20.99,30.122L20.99,22.338C19.99,22.299 18.988,22.318 17.99,22.394C12.356,22.82 7.024,25.062 2.736,29.118ZM23.99,24.838L23.99,19.448L21.102,19.342C15.492,19.132 10.002,20.496 5.218,23.442C8.724,17.502 14.52,13.548 21.214,12.5L23.75,12.1L23.75,6.78L32.35,15.938L23.99,24.838Z" clip-rule="evenodd" fill-rule="evenodd" fill="#000000"/>
</svg>
