<svg width="34" height="34" viewBox="0 0 34 34" fill="none" xmlns="http://www.w3.org/2000/svg" xmlns:xlink="http://www.w3.org/1999/xlink">
<path d="M-0.68,25.52C-0.68,26.901 -0.191,28.079 0.785,29.056C1.762,30.032 2.94,30.52 4.32,30.52L14.32,30.52L14.32,27.2L4.32,27.2C3.878,27.2 3.493,27.037 3.168,26.712C2.842,26.386 2.68,25.989 2.68,25.52L2.68,5.52C2.68,5.078 2.842,4.694 3.168,4.368C3.493,4.042 3.878,3.88 4.32,3.88L24.32,3.88C24.789,3.88 25.186,4.042 25.512,4.368C25.837,4.694 26,5.078 26,5.52L26,15.52L29.32,15.52L29.32,5.52C29.32,4.14 28.832,2.962 27.856,1.985C26.879,1.009 25.701,0.52 24.32,0.52L4.32,0.52C2.94,0.52 1.762,1.009 0.785,1.985C-0.191,2.962 -0.68,4.14 -0.68,5.52L-0.68,25.52ZM26.899,30.52C26.143,30.52 25.492,30.247 24.945,29.7L24.828,29.622L28.383,26.067L28.617,26.263C29.086,26.757 29.32,27.343 29.32,28.02C29.32,28.932 28.943,29.635 28.188,30.13C27.823,30.39 27.393,30.52 26.899,30.52ZM26.039,23.724L22.484,27.239L14.086,18.88L13.07,14.309L17.641,15.325L26.039,23.724ZM22.602,32.083C23.8,33.281 25.232,33.88 26.899,33.88C28.044,33.88 29.099,33.554 30.063,32.903C31.807,31.731 32.68,30.117 32.68,28.059C32.68,26.445 32.107,25.065 30.961,23.919L19.32,12.278L11.82,10.598C11.742,10.572 11.651,10.559 11.547,10.559L11.352,10.52C10.805,10.52 10.329,10.716 9.926,11.106C9.522,11.497 9.32,11.979 9.32,12.552C9.32,12.63 9.346,12.773 9.398,12.981L11.039,20.559L22.602,32.083Z" fill="#000000"/>
</svg>
