<svg width="34" height="32" viewBox="0 0 34 32" fill="none" xmlns="http://www.w3.org/2000/svg" xmlns:xlink="http://www.w3.org/1999/xlink">
<path d="M16,-0.325L32.25,9.607L32.25,12.39L27.25,12.39L27.25,28.224L31,28.224L31,30.724L1,30.724L1,28.224L4.75,28.224L4.75,12.39L-0.25,12.39L-0.25,9.607L16,-0.325ZM7.25,12.392L7.25,28.225L11.417,28.225L11.417,12.392L7.25,12.392ZM13.917,12.392L13.917,28.225L18.083,28.225L18.083,12.392L13.917,12.392ZM20.583,12.392L20.583,28.225L24.75,28.225L24.75,12.392L20.583,12.392ZM4.078,9.892L27.922,9.892L16,2.604L4.078,9.892Z" clip-rule="evenodd" fill-rule="evenodd" fill="#FFFFFF"/>
</svg>
