<svg width="28" height="26" viewBox="0 0 28 26" fill="none" xmlns="http://www.w3.org/2000/svg" xmlns:xlink="http://www.w3.org/1999/xlink">
<path d="M15.704,3.121L19.267,-0.44L20.68,0.973L17.119,4.536C16.213,5.441 15.712,6.485 15.625,7.468C15.568,8.135 15.697,8.805 16.061,9.431L22.6,2.893L24.013,4.307L17.472,10.848C18.103,11.223 18.771,11.364 19.427,11.32C20.384,11.257 21.383,10.795 22.221,9.956C23.359,8.817 24.494,7.677 25.627,6.533L25.928,6.229L27.351,7.636L27.048,7.943C25.912,9.087 24.775,10.229 23.635,11.369C22.503,12.501 21.065,13.215 19.559,13.315C18.298,13.399 17.049,13.036 16.029,12.291L14.388,13.933L24.681,24.227L23.267,25.64L15.307,17.68L11.307,21.68L8.973,19.347L2.68,25.64L1.267,24.227L7.56,17.933L1.704,12.079C1.116,11.491 0.649,10.792 0.331,10.024C0.012,9.255 -0.151,8.432 -0.151,7.6C-0.151,6.768 0.012,5.945 0.331,5.176C0.649,4.408 1.116,3.709 1.704,3.121L2.64,2.185L12.973,12.519L14.617,10.876C13.868,9.84 13.519,8.568 13.635,7.295C13.768,5.765 14.527,4.3 15.704,3.121ZM13.893,16.267L2.677,5.051C2.07,5.885 1.781,6.91 1.861,7.939C1.942,8.968 2.387,9.934 3.117,10.664L11.307,18.852L13.893,16.267Z" clip-rule="evenodd" fill-rule="evenodd" fill="#000000"/>
</svg>
