<svg width="40" height="36" viewBox="0 0 40 36" fill="none" xmlns="http://www.w3.org/2000/svg" xmlns:xlink="http://www.w3.org/1999/xlink">
<path d="M12,3.5C11.606,3.5 11.216,3.578 10.852,3.728C10.488,3.879 10.157,4.1 9.879,4.379C9.6,4.657 9.379,4.988 9.228,5.352C9.078,5.716 9,6.106 9,6.5C9,6.894 9.078,7.284 9.228,7.648C9.379,8.012 9.6,8.343 9.879,8.621C10.157,8.9 10.488,9.121 10.852,9.272C11.216,9.422 11.606,9.5 12,9.5C12.796,9.5 13.559,9.184 14.121,8.621C14.684,8.059 15,7.296 15,6.5C15,5.704 14.684,4.941 14.121,4.379C13.559,3.816 12.796,3.5 12,3.5ZM6,6.5C6,4.909 6.632,3.383 7.757,2.257C8.883,1.132 10.409,0.5 12,0.5C13.591,0.5 15.117,1.132 16.243,2.257C17.368,3.383 18,4.909 18,6.5C18,8.091 17.368,9.617 16.243,10.743C15.117,11.868 13.591,12.5 12,12.5C10.409,12.5 8.883,11.868 7.757,10.743C6.632,9.617 6,8.091 6,6.5ZM28,7.5C27.204,7.5 26.441,7.816 25.879,8.379C25.316,8.941 25,9.704 25,10.5C25,11.296 25.316,12.059 25.879,12.621C26.441,13.184 27.204,13.5 28,13.5C28.796,13.5 29.559,13.184 30.121,12.621C30.684,12.059 31,11.296 31,10.5C31,9.704 30.684,8.941 30.121,8.379C29.559,7.816 28.796,7.5 28,7.5ZM22,10.5C22,8.909 22.632,7.383 23.757,6.257C24.883,5.132 26.409,4.5 28,4.5C29.591,4.5 31.117,5.132 32.243,6.257C33.368,7.383 34,8.909 34,10.5C34,12.091 33.368,13.617 32.243,14.743C31.117,15.868 29.591,16.5 28,16.5C26.409,16.5 24.883,15.868 23.757,14.743C22.632,13.617 22,12.091 22,10.5ZM12,15.5C14.044,15.486 16.066,15.927 17.92,16.789C19.774,17.651 21.413,18.914 22.72,20.486C25.591,19.309 28.772,19.125 31.759,19.963C34.746,20.8 37.368,22.612 39.208,25.11L39.5,25.508L39.5,35.5L0.5,35.5L0.5,21.506L0.794,21.108C2.088,19.356 3.777,17.936 5.725,16.961C7.672,15.986 9.822,15.486 12,15.5ZM19.5,32.5L36.5,32.5L36.5,26.51C35.476,25.241 34.182,24.217 32.711,23.514C31.24,22.81 29.63,22.445 28,22.445C26.37,22.445 24.76,22.81 23.289,23.514C21.818,24.217 20.524,25.241 19.5,26.51L19.5,32.5ZM16.5,32.5L3.5,32.5L3.5,22.512C4.523,21.248 5.817,20.232 7.287,19.537C8.757,18.842 10.364,18.488 11.99,18.5L12.01,18.5C13.513,18.488 15.001,18.789 16.381,19.385C17.761,19.98 19.001,20.858 20.022,21.96C18.782,22.828 17.691,23.892 16.792,25.11L16.5,25.508L16.5,32.5Z" clip-rule="evenodd" fill-rule="evenodd" fill="#2C2C2C"/>
</svg>
