<svg width="34" height="32" viewBox="0 0 34 32" fill="none" xmlns="http://www.w3.org/2000/svg" xmlns:xlink="http://www.w3.org/1999/xlink">
<path d="M12.014,2.695L12.014,0.215L9.73,0.215L9.73,2.94L9.749,2.94L9.749,11.307L8.505,11.307L8.505,8.21L8.489,8.21L8.489,5.945L6.205,5.945L6.205,8.208L5.092,8.208L5.092,5.945L2.809,5.945L2.809,8.208L1.717,8.208L1.717,5.945L-0.566,5.945L-0.566,8.208L-0.6,8.208L-0.6,30.185L13.284,30.185L13.284,20.418C13.289,20.406 13.305,20.355 13.369,20.296C13.445,20.226 13.689,20.05 14.329,20.05L17.705,20.05C17.862,20.076 18.011,20.138 18.139,20.233C18.205,20.286 18.257,20.349 18.292,20.42C18.325,20.488 18.364,20.603 18.364,20.786L18.364,30.186L32.604,30.186L32.604,8.207L32.579,8.207L32.579,5.945L30.295,5.945L30.295,8.208L29.077,8.208L29.077,5.945L26.794,5.945L26.794,8.208L25.652,8.208L25.652,5.945L23.369,5.945L23.369,8.208L23.357,8.208L23.357,11.308L21.747,11.308L21.747,2.695L21.73,2.695L21.73,0.215L19.447,0.215L19.447,2.695L18.427,2.695L18.427,0.215L16.144,0.215L16.144,2.695L15.357,2.695L15.357,0.215L13.074,0.215L13.074,2.695L12.014,2.695ZM12.032,4.978L12.032,13.59L6.222,13.59L6.222,10.49L1.682,10.49L1.682,27.903L10.999,27.903L10.999,20.348C11.012,19.807 11.252,19.143 11.815,18.62C12.4,18.08 13.244,17.767 14.327,17.767L17.807,17.767L17.852,17.77C18.325,17.808 18.99,17.993 19.564,18.45C20.18,18.945 20.645,19.723 20.645,20.786L20.645,27.903L30.319,27.903L30.319,10.492L25.639,10.492L25.639,13.592L19.462,13.592L19.462,4.977L12.032,4.978Z" clip-rule="evenodd" fill-rule="evenodd" fill="#FFFFFF"/>
</svg>
