<svg width="34" height="26" viewBox="0 0 34 26" fill="none" xmlns="http://www.w3.org/2000/svg" xmlns:xlink="http://www.w3.org/1999/xlink">
<path d="M1.42,0.908C1.42,0.125 2.054,-0.508 2.837,-0.508L28.877,-0.508C29.66,-0.508 30.294,0.125 30.294,0.908L30.294,11.99C31.427,12.927 32.327,14.312 32.327,16.23L32.327,24.308L29.827,24.308L29.827,21.517L2.174,21.517L2.174,24.307L-0.326,24.307L-0.326,16.183C-0.285,15.093 0.18,13.537 1.422,12.267L1.42,0.908ZM5.812,10.22C6.25,10.162 6.714,10.133 7.205,10.133L13.699,10.133C12.86,9.33 11.515,8.583 9.644,8.583C7.827,8.583 6.595,9.362 5.812,10.22ZM18.125,10.133L25.572,10.133L25.632,10.14C25.904,10.164 26.202,10.21 26.525,10.277C26.413,10.138 26.29,10.008 26.157,9.888C25.412,9.205 24.19,8.583 22.4,8.583C20.604,8.583 19.484,9.038 18.767,9.557C18.533,9.725 18.318,9.919 18.125,10.133ZM27.792,7.997C26.582,6.912 24.772,6.083 22.4,6.083C20.155,6.083 18.504,6.662 17.3,7.53C16.73,7.943 16.284,8.405 15.932,8.867C14.705,7.432 12.59,6.083 9.642,6.083C6.927,6.083 5.087,7.27 3.919,8.588L3.919,1.992L27.792,1.992L27.792,7.997ZM2.172,19.017L29.829,19.017L29.829,16.228C29.829,15.057 29.237,14.248 28.349,13.653C27.415,13.03 26.244,12.718 25.449,12.632L7.207,12.632C5.344,12.632 4.19,13.16 3.479,13.762C2.529,14.565 2.204,15.633 2.174,16.255L2.172,19.017Z" clip-rule="evenodd" fill-rule="evenodd" fill="#333333"/>
</svg>
