<svg width="34" height="26" viewBox="0 0 34 26" fill="none" xmlns="http://www.w3.org/2000/svg" xmlns:xlink="http://www.w3.org/1999/xlink">
<path d="M1.42,0.608C1.42,-0.175 2.053,-0.808 2.836,-0.808L28.876,-0.808C29.659,-0.808 30.293,-0.175 30.293,0.608L30.293,11.69C31.426,12.627 32.326,14.012 32.326,15.93L32.326,24.008L29.826,24.008L29.826,21.217L2.173,21.217L2.173,24.007L-0.327,24.007L-0.327,15.883C-0.285,14.793 0.18,13.237 1.421,11.967L1.42,0.608ZM5.811,9.92C6.249,9.862 6.713,9.833 7.205,9.833L13.698,9.833C12.86,9.03 11.515,8.283 9.643,8.283C7.826,8.283 6.595,9.062 5.811,9.92ZM18.125,9.833L25.571,9.833L25.631,9.84C25.903,9.864 26.201,9.91 26.524,9.977C26.412,9.838 26.289,9.708 26.156,9.588C25.411,8.905 24.189,8.283 22.399,8.283C20.603,8.283 19.483,8.738 18.766,9.257C18.532,9.425 18.317,9.619 18.125,9.833ZM27.791,7.697C26.581,6.612 24.771,5.783 22.399,5.783C20.154,5.783 18.503,6.362 17.3,7.23C16.73,7.643 16.283,8.105 15.931,8.567C14.705,7.132 12.59,5.783 9.641,5.783C6.926,5.783 5.086,6.97 3.918,8.288L3.918,1.692L27.791,1.692L27.791,7.697ZM2.171,18.717L29.828,18.717L29.828,15.928C29.828,14.757 29.236,13.948 28.348,13.353C27.414,12.73 26.243,12.418 25.448,12.332L7.206,12.332C5.343,12.332 4.19,12.86 3.478,13.462C2.528,14.265 2.203,15.333 2.173,15.955L2.171,18.717Z" clip-rule="evenodd" fill-rule="evenodd" fill="#000000"/>
</svg>
