<svg width="136" height="38" viewBox="0 0 136 38" fill="none" xmlns="http://www.w3.org/2000/svg" xmlns:xlink="http://www.w3.org/1999/xlink">
<path d="M15.241,6.486L8.164,6.486L8.164,9.361L11.935,9.361C11.43,10.736 10.201,11.578 8.326,11.578C5.584,11.578 3.89,9.792 3.89,7.349C3.89,4.824 5.664,3.038 8.043,3.038C9.636,3.038 10.906,3.777 11.491,4.721L14.233,3.12C13.043,1.19 10.765,-0.165 8.063,-0.165C3.91,-0.165 0.664,3.161 0.664,7.328C0.664,11.455 3.85,14.78 8.285,14.78C12.237,14.78 15.241,12.112 15.241,7.718L15.241,6.486Z" fill="#FFFFFF"/>
<path d="M19.278,11.331L19.278,8.786L24.318,8.786L24.318,5.665L19.278,5.665L19.278,3.284L24.822,3.284L24.822,0.122L16.052,0.122L16.052,14.493L24.923,14.493L24.923,11.331L19.278,11.331Z" fill="#FFFFFF"/>
<path d="M35.211,0.122L24.727,0.122L24.727,3.284L28.356,3.284L28.356,14.493L31.582,14.493L31.582,3.284L35.211,3.284L35.211,0.122Z" fill="#FFFFFF"/>
<path d="M39.647,0.122L39.647,14.493L42.873,14.493L42.873,0.122L39.647,0.122Z" fill="#FFFFFF"/>
<path d="M53.766,0.122L43.282,0.122L43.282,3.284L46.911,3.284L46.911,14.493L50.137,14.493L50.137,3.284L53.766,3.284L53.766,0.122Z" fill="#FFFFFF"/>
<path d="M64.936,14.78C68.989,14.78 72.275,11.537 72.275,7.308C72.275,3.079 68.989,-0.165 64.936,-0.165C60.884,-0.165 57.598,3.079 57.598,7.308C57.598,11.537 60.884,14.78 64.936,14.78ZM64.936,11.578C62.638,11.578 60.823,9.874 60.823,7.308C60.823,4.741 62.638,3.038 64.936,3.038C67.235,3.038 69.05,4.741 69.05,7.308C69.05,9.874 67.235,11.578 64.936,11.578Z" fill="#FFFFFF"/>
<path d="M80.947,0.122L80.947,7.924L75.503,0.122L73.084,0.122L73.084,14.493L76.31,14.493L76.31,6.692L81.753,14.493L84.173,14.493L84.173,0.122L80.947,0.122Z" fill="#FFFFFF"/>
<path d="M15.241,30.896L15.241,31.45C15.241,33.243 14.616,34.755 13.366,35.987C12.116,37.205 10.469,37.814 8.426,37.814C6.276,37.814 4.502,37.103 3.104,35.679C1.706,34.242 1.007,32.484 1.007,30.403C1.007,28.323 1.699,26.571 3.083,25.148C4.468,23.711 6.222,22.992 8.346,22.992C9.636,22.992 10.819,23.307 11.894,23.936C12.983,24.566 13.823,25.408 14.414,26.462L13.467,27.036C12.996,26.133 12.297,25.408 11.37,24.86C10.456,24.313 9.448,24.039 8.346,24.039C6.518,24.039 5.012,24.655 3.829,25.887C2.66,27.105 2.075,28.61 2.075,30.403C2.075,32.196 2.667,33.708 3.85,34.94C5.032,36.158 6.558,36.767 8.426,36.767C10.08,36.767 11.417,36.309 12.439,35.392C13.46,34.475 14.031,33.318 14.152,31.922L8.164,31.922L8.164,30.896L15.241,30.896Z" fill="#FFFFFF"/>
<path d="M29.552,35.659C28.141,37.096 26.421,37.814 24.391,37.814C22.361,37.814 20.641,37.096 19.23,35.659C17.818,34.208 17.113,32.456 17.113,30.403C17.113,28.35 17.818,26.605 19.23,25.168C20.641,23.717 22.361,22.992 24.391,22.992C26.421,22.992 28.141,23.717 29.552,25.168C30.964,26.605 31.669,28.35 31.669,30.403C31.669,32.456 30.964,34.208 29.552,35.659ZM19.976,34.92C21.185,36.151 22.657,36.767 24.391,36.767C26.125,36.767 27.59,36.151 28.786,34.92C29.996,33.674 30.601,32.169 30.601,30.403C30.601,28.638 29.996,27.139 28.786,25.907C27.59,24.662 26.125,24.039 24.391,24.039C22.657,24.039 21.185,24.662 19.976,25.907C18.779,27.139 18.181,28.638 18.181,30.403C18.181,32.169 18.779,33.674 19.976,34.92Z" fill="#FFFFFF"/>
<path d="M46.013,35.659C44.601,37.096 42.881,37.814 40.851,37.814C38.822,37.814 37.101,37.096 35.69,35.659C34.279,34.208 33.573,32.456 33.573,30.403C33.573,28.35 34.279,26.605 35.69,25.168C37.101,23.717 38.822,22.992 40.851,22.992C42.881,22.992 44.601,23.717 46.013,25.168C47.424,26.605 48.13,28.35 48.13,30.403C48.13,32.456 47.424,34.208 46.013,35.659ZM36.436,34.92C37.646,36.151 39.117,36.767 40.851,36.767C42.585,36.767 44.05,36.151 45.247,34.92C46.456,33.674 47.061,32.169 47.061,30.403C47.061,28.638 46.456,27.139 45.247,25.907C44.05,24.662 42.585,24.039 40.851,24.039C39.117,24.039 37.646,24.662 36.436,25.907C35.24,27.139 34.641,28.638 34.641,30.403C34.641,32.169 35.24,33.674 36.436,34.92Z" fill="#FFFFFF"/>
<path d="M64.267,30.896L64.267,31.45C64.267,33.243 63.642,34.755 62.392,35.987C61.142,37.205 59.496,37.814 57.453,37.814C55.302,37.814 53.528,37.103 52.13,35.679C50.732,34.242 50.033,32.484 50.033,30.403C50.033,28.323 50.725,26.571 52.11,25.148C53.494,23.711 55.248,22.992 57.372,22.992C58.662,22.992 59.845,23.307 60.921,23.936C62.009,24.566 62.849,25.408 63.441,26.462L62.493,27.036C62.023,26.133 61.324,25.408 60.396,24.86C59.482,24.313 58.474,24.039 57.372,24.039C55.544,24.039 54.039,24.655 52.856,25.887C51.686,27.105 51.102,28.61 51.102,30.403C51.102,32.196 51.693,33.708 52.876,34.94C54.059,36.158 55.584,36.767 57.453,36.767C59.106,36.767 60.443,36.309 61.465,35.392C62.486,34.475 63.058,33.318 63.179,31.922L57.191,31.922L57.191,30.896L64.267,30.896Z" fill="#FFFFFF"/>
<path d="M68.014,36.562L74.667,36.562L74.667,37.588L66.945,37.588L66.945,23.218L68.014,23.218L68.014,36.562Z" fill="#FFFFFF"/>
<path d="M77.957,36.562L85.014,36.562L85.014,37.588L76.889,37.588L76.889,23.218L84.913,23.218L84.913,24.244L77.957,24.244L77.957,29.828L84.409,29.828L84.409,30.855L77.957,30.855L77.957,36.562Z" fill="#FFFFFF"/>
<path d="M97.813,23.218C99.076,23.218 100.124,23.642 100.958,24.491C101.791,25.339 102.208,26.4 102.208,27.673C102.208,28.946 101.791,30.006 100.958,30.855C100.124,31.69 99.076,32.107 97.813,32.107L94.083,32.107L94.083,37.588L93.014,37.588L93.014,23.218L97.813,23.218ZM97.813,31.081C98.78,31.081 99.573,30.759 100.192,30.116C100.823,29.473 101.139,28.658 101.139,27.673C101.139,26.674 100.823,25.853 100.192,25.209C99.573,24.566 98.78,24.244 97.813,24.244L94.083,24.244L94.083,31.081L97.813,31.081Z" fill="#FFFFFF"/>
<path d="M105.916,36.562L112.569,36.562L112.569,37.588L104.847,37.588L104.847,23.218L105.916,23.218L105.916,36.562Z" fill="#FFFFFF"/>
<path d="M124.68,37.588L123.309,33.934L116.233,33.934L114.862,37.588L113.733,37.588L119.217,23.218L120.346,23.218L125.81,37.588L124.68,37.588ZM116.636,32.908L122.926,32.908L119.781,24.552L116.636,32.908Z" fill="#FFFFFF"/>
<path d="M135.851,23.218L130.71,31.676L130.71,37.588L129.642,37.588L129.642,31.676L124.5,23.218L125.71,23.218L130.186,30.629L134.642,23.218L135.851,23.218Z" fill="#FFFFFF"/>
</svg>
