<svg width="34" height="28" viewBox="0 0 34 28" fill="none" xmlns="http://www.w3.org/2000/svg" xmlns:xlink="http://www.w3.org/1999/xlink">
<path d="M16.008,0.488L32.415,27.512L-0.417,27.512L7.141,15.612L16.008,0.488ZM9.233,16.983L4.133,25.013L27.97,25.013L23.696,17.973L23.576,18.073C22.85,18.653 21.745,19.18 20.191,19.18C19.276,19.18 18.491,18.872 17.825,18.5C17.278,18.181 16.752,17.828 16.25,17.443L16.018,17.273C14.875,16.442 13.918,15.847 12.691,15.847C11.245,15.847 10.345,16.205 9.836,16.505C9.614,16.636 9.411,16.797 9.233,16.983ZM22.358,15.77L16.043,5.37L11.315,13.437C11.737,13.378 12.196,13.348 12.691,13.347C14.8,13.347 16.341,14.417 17.49,15.252L17.746,15.44C18.236,15.798 18.636,16.09 19.043,16.318C19.496,16.57 19.856,16.68 20.191,16.68C21.138,16.68 21.7,16.373 22.015,16.12C22.181,15.987 22.291,15.86 22.355,15.773L22.358,15.77Z" clip-rule="evenodd" fill-rule="evenodd" fill="#FFFFFF"/>
</svg>
