<svg width="58" height="58" viewBox="0 0 58 58" fill="none" xmlns="http://www.w3.org/2000/svg" xmlns:xlink="http://www.w3.org/1999/xlink">
<path d="M56.465,11.164C57.254,11.164 57.9,10.519 57.914,9.73L57.914,0.707C57.914,-0.096 57.269,-0.742 56.465,-0.742L47.443,-0.742C46.654,-0.742 46.008,-0.096 46.008,0.707L46.008,3.849L11.295,3.849L11.295,0.707C11.295,-0.082 10.649,-0.727 9.86,-0.742L0.838,-0.742C0.049,-0.742 -0.597,-0.096 -0.611,0.707L-0.611,9.73C-0.611,10.519 0.034,11.164 0.838,11.164L3.979,11.164L3.979,45.878L0.838,45.878C0.049,45.878 -0.597,46.523 -0.611,47.312L-0.611,56.335C-0.611,57.124 0.034,57.769 0.838,57.784L9.86,57.784C10.649,57.784 11.295,57.138 11.295,56.335L11.295,53.194L46.008,53.194L46.008,56.335C46.008,57.124 46.654,57.769 47.443,57.784L56.465,57.784C57.254,57.784 57.9,57.138 57.914,56.335L57.914,47.312C57.914,46.523 57.269,45.878 56.465,45.878L53.324,45.878L53.324,11.164L56.465,11.164ZM2.258,8.295L2.258,2.127L8.426,2.127L8.426,8.295L2.258,8.295ZM8.426,54.915L2.258,54.915L2.258,48.747L8.426,48.747L8.426,54.915ZM46.008,47.312L46.008,50.325L11.295,50.325L11.295,47.312C11.295,46.523 10.649,45.878 9.86,45.878L6.848,45.878L6.848,11.164L9.86,11.164C10.649,11.164 11.295,10.519 11.295,9.73L11.295,6.717L46.008,6.717L46.008,9.73C46.008,10.519 46.654,11.164 47.443,11.164L50.455,11.164L50.455,45.878L47.443,45.878C46.654,45.878 46.008,46.523 46.008,47.312ZM55.045,48.747L55.045,54.915L48.877,54.915L48.877,48.747L55.045,48.747ZM48.877,8.295L48.877,2.127L55.045,2.127L55.045,8.295L48.877,8.295Z" transform="rotate(360 28.651 28.521)" fill="#FFFFFF"/>
</svg>
