<svg width="32" height="8" viewBox="0 0 32 8" fill="none" xmlns="http://www.w3.org/2000/svg" xmlns:xlink="http://www.w3.org/1999/xlink">
<path d="M3.673,7.334C4.557,7.334 5.405,6.982 6.03,6.357C6.655,5.732 7.007,4.884 7.007,4C7.007,3.116 6.655,2.268 6.03,1.643C5.405,1.018 4.557,0.667 3.673,0.667C2.789,0.667 1.941,1.018 1.316,1.643C0.691,2.268 0.34,3.116 0.34,4C0.34,4.884 0.691,5.732 1.316,6.357C1.941,6.982 2.789,7.334 3.673,7.334ZM27.006,7.334C27.891,7.334 28.738,6.982 29.363,6.357C29.989,5.732 30.34,4.884 30.34,4C30.34,3.116 29.989,2.268 29.363,1.643C28.738,1.018 27.891,0.667 27.006,0.667C26.122,0.667 25.275,1.018 24.649,1.643C24.024,2.268 23.673,3.116 23.673,4C23.673,4.884 24.024,5.732 24.649,6.357C25.275,6.982 26.122,7.334 27.006,7.334ZM15.34,7.334C16.224,7.334 17.072,6.982 17.697,6.357C18.322,5.732 18.673,4.884 18.673,4C18.673,3.116 18.322,2.268 17.697,1.643C17.072,1.018 16.224,0.667 15.34,0.667C14.456,0.667 13.608,1.018 12.983,1.643C12.358,2.268 12.007,3.116 12.007,4C12.007,4.884 12.358,5.732 12.983,6.357C13.608,6.982 14.456,7.334 15.34,7.334Z" fill="#000000"/>
</svg>
