<svg width="40" height="40" viewBox="0 0 40 40" fill="none" xmlns="http://www.w3.org/2000/svg" xmlns:xlink="http://www.w3.org/1999/xlink">
<path d="M13.5,4L13.5,3.908C13.524,2.996 13.903,2.129 14.557,1.492C15.211,0.856 16.088,0.5 17,0.5L23,0.5C24.932,0.5 26.5,2.068 26.5,4L26.5,5.9L28.878,6.84L30.848,5.7C31.652,5.236 32.607,5.111 33.504,5.351C34.4,5.592 35.164,6.178 35.628,6.982L38.628,12.178C39.092,12.982 39.218,13.937 38.978,14.833C38.738,15.729 38.152,16.494 37.348,16.958L35.5,18.026L35.5,21.134L37.348,22.202C38.152,22.666 38.738,23.431 38.978,24.327C39.218,25.223 39.092,26.178 38.628,26.982L35.628,32.178C35.164,32.981 34.399,33.568 33.503,33.808C32.607,34.048 31.652,33.922 30.848,33.458L29.004,32.396L26.5,33.86L26.5,36C26.5,36.46 26.41,36.915 26.234,37.339C26.058,37.764 25.8,38.15 25.475,38.475C25.15,38.8 24.764,39.058 24.34,39.234C23.915,39.409 23.46,39.5 23,39.5L17,39.5C16.072,39.5 15.182,39.131 14.525,38.475C13.869,37.818 13.5,36.928 13.5,36L13.5,33.86L10.996,32.396L9.152,33.46C8.348,33.924 7.393,34.05 6.497,33.81C5.601,33.57 4.836,32.983 4.372,32.18L1.372,26.982C0.908,26.178 0.782,25.223 1.022,24.327C1.262,23.431 1.849,22.666 2.652,22.202L4.5,21.134L4.5,18.026L2.652,16.96C1.849,16.496 1.262,15.731 1.022,14.835C0.782,13.939 0.908,12.984 1.372,12.18L4.372,6.982C4.836,6.179 5.601,5.592 6.497,5.352C7.393,5.112 8.348,5.238 9.152,5.702L11.122,6.838L13.502,5.898L13.5,4ZM16.5,3.974L16.5,7.94L10.878,10.16L7.652,8.3C7.595,8.267 7.532,8.245 7.467,8.237C7.402,8.228 7.336,8.232 7.272,8.249C7.209,8.266 7.149,8.295 7.097,8.335C7.045,8.375 7.001,8.425 6.968,8.482L3.968,13.678C3.935,13.735 3.914,13.798 3.905,13.863C3.897,13.928 3.901,13.995 3.918,14.058C3.935,14.122 3.965,14.181 4.005,14.233C4.045,14.286 4.095,14.329 4.152,14.362L7.5,16.294L7.5,22.866L4.152,24.798C4.095,24.831 4.045,24.874 4.005,24.927C3.965,24.979 3.935,25.038 3.918,25.102C3.901,25.165 3.897,25.232 3.905,25.297C3.914,25.362 3.935,25.425 3.968,25.482L6.968,30.678C7.001,30.735 7.044,30.785 7.097,30.825C7.149,30.865 7.208,30.895 7.272,30.912C7.335,30.929 7.402,30.933 7.467,30.925C7.532,30.916 7.595,30.895 7.652,30.862L11.004,28.926L16.5,32.14L16.5,36C16.5,36.276 16.724,36.5 17,36.5L23,36.5C23.133,36.5 23.26,36.447 23.354,36.354C23.447,36.26 23.5,36.133 23.5,36L23.5,32.14L28.996,28.926L32.348,30.862C32.405,30.895 32.468,30.916 32.533,30.925C32.598,30.933 32.665,30.929 32.728,30.912C32.792,30.895 32.851,30.865 32.904,30.825C32.956,30.785 32.999,30.735 33.032,30.678L36.032,25.482C36.098,25.367 36.116,25.231 36.081,25.103C36.047,24.975 35.963,24.866 35.848,24.8L32.5,22.866L32.5,16.294L35.848,14.362C35.905,14.329 35.955,14.286 35.995,14.233C36.036,14.181 36.065,14.122 36.082,14.058C36.099,13.995 36.104,13.928 36.095,13.863C36.086,13.798 36.065,13.735 36.032,13.678L33.032,8.482C32.999,8.425 32.956,8.375 32.904,8.335C32.851,8.295 32.792,8.265 32.728,8.248C32.665,8.231 32.598,8.227 32.533,8.235C32.468,8.244 32.405,8.265 32.348,8.298L29.122,10.162L23.5,7.94L23.5,4C23.5,3.867 23.447,3.74 23.354,3.646C23.26,3.553 23.133,3.5 23,3.5L17,3.5C16.872,3.5 16.748,3.549 16.655,3.637C16.562,3.725 16.507,3.846 16.5,3.974ZM20,15.5C18.807,15.5 17.662,15.974 16.818,16.818C15.974,17.662 15.5,18.807 15.5,20C15.5,21.193 15.974,22.338 16.818,23.182C17.662,24.026 18.807,24.5 20,24.5C21.194,24.5 22.338,24.026 23.182,23.182C24.026,22.338 24.5,21.193 24.5,20C24.5,18.807 24.026,17.662 23.182,16.818C22.338,15.974 21.194,15.5 20,15.5ZM12.5,20C12.5,18.011 13.29,16.103 14.697,14.697C16.103,13.29 18.011,12.5 20,12.5C21.989,12.5 23.897,13.29 25.303,14.697C26.71,16.103 27.5,18.011 27.5,20C27.5,21.989 26.71,23.897 25.303,25.303C23.897,26.71 21.989,27.5 20,27.5C18.011,27.5 16.103,26.71 14.697,25.303C13.29,23.897 12.5,21.989 12.5,20Z" clip-rule="evenodd" fill-rule="evenodd" fill="#000000"/>
</svg>
