<svg width="8" height="10" viewBox="0 0 8 10" fill="none" xmlns="http://www.w3.org/2000/svg" xmlns:xlink="http://www.w3.org/1999/xlink">
<path d="M3.799,0.335C3.01,0.335 2.238,0.569 1.582,1.007C0.926,1.446 0.414,2.069 0.112,2.798C-0.19,3.527 -0.269,4.33 -0.115,5.104C0.039,5.878 0.419,6.589 0.977,7.147C1.535,7.705 2.246,8.085 3.02,8.239C3.795,8.393 4.597,8.314 5.326,8.012C6.055,7.71 6.678,7.198 7.117,6.542C7.555,5.886 7.789,5.115 7.789,4.325C7.789,3.267 7.369,2.252 6.621,1.504C5.872,0.755 4.857,0.335 3.799,0.335ZM3.799,6.321C3.404,6.321 3.019,6.204 2.69,5.984C2.362,5.765 2.107,5.453 1.956,5.089C1.805,4.724 1.765,4.323 1.842,3.936C1.919,3.549 2.109,3.194 2.388,2.915C2.667,2.636 3.023,2.445 3.41,2.368C3.797,2.292 4.198,2.331 4.562,2.482C4.927,2.633 5.239,2.889 5.458,3.217C5.677,3.545 5.794,3.931 5.794,4.325C5.794,4.855 5.584,5.362 5.21,5.736C4.836,6.11 4.328,6.321 3.799,6.321Z" fill="#FFFFFF"/>
</svg>
