<svg width="44" height="16" viewBox="0 0 44 16" fill="none" xmlns="http://www.w3.org/2000/svg" xmlns:xlink="http://www.w3.org/1999/xlink">
<path d="M30.468,10.001C30.477,7.79 28.654,6.835 27.239,6.094C26.343,5.625 25.611,5.242 25.611,4.68C25.611,4.201 26.075,3.694 27.061,3.563C28.234,3.447 29.417,3.653 30.483,4.158L31.092,1.258C30.053,0.868 28.953,0.667 27.844,0.663C24.422,0.663 22.044,2.49 22.044,5.1C22.044,7.029 23.769,8.102 25.074,8.74C26.379,9.378 26.887,9.827 26.872,10.407C26.872,11.306 25.799,11.712 24.799,11.727C23.564,11.742 22.347,11.443 21.261,10.857L20.637,13.757C21.866,14.236 23.175,14.477 24.494,14.467C28.134,14.467 30.526,12.669 30.541,9.885L30.468,10.001ZM21.057,0.895L18.157,14.308L14.677,14.308L17.577,0.895L21.057,0.895ZM35.644,9.595L37.471,4.563L38.529,9.595L35.644,9.595ZM42.735,14.351L39.516,14.351L39.096,12.35L34.731,12.35L34.021,14.351L30.367,14.351L35.572,1.925C35.812,1.333 36.384,0.944 37.022,0.939L39.922,0.939L42.735,14.351ZM10.545,14.263L16.171,0.85L12.401,0.85L8.79,9.971L7.34,2.213C7.212,1.425 6.529,0.847 5.731,0.85L-0.171,0.85L-0.258,1.242C0.926,1.474 2.076,1.854 3.164,2.373C3.628,2.591 3.942,3.037 3.991,3.547L6.76,14.263L10.545,14.263Z" clip-rule="evenodd" fill-rule="evenodd" fill="#2A2A6C"/>
</svg>
