<svg width="36" height="34" viewBox="0 0 36 34" fill="none" xmlns="http://www.w3.org/2000/svg" xmlns:xlink="http://www.w3.org/1999/xlink">
<path d="M20.63,4.952L25.083,0.5L26.85,2.267L22.398,6.72C21.266,7.852 20.64,9.157 20.531,10.385C20.46,11.218 20.621,12.057 21.076,12.838L29.25,4.667L31.016,6.433L22.84,14.61C23.628,15.078 24.463,15.255 25.283,15.2C26.48,15.122 27.728,14.543 28.776,13.495C30.198,12.072 31.617,10.646 33.033,9.217L33.41,8.837L35.188,10.595L34.81,10.978C33.39,12.409 31.968,13.837 30.543,15.262C29.128,16.677 27.331,17.568 25.448,17.693C23.873,17.798 22.311,17.345 21.036,16.413L18.985,18.467L31.851,31.333L30.083,33.1L20.133,23.15L15.133,28.15L12.216,25.233L4.35,33.1L2.583,31.333L10.45,23.467L3.13,16.148C2.394,15.413 1.811,14.54 1.413,13.58C1.015,12.619 0.811,11.59 0.811,10.55C0.811,9.51 1.015,8.481 1.413,7.52C1.811,6.56 2.394,5.687 3.13,4.952L4.3,3.782L17.216,16.698L19.271,14.645C18.335,13.35 17.898,11.76 18.043,10.168C18.21,8.257 19.158,6.425 20.63,4.952ZM18.366,21.383L4.346,7.363C3.587,8.407 3.226,9.687 3.326,10.973C3.427,12.26 3.984,13.468 4.896,14.38L15.133,24.615L18.366,21.383Z" clip-rule="evenodd" fill-rule="evenodd" fill="#FFFFFF"/>
</svg>
