<svg width="44" height="44" viewBox="0 0 44 44" fill="none" xmlns="http://www.w3.org/2000/svg" xmlns:xlink="http://www.w3.org/1999/xlink">
<path d="M41.934,2.675L23.9,42.579C23.749,42.913 23.494,43.187 23.173,43.358C22.852,43.529 22.484,43.588 22.127,43.525C21.77,43.461 21.444,43.28 21.199,43.008C20.955,42.737 20.806,42.391 20.776,42.024L19.251,23.475L0.961,21.928C0.599,21.898 0.258,21.747 -0.009,21.499C-0.277,21.251 -0.456,20.92 -0.518,20.558C-0.581,20.196 -0.523,19.823 -0.355,19.498C-0.186,19.172 0.084,18.913 0.414,18.76L39.76,0.471C40.064,0.329 40.404,0.286 40.733,0.346C41.062,0.406 41.366,0.566 41.602,0.806C41.839,1.046 41.998,1.354 42.057,1.688C42.116,2.022 42.073,2.366 41.933,2.675L41.934,2.675Z" fill="#080809"/>
</svg>
