<svg width="28" height="28" viewBox="0 0 28 28" fill="none" xmlns="http://www.w3.org/2000/svg" xmlns:xlink="http://www.w3.org/1999/xlink">
<path d="M15.704,4.321L19.267,0.76L20.68,2.173L17.119,5.736C16.213,6.641 15.712,7.685 15.625,8.668C15.568,9.334 15.697,10.005 16.061,10.63L22.6,4.093L24.013,5.506L17.472,12.048C18.103,12.422 18.771,12.564 19.427,12.52C20.384,12.457 21.383,11.994 22.221,11.156C23.359,10.017 24.494,8.876 25.627,7.733L25.928,7.429L27.351,8.836L27.048,9.142C25.912,10.287 24.775,11.429 23.635,12.569C22.503,13.701 21.065,14.414 19.559,14.514C18.298,14.599 17.049,14.236 16.029,13.49L14.388,15.133L24.681,25.426L23.267,26.84L15.307,18.88L11.307,22.88L8.973,20.546L2.68,26.84L1.267,25.426L7.56,19.133L1.704,13.278C1.116,12.69 0.649,11.992 0.331,11.224C0.012,10.455 -0.151,9.632 -0.151,8.8C-0.151,7.968 0.012,7.144 0.331,6.376C0.649,5.607 1.116,4.909 1.704,4.321L2.64,3.385L12.973,13.718L14.617,12.076C13.868,11.04 13.519,9.768 13.635,8.494C13.768,6.965 14.527,5.5 15.704,4.321ZM13.893,17.466L2.677,6.25C2.07,7.085 1.781,8.109 1.861,9.138C1.942,10.167 2.387,11.134 3.117,11.864L11.307,20.052L13.893,17.466Z" clip-rule="evenodd" fill-rule="evenodd" fill="#000000"/>
</svg>
