<svg width="36" height="32" viewBox="0 0 36 32" fill="none" xmlns="http://www.w3.org/2000/svg" xmlns:xlink="http://www.w3.org/1999/xlink">
<path d="M20.63,3.752L25.083,-0.7L26.85,1.067L22.398,5.52C21.266,6.652 20.64,7.957 20.531,9.185C20.46,10.018 20.621,10.857 21.076,11.638L29.25,3.467L31.016,5.233L22.84,13.41C23.628,13.878 24.463,14.055 25.283,14C26.48,13.922 27.728,13.343 28.776,12.295C30.198,10.872 31.617,9.446 33.033,8.017L33.41,7.637L35.188,9.395L34.81,9.778C33.39,11.209 31.968,12.637 30.543,14.062C29.128,15.477 27.331,16.368 25.448,16.493C23.873,16.598 22.311,16.145 21.036,15.213L18.985,17.267L31.851,30.133L30.083,31.9L20.133,21.95L15.133,26.95L12.216,24.033L4.35,31.9L2.583,30.133L10.45,22.267L3.13,14.948C2.394,14.213 1.811,13.34 1.413,12.38C1.015,11.419 0.811,10.39 0.811,9.35C0.811,8.31 1.015,7.281 1.413,6.32C1.811,5.36 2.394,4.487 3.13,3.752L4.3,2.582L17.216,15.498L19.271,13.445C18.335,12.15 17.898,10.56 18.043,8.968C18.21,7.057 19.158,5.225 20.63,3.752ZM18.366,20.183L4.346,6.163C3.587,7.207 3.226,8.487 3.326,9.773C3.427,11.06 3.984,12.268 4.896,13.18L15.133,23.415L18.366,20.183Z" clip-rule="evenodd" fill-rule="evenodd" fill="#FFFFFF"/>
</svg>
