<svg width="38" height="38" viewBox="0 0 38 38" fill="none" xmlns="http://www.w3.org/2000/svg" xmlns:xlink="http://www.w3.org/1999/xlink">
<path d="M14.24,2.28C11.062,2.28 8.015,3.542 5.769,5.789C3.522,8.036 2.26,11.083 2.26,14.26C2.26,17.437 3.522,20.484 5.769,22.731C8.015,24.978 11.062,26.24 14.24,26.24C17.417,26.24 20.464,24.978 22.711,22.731C24.958,20.484 26.22,17.437 26.22,14.26C26.22,11.083 24.958,8.036 22.711,5.789C20.464,3.542 17.417,2.28 14.24,2.28ZM-0.74,14.26C-0.74,11.861 -0.164,9.498 0.939,7.368C2.043,5.238 3.642,3.404 5.602,2.021C7.561,0.638 9.825,-0.254 12.201,-0.581C14.577,-0.907 16.998,-0.658 19.258,0.145C21.518,0.949 23.552,2.283 25.189,4.036C26.826,5.79 28.018,7.911 28.665,10.221C29.312,12.53 29.394,14.962 28.906,17.31C28.417,19.659 27.372,21.856 25.858,23.716L36.74,34.6L34.62,36.722L23.74,25.842C21.546,27.641 18.886,28.781 16.07,29.127C13.254,29.474 10.398,29.014 7.833,27.801C5.269,26.587 3.101,24.67 1.583,22.273C0.066,19.876 -0.74,17.097 -0.74,14.26Z" clip-rule="evenodd" fill-rule="evenodd" fill="#000000"/>
</svg>
