<svg width="56" height="50" viewBox="0 0 56 50" fill="none" xmlns="http://www.w3.org/2000/svg" xmlns:xlink="http://www.w3.org/1999/xlink">
<path d="M15.866,4.659C15.308,4.659 14.755,4.769 14.239,4.982C13.724,5.196 13.255,5.509 12.861,5.903C12.466,6.298 12.153,6.767 11.939,7.282C11.726,7.798 11.616,8.351 11.616,8.909C11.616,9.467 11.726,10.019 11.939,10.535C12.153,11.051 12.466,11.519 12.861,11.914C13.255,12.309 13.724,12.622 14.239,12.835C14.755,13.049 15.308,13.159 15.866,13.159C16.993,13.159 18.074,12.711 18.871,11.914C19.668,11.117 20.116,10.036 20.116,8.909C20.116,7.782 19.668,6.701 18.871,5.903C18.074,5.106 16.993,4.659 15.866,4.659ZM7.366,8.909C7.366,6.654 8.261,4.492 9.855,2.898C11.45,1.304 13.612,0.409 15.866,0.409C18.12,0.409 20.282,1.304 21.876,2.898C23.47,4.492 24.366,6.654 24.366,8.909C24.366,11.163 23.47,13.325 21.876,14.919C20.282,16.513 18.12,17.409 15.866,17.409C13.612,17.409 11.45,16.513 9.855,14.919C8.261,13.325 7.366,11.163 7.366,8.909ZM38.533,10.325C37.405,10.325 36.324,10.773 35.527,11.57C34.73,12.367 34.283,13.448 34.283,14.575C34.283,15.703 34.73,16.784 35.527,17.581C36.324,18.378 37.405,18.825 38.533,18.825C39.66,18.825 40.741,18.378 41.538,17.581C42.335,16.784 42.783,15.703 42.783,14.575C42.783,13.448 42.335,12.367 41.538,11.57C40.741,10.773 39.66,10.325 38.533,10.325ZM30.033,14.575C30.033,12.321 30.928,10.159 32.522,8.565C34.116,6.971 36.278,6.075 38.533,6.075C40.787,6.075 42.949,6.971 44.543,8.565C46.137,10.159 47.033,12.321 47.033,14.575C47.033,16.83 46.137,18.992 44.543,20.586C42.949,22.18 40.787,23.075 38.533,23.075C36.278,23.075 34.116,22.18 32.522,20.586C30.928,18.992 30.033,16.83 30.033,14.575ZM15.866,21.659C18.762,21.639 21.627,22.263 24.253,23.484C26.879,24.706 29.201,26.495 31.053,28.722C35.119,27.055 39.626,26.794 43.858,27.981C48.09,29.168 51.804,31.734 54.411,35.273L54.824,35.837L54.824,49.992L-0.426,49.992L-0.426,30.167L-0.009,29.603C1.824,27.122 4.217,25.109 6.976,23.728C9.735,22.348 12.781,21.638 15.866,21.659ZM26.491,45.742L50.574,45.742L50.574,37.256C49.124,35.458 47.29,34.008 45.206,33.011C43.123,32.015 40.842,31.498 38.533,31.498C36.223,31.498 33.942,32.015 31.859,33.011C29.775,34.008 27.941,35.458 26.491,37.256L26.491,45.742ZM22.241,45.742L3.824,45.742L3.824,31.592C5.273,29.802 7.107,28.362 9.189,27.378C11.272,26.394 13.549,25.892 15.852,25.909L15.88,25.909C18.009,25.891 20.118,26.318 22.072,27.162C24.027,28.006 25.784,29.249 27.23,30.81C25.474,32.041 23.929,33.548 22.655,35.273L22.241,35.837L22.241,45.742Z" clip-rule="evenodd" fill-rule="evenodd" fill="#000000"/>
</svg>
