<svg width="34" height="32" viewBox="0 0 34 32" fill="none" xmlns="http://www.w3.org/2000/svg" xmlns:xlink="http://www.w3.org/1999/xlink">
<path d="M16,0.475L32.25,10.407L32.25,13.19L27.25,13.19L27.25,29.023L31,29.023L31,31.523L1,31.523L1,29.023L4.75,29.023L4.75,13.19L-0.25,13.19L-0.25,10.407L16,0.475ZM7.25,13.192L7.25,29.025L11.417,29.025L11.417,13.192L7.25,13.192ZM13.917,13.192L13.917,29.025L18.083,29.025L18.083,13.192L13.917,13.192ZM20.583,13.192L20.583,29.025L24.75,29.025L24.75,13.192L20.583,13.192ZM4.078,10.692L27.922,10.692L16,3.403L4.078,10.692Z" clip-rule="evenodd" fill-rule="evenodd" fill="#FFFFFF"/>
</svg>
