<svg width="62" height="74" viewBox="0 0 62 74" fill="none" xmlns="http://www.w3.org/2000/svg" xmlns:xlink="http://www.w3.org/1999/xlink">
<path d="M7.317,23L6.199,23C2.333,23 -0.8,26.134 -0.8,30L-0.8,66C-0.8,69.866 2.334,73 6.2,73L54.2,73C58.066,73 61.2,69.866 61.2,66L61.2,30C61.2,26.134 58.067,23 54.2,23L53.083,23C52.654,17.53 51.023,12.092 47.882,7.744C44.083,2.483 38.189,-1 30.2,-1C22.211,-1 16.317,2.483 12.518,7.744C9.377,12.092 7.746,17.53 7.317,23ZM13.338,23L47.062,23C46.646,18.554 45.296,14.411 43.018,11.256C40.317,7.517 36.211,5 30.2,5C24.189,5 20.083,7.517 17.382,11.256C15.104,14.411 13.754,18.554 13.338,23ZM6.199,29C5.648,29 5.2,29.447 5.2,30L5.2,66C5.2,66.552 5.648,67 6.2,67L54.2,67C54.752,67 55.2,66.552 55.2,66L55.2,30C55.2,29.447 54.752,29 54.2,29L6.199,29ZM27.2,56L27.2,40L33.2,40L33.2,56L27.2,56Z" clip-rule="evenodd" fill-rule="evenodd" fill="#000000"/>
</svg>
