<svg width="34" height="28" viewBox="0 0 34 28" fill="none" xmlns="http://www.w3.org/2000/svg" xmlns:xlink="http://www.w3.org/1999/xlink">
<path d="M29.32,-0.12L2.68,-0.12C1.768,-0.12 0.98,0.205 0.316,0.856C-0.348,1.507 -0.68,2.289 -0.68,3.2L-0.68,19.88C-0.68,20.791 -0.348,21.572 0.316,22.223C0.98,22.874 1.768,23.2 2.68,23.2L7.797,23.2L11.156,26.52L20.844,26.52L24.203,23.2L29.32,23.2C30.232,23.2 31.02,22.874 31.684,22.223C32.348,21.572 32.68,20.791 32.68,19.88L32.68,3.2C32.68,2.289 32.348,1.507 31.684,0.856C31.02,0.205 30.232,-0.12 29.32,-0.12ZM2.68,19.88L2.68,3.2L29.32,3.2L29.32,19.88L22.797,19.88L19.477,23.2L12.523,23.2L9.203,19.88L2.68,19.88ZM20.707,7.673C20.707,7.673 20.378,7.344 19.721,6.686C19.063,6.029 17.823,5.7 16,5.7C14.177,5.7 12.608,6.358 11.293,7.673C9.978,8.988 9.32,10.557 9.32,12.38C9.32,14.203 9.971,15.765 11.273,17.067C12.576,18.369 14.151,19.02 16,19.02C17.849,19.02 19.425,18.369 20.727,17.067C22.029,15.765 22.68,14.203 22.68,12.38C22.68,10.557 22.022,8.988 20.707,7.673ZM18.344,14.723C18.344,14.723 18.181,14.886 17.855,15.212C17.53,15.537 16.911,15.7 16,15.7C15.089,15.7 14.307,15.374 13.656,14.723C13.005,14.072 12.68,13.291 12.68,12.38C12.68,11.468 13.005,10.68 13.656,10.016C14.307,9.352 15.089,9.02 16,9.02C16.911,9.02 17.693,9.352 18.344,10.016C18.995,10.68 19.32,11.468 19.32,12.38C19.32,13.291 18.995,14.072 18.344,14.723Z" fill="#000000"/>
</svg>
