<svg width="62" height="74" viewBox="0 0 62 74" fill="none" xmlns="http://www.w3.org/2000/svg" xmlns:xlink="http://www.w3.org/1999/xlink">
<path d="M7.317,23.4L6.199,23.4C2.333,23.4 -0.8,26.535 -0.8,30.4L-0.8,66.4C-0.8,70.266 2.334,73.4 6.2,73.4L54.2,73.4C58.066,73.4 61.2,70.266 61.2,66.4L61.2,30.4C61.2,26.535 58.067,23.4 54.2,23.4L53.083,23.4C52.654,17.93 51.023,12.493 47.882,8.144C44.083,2.884 38.189,-0.6 30.2,-0.6C22.211,-0.6 16.317,2.884 12.518,8.144C9.377,12.493 7.746,17.93 7.317,23.4ZM13.338,23.4L47.062,23.4C46.646,18.955 45.296,14.812 43.018,11.657C40.317,7.917 36.211,5.4 30.2,5.4C24.189,5.4 20.083,7.917 17.382,11.657C15.104,14.812 13.754,18.955 13.338,23.4ZM6.199,29.4C5.648,29.4 5.2,29.848 5.2,30.4L5.2,66.4C5.2,66.953 5.648,67.4 6.2,67.4L54.2,67.4C54.752,67.4 55.2,66.953 55.2,66.4L55.2,30.4C55.2,29.848 54.752,29.4 54.2,29.4L6.199,29.4ZM27.2,56.4L27.2,40.4L33.2,40.4L33.2,56.4L27.2,56.4Z" clip-rule="evenodd" fill-rule="evenodd" fill="#000000"/>
</svg>
