<svg width="2208" height="818" viewBox="0 0 2208 818" fill="none" xmlns="http://www.w3.org/2000/svg" xmlns:xlink="http://www.w3.org/1999/xlink">
<path d="M2184.24,232.348L2187.72,235.938L2187.76,235.896L2187.8,235.856L2184.24,232.348ZM4.549,791.208L42.66,768.624L37.563,760.022L-0.549,782.606L4.549,791.208ZM87.212,693.102L102.739,645.424L93.23,642.328L77.703,690.004L87.212,693.102ZM135.297,554.768L148.001,504.58L138.307,502.128L125.603,552.314L135.297,554.768ZM197.76,437.49L230.226,419.926L225.466,411.13L193.001,428.696L197.76,437.49ZM305.48,402.962L339.358,402.962L339.358,392.962L305.48,392.962L305.48,402.962ZM417.078,387.678L465.07,372.622L462.076,363.08L414.084,378.136L417.078,387.678ZM522.236,301.046L546.232,275.952L539.006,269.042L515.01,294.134L522.236,301.046ZM585.516,238.816L595.396,206.194L585.826,203.296L575.946,235.918L585.516,238.816ZM618.488,132.619L636.838,110.035L629.078,103.729L610.728,126.313L618.488,132.619ZM665.546,46.6L676.838,26.526L668.122,21.623L656.83,41.698L665.546,46.6ZM713.416,9L738.824,9L738.824,-1L713.416,-1L713.416,9ZM794.86,8.65L820.266,18.688L823.94,9.387L798.534,-0.65L794.86,8.65ZM851.622,79.222L868.562,109.333L877.278,104.431L860.338,74.319L851.622,79.222ZM1056.262,242.738L1078.848,262.812L1085.49,255.338L1062.906,235.262L1056.262,242.738ZM1104.186,274.756L1116.89,299.848L1125.81,295.332L1113.108,270.238L1104.186,274.756ZM1135.89,322.052L1154.24,332.088L1159.038,323.316L1140.688,313.278L1135.89,322.052ZM1253.536,354.022L1270.474,369.078L1277.118,361.604L1260.18,346.548L1253.536,354.022ZM1294.97,380.378L1311.908,380.378L1311.908,370.378L1294.97,370.378L1294.97,380.378ZM1332.462,387.476L1349.4,395.004L1353.462,385.866L1336.522,378.338L1332.462,387.476ZM1365.52,403.088L1382.458,430.69L1390.98,425.46L1374.042,397.856L1365.52,403.088ZM1395.99,446.878L1403.048,474.48L1412.736,472.004L1405.678,444.402L1395.99,446.878ZM1416.906,499.2L1435.256,519.274L1442.636,512.528L1424.286,492.452L1416.906,499.2ZM1453.648,531.866L1467.764,546.922L1475.06,540.084L1460.944,525.028L1453.648,531.866ZM1479.708,567.58L1506.526,587.656L1512.52,579.65L1485.7,559.574L1479.708,567.58ZM1534.93,598.69L1565.984,598.69L1565.984,588.69L1534.93,588.69L1534.93,598.69ZM1589.436,587.026L1607.786,566.952L1600.406,560.204L1582.056,580.278L1589.436,587.026ZM1623.006,557.998L1642.766,568.036L1647.296,559.12L1627.534,549.082L1623.006,557.998ZM1669.17,567.798L1688.932,580.346L1694.292,571.904L1674.53,559.356L1669.17,567.798ZM1705.756,586.356L1717.048,603.922L1725.46,598.514L1714.168,580.948L1705.756,586.356ZM1727.648,617.276L1733.294,644.878L1743.09,642.874L1737.444,615.272L1727.648,617.276ZM1756.044,680.234L1781.452,702.818L1788.094,695.344L1762.688,672.76L1756.044,680.234ZM1836.166,724.086L1865.808,729.104L1867.476,719.244L1837.834,714.226L1836.166,724.086ZM1904.508,743.176L1927.092,760.742L1933.232,752.848L1910.646,735.282L1904.508,743.176ZM1963.42,806.532L1986.004,816.57L1990.066,807.43L1967.48,797.394L1963.42,806.532ZM2033.1,806.162L2048.62,796.124L2043.2,787.726L2027.66,797.764L2033.1,806.162ZM2056.32,758.326L2061.96,740.76L2052.44,737.7L2046.8,755.264L2056.32,758.326ZM2070.66,533.466L2070.66,508.372L2060.66,508.372L2060.66,533.466L2070.66,533.466ZM2076.2,479.292L2080.44,459.218L2070.66,457.154L2066.42,477.228L2076.2,479.292ZM2085.94,434.692L2094.4,409.598L2084.92,406.402L2076.46,431.494L2085.94,434.692ZM2098.68,379.354L2107.14,351.752L2097.58,348.82L2089.12,376.422L2098.68,379.354ZM2121.06,322.178L2130.94,299.594L2121.78,295.586L2111.9,318.17L2121.06,322.178ZM2141.3,283.444L2155.42,268.388L2148.12,261.55L2134.02,276.606L2141.3,283.444ZM2172.2,250.994L2187.72,235.938L2180.76,228.758L2165.24,243.814L2172.2,250.994ZM2187.8,235.856L2207.56,215.78L2200.44,208.766L2180.68,228.84L2187.8,235.856ZM1176.4,337.72L1217.334,337.72L1217.334,327.72L1176.4,327.72L1176.4,337.72ZM2066.44,709.118L2066.44,563.578L2056.44,563.578L2056.44,709.118L2066.44,709.118ZM1010.094,207.662L1032.678,227.738L1039.322,220.262L1016.738,200.188L1010.094,207.662Z" fill="url(#ps_0_9_10001)"/>
<defs>
<linearGradient id="ps_0_9_10001" x1="2" y1="408" x2="2204" y2="408" gradientUnits="userSpaceOnUse">
<stop stop-color="#22C55E"/>
<stop offset="0.4" stop-color="#22C55E"/>
<stop offset="0.4" stop-color="#000000"/>
</linearGradient>
</defs>
</svg>
