<svg width="60" height="60" viewBox="0 0 60 60" fill="none" xmlns="http://www.w3.org/2000/svg" xmlns:xlink="http://www.w3.org/1999/xlink">
<path d="M30,0C13.431,0 0,13.431 0,30C0,46.569 13.431,60 30,60C46.569,60 60,46.569 60,30C60,13.431 46.569,0 30,0ZM30,15.833C22.188,15.833 15.833,22.188 15.833,30C15.833,31.379 14.712,32.5 13.333,32.5C11.954,32.5 10.833,31.379 10.833,30C10.833,19.431 19.433,10.833 30,10.833C31.379,10.833 32.5,11.954 32.5,13.333C32.5,14.713 31.379,15.833 30,15.833Z" fill="#8B4513" fill-opacity="0.5"/>
</svg>
