<svg width="34" height="30" viewBox="0 0 34 30" fill="none" xmlns="http://www.w3.org/2000/svg" xmlns:xlink="http://www.w3.org/1999/xlink">
<path d="M12.014,2.295L12.014,-0.185L9.73,-0.185L9.73,2.54L9.749,2.54L9.749,10.907L8.505,10.907L8.505,7.81L8.489,7.81L8.489,5.545L6.205,5.545L6.205,7.808L5.092,7.808L5.092,5.545L2.809,5.545L2.809,7.808L1.717,7.808L1.717,5.545L-0.566,5.545L-0.566,7.808L-0.6,7.808L-0.6,29.785L13.284,29.785L13.284,20.018C13.289,20.007 13.305,19.955 13.369,19.897C13.445,19.827 13.689,19.65 14.329,19.65L17.705,19.65C17.862,19.676 18.011,19.739 18.139,19.833C18.205,19.887 18.257,19.949 18.292,20.02C18.325,20.088 18.364,20.203 18.364,20.387L18.364,29.787L32.604,29.787L32.604,7.807L32.579,7.807L32.579,5.545L30.295,5.545L30.295,7.808L29.077,7.808L29.077,5.545L26.794,5.545L26.794,7.808L25.652,7.808L25.652,5.545L23.369,5.545L23.369,7.808L23.357,7.808L23.357,10.908L21.747,10.908L21.747,2.295L21.73,2.295L21.73,-0.185L19.447,-0.185L19.447,2.295L18.427,2.295L18.427,-0.185L16.144,-0.185L16.144,2.295L15.357,2.295L15.357,-0.185L13.074,-0.185L13.074,2.295L12.014,2.295ZM12.032,4.578L12.032,13.19L6.222,13.19L6.222,10.09L1.682,10.09L1.682,27.503L10.999,27.503L10.999,19.948C11.012,19.407 11.252,18.743 11.815,18.22C12.4,17.68 13.244,17.367 14.327,17.367L17.807,17.367L17.852,17.37C18.325,17.408 18.99,17.593 19.564,18.05C20.18,18.545 20.645,19.323 20.645,20.387L20.645,27.503L30.319,27.503L30.319,10.092L25.639,10.092L25.639,13.192L19.462,13.192L19.462,4.577L12.032,4.578Z" clip-rule="evenodd" fill-rule="evenodd" fill="#FFFFFF"/>
</svg>
