<svg width="28" height="26" viewBox="0 0 28 26" fill="none" xmlns="http://www.w3.org/2000/svg" xmlns:xlink="http://www.w3.org/1999/xlink">
<path d="M10.41,2.596L10.41,0.612L8.583,0.612L8.583,2.792L8.598,2.792L8.598,9.485L7.603,9.485L7.603,7.008L7.59,7.008L7.59,5.196L5.763,5.196L5.763,7.007L4.873,7.007L4.873,5.196L3.046,5.196L3.046,7.007L2.173,7.007L2.173,5.196L0.346,5.196L0.346,7.007L0.319,7.007L0.319,24.588L11.426,24.588L11.426,16.775C11.43,16.765 11.443,16.724 11.494,16.677C11.555,16.621 11.75,16.48 12.262,16.48L14.963,16.48C15.089,16.501 15.208,16.551 15.31,16.627C15.363,16.669 15.404,16.719 15.433,16.776C15.459,16.831 15.49,16.923 15.49,17.069L15.49,24.589L26.882,24.589L26.882,7.005L26.862,7.005L26.862,5.196L25.035,5.196L25.035,7.007L24.061,7.007L24.061,5.196L22.234,5.196L22.234,7.007L21.321,7.007L21.321,5.196L19.494,5.196L19.494,7.007L19.485,7.007L19.485,9.487L18.197,9.487L18.197,2.596L18.183,2.596L18.183,0.612L16.357,0.612L16.357,2.596L15.541,2.596L15.541,0.612L13.714,0.612L13.714,2.596L13.085,2.596L13.085,0.612L11.258,0.612L11.258,2.596L10.41,2.596ZM10.425,4.423L10.425,11.312L5.777,11.312L5.777,8.832L2.145,8.832L2.145,22.763L9.598,22.763L9.598,16.719C9.609,16.285 9.801,15.755 10.251,15.336C10.719,14.904 11.394,14.653 12.261,14.653L15.045,14.653L15.081,14.656C15.459,14.687 15.991,14.835 16.45,15.2C16.943,15.596 17.315,16.219 17.315,17.069L17.315,22.763L25.054,22.763L25.054,8.833L21.31,8.833L21.31,11.313L16.369,11.313L16.369,4.421L10.425,4.423Z" clip-rule="evenodd" fill-rule="evenodd" fill="#000000"/>
</svg>
