<svg width="28" height="26" viewBox="0 0 28 26" fill="none" xmlns="http://www.w3.org/2000/svg" xmlns:xlink="http://www.w3.org/1999/xlink">
<path d="M13.5,1.8C10.583,1.8 7.785,2.959 5.722,5.022C3.659,7.085 2.5,9.883 2.5,12.8C2.5,15.718 3.659,18.516 5.722,20.578C7.785,22.641 10.583,23.8 13.5,23.8C16.417,23.8 19.215,22.641 21.278,20.578C23.341,18.516 24.5,15.718 24.5,12.8C24.5,9.883 23.341,7.085 21.278,5.022C19.215,2.959 16.417,1.8 13.5,1.8ZM0.5,12.8C0.5,5.62 6.32,-0.2 13.5,-0.2C20.68,-0.2 26.5,5.62 26.5,12.8C26.5,19.98 20.68,25.8 13.5,25.8C6.32,25.8 0.5,19.98 0.5,12.8ZM12.5,5.467L14.5,5.467L14.5,12.387L18.873,16.76L17.46,18.174L12.5,13.214L12.5,5.467Z" clip-rule="evenodd" fill-rule="evenodd" fill="#000000"/>
</svg>
