<svg width="28" height="26" viewBox="0 0 28 26" fill="none" xmlns="http://www.w3.org/2000/svg" xmlns:xlink="http://www.w3.org/1999/xlink">
<path d="M13.6,-0.82L26.6,7.126L26.6,9.352L22.6,9.352L22.6,22.019L25.6,22.019L25.6,24.019L1.6,24.019L1.6,22.019L4.6,22.019L4.6,9.352L0.6,9.352L0.6,7.126L13.6,-0.82ZM6.6,9.354L6.6,22.02L9.933,22.02L9.933,9.354L6.6,9.354ZM11.933,9.354L11.933,22.02L15.266,22.02L15.266,9.354L11.933,9.354ZM17.266,9.354L17.266,22.02L20.6,22.02L20.6,9.354L17.266,9.354ZM4.062,7.354L23.137,7.354L13.6,1.523L4.062,7.354Z" clip-rule="evenodd" fill-rule="evenodd" fill="#000000"/>
</svg>
