<svg width="34" height="30" viewBox="0 0 34 30" fill="none" xmlns="http://www.w3.org/2000/svg" xmlns:xlink="http://www.w3.org/1999/xlink">
<path d="M21.071,1.769L21.065,1.835L21.06,1.902L21.05,2.022C21.045,2.087 21.036,2.152 21.023,2.215L19.306,10.577L30.581,10.577C30.645,10.577 30.707,10.591 30.764,10.617C30.822,10.643 30.873,10.681 30.915,10.729C30.956,10.776 30.987,10.832 31.006,10.892C31.024,10.953 31.029,11.016 31.021,11.079L28.836,25.301L28.836,25.304C28.819,25.41 28.765,25.506 28.684,25.575C28.602,25.644 28.498,25.682 28.391,25.682L9.686,25.682L9.686,12.515L18.393,4.154L20.105,2.549C20.215,2.459 20.328,2.354 20.405,2.28L20.441,2.247C20.558,2.137 20.661,2.044 20.766,1.96C20.858,1.881 20.96,1.817 21.071,1.769ZM22.225,-0.715C22.635,-0.553 22.908,-0.316 23.075,-0.158C23.441,0.185 23.591,0.617 23.656,0.872C23.73,1.159 23.753,1.442 23.753,1.669L23.753,1.732L23.748,1.795C23.732,1.951 23.719,2.106 23.708,2.262C23.692,2.426 23.668,2.589 23.636,2.75L22.578,7.909L30.581,7.909C31.027,7.909 31.468,8.004 31.873,8.189C32.279,8.374 32.64,8.644 32.932,8.981C33.224,9.317 33.441,9.713 33.567,10.14C33.693,10.568 33.726,11.018 33.663,11.459L33.66,11.474L31.473,25.704C31.36,26.444 30.984,27.119 30.414,27.605C29.845,28.091 29.119,28.356 28.37,28.351L7.02,28.351L7.02,11.379L16.561,2.212L18.363,0.525L18.413,0.487L18.466,0.439C18.5,0.41 18.53,0.38 18.571,0.342L18.621,0.295C18.743,0.182 18.913,0.024 19.108,-0.131C19.471,-0.418 20.091,-0.84 20.888,-0.895C21.371,-0.928 21.816,-0.878 22.225,-0.715ZM1.32,10.689C1.495,10.689 1.668,10.723 1.83,10.79C1.992,10.857 2.139,10.956 2.262,11.079C2.386,11.203 2.484,11.35 2.552,11.512C2.619,11.674 2.653,11.847 2.653,12.022L2.653,28.906L-0.014,28.906L-0.014,12.022C-0.014,11.847 0.021,11.674 0.088,11.512C0.155,11.35 0.253,11.203 0.377,11.079C0.501,10.956 0.648,10.857 0.809,10.79C0.971,10.723 1.145,10.689 1.32,10.689Z" clip-rule="evenodd" fill-rule="evenodd" fill="#000000"/>
</svg>
