<svg width="32" height="38" viewBox="0 0 32 38" fill="none" xmlns="http://www.w3.org/2000/svg" xmlns:xlink="http://www.w3.org/1999/xlink">
<path d="M4.16,11.3L3.6,11.3C2.672,11.3 1.782,11.669 1.125,12.325C0.469,12.982 0.1,13.872 0.1,14.8L0.1,32.8C0.1,34.732 1.668,36.3 3.6,36.3L27.6,36.3C28.528,36.3 29.418,35.931 30.075,35.275C30.731,34.618 31.1,33.728 31.1,32.8L31.1,14.8C31.1,13.872 30.731,12.982 30.075,12.325C29.418,11.669 28.528,11.3 27.6,11.3L27.04,11.3C26.826,8.564 26.012,5.846 24.44,3.672C22.54,1.04 19.596,-0.7 15.6,-0.7C11.604,-0.7 8.66,1.04 6.76,3.672C5.188,5.846 4.374,8.564 4.16,11.3ZM7.17,11.3L24.03,11.3C23.822,9.078 23.15,7.006 22.01,5.428C20.658,3.56 18.606,2.3 15.6,2.3C12.594,2.3 10.54,3.56 9.192,5.428C8.052,7.006 7.376,9.078 7.17,11.3ZM3.6,14.3C3.467,14.3 3.34,14.353 3.246,14.446C3.153,14.54 3.1,14.667 3.1,14.8L3.1,32.8C3.1,33.076 3.324,33.3 3.6,33.3L27.6,33.3C27.733,33.3 27.86,33.247 27.954,33.154C28.047,33.06 28.1,32.933 28.1,32.8L28.1,14.8C28.1,14.667 28.047,14.54 27.954,14.446C27.86,14.353 27.733,14.3 27.6,14.3L3.6,14.3ZM14.1,27.8L14.1,19.8L17.1,19.8L17.1,27.8L14.1,27.8Z" clip-rule="evenodd" fill-rule="evenodd" fill="#757575"/>
</svg>
