<svg width="28" height="28" viewBox="0 0 28 28" fill="none" xmlns="http://www.w3.org/2000/svg" xmlns:xlink="http://www.w3.org/1999/xlink">
<path d="M13.1,2.6C10.182,2.6 7.384,3.759 5.321,5.822C3.259,7.885 2.1,10.683 2.1,13.6C2.1,16.517 3.259,19.315 5.321,21.378C7.384,23.441 10.182,24.6 13.1,24.6C16.017,24.6 18.815,23.441 20.878,21.378C22.941,19.315 24.1,16.517 24.1,13.6C24.1,10.683 22.941,7.885 20.878,5.822C18.815,3.759 16.017,2.6 13.1,2.6ZM0.1,13.6C0.1,6.42 5.92,0.6 13.1,0.6C20.28,0.6 26.1,6.42 26.1,13.6C26.1,20.78 20.28,26.6 13.1,26.6C5.92,26.6 0.1,20.78 0.1,13.6ZM12.1,6.267L14.1,6.267L14.1,13.187L18.473,17.56L17.06,18.973L12.1,14.013L12.1,6.267Z" clip-rule="evenodd" fill-rule="evenodd" fill="#000000"/>
</svg>
