<svg width="30" height="30" viewBox="0 0 30 30" fill="none" xmlns="http://www.w3.org/2000/svg" xmlns:xlink="http://www.w3.org/1999/xlink">
<path d="M14,1.525C10.718,1.525 7.57,2.829 5.25,5.15C2.929,7.47 1.625,10.618 1.625,13.9C1.625,17.182 2.929,20.33 5.25,22.65C7.57,24.971 10.718,26.275 14,26.275C17.282,26.275 20.43,24.971 22.75,22.65C25.071,20.33 26.375,17.182 26.375,13.9C26.375,10.618 25.071,7.47 22.75,5.15C20.43,2.829 17.282,1.525 14,1.525ZM-0.625,13.9C-0.625,5.823 5.923,-0.725 14,-0.725C22.077,-0.725 28.625,5.823 28.625,13.9C28.625,21.977 22.077,28.525 14,28.525C5.923,28.525 -0.625,21.977 -0.625,13.9ZM12.875,5.65L15.125,5.65L15.125,13.435L20.045,18.355L18.455,19.945L12.875,14.365L12.875,5.65Z" clip-rule="evenodd" fill-rule="evenodd" fill="#000000"/>
</svg>
