<svg width="36" height="36" viewBox="0 0 36 36" fill="none" xmlns="http://www.w3.org/2000/svg" xmlns:xlink="http://www.w3.org/1999/xlink">
<path d="M13.687,35.043L0.971,21.893L4.087,18.777L9.737,19.777C9.871,19.777 10.571,19.777 10.954,19.426L14.537,15.96C14.571,15.877 14.604,15.743 14.604,15.693C14.604,15.66 14.487,15.526 14.171,15.376L2.171,9.843L6.737,5.376L21.454,8.027C21.787,8.06 22.271,8.06 22.487,8.027L27.837,2.626C29.271,1.326 32.137,-0.29 34.104,1.66C36.054,3.61 34.504,6.46 33.287,7.843L28.021,13.227C27.987,13.327 27.937,13.626 28.037,14.243L30.571,28.96L26.071,33.01L20.587,21.61C20.507,21.51 20.404,21.43 20.287,21.376L16.137,25.26C16.137,25.26 16.121,25.51 16.154,25.76L17.071,31.793L13.671,35.043L13.687,35.043ZM4.471,21.926L13.754,31.51L14.421,30.876L13.704,26.126C13.437,24.393 14.121,23.626 14.554,23.326L18.587,19.593C19.337,18.893 20.104,18.827 20.587,18.877C21.804,19.01 22.554,20.027 22.704,20.226L22.804,20.393L26.887,28.893L27.871,27.993L25.571,14.643C25.221,12.61 25.887,11.727 26.304,11.377L31.454,6.126C31.871,5.643 32.937,4.026 32.337,3.41C31.737,2.81 30.071,3.943 29.571,4.41L24.121,9.893C23.337,10.643 21.871,10.593 21.071,10.477L7.571,8.06L6.521,9.093L15.204,13.093C16.421,13.643 16.854,14.46 17.004,15.043C17.337,16.293 16.621,17.343 16.537,17.46L16.387,17.643L12.654,21.26C11.354,22.443 9.571,22.293 9.387,22.26L4.937,21.476L4.487,21.926L4.471,21.926Z" fill="#333333"/>
</svg>
