<svg width="28" height="26" viewBox="0 0 28 26" fill="none" xmlns="http://www.w3.org/2000/svg" xmlns:xlink="http://www.w3.org/1999/xlink">
<path d="M10.41,2.396L10.41,0.412L8.583,0.412L8.583,2.592L8.598,2.592L8.598,9.285L7.603,9.285L7.603,6.808L7.59,6.808L7.59,4.996L5.763,4.996L5.763,6.807L4.873,6.807L4.873,4.996L3.046,4.996L3.046,6.807L2.173,6.807L2.173,4.996L0.346,4.996L0.346,6.807L0.319,6.807L0.319,24.388L11.426,24.388L11.426,16.575C11.43,16.565 11.443,16.524 11.494,16.477C11.555,16.421 11.75,16.28 12.262,16.28L14.963,16.28C15.089,16.301 15.208,16.351 15.31,16.427C15.363,16.469 15.404,16.519 15.433,16.576C15.459,16.631 15.49,16.723 15.49,16.869L15.49,24.39L26.882,24.39L26.882,6.805L26.862,6.805L26.862,4.996L25.035,4.996L25.035,6.807L24.061,6.807L24.061,4.996L22.234,4.996L22.234,6.807L21.321,6.807L21.321,4.996L19.494,4.996L19.494,6.807L19.485,6.807L19.485,9.287L18.197,9.287L18.197,2.396L18.183,2.396L18.183,0.412L16.357,0.412L16.357,2.396L15.541,2.396L15.541,0.412L13.714,0.412L13.714,2.396L13.085,2.396L13.085,0.412L11.258,0.412L11.258,2.396L10.41,2.396ZM10.425,4.223L10.425,11.112L5.777,11.112L5.777,8.632L2.145,8.632L2.145,22.563L9.598,22.563L9.598,16.519C9.609,16.085 9.801,15.555 10.251,15.136C10.719,14.704 11.394,14.453 12.261,14.453L15.045,14.453L15.081,14.456C15.459,14.487 15.991,14.635 16.45,15C16.943,15.396 17.315,16.019 17.315,16.869L17.315,22.563L25.054,22.563L25.054,8.633L21.31,8.633L21.31,11.113L16.369,11.113L16.369,4.221L10.425,4.223Z" clip-rule="evenodd" fill-rule="evenodd" fill="#000000"/>
</svg>
