<svg width="34" height="30" viewBox="0 0 34 30" fill="none" xmlns="http://www.w3.org/2000/svg" xmlns:xlink="http://www.w3.org/1999/xlink">
<path d="M20.411,1.769L20.405,1.835L20.4,1.902L20.39,2.022C20.384,2.087 20.376,2.152 20.363,2.215L18.646,10.577L29.921,10.577C29.984,10.577 30.047,10.591 30.104,10.617C30.162,10.643 30.213,10.681 30.254,10.729C30.296,10.776 30.327,10.832 30.345,10.892C30.364,10.953 30.369,11.016 30.361,11.079L28.176,25.301L28.176,25.304C28.159,25.41 28.105,25.506 28.023,25.575C27.942,25.644 27.838,25.682 27.731,25.682L9.026,25.682L9.026,12.515L17.733,4.154L19.445,2.549C19.555,2.459 19.668,2.354 19.745,2.28L19.781,2.247C19.898,2.137 20.001,2.044 20.106,1.96C20.197,1.881 20.3,1.817 20.411,1.769ZM21.565,-0.715C21.975,-0.553 22.248,-0.316 22.415,-0.158C22.781,0.185 22.931,0.617 22.996,0.872C23.07,1.159 23.093,1.442 23.093,1.669L23.093,1.732L23.088,1.795C23.072,1.951 23.059,2.106 23.048,2.262C23.032,2.426 23.008,2.589 22.976,2.75L21.918,7.909L29.921,7.909C30.367,7.909 30.808,8.004 31.213,8.189C31.619,8.374 31.98,8.644 32.272,8.981C32.564,9.317 32.781,9.713 32.907,10.14C33.033,10.568 33.066,11.018 33.003,11.459L33,11.474L30.813,25.704C30.7,26.444 30.324,27.119 29.754,27.605C29.184,28.091 28.459,28.356 27.71,28.351L6.36,28.351L6.36,11.379L15.901,2.212L17.703,0.525L17.753,0.487L17.806,0.439C17.84,0.41 17.87,0.38 17.911,0.342L17.961,0.295C18.083,0.182 18.253,0.024 18.448,-0.131C18.811,-0.418 19.431,-0.84 20.228,-0.895C20.711,-0.928 21.156,-0.878 21.565,-0.715ZM0.66,10.689C0.835,10.689 1.008,10.723 1.17,10.79C1.332,10.857 1.479,10.956 1.602,11.079C1.726,11.203 1.824,11.35 1.891,11.512C1.958,11.674 1.993,11.847 1.993,12.022L1.993,28.906L-0.674,28.906L-0.674,12.022C-0.674,11.847 -0.639,11.674 -0.572,11.512C-0.505,11.35 -0.407,11.203 -0.283,11.079C-0.159,10.956 -0.013,10.857 0.149,10.79C0.311,10.723 0.484,10.689 0.66,10.689Z" clip-rule="evenodd" fill-rule="evenodd" fill="#000000"/>
</svg>
