<svg width="36" height="38" viewBox="0 0 36 38" fill="none" xmlns="http://www.w3.org/2000/svg" xmlns:xlink="http://www.w3.org/1999/xlink">
<path d="M10.014,-0.5C10.211,-0.499 10.406,-0.46 10.588,-0.384C10.77,-0.308 10.935,-0.197 11.074,-0.058C11.213,0.082 11.323,0.247 11.398,0.43C11.472,0.612 11.511,0.807 11.51,1.004L11.506,2.5L16.53,2.5L16.53,1C16.53,0.602 16.688,0.221 16.97,-0.061C17.251,-0.342 17.632,-0.5 18.03,-0.5C18.428,-0.5 18.81,-0.342 19.091,-0.061C19.372,0.221 19.53,0.602 19.53,1L19.53,2.5L24.474,2.5L24.47,1.004C24.47,0.807 24.508,0.612 24.583,0.43C24.658,0.247 24.768,0.082 24.907,-0.058C25.046,-0.197 25.211,-0.308 25.392,-0.384C25.574,-0.46 25.769,-0.499 25.966,-0.5C26.163,-0.501 26.358,-0.462 26.541,-0.387C26.723,-0.312 26.888,-0.202 27.028,-0.063C27.168,0.075 27.279,0.24 27.354,0.422C27.43,0.604 27.47,0.799 27.47,0.996L27.474,2.5L35.51,2.5L35.51,36.5L0.49,36.5L0.49,2.5L8.506,2.5L8.51,0.996C8.511,0.799 8.55,0.604 8.626,0.422C8.702,0.24 8.813,0.075 8.952,-0.063C9.092,-0.202 9.258,-0.312 9.44,-0.387C9.622,-0.462 9.817,-0.501 10.014,-0.5ZM8.498,5.5L3.49,5.5L3.49,33.5L32.51,33.5L32.51,5.5L27.484,5.5L27.496,8.994L24.496,9.004L24.484,5.5L19.53,5.5L19.53,9L16.53,9L16.53,5.5L11.498,5.5L11.49,9.004L8.49,8.996L8.498,5.5ZM8.49,17.5L19.49,17.5L19.49,28.5L8.49,28.5L8.49,17.5ZM11.49,20.5L11.49,25.5L16.49,25.5L16.49,20.5L11.49,20.5Z" clip-rule="evenodd" fill-rule="evenodd" fill="#2C2C2C"/>
</svg>
