<svg width="28" height="26" viewBox="0 0 28 26" fill="none" xmlns="http://www.w3.org/2000/svg" xmlns:xlink="http://www.w3.org/1999/xlink">
<path d="M13.6,-0.82L26.6,7.125L26.6,9.352L22.6,9.352L22.6,22.019L25.6,22.019L25.6,24.019L1.6,24.019L1.6,22.019L4.6,22.019L4.6,9.352L0.6,9.352L0.6,7.125L13.6,-0.82ZM6.6,9.353L6.6,22.02L9.933,22.02L9.933,9.353L6.6,9.353ZM11.933,9.353L11.933,22.02L15.266,22.02L15.266,9.353L11.933,9.353ZM17.266,9.353L17.266,22.02L20.6,22.02L20.6,9.353L17.266,9.353ZM4.062,7.353L23.137,7.353L13.6,1.523L4.062,7.353Z" clip-rule="evenodd" fill-rule="evenodd" fill="#000000"/>
</svg>
