<svg width="34" height="30" viewBox="0 0 34 30" fill="none" xmlns="http://www.w3.org/2000/svg" xmlns:xlink="http://www.w3.org/1999/xlink">
<path d="M12.539,1.917C12.046,1.917 11.559,2.014 11.104,2.202C10.649,2.391 10.235,2.667 9.887,3.015C9.539,3.363 9.263,3.777 9.074,4.232C8.886,4.687 8.789,5.174 8.789,5.667C8.789,6.159 8.886,6.647 9.074,7.102C9.263,7.557 9.539,7.97 9.887,8.318C10.235,8.666 10.649,8.943 11.104,9.131C11.559,9.32 12.046,9.417 12.539,9.417C13.533,9.417 14.487,9.022 15.19,8.318C15.894,7.615 16.289,6.661 16.289,5.667C16.289,4.672 15.894,3.718 15.19,3.015C14.487,2.312 13.533,1.917 12.539,1.917ZM6.289,5.667C6.289,4.009 6.947,2.419 8.119,1.247C9.291,0.075 10.881,-0.583 12.539,-0.583C14.196,-0.583 15.786,0.075 16.958,1.247C18.13,2.419 18.789,4.009 18.789,5.667C18.789,7.324 18.13,8.914 16.958,10.086C15.786,11.258 14.196,11.917 12.539,11.917C10.881,11.917 9.291,11.258 8.119,10.086C6.947,8.914 6.289,7.324 6.289,5.667ZM26.289,4.417L26.289,0.667L28.789,0.667L28.789,4.417L32.539,4.417L32.539,6.917L28.789,6.917L28.789,10.667L26.289,10.667L26.289,6.917L22.539,6.917L22.539,4.417L26.289,4.417ZM-0.086,20.132C2.819,16.662 7.4,14.417 12.564,14.417C17.7,14.417 22.264,16.637 25.16,20.073L25.455,20.423L25.455,28.583L-0.378,28.583L-0.378,20.48L-0.086,20.132ZM2.122,21.4L2.122,26.083L22.955,26.083L22.955,21.35C20.53,18.675 16.805,16.917 12.565,16.917C8.299,16.917 4.557,18.697 2.122,21.4Z" clip-rule="evenodd" fill-rule="evenodd" fill="#000000"/>
</svg>
