<svg width="40" height="40" viewBox="0 0 40 40" fill="none" xmlns="http://www.w3.org/2000/svg" xmlns:xlink="http://www.w3.org/1999/xlink">
<path d="M20,3.5C15.624,3.5 11.427,5.238 8.333,8.333C5.238,11.427 3.5,15.624 3.5,20C3.5,24.376 5.238,28.573 8.333,31.667C11.427,34.762 15.624,36.5 20,36.5C24.376,36.5 28.573,34.762 31.667,31.667C34.762,28.573 36.5,24.376 36.5,20C36.5,15.624 34.762,11.427 31.667,8.333C28.573,5.238 24.376,3.5 20,3.5ZM0.5,20C0.5,9.23 9.23,0.5 20,0.5C30.77,0.5 39.5,9.23 39.5,20C39.5,30.77 30.77,39.5 20,39.5C9.23,39.5 0.5,30.77 0.5,20ZM18.5,9L21.5,9L21.5,19.38L28.06,25.94L25.94,28.06L18.5,20.62L18.5,9Z" clip-rule="evenodd" fill-rule="evenodd" fill="#2C2C2C"/>
</svg>
