<svg width="26" height="28" viewBox="0 0 26 28" fill="none" xmlns="http://www.w3.org/2000/svg" xmlns:xlink="http://www.w3.org/1999/xlink">
<path d="M12.119,2.2C9.202,2.2 6.404,3.359 4.341,5.422C2.278,7.485 1.119,10.283 1.119,13.2C1.119,16.118 2.278,18.915 4.341,20.978C6.404,23.041 9.202,24.2 12.119,24.2C15.037,24.2 17.834,23.041 19.897,20.978C21.96,18.915 23.119,16.118 23.119,13.2C23.119,10.283 21.96,7.485 19.897,5.422C17.834,3.359 15.037,2.2 12.119,2.2ZM-0.881,13.2C-0.881,6.02 4.939,0.2 12.119,0.2C19.299,0.2 25.119,6.02 25.119,13.2C25.119,20.38 19.299,26.2 12.119,26.2C4.939,26.2 -0.881,20.38 -0.881,13.2ZM11.119,5.867L13.119,5.867L13.119,12.787L17.492,17.16L16.079,18.574L11.119,13.614L11.119,5.867Z" clip-rule="evenodd" fill-rule="evenodd" fill="#000000"/>
</svg>
