<svg width="28" height="26" viewBox="0 0 28 26" fill="none" xmlns="http://www.w3.org/2000/svg" xmlns:xlink="http://www.w3.org/1999/xlink">
<path d="M13.88,1C10.963,1 8.165,2.159 6.102,4.222C4.039,6.285 2.88,9.083 2.88,12C2.88,14.917 4.039,17.715 6.102,19.778C8.165,21.841 10.963,23 13.88,23C16.797,23 19.595,21.841 21.658,19.778C23.721,17.715 24.88,14.917 24.88,12C24.88,9.083 23.721,6.285 21.658,4.222C19.595,2.159 16.797,1 13.88,1ZM0.88,12C0.88,4.82 6.7,-1 13.88,-1C21.06,-1 26.88,4.82 26.88,12C26.88,19.18 21.06,25 13.88,25C6.7,25 0.88,19.18 0.88,12ZM12.88,4.667L14.88,4.667L14.88,11.587L19.253,15.96L17.84,17.373L12.88,12.413L12.88,4.667Z" clip-rule="evenodd" fill-rule="evenodd" fill="#000000"/>
</svg>
