<svg width="36" height="34" viewBox="0 0 36 34" fill="none" xmlns="http://www.w3.org/2000/svg" xmlns:xlink="http://www.w3.org/1999/xlink">
<path d="M20.63,5.352L25.083,0.9L26.85,2.667L22.398,7.12C21.266,8.252 20.64,9.557 20.531,10.785C20.46,11.618 20.621,12.457 21.076,13.238L29.25,5.067L31.016,6.833L22.84,15.01C23.628,15.478 24.463,15.655 25.283,15.6C26.48,15.522 27.728,14.943 28.776,13.895C30.198,12.472 31.617,11.046 33.033,9.617L33.41,9.237L35.188,10.995L34.81,11.378C33.39,12.809 31.968,14.237 30.543,15.662C29.128,17.077 27.331,17.968 25.448,18.093C23.873,18.198 22.311,17.745 21.036,16.813L18.985,18.867L31.851,31.733L30.083,33.5L20.133,23.55L15.133,28.55L12.216,25.633L4.35,33.5L2.583,31.733L10.45,23.867L3.13,16.548C2.394,15.813 1.811,14.94 1.413,13.98C1.015,13.019 0.811,11.99 0.811,10.95C0.811,9.91 1.015,8.881 1.413,7.92C1.811,6.96 2.394,6.087 3.13,5.352L4.3,4.182L17.216,17.098L19.271,15.045C18.335,13.75 17.898,12.16 18.043,10.568C18.21,8.657 19.158,6.825 20.63,5.352ZM18.366,21.783L4.346,7.763C3.587,8.807 3.226,10.087 3.326,11.373C3.427,12.66 3.984,13.868 4.896,14.78L15.133,25.015L18.366,21.783Z" clip-rule="evenodd" fill-rule="evenodd" fill="#FFFFFF"/>
</svg>
