<svg width="38" height="40" viewBox="0 0 38 40" fill="none" xmlns="http://www.w3.org/2000/svg" xmlns:xlink="http://www.w3.org/1999/xlink">
<path d="M15.013,3.632C11.836,3.632 8.789,4.894 6.542,7.141C4.295,9.387 3.033,12.435 3.033,15.612C3.033,18.789 4.295,21.836 6.542,24.083C8.789,26.33 11.836,27.592 15.013,27.592C18.191,27.592 21.238,26.33 23.484,24.083C25.731,21.836 26.993,18.789 26.993,15.612C26.993,12.435 25.731,9.387 23.484,7.141C21.238,4.894 18.191,3.632 15.013,3.632ZM0.033,15.612C0.033,13.213 0.609,10.85 1.713,8.72C2.816,6.59 4.415,4.756 6.375,3.373C8.335,1.99 10.598,1.097 12.974,0.771C15.351,0.445 17.771,0.694 20.031,1.497C22.291,2.301 24.325,3.635 25.962,5.388C27.6,7.142 28.792,9.263 29.438,11.572C30.085,13.882 30.168,16.314 29.679,18.662C29.191,21.011 28.145,23.208 26.631,25.068L37.513,35.952L35.393,38.074L24.513,27.194C22.319,28.993 19.66,30.133 16.844,30.479C14.028,30.826 11.171,30.366 8.607,29.153C6.042,27.939 3.875,26.022 2.357,23.625C0.839,21.228 0.033,18.449 0.033,15.612Z" clip-rule="evenodd" fill-rule="evenodd" fill="#000000"/>
</svg>
