<svg width="60" height="48" viewBox="0 0 60 48" fill="none" xmlns="http://www.w3.org/2000/svg" xmlns:xlink="http://www.w3.org/1999/xlink">
<path d="M53.306,47.769C52.109,47.794 50.932,47.451 49.935,46.788C49.193,46.303 48.326,46.044 47.439,46.044C46.553,46.044 45.686,46.303 44.943,46.788C43.936,47.429 42.767,47.77 41.573,47.77C40.379,47.77 39.21,47.429 38.202,46.788C37.46,46.302 36.593,46.044 35.706,46.044C34.819,46.044 33.952,46.302 33.209,46.788C32.202,47.429 31.033,47.77 29.839,47.77C28.645,47.77 27.476,47.429 26.469,46.788C25.727,46.303 24.86,46.044 23.974,46.044C23.088,46.044 22.221,46.303 21.479,46.788C20.566,47.395 19.5,47.732 18.404,47.761L18.344,46.035C19.153,46.016 19.94,45.76 20.605,45.298C21.612,44.657 22.781,44.317 23.975,44.317C25.168,44.317 26.337,44.657 27.344,45.298C28.086,45.784 28.954,46.042 29.84,46.042C30.727,46.042 31.594,45.784 32.336,45.298C33.344,44.657 34.513,44.316 35.708,44.316C36.902,44.316 38.072,44.657 39.079,45.298C39.821,45.784 40.688,46.042 41.575,46.042C42.462,46.042 43.329,45.784 44.071,45.298C45.078,44.657 46.248,44.317 47.442,44.317C48.636,44.317 49.805,44.657 50.812,45.298C51.556,45.785 52.425,46.044 53.314,46.044C54.203,46.044 55.072,45.785 55.816,45.298C56.812,44.637 57.986,44.295 59.182,44.318L59.182,46.044C58.292,46.02 57.417,46.28 56.685,46.787C55.685,47.451 54.506,47.794 53.306,47.769L53.306,47.769Z" fill="#FFFFFF"/>
<path d="M6.379,47.768C5.181,47.793 4.005,47.451 3.009,46.787C2.277,46.279 1.402,46.019 0.512,46.043L0.512,44.317C1.709,44.293 2.886,44.635 3.883,45.299C4.614,45.807 5.489,46.067 6.379,46.043C7.269,46.067 8.144,45.807 8.876,45.298C9.87,44.635 11.045,44.292 12.24,44.317C13.407,44.291 14.554,44.618 15.532,45.255L14.661,46.744C13.947,46.264 13.101,46.019 12.24,46.043C11.354,46.019 10.482,46.279 9.754,46.785C8.756,47.451 7.578,47.794 6.379,47.768L6.379,47.768Z" fill="#FFFFFF"/>
<path d="M53.308,41.732C52.11,41.756 50.933,41.414 49.935,40.75C49.192,40.264 48.324,40.006 47.436,40.006C46.549,40.006 45.681,40.264 44.938,40.75C43.931,41.391 42.762,41.731 41.568,41.731C40.374,41.731 39.205,41.391 38.198,40.75C37.456,40.265 36.589,40.006 35.703,40.006C34.817,40.006 33.95,40.265 33.208,40.75C32.201,41.391 31.032,41.732 29.838,41.732C28.644,41.732 27.475,41.391 26.468,40.75C25.726,40.265 24.859,40.006 23.973,40.006C23.086,40.006 22.219,40.265 21.477,40.75C20.481,41.414 19.305,41.757 18.107,41.732C16.91,41.757 15.734,41.414 14.737,40.75C14.006,40.242 13.132,39.982 12.242,40.006C11.353,39.982 10.479,40.243 9.748,40.75C8.753,41.413 7.579,41.756 6.383,41.732C5.185,41.757 4.009,41.414 3.012,40.75C2.279,40.241 1.403,39.981 0.512,40.006L0.512,38.281C1.709,38.256 2.885,38.599 3.882,39.262C4.614,39.77 5.488,40.03 6.379,40.006C7.268,40.03 8.142,39.77 8.873,39.262C9.868,38.599 11.042,38.257 12.238,38.281C13.436,38.255 14.613,38.598 15.61,39.262C16.342,39.77 17.216,40.031 18.106,40.006C18.996,40.031 19.871,39.77 20.603,39.262C21.61,38.621 22.779,38.28 23.973,38.28C25.166,38.28 26.336,38.621 27.343,39.262C28.084,39.748 28.952,40.006 29.838,40.006C30.725,40.006 31.592,39.748 32.334,39.262C33.341,38.621 34.51,38.28 35.704,38.28C36.898,38.28 38.067,38.621 39.074,39.262C39.816,39.748 40.683,40.006 41.569,40.006C42.456,40.006 43.323,39.748 44.065,39.262C45.073,38.621 46.243,38.281 47.438,38.281C48.632,38.281 49.802,38.621 50.81,39.262C51.553,39.747 52.422,40.006 53.309,40.006C54.197,40.006 55.065,39.747 55.808,39.262C56.806,38.599 57.983,38.256 59.181,38.281L59.181,40.006C58.289,39.981 57.412,40.242 56.679,40.75C55.682,41.413 54.505,41.756 53.308,41.732L53.308,41.732Z" fill="#FFFFFF"/>
<path d="M53.306,35.693C52.109,35.717 50.933,35.375 49.936,34.711C49.204,34.203 48.329,33.943 47.439,33.967C46.785,33.945 46.137,34.084 45.55,34.373L44.789,32.82C45.613,32.416 46.522,32.217 47.439,32.239C48.638,32.215 49.815,32.558 50.813,33.223C51.557,33.71 52.426,33.969 53.315,33.969C54.204,33.969 55.073,33.71 55.817,33.223C56.813,32.561 57.987,32.219 59.182,32.242L59.182,33.967C58.292,33.943 57.417,34.203 56.685,34.71C55.686,35.375 54.507,35.718 53.306,35.693Z" fill="#FFFFFF"/>
<path d="M41.563,35.691C40.367,35.716 39.193,35.374 38.198,34.71C37.456,34.225 36.588,33.966 35.702,33.966C34.815,33.966 33.947,34.225 33.205,34.71C32.198,35.351 31.029,35.692 29.835,35.692C28.641,35.692 27.471,35.351 26.464,34.71C25.722,34.225 24.855,33.967 23.968,33.967C23.082,33.967 22.214,34.225 21.472,34.71C20.476,35.373 19.3,35.715 18.104,35.691C16.907,35.716 15.73,35.373 14.734,34.709C14.002,34.202 13.127,33.941 12.237,33.966C11.35,33.942 10.479,34.202 9.75,34.708C8.754,35.373 7.577,35.716 6.379,35.691C5.181,35.716 4.005,35.373 3.009,34.709C2.277,34.202 1.402,33.941 0.512,33.966L0.512,32.24C1.709,32.215 2.886,32.558 3.883,33.222C4.614,33.729 5.489,33.99 6.379,33.966C7.269,33.99 8.144,33.729 8.876,33.221C9.87,32.557 11.045,32.215 12.24,32.24C13.438,32.215 14.614,32.558 15.61,33.222C16.342,33.729 17.216,33.99 18.106,33.966C18.997,33.99 19.871,33.729 20.603,33.222C21.611,32.581 22.78,32.24 23.974,32.24C25.168,32.24 26.337,32.581 27.344,33.222C28.086,33.707 28.954,33.965 29.84,33.965C30.727,33.965 31.594,33.707 32.336,33.222C33.344,32.58 34.513,32.239 35.708,32.239C36.902,32.239 38.072,32.58 39.079,33.222C39.839,33.733 40.741,33.993 41.656,33.965C41.723,33.966 41.789,33.962 41.855,33.954L42.085,35.664C41.912,35.685 41.737,35.694 41.563,35.691L41.563,35.691Z" fill="#FFFFFF"/>
<path d="M53.308,29.653C52.11,29.677 50.933,29.334 49.935,28.671C49.192,28.185 48.324,27.927 47.436,27.927C46.549,27.927 45.681,28.185 44.938,28.671C43.931,29.312 42.762,29.652 41.568,29.652C40.374,29.652 39.205,29.312 38.198,28.671C37.456,28.186 36.589,27.927 35.703,27.927C34.817,27.927 33.95,28.186 33.208,28.671C32.201,29.312 31.032,29.653 29.838,29.653C28.644,29.653 27.475,29.312 26.468,28.671C25.726,28.186 24.859,27.927 23.973,27.927C23.086,27.927 22.219,28.186 21.477,28.671C20.481,29.335 19.305,29.677 18.107,29.653C16.91,29.677 15.734,29.335 14.737,28.671C14.006,28.163 13.132,27.903 12.242,27.927C11.353,27.903 10.479,28.163 9.748,28.671C8.753,29.334 7.579,29.677 6.383,29.653C5.185,29.678 4.009,29.335 3.012,28.671C2.279,28.162 1.403,27.902 0.512,27.927L0.512,26.202C1.709,26.177 2.885,26.519 3.882,27.183C4.614,27.691 5.488,27.951 6.379,27.927C7.268,27.951 8.142,27.691 8.873,27.183C9.868,26.52 11.042,26.177 12.238,26.202C13.436,26.176 14.613,26.519 15.61,27.183C16.342,27.691 17.216,27.951 18.106,27.927C18.996,27.951 19.871,27.691 20.603,27.183C21.61,26.542 22.779,26.201 23.973,26.201C25.166,26.201 26.336,26.542 27.343,27.183C28.084,27.669 28.952,27.927 29.838,27.927C30.725,27.927 31.592,27.669 32.334,27.183C33.341,26.542 34.51,26.201 35.704,26.201C36.898,26.201 38.067,26.542 39.074,27.183C39.816,27.669 40.683,27.927 41.569,27.927C42.456,27.927 43.323,27.669 44.065,27.183C45.073,26.542 46.243,26.202 47.438,26.202C48.632,26.202 49.802,26.542 50.81,27.183C51.553,27.668 52.422,27.927 53.309,27.927C54.197,27.927 55.065,27.668 55.808,27.183C56.806,26.52 57.983,26.177 59.181,26.202L59.181,27.927C58.289,27.902 57.412,28.162 56.679,28.671C55.682,29.334 54.505,29.677 53.308,29.653L53.308,29.653Z" fill="#FFFFFF"/>
<path d="M41.012,28.918L39.384,28.347C39.803,27.143 39.974,25.866 39.887,24.593C39.8,23.32 39.457,22.078 38.877,20.942L32.951,9.337C32.892,9.222 32.86,9.096 32.857,8.967C32.853,8.839 32.879,8.711 32.931,8.593C32.983,8.476 33.061,8.371 33.159,8.288C33.257,8.204 33.373,8.144 33.497,8.111L45.308,4.962C45.692,4.861 46.022,4.612 46.225,4.27C46.427,3.928 46.486,3.519 46.389,3.133C46.292,2.747 46.046,2.416 45.706,2.21C45.365,2.004 44.957,1.941 44.571,2.035L30.276,5.452C29.971,5.524 29.686,5.665 29.444,5.865C29.202,6.065 29.009,6.318 28.88,6.605C28.752,6.891 28.691,7.204 28.702,7.517C28.714,7.831 28.797,8.138 28.947,8.414L33.192,16.3C33.299,16.501 33.323,16.735 33.259,16.954C33.194,17.172 33.046,17.356 32.846,17.465L27.368,20.485L26.535,18.973L31.265,16.366L27.429,9.232C27.155,8.723 27.001,8.158 26.98,7.579C26.959,7.001 27.071,6.426 27.308,5.898C27.545,5.371 27.9,4.904 28.346,4.536C28.792,4.167 29.316,3.906 29.879,3.773L44.167,0.357C44.999,0.147 45.88,0.276 46.617,0.715C47.354,1.155 47.886,1.869 48.096,2.701C48.306,3.532 48.177,4.414 47.737,5.15C47.298,5.887 46.584,6.419 45.752,6.629L34.972,9.502L40.415,20.156C41.1,21.501 41.506,22.97 41.609,24.476C41.711,25.982 41.508,27.493 41.012,28.918L41.012,28.918Z" fill="#FFFFFF"/>
<path d="M24.679,23.433L12.708,23.433L12.708,25.158L24.679,25.158L24.679,23.433Z" transform="rotate(-57.712 18.694 24.295)" fill="#FFFFFF"/>
<path d="M48.826,23.181C47.547,23.181 46.295,22.802 45.231,22.091C44.167,21.38 43.338,20.369 42.848,19.187C42.358,18.005 42.23,16.703 42.48,15.448C42.729,14.193 43.346,13.04 44.251,12.135C45.156,11.23 46.309,10.614 47.564,10.364C48.819,10.114 50.12,10.243 51.303,10.732C52.485,11.222 53.496,12.051 54.207,13.116C54.918,14.18 55.297,15.431 55.297,16.711C55.295,18.426 54.613,20.071 53.4,21.284C52.187,22.497 50.542,23.18 48.826,23.181L48.826,23.181ZM48.826,11.965C47.888,11.965 46.97,12.244 46.19,12.765C45.41,13.286 44.801,14.028 44.442,14.895C44.083,15.762 43.989,16.716 44.172,17.636C44.355,18.557 44.807,19.402 45.471,20.066C46.135,20.73 46.98,21.182 47.901,21.365C48.821,21.548 49.775,21.454 50.642,21.095C51.509,20.736 52.25,20.127 52.772,19.347C53.293,18.567 53.572,17.649 53.572,16.711C53.57,15.453 53.07,14.247 52.18,13.357C51.29,12.467 50.084,11.967 48.826,11.965L48.826,11.965Z" fill="#FFFFFF"/>
</svg>
